<svg width="1em" height="1em" viewBox="0 0 24 24" fill="none" xmlns="http://www.w3.org/2000/svg">
<g id="3d_rotation_24px">
<g id="&#226;&#134;&#179; Dark Color">
<path id="Mask" fill-rule="evenodd" clip-rule="evenodd" d="M11.3501 0.0299988L12.0101 0C18.3 0 23.4501 4.84 23.9501 10.99H22.4501C22.1001 7.23 19.7601 4.06 16.4901 2.50999L15.1602 3.84L11.3501 0.0299988ZM8.42004 14.96C8.2301 14.96 8.05005 14.93 7.90015 14.88C7.74011 14.82 7.61011 14.75 7.50012 14.64C7.39014 14.54 7.30005 14.42 7.24011 14.27C7.18005 14.13 7.15015 13.97 7.15015 13.8H5.8501C5.8501 14.16 5.92004 14.48 6.06006 14.75C6.20007 15.02 6.39014 15.25 6.62012 15.44C6.86011 15.62 7.13013 15.76 7.44006 15.85C7.74011 15.95 8.06006 16 8.40015 16C8.77014 16 9.12012 15.95 9.43005 15.85C9.75012 15.75 10.0302 15.6 10.2601 15.41C10.4901 15.22 10.6801 14.98 10.8101 14.69C10.9401 14.4 11.0101 14.08 11.0101 13.72C11.0101 13.53 10.9901 13.34 10.9401 13.16C10.8901 12.98 10.8201 12.81 10.7101 12.65C10.6101 12.49 10.4701 12.35 10.3101 12.22C10.1401 12.09 9.94006 11.99 9.70007 11.91C9.90015 11.82 10.0701 11.71 10.2201 11.58C10.3701 11.45 10.4901 11.31 10.5901 11.16C10.6901 11.01 10.7601 10.86 10.8101 10.7C10.8601 10.54 10.8801 10.38 10.8801 10.22C10.8801 9.86 10.8201 9.53999 10.7001 9.25999C10.5801 8.98 10.4102 8.75 10.1901 8.57001C9.99011 8.38 9.72009 8.24001 9.42004 8.14C9.11011 8.05 8.77014 8 8.40015 8C8.04004 8 7.71008 8.05 7.40015 8.16C7.1001 8.27 6.83008 8.42 6.61011 8.61C6.40015 8.8 6.2301 9.02 6.1001 9.28C5.9801 9.53999 5.92004 9.82001 5.92004 10.13H7.22009C7.22009 9.96001 7.25012 9.81 7.31006 9.67999C7.37012 9.55 7.45007 9.42999 7.56006 9.34C7.67004 9.25 7.79004 9.17 7.94006 9.12C8.09009 9.07001 8.24011 9.03999 8.42004 9.03999C8.82007 9.03999 9.12012 9.14 9.31006 9.35001C9.50012 9.55 9.6001 9.84 9.6001 10.21C9.6001 10.39 9.57007 10.55 9.52014 10.7C9.47009 10.85 9.38013 10.97 9.27014 11.07C9.16016 11.17 9.02014 11.25 8.86011 11.31C8.70007 11.37 8.50012 11.4 8.28015 11.4H7.51013V12.43H8.28015C8.50012 12.43 8.70007 12.45 8.88013 12.5C9.06006 12.55 9.21008 12.63 9.33008 12.73C9.45007 12.84 9.55005 12.97 9.62012 13.13C9.69006 13.29 9.72009 13.48 9.72009 13.7C9.72009 14.11 9.6001 14.42 9.37012 14.63C9.14014 14.86 8.82007 14.96 8.42004 14.96ZM7.53003 21.48C4.26001 19.94 1.92004 16.76 1.56006 13H0.0600586C0.570068 19.16 5.72009 24 12.01 24L12.67 23.97L8.86011 20.16L7.53003 21.48ZM15.83 8.27C16.27 8.45 16.65 8.71001 16.97 9.03999C17.29 9.37 17.54 9.77 17.71 10.24C17.88 10.71 17.97 11.23 17.97 11.81V12.21C17.97 12.79 17.88 13.31 17.71 13.78C17.54 14.24 17.29 14.64 16.97 14.97C16.65 15.3 16.26 15.55 15.8101 15.73C15.36 15.91 14.85 16 14.3 16H12V8H14.36C14.9 8 15.39 8.09 15.83 8.27ZM16.5801 12.2C16.5801 12.62 16.53 12.99 16.4401 13.33C16.34 13.66 16.2001 13.95 16.01 14.18C15.8201 14.41 15.5801 14.59 15.3 14.71C15.01 14.83 14.6801 14.89 14.3101 14.89H13.4V9.12H14.37C15.09 9.12 15.64 9.34999 16.01 9.81C16.39 10.27 16.5801 10.93 16.5801 11.8V12.2Z" fill="currentColor" fill-opacity="0.54"/>
</g>
</g>
</svg>
