<svg width="1em" height="1em" viewBox="0 0 24 24" fill="none" xmlns="http://www.w3.org/2000/svg">
<g id="accessible_forward_24px">
<g id="&#226;&#134;&#179; Dark Color">
<path id="Mask" d="M18 6.53999C19.1046 6.53999 20 5.64456 20 4.53999C20 3.43542 19.1046 2.53999 18 2.53999C16.8954 2.53999 16 3.43542 16 4.53999C16 5.64456 16.8954 6.53999 18 6.53999Z" fill="currentColor" fill-opacity="0.54"/>
</g>
<g id="&#226;&#134;&#179; Dark Color_2">
<path id="Mask_2" fill-rule="evenodd" clip-rule="evenodd" d="M16.14 13.5H18C19.1 13.5 20 14.4 20 15.5V21H18V16H13.02C11.56 16 10.5699 14.43 11.17 13.1L13 9H10.79L10.14 10.53L8.21997 10L8.88995 8.2C9.21997 7.47 9.94995 7 10.7599 7H15.96C17.4399 7 18.42 8.5 17.81 9.83L16.14 13.5ZM13 17H15C15 19.76 12.76 22 10 22C7.23999 22 5 19.76 5 17C5 14.24 7.23999 12 10 12V14C8.34998 14 7 15.35 7 17C7 18.65 8.34998 20 10 20C11.65 20 13 18.65 13 17Z" fill="currentColor" fill-opacity="0.54"/>
</g>
</g>
</svg>
