<svg width="1em" height="1em" viewBox="0 0 24 24" fill="none" xmlns="http://www.w3.org/2000/svg">
<g id="account_balance_wallet_24px">
<g id="&#226;&#134;&#179; Light Color">
<path id="Mask" opacity="0.5" d="M13 17C11.9 17 11 16.1 11 15V9C11 7.9 11.9 7 13 7H19V5H5V19H19V17H13Z" fill="currentColor" fill-opacity="0.54"/>
</g>
<g id="&#226;&#134;&#179; Dark Color">
<path id="Mask_2" fill-rule="evenodd" clip-rule="evenodd" d="M21 7.28V5C21 3.9 20.1 3 19 3H5C3.89 3 3 3.9 3 5V19C3 20.1 3.89 21 5 21H19C20.1 21 21 20.1 21 19V16.72C21.59 16.37 22 15.74 22 15V9C22 8.26 21.59 7.62 21 7.28ZM20 9V15H13V9H20ZM5 5V19H19V17H13C11.9 17 11 16.1 11 15V9C11 7.9 11.9 7 13 7H19V5H5Z" fill="currentColor" fill-opacity="0.54"/>
</g>
<g id="&#226;&#134;&#179; Dark Color_2">
<path id="Mask_3" d="M16 13.5C16.8284 13.5 17.5 12.8284 17.5 12C17.5 11.1716 16.8284 10.5 16 10.5C15.1716 10.5 14.5 11.1716 14.5 12C14.5 12.8284 15.1716 13.5 16 13.5Z" fill="currentColor" fill-opacity="0.54"/>
</g>
</g>
</svg>
