<svg width="1em" height="1em" viewBox="0 0 24 24" fill="none" xmlns="http://www.w3.org/2000/svg">
<g id="add_comment_24px">
<g id="&#226;&#134;&#179; Dark Color">
<path id="Mask" fill-rule="evenodd" clip-rule="evenodd" d="M4 2H20C21.1 2 22 2.89999 22 4V22L18 18H4C2.90002 18 2 17.1 2 16V4C2 2.89999 2.90002 2 4 2ZM18.83 16L20 17.17V4H4V16H18.83Z" fill="currentColor" fill-opacity="0.54"/>
</g>
<g id="&#226;&#134;&#179; Dark Color_2">
<path id="Mask_2" d="M13 5H11V9H7V11H11V15H13V11H17V9H13V5Z" fill="currentColor" fill-opacity="0.54"/>
</g>
<g id="&#226;&#134;&#179; Light Color">
<path id="Mask_3" opacity="0.5" fill-rule="evenodd" clip-rule="evenodd" d="M4 16V4H20V17.17L18.83 16H4ZM13 11H17V9H13V5H11V9H7V11H11V15H13V11Z" fill="currentColor" fill-opacity="0.54"/>
</g>
</g>
</svg>
