<svg width="1em" height="1em" viewBox="0 0 24 24" fill="none" xmlns="http://www.w3.org/2000/svg">
<g id="add_shopping_cart_24px">
<g id="&#226;&#134;&#179; Dark Color">
<path id="Mask" fill-rule="evenodd" clip-rule="evenodd" d="M13 9H11V6H8V4H11V1H13V4H16V6H13V9ZM5.01001 20C5.01001 18.9 5.90002 18 7 18C8.10004 18 9 18.9 9 20C9 21.1 8.10004 22 7 22C5.90002 22 5.01001 21.1 5.01001 20ZM17 18C15.9 18 15.01 18.9 15.01 20C15.01 21.1 15.9 22 17 22C18.1 22 19 21.1 19 20C19 18.9 18.1 18 17 18ZM15.55 13H8.09998L7 15H19V17H7C5.47998 17 4.52002 15.37 5.25 14.03L6.59998 11.59L3 4H1V2H4.27002L8.53003 11H15.55L19.41 4L21.16 4.96001L17.3 11.97C16.96 12.59 16.3 13 15.55 13Z" fill="currentColor" fill-opacity="0.54"/>
</g>
</g>
</svg>
