<svg width="1em" height="1em" viewBox="0 0 24 24" fill="none" xmlns="http://www.w3.org/2000/svg">
<g id="add_to_photos_24px">
<g id="&#226;&#134;&#179; Light Color">
<path id="Mask" opacity="0.5" fill-rule="evenodd" clip-rule="evenodd" d="M8 4H20V16H8V4ZM15 11H19V9H15V5H13V9H9V11H13V15H15V11Z" fill="currentColor" fill-opacity="0.54"/>
</g>
<g id="&#226;&#134;&#179; Dark Color">
<path id="Mask_2" d="M4 22H18V20H4V6H2V20C2 21.1 2.9 22 4 22Z" fill="currentColor" fill-opacity="0.54"/>
</g>
<g id="&#226;&#134;&#179; Dark Color_2">
<path id="Mask_3" fill-rule="evenodd" clip-rule="evenodd" d="M20 18H8C6.90002 18 6 17.1 6 16V4C6 2.89999 6.90002 2 8 2H20C21.1 2 22 2.89999 22 4V16C22 17.1 21.1 18 20 18ZM20 4H8V16H20V4Z" fill="currentColor" fill-opacity="0.54"/>
</g>
<g id="&#226;&#134;&#179; Dark Color_3">
<path id="Mask_4" d="M15 5H13V9H9V11H13V15H15V11H19V9H15V5Z" fill="currentColor" fill-opacity="0.54"/>
</g>
</g>
</svg>
