<svg width="1em" height="1em" viewBox="0 0 24 24" fill="none" xmlns="http://www.w3.org/2000/svg">
<g id="add_photo_alternate_24px">
<g id="&#226;&#134;&#179; Dark Color">
<path id="Mask" d="M10.21 16.83L8.25 14.47L5.5 18H16.5L12.96 13.29L10.21 16.83Z" fill="currentColor" fill-opacity="0.54"/>
</g>
<g id="&#226;&#134;&#179; Light Color">
<path id="Mask_2" opacity="0.5" fill-rule="evenodd" clip-rule="evenodd" d="M14 7H17V10H18V20H4V6H14V7ZM5.5 18H16.5L12.96 13.29L10.21 16.83L8.25 14.47L5.5 18Z" fill="currentColor" fill-opacity="0.54"/>
</g>
<g id="&#226;&#134;&#179; Dark Color_2">
<path id="Mask_3" d="M20 4V1H18V4H15V6H18V8.99H20V6H23V4H20Z" fill="currentColor" fill-opacity="0.54"/>
</g>
<g id="&#226;&#134;&#179; Dark Color_3">
<path id="Mask_4" d="M18 20H4V6H14V4H4C2.9 4 2 4.9 2 6V20C2 21.1 2.9 22 4 22H18C19.1 22 20 21.1 20 20V10H18V20Z" fill="currentColor" fill-opacity="0.54"/>
</g>
</g>
</svg>
