<svg width="1em" height="1em" viewBox="0 0 24 24" fill="none" xmlns="http://www.w3.org/2000/svg">
<g id="add_a_photo_24px">
<g id="&#226;&#134;&#179; Light Color">
<path id="Mask" opacity="0.5" fill-rule="evenodd" clip-rule="evenodd" d="M6 10V7H9V6H15.12L16.95 8H21V20H5V10H6ZM18 14C18 11.24 15.76 9 13 9C10.24 9 8 11.24 8 14C8 16.76 10.24 19 13 19C15.76 19 18 16.76 18 14Z" fill="currentColor" fill-opacity="0.54"/>
</g>
<g id="&#226;&#134;&#179; Dark Color">
<path id="Mask_2" d="M21 6H17.83L16 4H9V6H15.12L16.95 8H21V20H5V10H3V20C3 21.1 3.9 22 5 22H21C22.1 22 23 21.1 23 20V8C23 6.9 22.1 6 21 6Z" fill="currentColor" fill-opacity="0.54"/>
</g>
<g id="&#226;&#134;&#179; Dark Color_2">
<path id="Mask_3" fill-rule="evenodd" clip-rule="evenodd" d="M13 19C10.24 19 8 16.76 8 14C8 11.24 10.24 9 13 9C15.76 9 18 11.24 18 14C18 16.76 15.76 19 13 19ZM16 14C16 12.35 14.65 11 13 11C11.35 11 10 12.35 10 14C10 15.65 11.35 17 13 17C14.65 17 16 15.65 16 14Z" fill="currentColor" fill-opacity="0.54"/>
</g>
<g id="&#226;&#134;&#179; Dark Color_3">
<path id="Mask_4" d="M5 9V6H8V4H5V1H3V4H0V6H3V9H5Z" fill="currentColor" fill-opacity="0.54"/>
</g>
</g>
</svg>
