<svg width="1em" height="1em" viewBox="0 0 24 24" fill="none" xmlns="http://www.w3.org/2000/svg">
<g id="adjust_24px">
<g id="&#226;&#134;&#179; Dark Color">
<path id="Mask" d="M12 9C10.34 9 9 10.34 9 12C9 13.66 10.34 15 12 15C13.66 15 15 13.66 15 12C15 10.34 13.66 9 12 9Z" fill="currentColor" fill-opacity="0.54"/>
</g>
<g id="&#226;&#134;&#179; Dark Color_2">
<path id="Mask_2" fill-rule="evenodd" clip-rule="evenodd" d="M2 12C2 6.49001 6.48999 2 12 2C17.51 2 22 6.49001 22 12C22 17.51 17.51 22 12 22C6.48999 22 2 17.51 2 12ZM4 12C4 16.41 7.58997 20 12 20C16.41 20 20 16.41 20 12C20 7.59 16.41 4 12 4C7.58997 4 4 7.59 4 12Z" fill="currentColor" fill-opacity="0.54"/>
</g>
</g>
</svg>
