<svg width="1em" height="1em" viewBox="0 0 24 24" fill="none" xmlns="http://www.w3.org/2000/svg">
<g id="alarm_on_24px">
<g id="&#226;&#134;&#179; Light Color">
<path id="Mask" opacity="0.5" fill-rule="evenodd" clip-rule="evenodd" d="M5 13C5 9.14 8.14001 6 12 6C15.86 6 19 9.14 19 13C19 16.86 15.86 20 12 20C8.14001 20 5 16.86 5 13ZM7.34998 13.46L10.53 16.64L16.53 10.64L15.47 9.58L10.5399 14.53L8.41003 12.4L7.34998 13.46Z" fill="currentColor" fill-opacity="0.54"/>
</g>
<g id="&#226;&#134;&#179; Dark Color">
<path id="Mask_2" d="M10.54 14.53L8.40998 12.4L7.34998 13.46L10.53 16.64L16.53 10.64L15.47 9.58L10.54 14.53Z" fill="currentColor" fill-opacity="0.54"/>
</g>
<g id="&#226;&#134;&#179; Dark Color_2">
<path id="Mask_3" d="M16.0564 3.34649L17.3376 1.81069L21.945 5.65429L20.6638 7.19009L16.0564 3.34649Z" fill="currentColor" fill-opacity="0.54"/>
</g>
<g id="&#226;&#134;&#179; Dark Color_3">
<path id="Mask_4" d="M2.05579 5.65364L6.66319 1.81004L7.94439 3.34584L3.33699 7.18944L2.05579 5.65364Z" fill="currentColor" fill-opacity="0.54"/>
</g>
<g id="&#226;&#134;&#179; Dark Color_4">
<path id="Mask_5" fill-rule="evenodd" clip-rule="evenodd" d="M3 13C3 8.03 7.03003 4 12 4C16.97 4 21 8.03 21 13C21 17.97 16.97 22 12 22C7.03003 22 3 17.97 3 13ZM5 13C5 16.86 8.14001 20 12 20C15.86 20 19 16.86 19 13C19 9.14 15.86 6 12 6C8.14001 6 5 9.14 5 13Z" fill="currentColor" fill-opacity="0.54"/>
</g>
</g>
</svg>
