<svg width="1em" height="1em" viewBox="0 0 24 24" fill="none" xmlns="http://www.w3.org/2000/svg">
<g id="alarm_off_24px">
<g id="&#226;&#134;&#179; Dark Color">
<path id="Mask" d="M10.04 6.29C10.66 6.11 11.32 6 12 6C15.86 6 19 9.14 19 13C19 13.68 18.89 14.34 18.71 14.96L20.27 16.52C20.74 15.44 21 14.25 21 13C21 8.03 16.97 4 12 4C10.75 4 9.55997 4.26 8.46997 4.72L10.04 6.29Z" fill="currentColor" fill-opacity="0.54"/>
</g>
<g id="&#226;&#134;&#179; Dark Color_2">
<path id="Mask_2" d="M16.0564 3.34649L17.3376 1.81069L21.945 5.65429L20.6638 7.19009L16.0564 3.34649Z" fill="currentColor" fill-opacity="0.54"/>
</g>
<g id="&#226;&#134;&#179; Dark Color_3">
<path id="Mask_3" fill-rule="evenodd" clip-rule="evenodd" d="M17.8099 16.89L19.24 18.32L21.4 20.49L19.99 21.9L17.89 19.8C16.3099 21.17 14.25 22 12 22C7.03003 22 3 17.97 3 13C3 10.75 3.82996 8.69 5.19995 7.11L4.40002 6.31L3.33997 7.19L2.05994 5.65L2.97998 4.88L1.60999 3.51L3.02002 2.1L4.52002 3.6L5.93994 5.02L6.67993 5.76L8.10999 7.19L17.8099 16.89ZM5 13C5 16.86 8.14001 20 12 20C13.7 20 15.26 19.39 16.47 18.38L6.62 8.53C5.60999 9.74 5 11.3 5 13Z" fill="currentColor" fill-opacity="0.54"/>
</g>
<g id="&#226;&#134;&#179; Dark Color_4">
<path id="Mask_4" d="M7.48006 3.73L7.94006 3.35L6.66006 1.81L6.06006 2.31L7.48006 3.73Z" fill="currentColor" fill-opacity="0.54"/>
</g>
</g>
</svg>
