<svg width="1em" height="1em" viewBox="0 0 24 24" fill="none" xmlns="http://www.w3.org/2000/svg">
	<g id="announcement_24px">
		<g id="&#226;&#134;&#179; Light Color">
			<path id="Mask" opacity="0.5" fill-rule="evenodd" clip-rule="evenodd" d="M4 4V17.17L4.59003 16.58L5.16998 16H6H20V4H4ZM13 15H11V13H13V15ZM11 11H13V5H11V11Z" fill="currentColor" fill-opacity="0.54" />
		</g>
		<g id="&#226;&#134;&#179; Dark Color">
			<path id="Mask_2" fill-rule="evenodd" clip-rule="evenodd" d="M4 2H20C21.1 2 22 2.9 22 4V16C22 17.1 21.1 18 20 18H6L2 22V4C2 2.9 2.90002 2 4 2ZM6 16H20V4H4V17.17L4.58002 16.59L5.16998 16H6Z" fill="currentColor" fill-opacity="0.54" />
		</g>
		<g id="&#226;&#134;&#179; Dark Color_2">
			<path id="Mask_3" d="M11 5H13V11H11V5Z" fill="currentColor" fill-opacity="0.54" />
		</g>
		<g id="&#226;&#134;&#179; Dark Color_3">
			<path id="Mask_4" d="M11 13H13V15H11V13Z" fill="currentColor" fill-opacity="0.54" />
		</g>
	</g>
</svg>
