<svg width="1em" height="1em" viewBox="0 0 24 24" fill="none" xmlns="http://www.w3.org/2000/svg">
<g id="archive_24px">
<g id="&#226;&#134;&#179; Light Color">
<path id="Mask" opacity="0.5" fill-rule="evenodd" clip-rule="evenodd" d="M19 8V19H5V8H19ZM10.55 10V13H8L12 17L16 13H13.46V10H10.55Z" fill="currentColor" fill-opacity="0.54"/>
</g>
<g id="&#226;&#134;&#179; Dark Color">
<path id="Mask_2" d="M16 13H13.45V10H10.55V13H8L12 17L16 13Z" fill="currentColor" fill-opacity="0.54"/>
</g>
<g id="&#226;&#134;&#179; Dark Color_2">
<path id="Mask_3" fill-rule="evenodd" clip-rule="evenodd" d="M20.54 5.23L19.15 3.55C18.88 3.21001 18.47 3 18 3H6C5.53 3 5.12 3.21001 4.84 3.55L3.46001 5.23C3.17 5.57001 3 6.02 3 6.5V19C3 20.1 3.89999 21 5 21H19C20.1 21 21 20.1 21 19V6.5C21 6.02 20.83 5.57001 20.54 5.23ZM6.24001 5H17.76L18.57 5.97H5.44L6.24001 5ZM5 19H19V8H5V19Z" fill="currentColor" fill-opacity="0.54"/>
</g>
</g>
</svg>
