<svg width="1em" height="1em" viewBox="0 0 24 24" fill="none" xmlns="http://www.w3.org/2000/svg">
<g id="aspect_ratio_24px">
<g id="&#226;&#134;&#179; Light Color">
<path id="Mask" opacity="0.5" fill-rule="evenodd" clip-rule="evenodd" d="M3 19.01H21V4.99H3V19.01ZM14 15H17V12H19V17H14V15ZM10 7H5V12H7V9H10V7Z" fill="currentColor" fill-opacity="0.54"/>
</g>
<g id="&#226;&#134;&#179; Dark Color">
<path id="Mask_2" fill-rule="evenodd" clip-rule="evenodd" d="M3 3H21C22.1 3 23 3.9 23 5V19C23 20.1 22.1 21 21 21H3C1.90002 21 1 20.1 1 19V5C1 3.9 1.90002 3 3 3ZM3 19.01H21V4.99H3V19.01Z" fill="currentColor" fill-opacity="0.54"/>
</g>
<g id="&#226;&#134;&#179; Dark Color_2">
<path id="Mask_3" d="M7 9H10V7H5V12H7V9Z" fill="currentColor" fill-opacity="0.54"/>
</g>
<g id="&#226;&#134;&#179; Dark Color_3">
<path id="Mask_4" d="M19 12H17V15H14V17H19V12Z" fill="currentColor" fill-opacity="0.54"/>
</g>
</g>
</svg>
