<svg width="1em" height="1em" viewBox="0 0 24 24" fill="none" xmlns="http://www.w3.org/2000/svg">
<g id="assignment_ind_24px">
<g id="&#226;&#134;&#179; Light Color">
<path id="Mask" opacity="0.5" fill-rule="evenodd" clip-rule="evenodd" d="M19 5H5V19H19V5ZM12 6C13.65 6 15 7.35 15 9C15 10.65 13.65 12 12 12C10.35 12 9 10.65 9 9C9 7.35 10.35 6 12 6ZM6 16.47V18H18V16.47C18 13.97 14.03 12.89 12 12.89C9.96997 12.89 6 13.97 6 16.47Z" fill="currentColor" fill-opacity="0.54"/>
</g>
<g id="&#226;&#134;&#179; Dark Color">
<path id="Mask_2" fill-rule="evenodd" clip-rule="evenodd" d="M20.66 3.88C20.52 3.67 20.33 3.48 20.12 3.34C20.01 3.27 19.9 3.21 19.78 3.16C19.54 3.06 19.28 3 19 3H14.8199C14.4 1.84 13.3 1 12 1C10.7 1 9.59998 1.84 9.18005 3H5C3.90002 3 3 3.9 3 5V19C3 20.1 3.90002 21 5 21H19C19.28 21 19.54 20.94 19.78 20.84C19.9 20.79 20.01 20.73 20.12 20.66C20.33 20.52 20.52 20.33 20.66 20.12C20.87 19.8 21 19.41 21 19V5C21 4.59 20.87 4.2 20.66 3.88ZM12 2.75C12.22 2.75 12.41 2.85 12.55 3C12.67 3.13 12.75 3.31 12.75 3.5C12.75 3.91 12.41 4.25 12 4.25C11.59 4.25 11.25 3.91 11.25 3.5C11.25 3.31 11.33 3.13 11.45 3C11.59 2.85 11.78 2.75 12 2.75ZM5 5V19H19V5H5Z" fill="currentColor" fill-opacity="0.54"/>
</g>
<g id="&#226;&#134;&#179; Dark Color_2">
<path id="Mask_3" fill-rule="evenodd" clip-rule="evenodd" d="M15 9C15 10.65 13.65 12 12 12C10.35 12 9 10.65 9 9C9 7.35 10.35 6 12 6C13.65 6 15 7.35 15 9ZM11 9C11 9.55 11.45 10 12 10C12.55 10 13 9.55 13 9C13 8.45 12.55 8 12 8C11.45 8 11 8.45 11 9Z" fill="currentColor" fill-opacity="0.54"/>
</g>
<g id="&#226;&#134;&#179; Dark Color_3">
<path id="Mask_4" fill-rule="evenodd" clip-rule="evenodd" d="M6 16.46C6 13.96 9.96997 12.88 12 12.88C14.03 12.88 18 13.96 18 16.47V18H6V16.46ZM12 14.88C10.6901 14.88 9 15.44 8.31006 16H15.6901C15.01 15.44 13.3101 14.88 12 14.88Z" fill="currentColor" fill-opacity="0.54"/>
</g>
</g>
</svg>
