<svg width="1em" height="1em" viewBox="0 0 24 24" fill="none" xmlns="http://www.w3.org/2000/svg">
<g id="assistant_24px">
<g id="&#226;&#134;&#179; Light Color">
<path id="Mask" opacity="0.5" fill-rule="evenodd" clip-rule="evenodd" d="M10.42 18.59L9.82996 18H9H5V4H19V18H15H14.17L13.59 18.58L12 20.17L10.42 18.59ZM12 5L10.12 9.12L6 11L10.12 12.88L12 17L13.88 12.88L18 11L13.88 9.12L12 5Z" fill="currentColor" fill-opacity="0.54"/>
</g>
<g id="&#226;&#134;&#179; Dark Color">
<path id="Mask_2" fill-rule="evenodd" clip-rule="evenodd" d="M9 20H5C3.90002 20 3 19.1 3 18V4C3 2.89999 3.90002 2 5 2H19C20.1 2 21 2.89999 21 4V18C21 19.1 20.1 20 19 20H15L12 23L9 20ZM19 4H5V18H9H9.82996L10.41 18.58L12 20.17L13.58 18.59L14.17 18H15H19V4Z" fill="currentColor" fill-opacity="0.54"/>
</g>
<g id="&#226;&#134;&#179; Dark Color_2">
<path id="Mask_3" d="M12 17L13.88 12.88L18 11L13.88 9.12L12 5L10.12 9.12L6 11L10.12 12.88L12 17Z" fill="currentColor" fill-opacity="0.54"/>
</g>
</g>
</svg>
