<svg width="1em" height="1em" viewBox="0 0 24 24" fill="none" xmlns="http://www.w3.org/2000/svg">
<g id="attribution_24px">
<g id="&#226;&#134;&#179; Light Color">
<path id="Mask" opacity="0.5" fill-rule="evenodd" clip-rule="evenodd" d="M12 4C7.57999 4 4 7.58 4 12C4 16.42 7.57999 20 12 20C16.42 20 20 16.42 20 12C20 7.58 16.42 4 12 4ZM12 5C12.83 5 13.5 5.67 13.5 6.5C13.5 7.33 12.83 8 12 8C11.17 8 10.5 7.33 10.5 6.5C10.5 5.67 11.17 5 12 5ZM13.25 14.5H14.75V9.88C14.75 8.97 12.91 8.5 12 8.5C11.09 8.5 9.25 8.96001 9.25 9.88V14.5H10.75V19H13.25V14.5Z" fill="currentColor" fill-opacity="0.54"/>
</g>
<g id="&#226;&#134;&#179; Dark Color">
<path id="Mask_2" fill-rule="evenodd" clip-rule="evenodd" d="M2 12C2 6.47 6.47 2 12 2C17.52 2 22 6.48 22 12C22 17.52 17.53 22 12 22C6.47 22 2 17.53 2 12ZM4 12C4 16.42 7.57999 20 12 20C16.42 20 20 16.42 20 12C20 7.58 16.42 4 12 4C7.57999 4 4 7.58 4 12Z" fill="currentColor" fill-opacity="0.54"/>
</g>
<g id="&#226;&#134;&#179; Dark Color_2">
<path id="Mask_3" d="M12 8.5C11.09 8.5 9.25 8.96 9.25 9.88V14.5H10.75V19H13.25V14.5H14.75V9.88C14.75 8.97 12.91 8.5 12 8.5Z" fill="currentColor" fill-opacity="0.54"/>
</g>
<g id="&#226;&#134;&#179; Dark Color_3">
<path id="Mask_4" d="M12 8C12.8284 8 13.5 7.32843 13.5 6.5C13.5 5.67157 12.8284 5 12 5C11.1716 5 10.5 5.67157 10.5 6.5C10.5 7.32843 11.1716 8 12 8Z" fill="currentColor" fill-opacity="0.54"/>
</g>
</g>
</svg>
