<svg width="1em" height="1em" viewBox="0 0 24 24" fill="none" xmlns="http://www.w3.org/2000/svg">
<g id="audiotrack_24px">
<g id="&#226;&#134;&#179; Light Color">
<path id="Mask" opacity="0.5" d="M10 19C11.1046 19 12 18.1046 12 17C12 15.8954 11.1046 15 10 15C8.89543 15 8 15.8954 8 17C8 18.1046 8.89543 19 10 19Z" fill="currentColor" fill-opacity="0.54"/>
</g>
<g id="&#226;&#134;&#179; Dark Color">
<path id="Mask_2" fill-rule="evenodd" clip-rule="evenodd" d="M14 17C14 19.21 12.21 21 10 21C7.79004 21 6 19.21 6 17C6 14.79 7.79004 13 10 13C10.73 13 11.41 13.21 12 13.55V3H18V7H14V17ZM12 17C12 15.9 11.1 15 10 15C8.90002 15 8 15.9 8 17C8 18.1 8.90002 19 10 19C11.1 19 12 18.1 12 17Z" fill="currentColor" fill-opacity="0.54"/>
</g>
</g>
</svg>
