<svg width="1em" height="1em" viewBox="0 0 24 24" fill="none" xmlns="http://www.w3.org/2000/svg">
<g id="backspace_24px">
<g id="&#226;&#134;&#179; Light Color">
<path id="Mask" opacity="0.5" fill-rule="evenodd" clip-rule="evenodd" d="M2.39999 12L7.06 5H22V19H7.07001L2.39999 12ZM10.41 7L9 8.41L12.59 12L9 15.59L10.41 17L14 13.41L17.59 17L19 15.59L15.41 12L19 8.41L17.59 7L14 10.59L10.41 7Z" fill="currentColor" fill-opacity="0.54"/>
</g>
<g id="&#226;&#134;&#179; Dark Color">
<path id="Mask_2" fill-rule="evenodd" clip-rule="evenodd" d="M7 3H22C23.1 3 24 3.89999 24 5V19C24 20.1 23.1 21 22 21H7C6.31 21 5.76999 20.64 5.41 20.11L0 12L5.41 3.88C5.76999 3.35001 6.31 3 7 3ZM7.07001 19H22V5H7.06L2.39999 12L7.07001 19Z" fill="currentColor" fill-opacity="0.54"/>
</g>
<g id="&#226;&#134;&#179; Dark Color_2">
<path id="Mask_3" d="M10.41 17L14 13.41L17.59 17L19 15.59L15.41 12L19 8.41L17.59 7L14 10.59L10.41 7L9 8.41L12.59 12L9 15.59L10.41 17Z" fill="currentColor" fill-opacity="0.54"/>
</g>
</g>
</svg>
