<svg width="1em" height="1em" viewBox="0 0 24 24" fill="none" xmlns="http://www.w3.org/2000/svg">
<g id="ballot_24px">
<g id="&#226;&#134;&#179; Light Color">
<path id="Mask" opacity="0.5" d="M7 14H10V17H7V14Z" fill="currentColor" fill-opacity="0.54"/>
</g>
<g id="&#226;&#134;&#179; Light Color_2">
<path id="Mask_2" opacity="0.5" d="M7 7H10V10H7V7Z" fill="currentColor" fill-opacity="0.54"/>
</g>
<g id="&#226;&#134;&#179; Light Color_3">
<path id="Mask_3" opacity="0.5" fill-rule="evenodd" clip-rule="evenodd" d="M5 19H19V5H5V19ZM13 7.5H18V9.5H13V7.5ZM18 14.5H13V16.5H18V14.5ZM6 6H11V11H6V6ZM11 13H6V18H11V13Z" fill="currentColor" fill-opacity="0.54"/>
</g>
<g id="&#226;&#134;&#179; Dark Color">
<path id="Mask_4" d="M13 7.5H18V9.5H13V7.5Z" fill="currentColor" fill-opacity="0.54"/>
</g>
<g id="&#226;&#134;&#179; Dark Color_2">
<path id="Mask_5" d="M13 14.5H18V16.5H13V14.5Z" fill="currentColor" fill-opacity="0.54"/>
</g>
<g id="&#226;&#134;&#179; Dark Color_3">
<path id="Mask_6" fill-rule="evenodd" clip-rule="evenodd" d="M5 3H19C20.1 3 21 3.89999 21 5V19C21 20.1 20.1 21 19 21H5C3.89999 21 3 20.1 3 19V5C3 3.89999 3.89999 3 5 3ZM5 19H19V5H5V19Z" fill="currentColor" fill-opacity="0.54"/>
</g>
<g id="&#226;&#134;&#179; Dark Color_4">
<path id="Mask_7" fill-rule="evenodd" clip-rule="evenodd" d="M6 6H11V11H6V6ZM7 10H10V7H7V10Z" fill="currentColor" fill-opacity="0.54"/>
</g>
<g id="&#226;&#134;&#179; Dark Color_5">
<path id="Mask_8" fill-rule="evenodd" clip-rule="evenodd" d="M6 13H11V18H6V13ZM7 17H10V14H7V17Z" fill="currentColor" fill-opacity="0.54"/>
</g>
</g>
</svg>
