<svg width="1em" height="1em" viewBox="0 0 24 24" fill="none" xmlns="http://www.w3.org/2000/svg">
<g id="block_24px">
<g id="&#226;&#134;&#179; Dark Color">
<path id="Mask" fill-rule="evenodd" clip-rule="evenodd" d="M12 2C6.48001 2 2 6.48 2 12C2 17.52 6.48001 22 12 22C17.52 22 22 17.52 22 12C22 6.48 17.52 2 12 2ZM4 12C4 7.58 7.57999 4 12 4C13.85 4 15.55 4.63 16.9 5.69L5.69 16.9C4.63 15.55 4 13.85 4 12ZM7.10001 18.31C8.45001 19.37 10.15 20 12 20C16.42 20 20 16.42 20 12C20 10.15 19.37 8.45001 18.31 7.10001L7.10001 18.31Z" fill="currentColor" fill-opacity="0.54"/>
</g>
</g>
</svg>
