<svg width="1em" height="1em" viewBox="0 0 24 24" fill="none" xmlns="http://www.w3.org/2000/svg">
<g id="blur_circular_24px">
<g id="&#226;&#134;&#179; Dark Color">
<path id="Mask" d="M14 7.5C14.28 7.5 14.5 7.28 14.5 7C14.5 6.72 14.28 6.5 14 6.5C13.72 6.5 13.5 6.72 13.5 7C13.5 7.28 13.72 7.5 14 7.5Z" fill="currentColor" fill-opacity="0.54"/>
</g>
<g id="&#226;&#134;&#179; Dark Color_2">
<path id="Mask_2" d="M14 11C14.5523 11 15 10.5523 15 10C15 9.44772 14.5523 9 14 9C13.4477 9 13 9.44772 13 10C13 10.5523 13.4477 11 14 11Z" fill="currentColor" fill-opacity="0.54"/>
</g>
<g id="&#226;&#134;&#179; Dark Color_3">
<path id="Mask_3" d="M14 15C14.5523 15 15 14.5523 15 14C15 13.4477 14.5523 13 14 13C13.4477 13 13 13.4477 13 14C13 14.5523 13.4477 15 14 15Z" fill="currentColor" fill-opacity="0.54"/>
</g>
<g id="&#226;&#134;&#179; Dark Color_4">
<path id="Mask_4" d="M10 16.5C9.72 16.5 9.5 16.72 9.5 17C9.5 17.28 9.72 17.5 10 17.5C10.28 17.5 10.5 17.28 10.5 17C10.5 16.72 10.28 16.5 10 16.5Z" fill="currentColor" fill-opacity="0.54"/>
</g>
<g id="&#226;&#134;&#179; Dark Color_5">
<path id="Mask_5" d="M10 11C10.5523 11 11 10.5523 11 10C11 9.44772 10.5523 9 10 9C9.44772 9 9 9.44772 9 10C9 10.5523 9.44772 11 10 11Z" fill="currentColor" fill-opacity="0.54"/>
</g>
<g id="&#226;&#134;&#179; Dark Color_6">
<path id="Mask_6" d="M7 13.5C6.72 13.5 6.5 13.72 6.5 14C6.5 14.28 6.72 14.5 7 14.5C7.28 14.5 7.5 14.28 7.5 14C7.5 13.72 7.28 13.5 7 13.5Z" fill="currentColor" fill-opacity="0.54"/>
</g>
<g id="&#226;&#134;&#179; Dark Color_7">
<path id="Mask_7" fill-rule="evenodd" clip-rule="evenodd" d="M2 12C2 6.48 6.47998 2 12 2C17.52 2 22 6.48 22 12C22 17.52 17.52 22 12 22C6.47998 22 2 17.52 2 12ZM4 12C4 16.42 7.57996 20 12 20C16.42 20 20 16.42 20 12C20 7.58 16.42 4 12 4C7.57996 4 4 7.58 4 12Z" fill="currentColor" fill-opacity="0.54"/>
</g>
<g id="&#226;&#134;&#179; Dark Color_8">
<path id="Mask_8" d="M7 9.5C6.72 9.5 6.5 9.72 6.5 10C6.5 10.28 6.72 10.5 7 10.5C7.28 10.5 7.5 10.28 7.5 10C7.5 9.72 7.28 9.5 7 9.5Z" fill="currentColor" fill-opacity="0.54"/>
</g>
<g id="&#226;&#134;&#179; Dark Color_9">
<path id="Mask_9" d="M10 15C10.5523 15 11 14.5523 11 14C11 13.4477 10.5523 13 10 13C9.44772 13 9 13.4477 9 14C9 14.5523 9.44772 15 10 15Z" fill="currentColor" fill-opacity="0.54"/>
</g>
<g id="&#226;&#134;&#179; Dark Color_10">
<path id="Mask_10" d="M10 7.5C10.28 7.5 10.5 7.28 10.5 7C10.5 6.72 10.28 6.5 10 6.5C9.72 6.5 9.5 6.72 9.5 7C9.5 7.28 9.72 7.5 10 7.5Z" fill="currentColor" fill-opacity="0.54"/>
</g>
<g id="&#226;&#134;&#179; Dark Color_11">
<path id="Mask_11" d="M14 16.5C13.72 16.5 13.5 16.72 13.5 17C13.5 17.28 13.72 17.5 14 17.5C14.28 17.5 14.5 17.28 14.5 17C14.5 16.72 14.28 16.5 14 16.5Z" fill="currentColor" fill-opacity="0.54"/>
</g>
<g id="&#226;&#134;&#179; Dark Color_12">
<path id="Mask_12" d="M17 9.5C16.72 9.5 16.5 9.72 16.5 10C16.5 10.28 16.72 10.5 17 10.5C17.28 10.5 17.5 10.28 17.5 10C17.5 9.72 17.28 9.5 17 9.5Z" fill="currentColor" fill-opacity="0.54"/>
</g>
<g id="&#226;&#134;&#179; Dark Color_13">
<path id="Mask_13" d="M17 13.5C16.72 13.5 16.5 13.72 16.5 14C16.5 14.28 16.72 14.5 17 14.5C17.28 14.5 17.5 14.28 17.5 14C17.5 13.72 17.28 13.5 17 13.5Z" fill="currentColor" fill-opacity="0.54"/>
</g>
</g>
</svg>
