<svg width="1em" height="1em" viewBox="0 0 24 24" fill="none" xmlns="http://www.w3.org/2000/svg">
<g id="bookmarks_24px">
<g id="&#226;&#134;&#179; Dark Color">
<path id="Mask" d="M19 1H8.99C7.89 1 7 1.9 7 3H17C18.1 3 19 3.9 19 5V18L21 19V3C21 1.9 20.1 1 19 1Z" fill="currentColor" fill-opacity="0.54"/>
</g>
<g id="&#226;&#134;&#179; Dark Color_2">
<path id="Mask_2" fill-rule="evenodd" clip-rule="evenodd" d="M5 5H15C16.1 5 17 5.9 17 7V23L10 20L3 23V7C3 5.9 3.90002 5 5 5ZM10.79 18.16L15 19.97V7H5V19.97L9.20996 18.16L10 17.82L10.79 18.16Z" fill="currentColor" fill-opacity="0.54"/>
</g>
<g id="&#226;&#134;&#179; Light Color">
<path id="Mask_3" opacity="0.5" d="M5 19.97L10 17.82L15 19.97V7H5V19.97Z" fill="currentColor" fill-opacity="0.54"/>
</g>
</g>
</svg>
