<svg width="1em" height="1em" viewBox="0 0 24 24" fill="none" xmlns="http://www.w3.org/2000/svg">
<g id="border_right_24px">
<g id="&#226;&#134;&#179; Dark Color">
<path id="Mask" d="M3 3H5V5H3V3Z" fill="currentColor" fill-opacity="0.54"/>
</g>
<g id="&#226;&#134;&#179; Dark Color_2">
<path id="Mask_2" d="M3 19H5V21H3V19Z" fill="currentColor" fill-opacity="0.54"/>
</g>
<g id="&#226;&#134;&#179; Dark Color_3">
<path id="Mask_3" d="M15 3H17V5H15V3Z" fill="currentColor" fill-opacity="0.54"/>
</g>
<g id="&#226;&#134;&#179; Dark Color_4">
<path id="Mask_4" d="M15 19H17V21H15V19Z" fill="currentColor" fill-opacity="0.54"/>
</g>
<g id="&#226;&#134;&#179; Dark Color_5">
<path id="Mask_5" d="M15 11H17V13H15V11Z" fill="currentColor" fill-opacity="0.54"/>
</g>
<g id="&#226;&#134;&#179; Dark Color_6">
<path id="Mask_6" d="M3 15H5V17H3V15Z" fill="currentColor" fill-opacity="0.54"/>
</g>
<g id="&#226;&#134;&#179; Dark Color_7">
<path id="Mask_7" d="M3 11H5V13H3V11Z" fill="currentColor" fill-opacity="0.54"/>
</g>
<g id="&#226;&#134;&#179; Dark Color_8">
<path id="Mask_8" d="M3 7H5V9H3V7Z" fill="currentColor" fill-opacity="0.54"/>
</g>
<g id="&#226;&#134;&#179; Dark Color_9">
<path id="Mask_9" d="M11 15H13V17H11V15Z" fill="currentColor" fill-opacity="0.54"/>
</g>
<g id="&#226;&#134;&#179; Dark Color_10">
<path id="Mask_10" d="M7 11H9V13H7V11Z" fill="currentColor" fill-opacity="0.54"/>
</g>
<g id="&#226;&#134;&#179; Dark Color_11">
<path id="Mask_11" d="M7 3H9V5H7V3Z" fill="currentColor" fill-opacity="0.54"/>
</g>
<g id="&#226;&#134;&#179; Dark Color_12">
<path id="Mask_12" d="M19 3H21V21H19V3Z" fill="currentColor" fill-opacity="0.54"/>
</g>
<g id="&#226;&#134;&#179; Dark Color_13">
<path id="Mask_13" d="M7 19H9V21H7V19Z" fill="currentColor" fill-opacity="0.54"/>
</g>
<g id="&#226;&#134;&#179; Dark Color_14">
<path id="Mask_14" d="M11 3H13V5H11V3Z" fill="currentColor" fill-opacity="0.54"/>
</g>
<g id="&#226;&#134;&#179; Dark Color_15">
<path id="Mask_15" d="M11 7H13V9H11V7Z" fill="currentColor" fill-opacity="0.54"/>
</g>
<g id="&#226;&#134;&#179; Dark Color_16">
<path id="Mask_16" d="M11 11H13V13H11V11Z" fill="currentColor" fill-opacity="0.54"/>
</g>
<g id="&#226;&#134;&#179; Dark Color_17">
<path id="Mask_17" d="M11 19H13V21H11V19Z" fill="currentColor" fill-opacity="0.54"/>
</g>
</g>
</svg>
