<svg width="1em" height="1em" viewBox="0 0 24 24" fill="none" xmlns="http://www.w3.org/2000/svg">
<g id="brightness_2_24px">
<g id="&#226;&#134;&#179; Light Color">
<path id="Mask" opacity="0.5" d="M18 12C18 7.59 14.41 4 9.99999 4C9.65999 4 9.31999 4.02 8.98999 4.07C10.9 6.23 12 9.05 12 12C12 14.95 10.9 17.77 8.98999 19.93C9.31999 19.98 9.65999 20 9.99999 20C14.41 20 18 16.41 18 12Z" fill="currentColor" fill-opacity="0.54"/>
</g>
<g id="&#226;&#134;&#179; Dark Color">
<path id="Mask_2" fill-rule="evenodd" clip-rule="evenodd" d="M10 22C8.18005 22 6.46997 21.5 5 20.65C7.98999 18.92 10 15.7 10 12C10 8.3 7.98999 5.08 5 3.35C6.46997 2.5 8.18005 2 10 2C15.52 2 20 6.48 20 12C20 17.52 15.52 22 10 22ZM8.98999 4.07C10.9 6.23 12 9.05 12 12C12 14.95 10.9 17.77 8.98999 19.93C9.31995 19.98 9.66003 20 10 20C14.41 20 18 16.41 18 12C18 7.59 14.41 4 10 4C9.66003 4 9.31995 4.02 8.98999 4.07Z" fill="currentColor" fill-opacity="0.54"/>
</g>
</g>
</svg>
