<svg width="1em" height="1em" viewBox="0 0 24 24" fill="none" xmlns="http://www.w3.org/2000/svg">
<g id="brightness_3_24px">
<g id="&#226;&#134;&#179; Light Color">
<path id="Mask" opacity="0.5" d="M12.7 4.91C14.16 6.91 15 9.37 15 12C15 14.63 14.16 17.09 12.7 19.09C15.25 17.76 17 15.08 17 12C17 8.92 15.25 6.24 12.7 4.91Z" fill="currentColor" fill-opacity="0.54"/>
</g>
<g id="&#226;&#134;&#179; Dark Color">
<path id="Mask_2" fill-rule="evenodd" clip-rule="evenodd" d="M6 2.46C6.94995 2.16 7.94995 2 9 2C14.52 2 19 6.48 19 12C19 17.52 14.52 22 9 22C7.94995 22 6.94995 21.84 6 21.54C10.0601 20.27 13 16.48 13 12C13 7.52 10.0601 3.73 6 2.46ZM15 12C15 14.63 14.1599 17.09 12.7 19.09C15.25 17.76 17 15.08 17 12C17 8.92001 15.25 6.24001 12.7 4.91C14.1599 6.91 15 9.37 15 12Z" fill="currentColor" fill-opacity="0.54"/>
</g>
</g>
</svg>
