<svg width="1em" height="1em" viewBox="0 0 24 24" fill="none" xmlns="http://www.w3.org/2000/svg">
<g id="brightness_6_24px">
<g id="&#226;&#134;&#179; Light Color">
<path id="Mask" opacity="0.5" fill-rule="evenodd" clip-rule="evenodd" d="M18 6V9.52L20.48 12L18 14.48V18H14.48L12 20.48L9.52002 18H6V14.48L3.52002 12L6 9.52V6H9.52002L12 3.52L14.48 6H18ZM12 6.5V17.5C15.03 17.5 17.5 15.03 17.5 12C17.5 8.97 15.03 6.5 12 6.5Z" fill="currentColor" fill-opacity="0.54"/>
</g>
<g id="&#226;&#134;&#179; Dark Color">
<path id="Mask_2" fill-rule="evenodd" clip-rule="evenodd" d="M20 4V8.69L23.3099 12L20 15.31V20H15.3099L12 23.31L8.68994 20H4V15.31L0.689941 12L4 8.69V4H8.68994L12 0.690002L15.3099 4H20ZM17.9999 18V14.48L20.4799 12L17.9999 9.52V6.00001H14.4799L11.9999 3.52L9.5199 6.00001H5.99988V9.52L3.5199 12L5.99988 14.48V18H9.5199L11.9999 20.48L14.4799 18H17.9999Z" fill="currentColor" fill-opacity="0.54"/>
</g>
<g id="&#226;&#134;&#179; Dark Color_2">
<path id="Mask_3" d="M12 6.5V17.5C15.03 17.5 17.5 15.03 17.5 12C17.5 8.97 15.03 6.5 12 6.5Z" fill="currentColor" fill-opacity="0.54"/>
</g>
</g>
</svg>
