<svg width="1em" height="1em" viewBox="0 0 24 24" fill="none" xmlns="http://www.w3.org/2000/svg">
<g id="brightness_4_24px">
<g id="&#226;&#134;&#179; Light Color">
<path id="Mask" opacity="0.5" fill-rule="evenodd" clip-rule="evenodd" d="M18 6V9.52L20.48 12L18 14.48V18H14.48L12 20.48L9.52002 18H6V14.48L3.52002 12L6 9.52V6H9.52002L12 3.52L14.48 6H18ZM10.21 16.54C10.84 16.83 11.5499 17 12.2899 17C15.0499 17 17.2899 14.76 17.2899 12C17.2899 9.24 15.0499 7 12.2899 7C11.5499 7 10.84 7.17 10.21 7.46C11.9299 8.25 13.13 9.98 13.13 12C13.13 14.02 11.9299 15.75 10.21 16.54Z" fill="currentColor" fill-opacity="0.54"/>
</g>
<g id="&#226;&#134;&#179; Dark Color">
<path id="Mask_2" fill-rule="evenodd" clip-rule="evenodd" d="M20 4V8.69L23.3099 12L20 15.31V20H15.3099L12 23.31L8.68994 20H4V15.31L0.689941 12L4 8.69V4H8.68994L12 0.690002L15.3099 4H20ZM17.9999 18V14.48L20.4799 12L17.9999 9.52V6.00001H14.4799L11.9999 3.52L9.5199 6.00001H5.99988V9.52L3.5199 12L5.99988 14.48V18H9.5199L11.9999 20.48L14.4799 18H17.9999Z" fill="currentColor" fill-opacity="0.54"/>
</g>
<g id="&#226;&#134;&#179; Dark Color_2">
<path id="Mask_3" d="M12.29 7C11.55 7 10.84 7.17 10.21 7.46C11.93 8.25 13.13 9.99 13.13 12C13.13 14.01 11.93 15.75 10.21 16.54C10.84 16.83 11.55 17 12.29 17C15.05 17 17.29 14.76 17.29 12C17.29 9.24 15.05 7 12.29 7Z" fill="currentColor" fill-opacity="0.54"/>
</g>
</g>
</svg>
