<svg width="1em" height="1em" viewBox="0 0 24 24" fill="none" xmlns="http://www.w3.org/2000/svg">
<g id="build_24px">
<g id="&#226;&#134;&#179; Light Color">
<path id="Mask" opacity="0.5" d="M11.92 8.28C12.16 6.88 11.76 5.39 10.68 4.32C9.74001 3.37 8.48001 2.93 7.24001 3L10.33 6.09L6.09001 10.33L3.00001 7.24C2.93001 8.48 3.37001 9.73 4.31001 10.68C5.35001 11.72 6.78001 12.13 8.14001 11.93C8.85001 11.83 9.54001 11.55 10.14 11.11L19.6 20.57L20.48 19.69L11.03 10.24C11.5 9.64 11.8 8.98 11.92 8.28Z" fill="currentColor" fill-opacity="0.54"/>
</g>
<g id="&#226;&#134;&#179; Dark Color">
<path id="Mask_2" fill-rule="evenodd" clip-rule="evenodd" d="M13.54 9.9L22.61 18.97C23.01 19.36 23.01 20 22.61 20.38L20.31 22.68C19.92 23.07 19.29 23.07 18.9 22.68L9.79004 13.57C7.47003 14.44 4.76001 13.95 2.90003 12.09C0.600039 9.79 0.390017 6.21 2.25 3.67L6.08002 7.5L7.5 6.08L3.67005 2.25C6.22003 0.39 9.80005 0.6 12.1 2.9C13.9901 4.8 14.47 7.56 13.54 9.9ZM10.15 11.11L19.61 20.57L20.49 19.67L11.04 10.22C11.5 9.63 11.8 8.97 11.92 8.27C12.17 6.88 11.76 5.39 10.68 4.31C9.72998 3.37 8.47998 2.93 7.23999 3L10.33 6.09L6.09003 10.33L3 7.24C2.92999 8.48 3.37 9.74 4.32001 10.68C5.35999 11.72 6.78998 12.13 8.15003 11.93C8.85999 11.83 9.53998 11.56 10.15 11.11Z" fill="currentColor" fill-opacity="0.54"/>
</g>
</g>
</svg>
