<svg width="1em" height="1em" viewBox="0 0 24 24" fill="none" xmlns="http://www.w3.org/2000/svg">
<g id="burst_mode_24px">
<g id="&#226;&#134;&#179; Light Color">
<path id="Mask" opacity="0.5" fill-rule="evenodd" clip-rule="evenodd" d="M21 17H11V7H21V17ZM15.4301 15.19L14 13.47L12 15.99H20L17.4301 12.61L15.4301 15.19Z" fill="currentColor" fill-opacity="0.54"/>
</g>
<g id="&#226;&#134;&#179; Dark Color">
<path id="Mask_2" d="M1 5H3V19H1V5Z" fill="currentColor" fill-opacity="0.54"/>
</g>
<g id="&#226;&#134;&#179; Dark Color_2">
<path id="Mask_3" d="M5 5H7V19H5V5Z" fill="currentColor" fill-opacity="0.54"/>
</g>
<g id="&#226;&#134;&#179; Dark Color_3">
<path id="Mask_4" fill-rule="evenodd" clip-rule="evenodd" d="M10 5H22C22.55 5 23 5.45 23 6V18C23 18.55 22.55 19 22 19H10C9.44995 19 9 18.55 9 18V6C9 5.45 9.44995 5 10 5ZM11 17H21V7H11V17Z" fill="currentColor" fill-opacity="0.54"/>
</g>
<g id="&#226;&#134;&#179; Dark Color_4">
<path id="Mask_5" d="M17.43 12.62L15.43 15.19L14 13.47L12 15.99H20L17.43 12.62Z" fill="currentColor" fill-opacity="0.54"/>
</g>
</g>
</svg>
