<svg width="1em" height="1em" viewBox="0 0 24 24" fill="none" xmlns="http://www.w3.org/2000/svg">
<g id="camera_24px">
<g id="&#226;&#134;&#179; Light Color">
<path id="Mask" opacity="0.5" d="M10.9 19.91C11.26 19.96 11.62 20 12 20C14.18 20 16.16 19.12 17.61 17.7L14.89 13L10.9 19.91Z" fill="currentColor" fill-opacity="0.54"/>
</g>
<g id="&#226;&#134;&#179; Light Color_2">
<path id="Mask_2" opacity="0.5" d="M9.85997 19.7L12.57 15H10.27H4.58997C5.51997 17.28 7.45997 19.03 9.85997 19.7Z" fill="currentColor" fill-opacity="0.54"/>
</g>
<g id="&#226;&#134;&#179; Light Color_3">
<path id="Mask_3" opacity="0.5" d="M8.54 12L5.7 7.09C4.64 8.45 4 10.15 4 12C4 12.69 4.1 13.36 4.26 14H9.69L8.54 12Z" fill="currentColor" fill-opacity="0.54"/>
</g>
<g id="&#226;&#134;&#179; Light Color_4">
<path id="Mask_4" opacity="0.5" d="M18.3001 16.91C19.3601 15.55 20.0001 13.85 20.0001 12C20.0001 11.31 19.9001 10.64 19.7401 10H14.3101L18.3001 16.91Z" fill="currentColor" fill-opacity="0.54"/>
</g>
<g id="&#226;&#134;&#179; Light Color_5">
<path id="Mask_5" opacity="0.5" d="M13.73 9H19.41C18.48 6.72 16.53 4.96 14.13 4.3L11.42 9H13.73Z" fill="currentColor" fill-opacity="0.54"/>
</g>
<g id="&#226;&#134;&#179; Light Color_6">
<path id="Mask_6" opacity="0.5" d="M10.27 9L13.1 4.08C12.74 4.03 12.37 4 12 4C9.82002 4 7.84002 4.88 6.40002 6.3L9.12002 11L10.27 9Z" fill="currentColor" fill-opacity="0.54"/>
</g>
<g id="&#226;&#134;&#179; Dark Color">
<path id="Mask_7" fill-rule="evenodd" clip-rule="evenodd" d="M12 22C17.52 22 22 17.52 22 12C22 7.25 18.6899 3.28 14.25 2.26L14.17 2.22L14.16 2.24C13.46 2.09 12.74 2 12 2C6.47998 2 2 6.48 2 12C2 17.52 6.47998 22 12 22ZM12 20C11.62 20 11.26 19.96 10.9 19.91L14.89 13L17.61 17.7C16.16 19.12 14.1801 20 12 20ZM18.3 16.91C19.3601 15.55 20 13.85 20 12C20 11.31 19.9 10.64 19.7301 10H14.3L18.3 16.91ZM19.41 9H13.7301H11.42L14.13 4.3C16.53 4.96 18.4801 6.72 19.41 9ZM13.1 4.08C12.74 4.03 12.37 4 12 4C9.82007 4 7.83997 4.88 6.40002 6.3L9.12 11L10.27 9L13.1 4.08ZM4 12C4 10.15 4.64001 8.45 5.69995 7.09L8.54004 12L9.68994 14H4.26001C4.09998 13.36 4 12.69 4 12ZM12.5699 15H10.2699H4.57996C5.51001 17.28 7.45996 19.03 9.85999 19.7L12.5699 15Z" fill="currentColor" fill-opacity="0.54"/>
</g>
</g>
</svg>
