<svg width="1em" height="1em" viewBox="0 0 24 24" fill="none" xmlns="http://www.w3.org/2000/svg">
<g id="camera_roll_24px">
<g id="&#226;&#134;&#179; Light Color">
<path id="Mask" opacity="0.5" fill-rule="evenodd" clip-rule="evenodd" d="M12 5H9V3H7V5H4V20H12V18H20V7H12V5ZM11 17H9V15H11V17ZM9 10H11V8H9V10ZM17 8H19V10H17V8ZM19 15H17V17H19V15ZM13 8H15V10H13V8ZM15 15H13V17H15V15Z" fill="currentColor" fill-opacity="0.54"/>
</g>
<g id="&#226;&#134;&#179; Dark Color">
<path id="Mask_2" fill-rule="evenodd" clip-rule="evenodd" d="M12 3C13.1 3 14 3.9 14 5H22V20H14C14 21.1 13.1 22 12 22H4C2.90002 22 2 21.1 2 20V5C2 3.9 2.90002 3 4 3H5V2C5 1.45 5.44995 1 6 1H10C10.55 1 11 1.45 11 2V3H12ZM12 18H20V7H12V5H9V3H7V5H4V20H12V18Z" fill="currentColor" fill-opacity="0.54"/>
</g>
<g id="&#226;&#134;&#179; Dark Color_2">
<path id="Mask_3" d="M9 15H11V17H9V15Z" fill="currentColor" fill-opacity="0.54"/>
</g>
<g id="&#226;&#134;&#179; Dark Color_3">
<path id="Mask_4" d="M9 8H11V10H9V8Z" fill="currentColor" fill-opacity="0.54"/>
</g>
<g id="&#226;&#134;&#179; Dark Color_4">
<path id="Mask_5" d="M13 15H15V17H13V15Z" fill="currentColor" fill-opacity="0.54"/>
</g>
<g id="&#226;&#134;&#179; Dark Color_5">
<path id="Mask_6" d="M13 8H15V10H13V8Z" fill="currentColor" fill-opacity="0.54"/>
</g>
<g id="&#226;&#134;&#179; Dark Color_6">
<path id="Mask_7" d="M17 15H19V17H17V15Z" fill="currentColor" fill-opacity="0.54"/>
</g>
<g id="&#226;&#134;&#179; Dark Color_7">
<path id="Mask_8" d="M17 8H19V10H17V8Z" fill="currentColor" fill-opacity="0.54"/>
</g>
</g>
</svg>
