<svg width="1em" height="1em" viewBox="0 0 24 24" fill="none" xmlns="http://www.w3.org/2000/svg">
<g id="camera_enhance_24px">
<g id="&#226;&#134;&#179; Light Color">
<path id="Mask" opacity="0.5" fill-rule="evenodd" clip-rule="evenodd" d="M15.36 6.35L15.95 7H16.83H20V19H4V7H7.16998H8.04999L8.65002 6.35L9.88 5H14.12L15.36 6.35ZM7 13C7 15.76 9.23999 18 12 18C14.76 18 17 15.76 17 13C17 10.24 14.76 8 12 8C9.23999 8 7 10.24 7 13Z" fill="currentColor" fill-opacity="0.54"/>
</g>
<g id="&#226;&#134;&#179; Dark Color">
<path id="Mask_2" d="M12 10L11.06 12.06L9 13L11.06 13.94L12 16L12.94 13.94L15 13L12.94 12.06L12 10Z" fill="currentColor" fill-opacity="0.54"/>
</g>
<g id="&#226;&#134;&#179; Dark Color_2">
<path id="Mask_3" fill-rule="evenodd" clip-rule="evenodd" d="M16.83 5H20C21.1 5 22 5.9 22 7V19C22 20.1 21.1 21 20 21H4C2.90002 21 2 20.1 2 19V7C2 5.9 2.90002 5 4 5H7.16998L9 3H15L16.83 5ZM4 19H20V7H16.83H15.95L15.36 6.35L14.12 5H9.88L8.64001 6.35L8.04999 7H7.16998H4V19Z" fill="currentColor" fill-opacity="0.54"/>
</g>
<g id="&#226;&#134;&#179; Dark Color_3">
<path id="Mask_4" fill-rule="evenodd" clip-rule="evenodd" d="M7 13C7 10.24 9.23999 8 12 8C14.76 8 17 10.24 17 13C17 15.76 14.76 18 12 18C9.23999 18 7 15.76 7 13ZM9 13C9 14.65 10.35 16 12 16C13.65 16 15 14.65 15 13C15 11.35 13.65 10 12 10C10.35 10 9 11.35 9 13Z" fill="currentColor" fill-opacity="0.54"/>
</g>
</g>
</svg>
