<svg width="1em" height="1em" viewBox="0 0 24 24" fill="none" xmlns="http://www.w3.org/2000/svg">
<g id="camera_rear_24px">
<g id="&#226;&#134;&#179; Light Color">
<path id="Mask" opacity="0.5" fill-rule="evenodd" clip-rule="evenodd" d="M17 2V16H7V2H17ZM13.99 5C13.99 3.9 13.09 3 11.99 3C10.89 3 10 3.9 10 5C10 6.1 10.89 7 12 7C13.1 7 14 6.1 13.99 5Z" fill="currentColor" fill-opacity="0.54"/>
</g>
<g id="&#226;&#134;&#179; Dark Color">
<path id="Mask_2" d="M5 20V22H10V24L13 21L10 18V20H5Z" fill="currentColor" fill-opacity="0.54"/>
</g>
<g id="&#226;&#134;&#179; Dark Color_2">
<path id="Mask_3" d="M14 20H19V22H14V20Z" fill="currentColor" fill-opacity="0.54"/>
</g>
<g id="&#226;&#134;&#179; Dark Color_3">
<path id="Mask_4" fill-rule="evenodd" clip-rule="evenodd" d="M17 0C18.1 0 19 0.900002 19 2V16C19 17.1 18.1 18 17 18H10H7C5.90002 18 5 17.1 5 16V2C5 0.900002 5.90002 0 7 0H17ZM7 16H17V2H7V16Z" fill="currentColor" fill-opacity="0.54"/>
</g>
<g id="&#226;&#134;&#179; Dark Color_4">
<path id="Mask_5" d="M12 7C13.1 7 14 6.1 13.99 5C13.99 3.9 13.09 3 11.99 3C10.89 3 10 3.9 10 5C10 6.1 10.89 7 12 7Z" fill="currentColor" fill-opacity="0.54"/>
</g>
</g>
</svg>
