<svg width="1em" height="1em" viewBox="0 0 24 24" fill="none" xmlns="http://www.w3.org/2000/svg">
<g id="camera_front_24px">
<g id="&#226;&#134;&#179; Light Color">
<path id="Mask" opacity="0.5" d="M7 14H17V16H7V14Z" fill="currentColor" fill-opacity="0.54"/>
</g>
<g id="&#226;&#134;&#179; Dark Color">
<path id="Mask_2" d="M5 20V22H10V24L13 21L10 18V20H5Z" fill="currentColor" fill-opacity="0.54"/>
</g>
<g id="&#226;&#134;&#179; Dark Color_2">
<path id="Mask_3" d="M14 20H19V22H14V20Z" fill="currentColor" fill-opacity="0.54"/>
</g>
<g id="&#226;&#134;&#179; Dark Color_3">
<path id="Mask_4" d="M11.99 8C13.1 8 14 7.1 14 6C14 4.9 13.1 4 11.99 4C10.88 4 10 4.9 10 6C10 7.1 10.89 8 11.99 8Z" fill="currentColor" fill-opacity="0.54"/>
</g>
<g id="&#226;&#134;&#179; Dark Color_4">
<path id="Mask_5" fill-rule="evenodd" clip-rule="evenodd" d="M17 0H7C5.90002 0 5 0.900002 5 2V16C5 17.1 5.90002 18 7 18H10H17C18.1 18 19 17.1 19 16V2C19 0.900002 18.1 0 17 0ZM17 14V16H7V14H17ZM12 10C13.67 10 17 10.83 17 12.5V2H7V12.5C7 10.83 10.33 10 12 10Z" fill="currentColor" fill-opacity="0.54"/>
</g>
</g>
</svg>
