<svg width="1em" height="1em" viewBox="0 0 24 24" fill="none" xmlns="http://www.w3.org/2000/svg">
<g id="card_travel_24px">
<g id="&#226;&#134;&#179; Light Color">
<path id="Mask" opacity="0.5" d="M4 17H20V19H4V17Z" fill="currentColor" fill-opacity="0.54"/>
</g>
<g id="&#226;&#134;&#179; Light Color_2">
<path id="Mask_2" opacity="0.5" d="M17 10H15V8H9V10H7V8H4V14H20V8H17V10Z" fill="currentColor" fill-opacity="0.54"/>
</g>
<g id="&#226;&#134;&#179; Dark Color">
<path id="Mask_3" fill-rule="evenodd" clip-rule="evenodd" d="M17 6H20C21.11 6 22 6.89 22 8V19C22 20.11 21.11 21 20 21H4C2.89001 21 2 20.11 2 19V8C2 6.89 2.89001 6 4 6H7V4C7 2.89 7.89001 2 9 2H15C16.11 2 17 2.89 17 4V6ZM15 4H9V6H15V4ZM20 19H4V17H20V19ZM4 14H20V8H17V10H15V8H9V10H7V8H4V14Z" fill="currentColor" fill-opacity="0.54"/>
</g>
</g>
</svg>
