<svg width="1em" height="1em" viewBox="0 0 24 24" fill="none" xmlns="http://www.w3.org/2000/svg">
<g id="check_box_24px">
<g id="&#226;&#134;&#179; Light Color">
<path id="Mask" opacity="0.5" fill-rule="evenodd" clip-rule="evenodd" d="M19 19H5V5H19V19ZM9.98999 14.1799L7.41003 11.6L6 13.01L9.98999 17L17.99 9L16.58 7.58997L9.98999 14.1799Z" fill="currentColor" fill-opacity="0.54"/>
</g>
<g id="&#226;&#134;&#179; Dark Color">
<path id="Mask_2" fill-rule="evenodd" clip-rule="evenodd" d="M5 3H19C20.1 3 21 3.90002 21 5V19C21 20.1 20.1 21 19 21H5C3.90002 21 3 20.1 3 19V5C3 3.90002 3.90002 3 5 3ZM5 19H19V5H5V19Z" fill="currentColor" fill-opacity="0.54"/>
</g>
<g id="&#226;&#134;&#179; Dark Color_2">
<path id="Mask_3" d="M17.99 8.99996L16.58 7.57996L9.98999 14.17L7.40999 11.6L5.98999 13.01L9.98999 17L17.99 8.99996Z" fill="currentColor" fill-opacity="0.54"/>
</g>
</g>
</svg>
