<svg width="1em" height="1em" viewBox="0 0 24 24" fill="none" xmlns="http://www.w3.org/2000/svg">
<g id="class_24px">
<g id="&#226;&#134;&#179; Light Color">
<path id="Mask" opacity="0.5" d="M13 13L10 10.75L7 13V4H6V20H18V4H13V13Z" fill="currentColor" fill-opacity="0.54"/>
</g>
<g id="&#226;&#134;&#179; Dark Color">
<path id="Mask_2" fill-rule="evenodd" clip-rule="evenodd" d="M18 2H6C4.90002 2 4 2.9 4 4V20C4 21.1 4.90002 22 6 22H18C19.1 22 20 21.1 20 20V4C20 2.9 19.1 2 18 2ZM9 4H11V9L10 8.25L9 9V4ZM6 20H18V4H13V13L10 10.75L7 13V4H6V20Z" fill="currentColor" fill-opacity="0.54"/>
</g>
</g>
</svg>
