<svg width="1em" height="1em" viewBox="0 0 24 24" fill="none" xmlns="http://www.w3.org/2000/svg">
<g id="collections_bookmark_24px">
<g id="&#226;&#134;&#179; Light Color">
<path id="Mask" opacity="0.5" d="M20 4H19V13L16 10.75L13 13V4H8V16H20V4Z" fill="currentColor" fill-opacity="0.54"/>
</g>
<g id="&#226;&#134;&#179; Dark Color">
<path id="Mask_2" d="M4 22H18V20H4V6H2V20C2 21.1 2.9 22 4 22Z" fill="currentColor" fill-opacity="0.54"/>
</g>
<g id="&#226;&#134;&#179; Dark Color_2">
<path id="Mask_3" fill-rule="evenodd" clip-rule="evenodd" d="M22 16V4C22 2.9 21.1 2 20 2H19H13H8C6.90002 2 6 2.9 6 4V16C6 17.1 6.90002 18 8 18H20C21.1 18 22 17.1 22 16ZM15 4H17V9L16 8.25L15 9V4ZM13 4H8V16H20V4H19V13L16 10.75L13 13V4Z" fill="currentColor" fill-opacity="0.54"/>
</g>
</g>
</svg>
