<svg width="1em" height="1em" viewBox="0 0 24 24" fill="none" xmlns="http://www.w3.org/2000/svg">
<g id="colorize_24px">
<g id="&#226;&#134;&#179; Light Color">
<path id="Mask" opacity="0.5" d="M15.8961 9.02331L14.9769 8.10408L17.6709 5.41002L18.5902 6.32925L15.8961 9.02331Z" fill="currentColor" fill-opacity="0.54"/>
</g>
<g id="&#226;&#134;&#179; Dark Color">
<path id="Mask_2" fill-rule="evenodd" clip-rule="evenodd" d="M20.71 5.63L18.37 3.29C18.17 3.09 17.92 3 17.66 3C17.4 3 17.15 3.1 16.96 3.29L13.84 6.41L11.91 4.5L10.5 5.91L11.92 7.33L3 16.25V21H7.75L16.67 12.08L18.09 13.5L19.5 12.09L17.58 10.17L20.7 7.05C21.1 6.65 21.1 6.02 20.71 5.63ZM6.92004 19L5 17.08L13.0601 9.02L14.98 10.94L6.92004 19ZM14.97 8.1L15.9 9.03L18.58 6.33L17.6599 5.41L14.97 8.1Z" fill="currentColor" fill-opacity="0.54"/>
</g>
</g>
</svg>
