<svg width="1em" height="1em" viewBox="0 0 24 24" fill="none" xmlns="http://www.w3.org/2000/svg">
<g id="compare_24px">
<g id="&#226;&#134;&#179; Light Color">
<path id="Mask" opacity="0.5" d="M19 5H14V12L19 18V5Z" fill="currentColor" fill-opacity="0.54"/>
</g>
<g id="&#226;&#134;&#179; Light Color_2">
<path id="Mask_2" opacity="0.5" d="M10 18V12L5 18H10Z" fill="currentColor" fill-opacity="0.54"/>
</g>
<g id="&#226;&#134;&#179; Dark Color">
<path id="Mask_3" d="M19 3H14V5H19V18L14 12V21H19C20.1 21 21 20.1 21 19V5C21 3.9 20.1 3 19 3Z" fill="currentColor" fill-opacity="0.54"/>
</g>
<g id="&#226;&#134;&#179; Dark Color_2">
<path id="Mask_4" fill-rule="evenodd" clip-rule="evenodd" d="M10 1H12V5V12V23H10V21H5C3.90002 21 3 20.1 3 19V5C3 3.9 3.90002 3 5 3H10V1ZM5 18H10V12L5 18Z" fill="currentColor" fill-opacity="0.54"/>
</g>
</g>
</svg>
