<svg width="1em" height="1em" viewBox="0 0 24 24" fill="none" xmlns="http://www.w3.org/2000/svg">
<g id="contact_support_24px">
<g id="&#226;&#134;&#179; Light Color">
<path id="Mask" opacity="0.5" fill-rule="evenodd" clip-rule="evenodd" d="M11.5 3C7.35999 3 4 6.36 4 10.5C4 14.64 7.35999 18 11.5 18H13V20.3C16.64 18 19 14.22 19 10.5C19 6.36 15.64 3 11.5 3ZM10.5 16.5V14.5H12.5V16.5H10.5ZM12.2704 9.82168C11.4421 10.4566 10.5 11.1787 10.5 13H12.5C12.5 11.9046 13.2111 11.2833 13.9408 10.6455C14.71 9.97332 15.5 9.28292 15.5 8C15.5 5.79 13.71 4 11.5 4C9.29004 4 7.5 5.79 7.5 8H9.5C9.5 6.9 10.4 6 11.5 6C12.6 6 13.5 6.9 13.5 8C13.5 8.87922 12.9203 9.32361 12.2704 9.82168Z" fill="currentColor" fill-opacity="0.54"/>
</g>
<g id="&#226;&#134;&#179; Dark Color">
<path id="Mask_2" fill-rule="evenodd" clip-rule="evenodd" d="M2 10.5C2 5.26 6.26001 1 11.5 1C16.74 1 21 5.26 21 10.5C21 15.45 17.5601 20.43 12.4301 22.9L11 23.59V19.99C5.98999 19.73 2 15.57 2 10.5ZM13 18V20.3C16.64 18.01 19 14.23 19 10.5C19 6.36 15.64 3 11.5 3C7.35999 3 4 6.36 4 10.5C4 14.64 7.35999 18 11.5 18H13Z" fill="currentColor" fill-opacity="0.54"/>
</g>
<g id="&#226;&#134;&#179; Dark Color_2">
<path id="Mask_3" d="M10.5 14.5H12.5V16.5H10.5V14.5Z" fill="currentColor" fill-opacity="0.54"/>
</g>
<g id="&#226;&#134;&#179; Dark Color_3">
<path id="Mask_4" d="M11.5 4C9.29 4 7.5 5.79 7.5 8H9.5C9.5 6.9 10.4 6 11.5 6C12.6 6 13.5 6.9 13.5 8C13.5 10 10.5 9.75 10.5 13H12.5C12.5 10.75 15.5 10.5 15.5 8C15.5 5.79 13.71 4 11.5 4Z" fill="currentColor" fill-opacity="0.54"/>
</g>
</g>
</svg>
