<svg width="1em" height="1em" viewBox="0 0 24 24" fill="none" xmlns="http://www.w3.org/2000/svg">
<g id="control_point_duplicate_24px">
<g id="&#226;&#134;&#179; Light Color">
<path id="Mask" opacity="0.5" fill-rule="evenodd" clip-rule="evenodd" d="M8 12C8 8.14 11.14 5 15 5C18.86 5 22 8.14 22 12C22 15.86 18.86 19 15 19C11.14 19 8 15.86 8 12ZM16 13H19V11H16V8H14V11H11V13H14V16H16V13Z" fill="currentColor" fill-opacity="0.54"/>
</g>
<g id="&#226;&#134;&#179; Dark Color">
<path id="Mask_2" d="M16 8H14V11H11V13H14V16H16V13H19V11H16V8Z" fill="currentColor" fill-opacity="0.54"/>
</g>
<g id="&#226;&#134;&#179; Dark Color_2">
<path id="Mask_3" fill-rule="evenodd" clip-rule="evenodd" d="M6 12C6 7.04 10.04 3 15 3C19.96 3 24 7.04 24 12C24 16.96 19.96 21 15 21C10.04 21 6 16.96 6 12ZM8 12C8 15.86 11.14 19 15 19C18.86 19 22 15.86 22 12C22 8.14 18.86 5 15 5C11.14 5 8 8.14 8 12Z" fill="currentColor" fill-opacity="0.54"/>
</g>
<g id="&#226;&#134;&#179; Dark Color_3">
<path id="Mask_4" d="M2 12C2 9.21 3.64 6.8 6.01 5.68V3.52C2.52 4.76 0 8.09 0 12C0 15.91 2.52 19.24 6.01 20.48V18.32C3.64 17.2 2 14.79 2 12Z" fill="currentColor" fill-opacity="0.54"/>
</g>
</g>
</svg>
