<svg width="1em" height="1em" viewBox="0 0 24 24" fill="none" xmlns="http://www.w3.org/2000/svg">
<g id="cut_24px">
<g id="&#226;&#134;&#179; Dark Color">
<path id="Mask" d="M19 3L13 9L15 11L22 4V3H19Z" fill="currentColor" fill-opacity="0.54"/>
</g>
<g id="&#226;&#134;&#179; Dark Color_2">
<path id="Mask_2" fill-rule="evenodd" clip-rule="evenodd" d="M6 2C8.21 2 10 3.79 10 6C10 6.59 9.87 7.14 9.64 7.64L22 20V21H19L12 14L9.64 16.36C9.87 16.86 10 17.41 10 18C10 20.21 8.21 22 6 22C3.79 22 2 20.21 2 18C2 15.79 3.79 14 6 14C6.59 14 7.14 14.13 7.64 14.36L10 12L7.64 9.64C7.14 9.87 6.59 10 6 10C3.79 10 2 8.21 2 6C2 3.79 3.79 2 6 2ZM4 6C4 7.11 4.9 8 6 8C7.1 8 8 7.11 8 6C8 4.89 7.1 4 6 4C4.9 4 4 4.89 4 6ZM6 20C4.9 20 4 19.11 4 18C4 16.89 4.9 16 6 16C7.1 16 8 16.89 8 18C8 19.11 7.1 20 6 20ZM12.5 12C12.5 11.72 12.28 11.5 12 11.5C11.72 11.5 11.5 11.72 11.5 12C11.5 12.28 11.72 12.5 12 12.5C12.28 12.5 12.5 12.28 12.5 12Z" fill="currentColor" fill-opacity="0.54"/>
</g>
</g>
</svg>
