<svg width="1em" height="1em" viewBox="0 0 24 24" fill="none" xmlns="http://www.w3.org/2000/svg">
<g id="dashboard_24px">
<g id="&#226;&#134;&#179; Dark Color">
<path id="Mask" d="M5 5H9V11H5V5Z" fill="currentColor" fill-opacity="0.54"/>
</g>
<g id="&#226;&#134;&#179; Dark Color_2">
<path id="Mask_2" d="M15 13H19V19H15V13Z" fill="currentColor" fill-opacity="0.54"/>
</g>
<g id="&#226;&#134;&#179; Dark Color_3">
<path id="Mask_3" d="M5 17H9V19H5V17Z" fill="currentColor" fill-opacity="0.54"/>
</g>
<g id="&#226;&#134;&#179; Dark Color_4">
<path id="Mask_4" d="M15 5H19V7H15V5Z" fill="currentColor" fill-opacity="0.54"/>
</g>
<g id="&#226;&#134;&#179; Dark Color_5">
<path id="Mask_5" fill-rule="evenodd" clip-rule="evenodd" d="M11 13H3V3H11V13ZM9 5H5V11H9V5Z" fill="currentColor" fill-opacity="0.54"/>
</g>
<g id="&#226;&#134;&#179; Dark Color_6">
<path id="Mask_6" fill-rule="evenodd" clip-rule="evenodd" d="M21 21H13V11H21V21ZM19 13H15V19H19V13Z" fill="currentColor" fill-opacity="0.54"/>
</g>
<g id="&#226;&#134;&#179; Dark Color_7">
<path id="Mask_7" fill-rule="evenodd" clip-rule="evenodd" d="M13 9V3H21V9H13ZM15 7H19V5H15V7Z" fill="currentColor" fill-opacity="0.54"/>
</g>
<g id="&#226;&#134;&#179; Dark Color_8">
<path id="Mask_8" fill-rule="evenodd" clip-rule="evenodd" d="M11 21H3V15H11V21ZM9 17H5V19H9V17Z" fill="currentColor" fill-opacity="0.54"/>
</g>
</g>
</svg>
