<svg width="1em" height="1em" viewBox="0 0 24 24" fill="none" xmlns="http://www.w3.org/2000/svg">
<g id="delete_forever_24px">
<g id="&#226;&#134;&#179; Light Color">
<path id="Mask" opacity="0.5" fill-rule="evenodd" clip-rule="evenodd" d="M8 9H16V19H8V9ZM14.12 17.53L15.53 16.12L13.41 14L15.53 11.88L14.12 10.47L12 12.59L9.87 10.47L8.46002 11.88L10.59 14L8.47003 16.12L9.88 17.53L12 15.41L14.12 17.53Z" fill="currentColor" fill-opacity="0.54"/>
</g>
<g id="&#226;&#134;&#179; Dark Color">
<path id="Mask_2" d="M14.12 10.47L12 12.59L9.87002 10.47L8.46002 11.88L10.59 14L8.47002 16.12L9.88002 17.53L12 15.41L14.12 17.53L15.53 16.12L13.41 14L15.53 11.88L14.12 10.47Z" fill="currentColor" fill-opacity="0.54"/>
</g>
<g id="&#226;&#134;&#179; Dark Color_2">
<path id="Mask_3" d="M15.5 4L14.5 3H9.5L8.5 4H5V6H19V4H15.5Z" fill="currentColor" fill-opacity="0.54"/>
</g>
<g id="&#226;&#134;&#179; Dark Color_3">
<path id="Mask_4" fill-rule="evenodd" clip-rule="evenodd" d="M8 21C6.90002 21 6 20.1 6 19V7H18V19C18 20.1 17.1 21 16 21H8ZM16 9H8V19H16V9Z" fill="currentColor" fill-opacity="0.54"/>
</g>
</g>
</svg>
