<svg width="1em" height="1em" viewBox="0 0 24 24" fill="none" xmlns="http://www.w3.org/2000/svg">
<g id="dns_24px">
<g id="&#226;&#134;&#179; Light Color">
<path id="Mask" opacity="0.5" fill-rule="evenodd" clip-rule="evenodd" d="M19 9H5V5H19V9ZM8.5 7C8.5 6.17 7.83002 5.5 7 5.5C6.16998 5.5 5.5 6.17 5.5 7C5.5 7.83 6.16998 8.5 7 8.5C7.83002 8.5 8.5 7.83 8.5 7Z" fill="currentColor" fill-opacity="0.54"/>
</g>
<g id="&#226;&#134;&#179; Light Color_2">
<path id="Mask_2" opacity="0.5" fill-rule="evenodd" clip-rule="evenodd" d="M19 19H5V15H19V19ZM8.5 17C8.5 16.17 7.83002 15.5 7 15.5C6.16998 15.5 5.5 16.17 5.5 17C5.5 17.83 6.16998 18.5 7 18.5C7.83002 18.5 8.5 17.83 8.5 17Z" fill="currentColor" fill-opacity="0.54"/>
</g>
<g id="&#226;&#134;&#179; Dark Color">
<path id="Mask_3" fill-rule="evenodd" clip-rule="evenodd" d="M4 13H20C20.55 13 21 13.45 21 14V20C21 20.55 20.55 21 20 21H4C3.45001 21 3 20.55 3 20V14C3 13.45 3.45001 13 4 13ZM5 19H19V15H5V19Z" fill="currentColor" fill-opacity="0.54"/>
</g>
<g id="&#226;&#134;&#179; Dark Color_2">
<path id="Mask_4" d="M7 18.5C7.82843 18.5 8.5 17.8284 8.5 17C8.5 16.1716 7.82843 15.5 7 15.5C6.17157 15.5 5.5 16.1716 5.5 17C5.5 17.8284 6.17157 18.5 7 18.5Z" fill="currentColor" fill-opacity="0.54"/>
</g>
<g id="&#226;&#134;&#179; Dark Color_3">
<path id="Mask_5" fill-rule="evenodd" clip-rule="evenodd" d="M4 3H20C20.55 3 21 3.45 21 4V10C21 10.55 20.55 11 20 11H4C3.45001 11 3 10.55 3 10V4C3 3.45 3.45001 3 4 3ZM5 9H19V5H5V9Z" fill="currentColor" fill-opacity="0.54"/>
</g>
<g id="&#226;&#134;&#179; Dark Color_4">
<path id="Mask_6" d="M7 8.5C7.82843 8.5 8.5 7.82843 8.5 7C8.5 6.17157 7.82843 5.5 7 5.5C6.17157 5.5 5.5 6.17157 5.5 7C5.5 7.82843 6.17157 8.5 7 8.5Z" fill="currentColor" fill-opacity="0.54"/>
</g>
</g>
</svg>
