<svg width="1em" height="1em" viewBox="0 0 24 24" fill="none" xmlns="http://www.w3.org/2000/svg">
<g id="donut_large_24px">
<g id="&#226;&#134;&#179; Dark Color">
<path id="Mask" d="M13 5.08C16.06 5.52 18.48 7.94 18.92 11H21.95C21.48 6.28 17.72 2.52 13 2.05V5.08Z" fill="currentColor" fill-opacity="0.54"/>
</g>
<g id="&#226;&#134;&#179; Dark Color_2">
<path id="Mask_2" d="M18.92 13C18.48 16.06 16.06 18.48 13 18.92V21.95C17.72 21.48 21.48 17.72 21.95 13H18.92V13Z" fill="currentColor" fill-opacity="0.54"/>
</g>
<g id="&#226;&#134;&#179; Dark Color_3">
<path id="Mask_3" d="M11 18.92C7.61 18.43 5 15.52 5 12C5 8.48 7.61 5.57 11 5.08V2.05C5.95 2.55 2 6.81 2 12C2 17.19 5.95 21.45 11 21.95V18.92Z" fill="currentColor" fill-opacity="0.54"/>
</g>
</g>
</svg>
