<svg width="1em" height="1em" viewBox="0 0 24 24" fill="none" xmlns="http://www.w3.org/2000/svg">
<g id="donut_small_24px">
<g id="&#226;&#134;&#179; Light Color">
<path id="Mask" opacity="0.5" d="M15.99 9H19.42C18.6 7 17 5.4 15 4.58V8.01C15.37 8.29 15.71 8.63 15.99 9Z" fill="currentColor" fill-opacity="0.54"/>
</g>
<g id="&#226;&#134;&#179; Light Color_2">
<path id="Mask_2" opacity="0.5" d="M4 12C4 15.35 6.04 18.24 9 19.42V15.98C7.77 15.05 7 13.58 7 11.99C7 10.4 7.77 8.93 9 8V4.58C6.04 5.76 4 8.65 4 12Z" fill="currentColor" fill-opacity="0.54"/>
</g>
<g id="&#226;&#134;&#179; Light Color_3">
<path id="Mask_3" opacity="0.5" d="M15 15.99V19.42C17 18.6 18.6 17 19.42 15H15.99C15.71 15.37 15.37 15.71 15 15.99Z" fill="currentColor" fill-opacity="0.54"/>
</g>
<g id="&#226;&#134;&#179; Dark Color">
<path id="Mask_4" fill-rule="evenodd" clip-rule="evenodd" d="M21.95 11H14.82C14.51 10.15 13.85 9.49001 13 9.18001V2.05C17.72 2.52 21.48 6.28 21.95 11ZM19.42 9C18.6 7 17 5.40001 15 4.58V8.00999C15.37 8.29001 15.71 8.63 15.99 9H19.42Z" fill="currentColor" fill-opacity="0.54"/>
</g>
<g id="&#226;&#134;&#179; Dark Color_2">
<path id="Mask_5" fill-rule="evenodd" clip-rule="evenodd" d="M11 21.95C5.95001 21.45 2 17.19 2 12C2 6.81 5.95001 2.55 11 2.05V9.18001C9.84003 9.60001 9 10.7 9 12C9 13.3 9.84003 14.4 11 14.82V21.95ZM9 8.02V4.58C6.03998 5.75999 4 8.65001 4 12C4 15.35 6.03998 18.24 9 19.43V15.99C7.77002 15.06 7 13.59 7 12C7 10.41 7.77002 8.94 9 8.02Z" fill="currentColor" fill-opacity="0.54"/>
</g>
<g id="&#226;&#134;&#179; Dark Color_3">
<path id="Mask_6" fill-rule="evenodd" clip-rule="evenodd" d="M13 21.95V14.82C13.85 14.51 14.51 13.85 14.82 13H21.95C21.48 17.72 17.72 21.48 13 21.95ZM15.99 15C15.71 15.38 15.37 15.71 15 15.99V19.42C17 18.6 18.6 17 19.42 15H15.99Z" fill="currentColor" fill-opacity="0.54"/>
</g>
</g>
</svg>
