<svg width="1em" height="1em" viewBox="0 0 24 24" fill="none" xmlns="http://www.w3.org/2000/svg">
<g id="drafts_24px">
<g id="&#226;&#134;&#179; Light Color">
<path id="Mask" opacity="0.5" d="M12 15.36L4 10.34V18H20L19.99 10.37L12 15.36Z" fill="currentColor" fill-opacity="0.54"/>
</g>
<g id="&#226;&#134;&#179; Dark Color">
<path id="Mask_2" fill-rule="evenodd" clip-rule="evenodd" d="M21.99 8C21.99 7.28 21.62 6.65 21.05 6.3L12 1L2.95 6.3C2.38 6.65 2 7.28 2 8V18C2 19.1 2.89999 20 4 20H20C21.1 20 22 19.1 22 18L21.99 8ZM12 3.32L19.99 8V8.01L12 13L4 8L12 3.32ZM4 10.34V18H20L19.99 10.37L12 15.36L4 10.34Z" fill="currentColor" fill-opacity="0.54"/>
</g>
</g>
</svg>
