<svg width="1em" height="1em" viewBox="0 0 24 24" fill="none" xmlns="http://www.w3.org/2000/svg">
<g id="drag_indicator_24px">
<g id="&#226;&#134;&#179; Dark Color">
<path id="Mask" fill-rule="evenodd" clip-rule="evenodd" d="M9 4C7.90002 4 7 4.89999 7 6C7 7.10001 7.90002 8 9 8C10.1 8 11 7.10001 11 6C11 4.89999 10.1 4 9 4ZM7 12C7 10.9 7.90002 10 9 10C10.1 10 11 10.9 11 12C11 13.1 10.1 14 9 14C7.90002 14 7 13.1 7 12ZM9 20C10.1 20 11 19.1 11 18C11 16.9 10.1 16 9 16C7.90002 16 7 16.9 7 18C7 19.1 7.90002 20 9 20ZM17 6C17 7.10001 16.1 8 15 8C13.9 8 13 7.10001 13 6C13 4.89999 13.9 4 15 4C16.1 4 17 4.89999 17 6ZM15 10C13.9 10 13 10.9 13 12C13 13.1 13.9 14 15 14C16.1 14 17 13.1 17 12C17 10.9 16.1 10 15 10ZM13 18C13 16.9 13.9 16 15 16C16.1 16 17 16.9 17 18C17 19.1 16.1 20 15 20C13.9 20 13 19.1 13 18Z" fill="currentColor" fill-opacity="0.54"/>
</g>
</g>
</svg>
