<svg width="1em" height="1em" viewBox="0 0 24 24" fill="none" xmlns="http://www.w3.org/2000/svg">
<g id="event_24px">
<g id="&#226;&#134;&#179; Light Color">
<path id="Mask" opacity="0.5" d="M5 8H19V6H5V8Z" fill="currentColor" fill-opacity="0.54"/>
</g>
<g id="&#226;&#134;&#179; Dark Color">
<path id="Mask_2" fill-rule="evenodd" clip-rule="evenodd" d="M19 4H18V2H16V4H8V2H6V4H5C3.89001 4 3.01001 4.89999 3.01001 6L3 20C3 21.1 3.89001 22 5 22H19C20.1 22 21 21.1 21 20V6C21 4.89999 20.1 4 19 4ZM19 20H5V10H19V20ZM5 8H19V6H5V8Z" fill="currentColor" fill-opacity="0.54"/>
</g>
<g id="&#226;&#134;&#179; Dark Color_2">
<path id="Mask_3" d="M12 13H17V18H12V13Z" fill="currentColor" fill-opacity="0.54"/>
</g>
</g>
</svg>
