<svg width="1em" height="1em" viewBox="0 0 24 24" fill="none" xmlns="http://www.w3.org/2000/svg">
<g id="explore_off_24px">
<g id="&#226;&#134;&#179; Light Color">
<path id="Mask" opacity="0.5" d="M12 20C13.48 20 14.86 19.59 16.06 18.88L12.08 14.9L6.5 17.5L9.09 11.92L5.12 7.94C4.41 9.14 4 10.52 4 12C4 16.41 7.59 20 12 20Z" fill="currentColor" fill-opacity="0.54"/>
</g>
<g id="&#226;&#134;&#179; Light Color_2">
<path id="Mask_2" opacity="0.5" d="M11.9999 4C10.5199 4 9.13994 4.41 7.93994 5.12L11.9199 9.1L17.4999 6.5L14.9099 12.08L18.8899 16.06C19.5899 14.86 19.9999 13.48 19.9999 12C19.9999 7.59 16.4099 4 11.9999 4Z" fill="currentColor" fill-opacity="0.54"/>
</g>
<g id="&#226;&#134;&#179; Dark Color">
<path id="Mask_3" d="M17.5 6.5L11.92 9.09L14.91 12.08L17.5 6.5Z" fill="currentColor" fill-opacity="0.54"/>
</g>
<g id="&#226;&#134;&#179; Dark Color_2">
<path id="Mask_4" fill-rule="evenodd" clip-rule="evenodd" d="M3.66003 6.48999L2.09998 4.92999L3.51001 3.50999L20.48 20.49L19.0699 21.9L17.51 20.34C15.9301 21.39 14.04 22 12 22C6.47998 22 2 17.52 2 12C2 9.95999 2.60999 8.06999 3.66003 6.48999ZM9.09998 11.92L5.12 7.93999C4.41003 9.13998 4 10.52 4 12C4 16.41 7.58997 20 12 20C13.48 20 14.86 19.59 16.0601 18.89L12.08 14.91L6.5 17.5L9.09998 11.92Z" fill="currentColor" fill-opacity="0.54"/>
</g>
<g id="&#226;&#134;&#179; Dark Color_3">
<path id="Mask_5" d="M12 4C16.41 4 20 7.59 20 12C20 13.48 19.59 14.86 18.88 16.06L20.34 17.52C21.39 15.93 22 14.04 22 12C22 6.48 17.52 2 12 2C9.95999 2 8.06999 2.61 6.48999 3.66L7.94999 5.12C9.13999 4.41 10.52 4 12 4Z" fill="currentColor" fill-opacity="0.54"/>
</g>
</g>
</svg>
