<svg width="1em" height="1em" viewBox="0 0 24 24" fill="none" xmlns="http://www.w3.org/2000/svg">
<g id="exposure_24px">
<g id="&#226;&#134;&#179; Light Color">
<path id="Mask" opacity="0.5" fill-rule="evenodd" clip-rule="evenodd" d="M19 5V19H5L19 5ZM14.5 12.5V14.5H12.5V16H14.5V18H16V16H18V14.5H16V12.5H14.5Z" fill="currentColor" fill-opacity="0.54"/>
</g>
<g id="&#226;&#134;&#179; Dark Color">
<path id="Mask_2" fill-rule="evenodd" clip-rule="evenodd" d="M19 3H5C3.90002 3 3 3.9 3 5V19C3 20.1 3.90002 21 5 21H19C20.1 21 21 20.1 21 19V5C21 3.9 20.1 3 19 3ZM6 7H11V8.5H6V7ZM5 19H19V5L5 19Z" fill="currentColor" fill-opacity="0.54"/>
</g>
<g id="&#226;&#134;&#179; Dark Color_2">
<path id="Mask_3" d="M14.5 16V18H16V16H18V14.5H16V12.5H14.5V14.5H12.5V16H14.5Z" fill="currentColor" fill-opacity="0.54"/>
</g>
</g>
</svg>
