<svg width="1em" height="1em" viewBox="0 0 24 24" fill="none" xmlns="http://www.w3.org/2000/svg">
<g id="extension_24px">
<g id="&#226;&#134;&#179; Light Color">
<path id="Mask" opacity="0.5" d="M19 13H17V11V7H13H11V5C11 4.72 10.78 4.5 10.5 4.5C10.22 4.5 10 4.72 10 5V7H8H4L4.01 9.12C5.76 9.8 7 11.51 7 13.5C7 15.49 5.75 17.2 4 17.88V20H6.12C6.8 18.25 8.51 17 10.5 17C12.49 17 14.2 18.25 14.88 20H17V16V14H19C19.28 14 19.5 13.78 19.5 13.5C19.5 13.22 19.28 13 19 13Z" fill="currentColor" fill-opacity="0.54"/>
</g>
<g id="&#226;&#134;&#179; Dark Color">
<path id="Mask_2" fill-rule="evenodd" clip-rule="evenodd" d="M19 7V11C20.38 11 21.5 12.12 21.5 13.5C21.5 14.88 20.38 16 19 16V20C19 21.1 18.1 22 17 22H13.2V21.7C13.2 20.21 11.99 19 10.5 19C9.01001 19 7.80005 20.21 7.80005 21.7V22H4C2.90002 22 2 21.1 2 20V16.2H2.30005C3.79004 16.2 5 14.99 5 13.5C5 12.01 3.79004 10.8 2.30005 10.8H2.01001V7C2.01001 5.89999 2.90002 5 4 5H8C8 3.62 9.12 2.5 10.5 2.5C11.88 2.5 13 3.62 13 5H17C18.1 5 19 5.89999 19 7ZM17 14H19C19.28 14 19.5 13.78 19.5 13.5C19.5 13.22 19.28 13 19 13H17V11V7H13H11V5C11 4.72 10.78 4.5 10.5 4.5C10.22 4.5 10 4.72 10 5V7H8H4L4.01001 9.12C5.76001 9.8 7 11.51 7 13.5C7 15.49 5.75 17.2 4 17.88V20H6.12C6.80005 18.25 8.51001 17 10.5 17C12.49 17 14.2 18.25 14.88 20H17V16V14Z" fill="currentColor" fill-opacity="0.54"/>
</g>
</g>
</svg>
