<svg width="1em" height="1em" viewBox="0 0 24 24" fill="none" xmlns="http://www.w3.org/2000/svg">
<g id="face_24px">
<g id="&#226;&#134;&#179; Light Color">
<path id="Mask" opacity="0.5" d="M17.5 8C17.96 8 18.41 7.95 18.84 7.88C17.44 5.56 14.9 4 12 4C11.54 4 11.09 4.05 10.66 4.12C12.06 6.44 14.6 8 17.5 8Z" fill="currentColor" fill-opacity="0.54"/>
</g>
<g id="&#226;&#134;&#179; Light Color_2">
<path id="Mask_2" opacity="0.5" d="M8.07998 5.03C6.36998 6 5.04998 7.58 4.41998 9.47C6.12998 8.5 7.44998 6.92 8.07998 5.03Z" fill="currentColor" fill-opacity="0.54"/>
</g>
<g id="&#226;&#134;&#179; Dark Color">
<path id="Mask_3" fill-rule="evenodd" clip-rule="evenodd" d="M2 12C2 6.48 6.47998 2 12 2C17.52 2 22 6.48 22 12C22 17.52 17.52 22 12 22C6.47998 22 2 17.52 2 12ZM18.84 7.88C17.44 5.56 14.9 4 12 4C11.54 4 11.09 4.05 10.66 4.12C12.06 6.44 14.6 8 17.5 8C17.96 8 18.41 7.95 18.84 7.88ZM8.07996 5.03C7.45001 6.92 6.13 8.5 4.41998 9.47C5.04999 7.58 6.37 6 8.07996 5.03ZM4 12C4 16.41 7.59003 20 12 20C16.41 20 20 16.41 20 12C20 11.22 19.88 10.47 19.67 9.76001C18.97 9.91 18.25 10 17.5 10C14.37 10 11.58 8.56 9.75 6.3C8.69 8.86 6.60999 10.87 4.01001 11.85C4.01001 11.875 4.00751 11.9 4.005 11.925C4.0025 11.95 4 11.975 4 12Z" fill="currentColor" fill-opacity="0.54"/>
</g>
<g id="&#226;&#134;&#179; Dark Color_2">
<path id="Mask_4" d="M9 14.25C9.69036 14.25 10.25 13.6904 10.25 13C10.25 12.3096 9.69036 11.75 9 11.75C8.30964 11.75 7.75 12.3096 7.75 13C7.75 13.6904 8.30964 14.25 9 14.25Z" fill="currentColor" fill-opacity="0.54"/>
</g>
<g id="&#226;&#134;&#179; Dark Color_3">
<path id="Mask_5" d="M15 14.25C15.6904 14.25 16.25 13.6904 16.25 13C16.25 12.3096 15.6904 11.75 15 11.75C14.3096 11.75 13.75 12.3096 13.75 13C13.75 13.6904 14.3096 14.25 15 14.25Z" fill="currentColor" fill-opacity="0.54"/>
</g>
</g>
</svg>
