<svg width="1em" height="1em" viewBox="0 0 24 24" fill="none" xmlns="http://www.w3.org/2000/svg">
<g id="feedback_24px">
<g id="&#226;&#134;&#179; Light Color">
<path id="Mask" opacity="0.5" fill-rule="evenodd" clip-rule="evenodd" d="M4 17.17L5.16998 16H6H20V4H4V17.17ZM11 6H13V10H11V6ZM13 12H11V14H13V12Z" fill="currentColor" fill-opacity="0.54"/>
</g>
<g id="&#226;&#134;&#179; Dark Color">
<path id="Mask_2" fill-rule="evenodd" clip-rule="evenodd" d="M4 2H20C21.1 2 22 2.89999 22 4V16C22 17.1 21.1 18 20 18H6L2 22L2.01001 4C2.01001 2.89999 2.90002 2 4 2ZM6 16H20V4H4V17.17L5.16998 16H6Z" fill="currentColor" fill-opacity="0.54"/>
</g>
<g id="&#226;&#134;&#179; Dark Color_2">
<path id="Mask_3" d="M11 12H13V14H11V12Z" fill="currentColor" fill-opacity="0.54"/>
</g>
<g id="&#226;&#134;&#179; Dark Color_3">
<path id="Mask_4" d="M11 6H13V10H11V6Z" fill="currentColor" fill-opacity="0.54"/>
</g>
</g>
</svg>
