<svg width="1em" height="1em" viewBox="0 0 24 24" fill="none" xmlns="http://www.w3.org/2000/svg">
<g id="filter_4_24px">
<g id="&#226;&#134;&#179; Light Color">
<path id="Mask" opacity="0.5" fill-rule="evenodd" clip-rule="evenodd" d="M7 3H21V17H7V3ZM15 15H17V5H15V9H13V5H11V11H15V15Z" fill="currentColor" fill-opacity="0.54"/>
</g>
<g id="&#226;&#134;&#179; Dark Color">
<path id="Mask_2" d="M3 23H19V21H3V5H1V21C1 22.1 1.9 23 3 23Z" fill="currentColor" fill-opacity="0.54"/>
</g>
<g id="&#226;&#134;&#179; Dark Color_2">
<path id="Mask_3" fill-rule="evenodd" clip-rule="evenodd" d="M21 19H7C5.90002 19 5 18.1 5 17V3C5 1.9 5.90002 1 7 1H21C22.1 1 23 1.9 23 3V17C23 18.1 22.1 19 21 19ZM21 3H7V17H21V3Z" fill="currentColor" fill-opacity="0.54"/>
</g>
<g id="&#226;&#134;&#179; Dark Color_3">
<path id="Mask_4" d="M15 9H13V5H11V11H15V15H17V5H15V9Z" fill="currentColor" fill-opacity="0.54"/>
</g>
</g>
</svg>
