<svg width="1em" height="1em" viewBox="0 0 24 24" fill="none" xmlns="http://www.w3.org/2000/svg">
<g id="filter_9_plus_24px">
<g id="&#226;&#134;&#179; Light Color">
<path id="Mask" opacity="0.5" fill-rule="evenodd" clip-rule="evenodd" d="M21 11V17H7V3H21V9H19V7H17V9H15V11H17V13H19V11H21ZM12 12H9V14H12C13.1 14 14 13.11 14 12V8C14 6.89 13.1 6 12 6H11C9.90002 6 9 6.89 9 8V9C9 10.11 9.90002 11 11 11H12V12Z" fill="currentColor" fill-opacity="0.54"/>
</g>
<g id="&#226;&#134;&#179; Dark Color">
<path id="Mask_2" d="M19 21H3V5H1V21C1 22.1 1.9 23 3 23H19V21Z" fill="currentColor" fill-opacity="0.54"/>
</g>
<g id="&#226;&#134;&#179; Light Color_2">
<path id="Mask_3" opacity="0.5" d="M11 8H12V9H11V8Z" fill="currentColor" fill-opacity="0.54"/>
</g>
<g id="&#226;&#134;&#179; Dark Color_2">
<path id="Mask_4" fill-rule="evenodd" clip-rule="evenodd" d="M11 6H12C13.1 6 14 6.89 14 8V12C14 13.11 13.1 14 12 14H9V12H12V11H11C9.90002 11 9 10.11 9 9V8C9 6.89 9.90002 6 11 6ZM11 9H12V8H11V9Z" fill="currentColor" fill-opacity="0.54"/>
</g>
<g id="&#226;&#134;&#179; Dark Color_3">
<path id="Mask_5" fill-rule="evenodd" clip-rule="evenodd" d="M7 1H21C22.1 1 23 1.89999 23 3V17C23 18.1 22.1 19 21 19H7C5.90002 19 5 18.1 5 17V3C5 1.89999 5.90002 1 7 1ZM19 9H21V3H7V17H21V11H19V13H17V11H15V9H17V7H19V9Z" fill="currentColor" fill-opacity="0.54"/>
</g>
</g>
</svg>
