<svg width="1em" height="1em" viewBox="0 0 24 24" fill="none" xmlns="http://www.w3.org/2000/svg">
<g id="filter_8_24px">
<g id="&#226;&#134;&#179; Light Color">
<path id="Mask" opacity="0.5" fill-rule="evenodd" clip-rule="evenodd" d="M21 17H7V3H21V17ZM12.5 10C11.67 10 11 10.67 11 11.5V13C11 14.11 11.9 15 13 15H15C16.1 15 17 14.11 17 13V11.5C17 10.67 16.33 10 15.5 10C16.33 10 17 9.33 17 8.5V7C17 5.89 16.1 5 15 5H13C11.9 5 11 5.89 11 7V8.5C11 9.33 11.67 10 12.5 10Z" fill="currentColor" fill-opacity="0.54"/>
</g>
<g id="&#226;&#134;&#179; Light Color_2">
<path id="Mask_2" opacity="0.5" d="M13 7H15V9H13V7Z" fill="currentColor" fill-opacity="0.54"/>
</g>
<g id="&#226;&#134;&#179; Light Color_3">
<path id="Mask_3" opacity="0.5" d="M13 11H15V13H13V11Z" fill="currentColor" fill-opacity="0.54"/>
</g>
<g id="&#226;&#134;&#179; Dark Color">
<path id="Mask_4" fill-rule="evenodd" clip-rule="evenodd" d="M7 1H21C22.1 1 23 1.89999 23 3V17C23 18.1 22.1 19 21 19H7C5.90002 19 5 18.1 5 17V3C5 1.89999 5.90002 1 7 1ZM7 17H21V3H7V17Z" fill="currentColor" fill-opacity="0.54"/>
</g>
<g id="&#226;&#134;&#179; Dark Color_2">
<path id="Mask_5" d="M3 23H19V21H3V5H1V21C1 22.1 1.9 23 3 23Z" fill="currentColor" fill-opacity="0.54"/>
</g>
<g id="&#226;&#134;&#179; Dark Color_3">
<path id="Mask_6" fill-rule="evenodd" clip-rule="evenodd" d="M13 15H15C16.1 15 17 14.11 17 13V11.5C17 10.67 16.33 10 15.5 10C16.33 10 17 9.33 17 8.5V7C17 5.89 16.1 5 15 5H13C11.9 5 11 5.89 11 7V8.5C11 9.33 11.67 10 12.5 10C11.67 10 11 10.67 11 11.5V13C11 14.11 11.9 15 13 15ZM13 7H15V9H13V7ZM15 11H13V13H15V11Z" fill="currentColor" fill-opacity="0.54"/>
</g>
</g>
</svg>
