<svg width="1em" height="1em" viewBox="0 0 24 24" fill="none" xmlns="http://www.w3.org/2000/svg">
<g id="filter_frames_24px">
<g id="&#226;&#134;&#179; Light Color">
<path id="Mask" opacity="0.5" d="M8 10H16V16H8V10Z" fill="currentColor" fill-opacity="0.54"/>
</g>
<g id="&#226;&#134;&#179; Dark Color">
<path id="Mask_2" fill-rule="evenodd" clip-rule="evenodd" d="M16 4H20C21.1 4 22 4.89999 22 6V20C22 21.1 21.1 22 20 22H4C2.90002 22 2 21.1 2 20V6C2 4.89999 2.90002 4 4 4H8L12 0L16 4ZM4 6V20H20V6H15.52L12.04 2.5L8.52002 6H4Z" fill="currentColor" fill-opacity="0.54"/>
</g>
<g id="&#226;&#134;&#179; Dark Color_2">
<path id="Mask_3" fill-rule="evenodd" clip-rule="evenodd" d="M18 18H6V8H18V18ZM16 10H8V16H16V10Z" fill="currentColor" fill-opacity="0.54"/>
</g>
</g>
</svg>
