<svg width="1em" height="1em" viewBox="0 0 24 24" fill="none" xmlns="http://www.w3.org/2000/svg">
<g id="filter_2_24px">
<g id="&#226;&#134;&#179; Light Color">
<path id="Mask" opacity="0.5" fill-rule="evenodd" clip-rule="evenodd" d="M21 17H7V3H21V17ZM13 9C11.9 9 11 9.89 11 11V15H17V13H13V11H15C16.1 11 17 10.11 17 9V7C17 5.89 16.1 5 15 5H11V7H15V9H13Z" fill="currentColor" fill-opacity="0.54"/>
</g>
<g id="&#226;&#134;&#179; Dark Color">
<path id="Mask_2" d="M17 13H13V11H15C16.1 11 17 10.11 17 9V7C17 5.89 16.1 5 15 5H11V7H15V9H13C11.9 9 11 9.89 11 11V15H17V13Z" fill="currentColor" fill-opacity="0.54"/>
</g>
<g id="&#226;&#134;&#179; Dark Color_2">
<path id="Mask_3" fill-rule="evenodd" clip-rule="evenodd" d="M7 1H21C22.1 1 23 1.9 23 3V17C23 18.1 22.1 19 21 19H7C5.90002 19 5 18.1 5 17V3C5 1.9 5.90002 1 7 1ZM7 17H21V3H7V17Z" fill="currentColor" fill-opacity="0.54"/>
</g>
<g id="&#226;&#134;&#179; Dark Color_3">
<path id="Mask_4" d="M1 21C1 22.1 1.9 23 3 23H19V21H3V5H1V21Z" fill="currentColor" fill-opacity="0.54"/>
</g>
</g>
</svg>
