<svg width="1em" height="1em" viewBox="0 0 24 24" fill="none" xmlns="http://www.w3.org/2000/svg">
<g id="filter_vintage_24px">
<g id="&#226;&#134;&#179; Light Color">
<path id="Mask" opacity="0.5" d="M18.69 7.61C17.99 7.61 17.3 7.8 16.69 8.15C16.53 8.24 16.37 8.36 16.15 8.52L15.02 9.42C15.33 9.78 15.58 10.2 15.74 10.66L17.12 10.14C17.34 10.06 17.53 9.97 17.7 9.87C18.54 9.38 19.17 8.6 19.48 7.69C19.22 7.63 18.96 7.61 18.69 7.61Z" fill="currentColor" fill-opacity="0.54"/>
</g>
<g id="&#226;&#134;&#179; Light Color_2">
<path id="Mask_2" opacity="0.5" d="M17.13 13.87L15.75 13.35C15.59 13.8 15.35 14.2 15.05 14.56L16.2 15.52C16.35 15.64 16.51 15.76 16.69 15.86C17.3 16.21 17.99 16.4 18.68 16.4C18.95 16.4 19.21 16.37 19.48 16.32C19.17 15.41 18.54 14.63 17.7 14.14C17.54 14.04 17.35 13.95 17.13 13.87Z" fill="currentColor" fill-opacity="0.54"/>
</g>
<g id="&#226;&#134;&#179; Light Color_3">
<path id="Mask_3" opacity="0.5" d="M11 6C11 6.19 11.02 6.41 11.05 6.63L11.28 8.06999C11.52 8.02999 11.76 8 12 8C12.24 8 12.48 8.02999 12.71 8.06999L12.94 6.63C12.98 6.41 13 6.19 13 6C13 5.02 12.63 4.09 12 3.37C11.37 4.09 11 5.02 11 6Z" fill="currentColor" fill-opacity="0.54"/>
</g>
<g id="&#226;&#134;&#179; Light Color_4">
<path id="Mask_4" opacity="0.5" d="M12.71 15.93C12.48 15.97 12.24 16 12 16C11.75 16 11.51 15.97 11.28 15.93L11.06 17.35C11.02 17.59 11 17.8 11 18C11 18.98 11.37 19.91 12 20.63C12.63 19.91 13 18.97 13 18C13 17.81 12.98 17.59 12.95 17.37L12.71 15.93Z" fill="currentColor" fill-opacity="0.54"/>
</g>
<g id="&#226;&#134;&#179; Light Color_5">
<path id="Mask_5" opacity="0.5" d="M6.87 10.12L8.25 10.64C8.41 10.2 8.65 9.79001 8.95 9.44001L7.8 8.49001C7.63 8.34001 7.46 8.22001 7.31 8.14001C6.69 7.78001 6.01 7.60001 5.31 7.60001C5.04 7.60001 4.77 7.63001 4.5 7.68001C4.8 8.59001 5.43 9.36001 6.29 9.86001C6.46 9.95001 6.65 10.04 6.87 10.12Z" fill="currentColor" fill-opacity="0.54"/>
</g>
<g id="&#226;&#134;&#179; Light Color_6">
<path id="Mask_6" opacity="0.5" d="M6.87001 13.86C6.65001 13.94 6.46001 14.03 6.29001 14.13C5.45001 14.62 4.82001 15.4 4.51001 16.31C4.77001 16.36 5.03001 16.39 5.30001 16.39C6.00001 16.39 6.69001 16.2 7.30001 15.85C7.46001 15.76 7.62001 15.64 7.84001 15.48L8.97001 14.59C8.66001 14.23 8.41001 13.81 8.25001 13.35L6.87001 13.86Z" fill="currentColor" fill-opacity="0.54"/>
</g>
<g id="&#226;&#134;&#179; Dark Color">
<path id="Mask_7" fill-rule="evenodd" clip-rule="evenodd" d="M17.8401 12C18.13 12.11 18.42 12.24 18.7001 12.4C20.62 13.51 21.6901 15.52 21.7001 17.59C20.79 18.11 19.74 18.39 18.6901 18.39C17.67 18.39 16.64 18.13 15.7001 17.59C15.42 17.43 15.16 17.25 14.92 17.05C14.9701 17.36 15 17.68 15 18C15 20.22 13.79 22.15 12 23.19C10.2101 22.15 9 20.22 9 18C9 17.68 9.03003 17.36 9.08008 17.04C8.84009 17.23 8.58008 17.42 8.30005 17.58C7.36011 18.12 6.33008 18.38 5.31006 18.38C4.25 18.38 3.21008 18.1 2.30005 17.58C2.31006 15.51 3.38 13.5 5.30005 12.39C5.58008 12.23 5.87 12.1 6.16003 11.99C5.87 11.88 5.58008 11.75 5.30005 11.59C3.37 10.48 2.30005 8.47 2.30005 6.39999C3.21008 5.88 4.26001 5.59999 5.31006 5.59999C6.33008 5.59999 7.36011 5.86 8.30005 6.39999C8.58008 6.56 8.84009 6.75 9.08008 6.95C9.03003 6.64 9 6.31999 9 6C9 3.78 10.2101 1.84999 12 0.809998C13.79 1.84999 15 3.78 15 6C15 6.31999 14.9701 6.64 14.92 6.95C15.16 6.75999 15.42 6.56999 15.7001 6.41C16.64 5.87 17.67 5.61 18.6901 5.61C19.75 5.61 20.79 5.89 21.7001 6.41C21.6901 8.48 20.62 10.49 18.7001 11.6C18.42 11.76 18.13 11.89 17.8401 12ZM5.31006 7.59999C5.04004 7.59999 4.77002 7.62 4.51001 7.67999C4.81006 8.59 5.43005 9.35999 6.30005 9.85999C6.45996 9.95 6.65002 10.04 6.85999 10.13L8.23999 10.65C8.41003 10.21 8.64001 9.81 8.94006 9.45L7.79004 8.48999C7.62 8.34 7.44995 8.23 7.30005 8.13998C6.69006 7.77998 6 7.59999 5.31006 7.59999ZM7.83997 15.47C7.63 15.64 7.45996 15.76 7.30005 15.84C6.69006 16.19 6 16.38 5.30005 16.38C5.03003 16.38 4.77002 16.35 4.51001 16.3C4.82007 15.39 5.44995 14.61 6.29004 14.12C6.45996 14.02 6.65002 13.94 6.87 13.85L8.25 13.33C8.41003 13.79 8.66003 14.21 8.96997 14.57L7.83997 15.47ZM13 6C13 5.03 12.63 4.09 12 3.37C11.37 4.09 11 5.01999 11 6C11 6.19 11.02 6.40999 11.0601 6.62999L11.29 8.06999C11.52 8.03 11.76 8 12 8C12.24 8 12.48 8.03 12.72 8.06999L12.95 6.62999C12.98 6.40999 13 6.19 13 6ZM12 20.63C11.37 19.91 11 18.97 11 18C11 17.8 11.02 17.59 11.0601 17.35L11.28 15.93C11.51 15.97 11.75 16 12 16C12.24 16 12.48 15.97 12.71 15.93L12.9399 17.37C12.98 17.59 13 17.81 13 18C13 18.98 12.63 19.91 12 20.63ZM10 12C10 13.1 10.9 14 12 14C13.1 14 14 13.1 14 12C14 10.9 13.1 10 12 10C10.9 10 10 10.9 10 12ZM16.16 8.52C16.37 8.35001 16.54 8.23 16.7001 8.14999C17.3101 7.8 18 7.61 18.7001 7.61C18.97 7.61 19.23 7.64 19.49 7.69C19.1801 8.60001 18.55 9.38 17.7101 9.87C17.54 9.97 17.35 10.05 17.13 10.14L15.75 10.66C15.5801 10.2 15.3401 9.78999 15.03 9.42L16.16 8.52ZM16.7001 15.85C17.3101 16.21 18 16.39 18.6901 16.39C18.9501 16.39 19.2201 16.37 19.4901 16.3C19.1801 15.39 18.5601 14.61 17.7101 14.12C17.55 14.03 17.3601 13.94 17.14 13.86L15.76 13.34C15.6001 13.79 15.3601 14.19 15.0601 14.55L16.2101 15.51C16.3601 15.63 16.52 15.75 16.7001 15.85Z" fill="currentColor" fill-opacity="0.54"/>
</g>
</g>
</svg>
