<svg width="1em" height="1em" viewBox="0 0 24 24" fill="none" xmlns="http://www.w3.org/2000/svg">
<g id="filter_center_focus_24px">
<g id="&#226;&#134;&#179; Dark Color">
<path id="Mask" d="M5 5H9V3H5C3.9 3 3 3.9 3 5V9H5V5Z" fill="currentColor" fill-opacity="0.54"/>
</g>
<g id="&#226;&#134;&#179; Dark Color_2">
<path id="Mask_2" d="M12 9C10.34 9 9 10.34 9 12C9 13.66 10.34 15 12 15C13.66 15 15 13.66 15 12C15 10.34 13.66 9 12 9Z" fill="currentColor" fill-opacity="0.54"/>
</g>
<g id="&#226;&#134;&#179; Dark Color_3">
<path id="Mask_3" d="M19 3H15V5H19V9H21V5C21 3.9 20.1 3 19 3Z" fill="currentColor" fill-opacity="0.54"/>
</g>
<g id="&#226;&#134;&#179; Dark Color_4">
<path id="Mask_4" d="M19 19H15V21H19C20.1 21 21 20.1 21 19V15H19V19Z" fill="currentColor" fill-opacity="0.54"/>
</g>
<g id="&#226;&#134;&#179; Dark Color_5">
<path id="Mask_5" d="M5 15H3V19C3 20.1 3.9 21 5 21H9V19H5V15Z" fill="currentColor" fill-opacity="0.54"/>
</g>
</g>
</svg>
