<svg width="1em" height="1em" viewBox="0 0 24 24" fill="none" xmlns="http://www.w3.org/2000/svg">
<g id="filter_tilt_shift_24px">
<g id="&#226;&#134;&#179; Dark Color">
<path id="Mask" d="M13 2.05V4.07C14.46 4.25 15.79 4.83 16.9 5.69L18.32 4.26C16.84 3.05 15.01 2.25 13 2.05Z" fill="currentColor" fill-opacity="0.54"/>
</g>
<g id="&#226;&#134;&#179; Dark Color_2">
<path id="Mask_2" d="M13 19.93V21.95C15.01 21.75 16.84 20.95 18.32 19.74L16.89 18.31C15.79 19.17 14.46 19.75 13 19.93Z" fill="currentColor" fill-opacity="0.54"/>
</g>
<g id="&#226;&#134;&#179; Dark Color_3">
<path id="Mask_3" d="M4.26005 18.32L5.69005 16.89C4.83005 15.79 4.25005 14.46 4.07005 13H2.05005C2.25005 15.01 3.05005 16.84 4.26005 18.32Z" fill="currentColor" fill-opacity="0.54"/>
</g>
<g id="&#226;&#134;&#179; Dark Color_4">
<path id="Mask_4" d="M2.05005 11H4.07005C4.25005 9.53999 4.83005 8.20999 5.69005 7.09999L4.26005 5.67999C3.05005 7.15999 2.25005 8.98999 2.05005 11Z" fill="currentColor" fill-opacity="0.54"/>
</g>
<g id="&#226;&#134;&#179; Dark Color_5">
<path id="Mask_5" d="M18.3101 7.09999C19.1701 8.20999 19.7501 9.53999 19.9301 11H21.9501C21.7501 8.98999 20.9501 7.15999 19.7401 5.67999L18.3101 7.09999Z" fill="currentColor" fill-opacity="0.54"/>
</g>
<g id="&#226;&#134;&#179; Dark Color_6">
<path id="Mask_6" d="M7.10005 5.69C8.21005 4.83 9.54005 4.25 11.0001 4.07V2.05C8.99005 2.25 7.16005 3.05 5.68005 4.26L7.10005 5.69Z" fill="currentColor" fill-opacity="0.54"/>
</g>
<g id="&#226;&#134;&#179; Dark Color_7">
<path id="Mask_7" d="M5.68005 19.74C7.16005 20.95 9.00005 21.75 11.0001 21.95V19.93C9.54005 19.75 8.21005 19.17 7.10005 18.31L5.68005 19.74Z" fill="currentColor" fill-opacity="0.54"/>
</g>
<g id="&#226;&#134;&#179; Dark Color_8">
<path id="Mask_8" d="M21.9501 13.01H19.9301C19.7501 14.46 19.1701 15.79 18.3101 16.9L19.7401 18.33C20.9501 16.85 21.7501 15.01 21.9501 13.01Z" fill="currentColor" fill-opacity="0.54"/>
</g>
<g id="&#226;&#134;&#179; Dark Color_9">
<path id="Mask_9" d="M9 12C9 13.66 10.34 15 12 15C13.66 15 15 13.66 15 12C15 10.34 13.66 9 12 9C10.34 9 9 10.34 9 12Z" fill="currentColor" fill-opacity="0.54"/>
</g>
</g>
</svg>
