<svg width="1em" height="1em" viewBox="0 0 24 24" fill="none" xmlns="http://www.w3.org/2000/svg">
<g id="filter_5_24px">
<g id="&#226;&#134;&#179; Light Color">
<path id="Mask" opacity="0.5" fill-rule="evenodd" clip-rule="evenodd" d="M21 17H7V3H21V17ZM15 13H11V15H15C16.1 15 17 14.11 17 13V11C17 9.89 16.1 9 15 9H13V7H17V5H11V11H15V13Z" fill="currentColor" fill-opacity="0.54"/>
</g>
<g id="&#226;&#134;&#179; Dark Color">
<path id="Mask_2" d="M19 23V21H3V5H1V21C1 22.1 1.9 23 3 23H19Z" fill="currentColor" fill-opacity="0.54"/>
</g>
<g id="&#226;&#134;&#179; Dark Color_2">
<path id="Mask_3" d="M17 13V11C17 9.89 16.1 9 15 9H13V7H17V5H11V11H15V13H11V15H15C16.1 15 17 14.11 17 13Z" fill="currentColor" fill-opacity="0.54"/>
</g>
<g id="&#226;&#134;&#179; Dark Color_3">
<path id="Mask_4" fill-rule="evenodd" clip-rule="evenodd" d="M7 1H21C22.1 1 23 1.89999 23 3V17C23 18.1 22.1 19 21 19H7C5.90002 19 5 18.1 5 17V3C5 1.89999 5.90002 1 7 1ZM7 17H21V3H7V17Z" fill="currentColor" fill-opacity="0.54"/>
</g>
</g>
</svg>
