<svg width="1em" height="1em" viewBox="0 0 24 24" fill="none" xmlns="http://www.w3.org/2000/svg">
<g id="filter_6_24px">
<g id="&#226;&#134;&#179; Light Color">
<path id="Mask" opacity="0.5" fill-rule="evenodd" clip-rule="evenodd" d="M21 17H7V3H21V17ZM13 5C11.9 5 11 5.89 11 7V13C11 14.11 11.9 15 13 15H15C16.1 15 17 14.11 17 13V11C17 9.89 16.1 9 15 9H13V7H17V5H13Z" fill="currentColor" fill-opacity="0.54"/>
</g>
<g id="&#226;&#134;&#179; Light Color_2">
<path id="Mask_2" opacity="0.5" d="M13 11H15V13H13V11Z" fill="currentColor" fill-opacity="0.54"/>
</g>
<g id="&#226;&#134;&#179; Dark Color">
<path id="Mask_3" fill-rule="evenodd" clip-rule="evenodd" d="M7 1H21C22.1 1 23 1.89999 23 3V17C23 18.1 22.1 19 21 19H7C5.90002 19 5 18.1 5 17V3C5 1.89999 5.90002 1 7 1ZM7 17H21V3H7V17Z" fill="currentColor" fill-opacity="0.54"/>
</g>
<g id="&#226;&#134;&#179; Dark Color_2">
<path id="Mask_4" fill-rule="evenodd" clip-rule="evenodd" d="M15 15H13C11.9 15 11 14.11 11 13V7C11 5.89 11.9 5 13 5H17V7H13V9H15C16.1 9 17 9.89 17 11V13C17 14.11 16.1 15 15 15ZM15 11H13V13H15V11Z" fill="currentColor" fill-opacity="0.54"/>
</g>
<g id="&#226;&#134;&#179; Dark Color_3">
<path id="Mask_5" d="M3 23H19V21H3V5H1V21C1 22.1 1.9 23 3 23Z" fill="currentColor" fill-opacity="0.54"/>
</g>
</g>
</svg>
