<svg width="1em" height="1em" viewBox="0 0 24 24" fill="none" xmlns="http://www.w3.org/2000/svg">
<g id="find_in_page_24px">
<g id="&#226;&#134;&#179; Light Color">
<path id="Mask" opacity="0.5" d="M6 4V20H17.6L14.75 17.15C13.92 17.7 12.96 17.98 12 17.98C10.72 17.98 9.45 17.49 8.47 16.52C6.52 14.57 6.52 11.41 8.47 9.47C9.45 8.49 10.72 8 12 8C13.28 8 14.55 8.49 15.53 9.46C17.24 11.17 17.45 13.8 16.17 15.74L18 17.58V9L13 4H6Z" fill="currentColor" fill-opacity="0.54"/>
</g>
<g id="&#226;&#134;&#179; Dark Color">
<path id="Mask_2" fill-rule="evenodd" clip-rule="evenodd" d="M14 2H6C4.90002 2 4.01001 2.89999 4.01001 4L4 20C4 21.1 4.89001 22 5.98999 22H18C19.1 22 20 21.1 20 20V8L14 2ZM18 17.58L16.16 15.74C17.44 13.8 17.23 11.17 15.52 9.46001C14.55 8.49001 13.28 8 12 8C10.72 8 9.45001 8.49001 8.46997 9.46001C6.52002 11.41 6.52002 14.57 8.46997 16.51C9.44 17.48 10.72 17.97 12 17.97C12.96 17.97 13.92 17.69 14.75 17.14L17.6 20H6V4H13L18 9V17.58ZM14.11 15.1C14.68 14.54 14.99 13.79 14.99 12.99C14.99 12.19 14.68 11.44 14.11 10.88C13.55 10.31 12.8 10 12 10C11.2 10 10.46 10.32 9.89001 10.88C9.32001 11.44 9.01001 12.19 9.01001 12.99C9.01001 13.79 9.33002 14.54 9.89001 15.1C10.45 15.67 11.2 15.98 12 15.98C12.8 15.98 13.55 15.66 14.11 15.1Z" fill="currentColor" fill-opacity="0.54"/>
</g>
</g>
</svg>
