<svg width="1em" height="1em" viewBox="0 0 24 24" fill="none" xmlns="http://www.w3.org/2000/svg">
<g id="find_replace_24px">
<g id="&#226;&#134;&#179; Dark Color">
<path id="Mask" fill-rule="evenodd" clip-rule="evenodd" d="M14.5399 7.46001C13.63 6.56 12.38 6 11 6C8.57996 6 6.55994 7.72 6.09998 10H4.07996C4.56995 6.61 7.46997 4 11 4C12.9299 4 14.6799 4.78 15.95 6.05L18 4V10H12L14.5399 7.46001ZM17.92 12C17.76 13.17 17.3 14.24 16.64 15.14L21.49 20L20 21.49L15.14 16.64C13.98 17.49 12.55 18 11 18C9.06995 18 7.31995 17.22 6.05005 15.95L4 18V12H10L7.45996 14.54C8.37 15.44 9.62 16 11 16C13.42 16 15.4399 14.28 15.9 12H17.92Z" fill="currentColor" fill-opacity="0.54"/>
</g>
</g>
</svg>
