<svg width="1em" height="1em" viewBox="0 0 24 24" fill="none" xmlns="http://www.w3.org/2000/svg">
<g id="fingerprint_24px">
<g id="&#226;&#134;&#179; Dark Color">
<path id="Mask" fill-rule="evenodd" clip-rule="evenodd" d="M17.8101 4.47C17.73 4.47 17.6501 4.45 17.58 4.41C15.6601 3.42 14 3 12.01 3C10.0301 3 8.15005 3.47 6.43997 4.41C6.19998 4.53999 5.90005 4.45 5.76004 4.21001C5.63004 3.97 5.72 3.66 5.95999 3.53C7.81998 2.52 9.86002 2 12.01 2C14.14 2 16 2.47 18.0401 3.52C18.2901 3.64999 18.38 3.95 18.25 4.19C18.1601 4.37 17.99 4.47 17.8101 4.47ZM3.50003 9.72C3.40005 9.72 3.29996 9.69 3.20999 9.63C2.98001 9.47 2.92996 9.16 3.09 8.92999C4.07999 7.53 5.34 6.42999 6.84 5.66C9.98001 4.03999 14 4.03 17.1501 5.64999C18.6501 6.42 19.9101 7.50999 20.9001 8.89999C21.06 9.12 21.01 9.44 20.7801 9.60001C20.55 9.75999 20.24 9.70999 20.08 9.48C19.18 8.22 18.0401 7.23 16.69 6.53999C13.82 5.06999 10.1501 5.06999 7.29007 6.55C5.92996 7.25 4.79007 8.25 3.89004 9.50999C3.80997 9.64999 3.66006 9.72 3.50003 9.72ZM9.40005 21.64C9.49002 21.74 9.62003 21.79 9.75003 21.79C9.88003 21.79 10.01 21.74 10.12 21.64C10.31 21.44 10.31 21.13 10.12 20.93C9.35001 20.15 8.90994 19.66 8.27005 18.51C7.65994 17.43 7.34 16.1 7.34 14.66C7.34 12.24 9.42996 10.27 12 10.27C14.57 10.27 16.6599 12.24 16.6599 14.66C16.6599 14.94 16.88 15.16 17.1599 15.16C17.44 15.16 17.6599 14.94 17.6599 14.66C17.6599 11.69 15.12 9.27 12 9.27C8.88003 9.27 6.34 11.69 6.34 14.66C6.34 16.27 6.69998 17.77 7.39004 19C8.05997 20.21 8.52994 20.77 9.40005 21.64ZM16.92 19.94C15.73 19.94 14.68 19.64 13.82 19.05C12.33 18.04 11.44 16.4 11.44 14.66C11.44 14.38 11.6599 14.16 11.94 14.16C12.22 14.16 12.44 14.38 12.44 14.66C12.44 16.07 13.1599 17.4 14.3799 18.22C15.09 18.7 15.92 18.93 16.92 18.93C17.1599 18.93 17.56 18.9 17.96 18.83C18.23 18.78 18.49 18.96 18.5399 19.24C18.59 19.51 18.4099 19.77 18.1299 19.82C17.56 19.93 17.06 19.94 16.92 19.94ZM14.7801 21.98C14.8201 21.99 14.87 22 14.9101 22C15.12 22 15.3301 21.85 15.38 21.62C15.4501 21.36 15.3001 21.08 15.0301 21.01C13.62 20.62 12.71 20.1 11.76 19.16C10.5501 17.96 9.89004 16.36 9.89004 14.65C9.89004 13.58 10.8201 12.71 11.97 12.71C13.12 12.71 14.0501 13.58 14.0501 14.65C14.0501 16.27 15.4301 17.59 17.13 17.59C18.8301 17.59 20.21 16.27 20.21 14.65C20.21 10.33 16.51 6.82001 11.96 6.82001C8.73001 6.82001 5.78006 8.63 4.4501 11.42C4.00003 12.37 3.77005 13.46 3.77005 14.66C3.77005 16.01 4.01004 17.31 4.50003 18.62C4.59 18.87 4.88004 19.01 5.14004 18.91C5.40005 18.82 5.53006 18.53 5.43008 18.27C4.83011 16.67 4.76004 15.44 4.76004 14.66C4.76004 13.62 4.95999 12.67 5.35001 11.86C6.52005 9.41 9.12003 7.83 11.96 7.83C15.96 7.83 19.21 10.89 19.21 14.66C19.21 15.73 18.2801 16.6 17.13 16.6C15.98 16.6 15.0501 15.73 15.0501 14.66C15.0501 13.04 13.6701 11.72 11.97 11.72C10.27 11.72 8.89004 13.04 8.89004 14.66C8.89004 16.64 9.66006 18.49 11.0601 19.88C12.1501 20.95 13.1901 21.54 14.7801 21.98Z" fill="currentColor" fill-opacity="0.54"/>
</g>
</g>
</svg>
