<svg width="1em" height="1em" viewBox="0 0 24 24" fill="none" xmlns="http://www.w3.org/2000/svg">
<g id="flare_24px">
<g id="&#226;&#134;&#179; Dark Color">
<path id="Mask" d="M5.64417 7.05147L7.05129 5.64434L9.17259 7.76564L7.76546 9.17277L5.64417 7.05147Z" fill="currentColor" fill-opacity="0.54"/>
</g>
<g id="&#226;&#134;&#179; Dark Color_2">
<path id="Mask_2" d="M11 1H13V7H11V1Z" fill="currentColor" fill-opacity="0.54"/>
</g>
<g id="&#226;&#134;&#179; Dark Color_3">
<path id="Mask_3" d="M16.2417 14.8341L18.363 16.9554L16.9559 18.3625L14.8346 16.2412L16.2417 14.8341Z" fill="currentColor" fill-opacity="0.54"/>
</g>
<g id="&#226;&#134;&#179; Dark Color_4">
<path id="Mask_4" d="M14.8341 7.75862L16.9554 5.63732L18.3625 7.04445L16.2412 9.16575L14.8341 7.75862Z" fill="currentColor" fill-opacity="0.54"/>
</g>
<g id="&#226;&#134;&#179; Dark Color_5">
<path id="Mask_5" d="M9.16577 16.2415L7.04447 18.3628L5.63734 16.9557L7.75864 14.8344L9.16577 16.2415Z" fill="currentColor" fill-opacity="0.54"/>
</g>
<g id="&#226;&#134;&#179; Dark Color_6">
<path id="Mask_6" d="M12 9C10.34 9 9 10.34 9 12C9 13.66 10.34 15 12 15C13.66 15 15 13.66 15 12C15 10.34 13.66 9 12 9Z" fill="currentColor" fill-opacity="0.54"/>
</g>
<g id="&#226;&#134;&#179; Dark Color_7">
<path id="Mask_7" d="M11 17H13V23H11V17Z" fill="currentColor" fill-opacity="0.54"/>
</g>
<g id="&#226;&#134;&#179; Dark Color_8">
<path id="Mask_8" d="M1 11H7V13H1V11Z" fill="currentColor" fill-opacity="0.54"/>
</g>
<g id="&#226;&#134;&#179; Dark Color_9">
<path id="Mask_9" d="M17 11H23V13H17V11Z" fill="currentColor" fill-opacity="0.54"/>
</g>
</g>
</svg>
