<svg width="1em" height="1em" viewBox="0 0 24 24" fill="none" xmlns="http://www.w3.org/2000/svg">
<g id="flip_24px">
<g id="&#226;&#134;&#179; Dark Color">
<path id="Mask" d="M19 7H21V9H19V7Z" fill="currentColor" fill-opacity="0.54"/>
</g>
<g id="&#226;&#134;&#179; Dark Color_2">
<path id="Mask_2" d="M19 21C20.1 21 21 20.1 21 19H19V21Z" fill="currentColor" fill-opacity="0.54"/>
</g>
<g id="&#226;&#134;&#179; Dark Color_3">
<path id="Mask_3" d="M19 15H21V17H19V15Z" fill="currentColor" fill-opacity="0.54"/>
</g>
<g id="&#226;&#134;&#179; Dark Color_4">
<path id="Mask_4" d="M19 11H21V13H19V11Z" fill="currentColor" fill-opacity="0.54"/>
</g>
<g id="&#226;&#134;&#179; Dark Color_5">
<path id="Mask_5" d="M9 5V3H5C3.9 3 3 3.9 3 5V19C3 20.1 3.9 21 5 21H9V19H5V5H9Z" fill="currentColor" fill-opacity="0.54"/>
</g>
<g id="&#226;&#134;&#179; Dark Color_6">
<path id="Mask_6" d="M19 3V5H21C21 3.9 20.1 3 19 3Z" fill="currentColor" fill-opacity="0.54"/>
</g>
<g id="&#226;&#134;&#179; Dark Color_7">
<path id="Mask_7" d="M11 1H13V23H11V1Z" fill="currentColor" fill-opacity="0.54"/>
</g>
<g id="&#226;&#134;&#179; Dark Color_8">
<path id="Mask_8" d="M15 3H17V5H15V3Z" fill="currentColor" fill-opacity="0.54"/>
</g>
<g id="&#226;&#134;&#179; Dark Color_9">
<path id="Mask_9" d="M15 19H17V21H15V19Z" fill="currentColor" fill-opacity="0.54"/>
</g>
</g>
</svg>
