<svg width="1em" height="1em" viewBox="0 0 24 24" fill="none" xmlns="http://www.w3.org/2000/svg">
<g id="font_download_24px">
<g id="&#226;&#134;&#179; Light Color">
<path id="Mask" opacity="0.5" fill-rule="evenodd" clip-rule="evenodd" d="M20 20H4V4H20V20ZM12.93 5.5H11.07L5.95999 18.5H8.04999L9.16998 15.5H14.81L15.95 18.5H18.04L12.93 5.5Z" fill="currentColor" fill-opacity="0.54"/>
</g>
<g id="&#226;&#134;&#179; Light Color_2">
<path id="Mask_2" opacity="0.5" d="M12 7.98L9.92999 13.5H14.07L12 7.98Z" fill="currentColor" fill-opacity="0.54"/>
</g>
<g id="&#226;&#134;&#179; Dark Color">
<path id="Mask_3" fill-rule="evenodd" clip-rule="evenodd" d="M14.81 15.5H9.16998L8.04999 18.5H5.95999L11.07 5.5H12.93L18.04 18.5H15.95L14.81 15.5ZM14.07 13.5L12 7.98L9.92999 13.5H14.07Z" fill="currentColor" fill-opacity="0.54"/>
</g>
<g id="&#226;&#134;&#179; Dark Color_2">
<path id="Mask_4" fill-rule="evenodd" clip-rule="evenodd" d="M4 2H20C21.1 2 22 2.9 22 4V20C22 21.1 21.1 22 20 22H4C2.89999 22 2 21.1 2 20V4C2 2.9 2.89999 2 4 2ZM4 20H20V4H4V20Z" fill="currentColor" fill-opacity="0.54"/>
</g>
</g>
</svg>
