<svg width="1em" height="1em" viewBox="0 0 24 24" fill="none" xmlns="http://www.w3.org/2000/svg">
<g id="format_bold_24px">
<g id="&#226;&#134;&#179; Dark Color">
<path id="Mask" fill-rule="evenodd" clip-rule="evenodd" d="M17.25 8C17.25 5.74 15.5 4 13.25 4H7V18H14.04C16.13 18 17.75 16.3 17.75 14.21C17.75 12.69 16.89 11.39 15.6 10.79C16.57 10.12 17.25 9.02 17.25 8ZM10 6.5H13C13.83 6.5 14.5 7.17 14.5 8C14.5 8.83 13.83 9.5 13 9.5H10V6.5ZM10 15.5H13.5C14.33 15.5 15 14.83 15 14C15 13.17 14.33 12.5 13.5 12.5H10V15.5Z" fill="currentColor" fill-opacity="0.54"/>
</g>
</g>
</svg>
