<svg width="1em" height="1em" viewBox="0 0 24 24" fill="none" xmlns="http://www.w3.org/2000/svg">
<g id="format_paint_24px">
<g id="&#226;&#134;&#179; Light Color">
<path id="Mask" opacity="0.5" d="M6 4H16V6H6V4Z" fill="currentColor" fill-opacity="0.54"/>
</g>
<g id="&#226;&#134;&#179; Dark Color">
<path id="Mask_2" fill-rule="evenodd" clip-rule="evenodd" d="M5 2H17C17.55 2 18 2.45 18 3V4H21V12H13V21C13 21.55 12.55 22 12 22H10C9.45001 22 9 21.55 9 21V10H19V6H18V7C18 7.55 17.55 8 17 8H5C4.45001 8 4 7.55 4 7V3C4 2.45 4.45001 2 5 2ZM6 6H16V4H6V6Z" fill="currentColor" fill-opacity="0.54"/>
</g>
</g>
</svg>
