<svg width="1em" height="1em" viewBox="0 0 24 24" fill="none" xmlns="http://www.w3.org/2000/svg">
<g id="format_textdirection_l_to_r_24px">
<g id="&#226;&#134;&#179; Light Color">
<path id="Mask" opacity="0.5" d="M9 8V4C7.9 4 7 4.9 7 6C7 7.1 7.9 8 9 8Z" fill="currentColor" fill-opacity="0.54"/>
</g>
<g id="&#226;&#134;&#179; Dark Color">
<path id="Mask_2" fill-rule="evenodd" clip-rule="evenodd" d="M9 15V10C6.79004 10 5 8.21 5 6C5 3.79 6.79004 2 9 2H17V4H15V15H13V4H11V15H9ZM7 6C7 7.1 7.90002 8 9 8V4C7.90002 4 7 4.9 7 6Z" fill="currentColor" fill-opacity="0.54"/>
</g>
<g id="&#226;&#134;&#179; Dark Color_2">
<path id="Mask_3" d="M21 18L17 14V17H5V19H17V22L21 18Z" fill="currentColor" fill-opacity="0.54"/>
</g>
</g>
</svg>
