<svg width="1em" height="1em" viewBox="0 0 24 24" fill="none" xmlns="http://www.w3.org/2000/svg">
<g id="format_quote_24px">
<g id="&#226;&#134;&#179; Light Color">
<path id="Mask" opacity="0.5" d="M16.62 16H17.38L19 12.76V8H15V12H18.62L16.62 16Z" fill="currentColor" fill-opacity="0.54"/>
</g>
<g id="&#226;&#134;&#179; Light Color_2">
<path id="Mask_2" opacity="0.5" d="M6.62 16H7.38L9 12.76V8H5V12H8.62L6.62 16Z" fill="currentColor" fill-opacity="0.54"/>
</g>
<g id="&#226;&#134;&#179; Dark Color">
<path id="Mask_3" fill-rule="evenodd" clip-rule="evenodd" d="M21 13.24L18.62 18H13.38L15.38 14H13V6H21V13.24ZM15 8V12H18.62L16.62 16H17.38L19 12.76V8H15Z" fill="currentColor" fill-opacity="0.54"/>
</g>
<g id="&#226;&#134;&#179; Dark Color_2">
<path id="Mask_4" fill-rule="evenodd" clip-rule="evenodd" d="M8.62 18H3.38L5.38 14H3V6H11V13.24L8.62 18ZM5 8V12H8.62L6.62 16H7.38L9 12.76V8H5Z" fill="currentColor" fill-opacity="0.54"/>
</g>
</g>
</svg>
