<svg width="1em" height="1em" viewBox="0 0 24 24" fill="none" xmlns="http://www.w3.org/2000/svg">
<g id="format_textdirection_r_to_l_24px">
<g id="&#226;&#134;&#179; Light Color">
<path id="Mask" opacity="0.5" d="M8 6C8 7.1 8.9 8 10 8V4C8.9 4 8 4.9 8 6Z" fill="currentColor" fill-opacity="0.54"/>
</g>
<g id="&#226;&#134;&#179; Dark Color">
<path id="Mask_2" fill-rule="evenodd" clip-rule="evenodd" d="M10 10C7.78998 10 6 8.21 6 6C6 3.79 7.78998 2 10 2H18V4H16V15H14V4H12V15H10V10ZM8 6C8 7.1 8.90002 8 10 8V4C8.90002 4 8 4.9 8 6Z" fill="currentColor" fill-opacity="0.54"/>
</g>
<g id="&#226;&#134;&#179; Dark Color_2">
<path id="Mask_3" d="M4 18L8 22V19H20V17H8V14L4 18Z" fill="currentColor" fill-opacity="0.54"/>
</g>
</g>
</svg>
