<svg width="1em" height="1em" viewBox="0 0 24 24" fill="none" xmlns="http://www.w3.org/2000/svg">
<g id="format_color_reset_24px">
<g id="&#226;&#134;&#179; Light Color">
<path id="Mask" opacity="0.5" d="M10.93 7.83L15.7 12.6C15.08 10.79 13.53 8.36 11.99 6.36C11.64 6.83 11.28 7.32 10.93 7.83Z" fill="currentColor" fill-opacity="0.54"/>
</g>
<g id="&#226;&#134;&#179; Light Color_2">
<path id="Mask_2" opacity="0.5" d="M12 18C12.96 18 13.83 17.64 14.53 17.08L8.81 11.36C8.32 12.38 8 13.31 8 14C8 16.21 9.79 18 12 18Z" fill="currentColor" fill-opacity="0.54"/>
</g>
<g id="&#226;&#134;&#179; Dark Color">
<path id="Mask_3" d="M12 6.36C13.53 8.36 15.08 10.79 15.71 12.6L17.94 14.83C17.97 14.56 18 14.28 18 14C18 10.02 12 3.2 12 3.2C12 3.2 10.82 4.55 9.5 6.39L10.94 7.83C11.28 7.32 11.64 6.83 12 6.36Z" fill="currentColor" fill-opacity="0.54"/>
</g>
<g id="&#226;&#134;&#179; Dark Color_2">
<path id="Mask_4" fill-rule="evenodd" clip-rule="evenodd" d="M4 6.55L5.40997 5.14L20 19.72L18.58 21.13L15.95 18.5C14.9 19.43 13.52 20 12 20C8.69 20 6 17.31 6 14C6 12.79 6.54999 11.33 7.32001 9.87L4 6.55ZM8 14C8 16.21 9.78998 18 12 18C12.96 18 13.83 17.64 14.53 17.08L8.81 11.36C8.32001 12.38 8 13.31 8 14Z" fill="currentColor" fill-opacity="0.54"/>
</g>
</g>
</svg>
