<svg width="1em" height="1em" viewBox="0 0 24 24" fill="none" xmlns="http://www.w3.org/2000/svg">
<g id="format_shapes_24px">
<g id="&#226;&#134;&#179; Light Color">
<path id="Mask" opacity="0.5" d="M3 3H5V5H3V3Z" fill="currentColor" fill-opacity="0.54"/>
</g>
<g id="&#226;&#134;&#179; Light Color_2">
<path id="Mask_2" opacity="0.5" d="M19 19H21V21H19V19Z" fill="currentColor" fill-opacity="0.54"/>
</g>
<g id="&#226;&#134;&#179; Light Color_3">
<path id="Mask_3" opacity="0.5" d="M19 3H21V5H19V3Z" fill="currentColor" fill-opacity="0.54"/>
</g>
<g id="&#226;&#134;&#179; Light Color_4">
<path id="Mask_4" opacity="0.5" d="M3 19H5V21H3V19Z" fill="currentColor" fill-opacity="0.54"/>
</g>
<g id="&#226;&#134;&#179; Dark Color">
<path id="Mask_5" fill-rule="evenodd" clip-rule="evenodd" d="M7.89001 16L11.29 7H12.69L16.1 16H14.47L13.73 14H10.24L9.51001 16H7.89001ZM12 8.91L10.69 12.74H13.3L12 8.91Z" fill="currentColor" fill-opacity="0.54"/>
</g>
<g id="&#226;&#134;&#179; Dark Color_2">
<path id="Mask_6" fill-rule="evenodd" clip-rule="evenodd" d="M7 3H17V1H23V7H21V17H23V23H17V21H7V23H1V17H3V7H1V1H7V3ZM5 3H3V5H5V3ZM5 21H3V19H5V21ZM19 21H21V19H19V21ZM19 3H21V5H19V3ZM17 17H19V7H17V5H7V7H5V17H7V19H17V17Z" fill="currentColor" fill-opacity="0.54"/>
</g>
</g>
</svg>
