<svg width="1em" height="1em" viewBox="0 0 24 24" fill="none" xmlns="http://www.w3.org/2000/svg">
<g id="format_color_fill_24px">
<g id="&#226;&#134;&#179; Light Color">
<path id="Mask" opacity="0.5" d="M10 5.21L5.21002 10H14.79L10 5.21Z" fill="currentColor" fill-opacity="0.54"/>
</g>
<g id="&#226;&#134;&#179; Dark Color">
<path id="Mask_2" d="M19 17C20.1 17 21 16.1 21 15C21 13.67 19 11.5 19 11.5C19 11.5 17 13.67 17 15C17 16.1 17.9 17 19 17Z" fill="currentColor" fill-opacity="0.54"/>
</g>
<g id="&#226;&#134;&#179; Dark Color_2">
<path id="Mask_3" fill-rule="evenodd" clip-rule="evenodd" d="M10 17C9.62001 17 9.23 16.85 8.94002 16.56L3.44002 11.06C2.84999 10.48 2.84999 9.53 3.44002 8.94L8.59004 3.79L6.21004 1.41L7.62001 0L16.56 8.94C17.15 9.53 17.15 10.48 16.56 11.06L11.06 16.56C10.77 16.85 10.38 17 10 17ZM14.7901 10L10 5.21L5.21004 10H14.7901Z" fill="currentColor" fill-opacity="0.54"/>
</g>
</g>
</svg>
