<svg width="1em" height="1em" viewBox="0 0 24 24" fill="none" xmlns="http://www.w3.org/2000/svg">
<g id="g_translate_24px">
<g id="&#226;&#134;&#179; Dark Color">
<path id="Mask" fill-rule="evenodd" clip-rule="evenodd" d="M20 5H10.88L10 2H4C2.90002 2 2 2.89999 2 4V17C2 18.1 2.90002 19 4 19H11L12 22H20C21.1 22 22 21.1 22 20V7C22 5.89999 21.1 5 20 5ZM7.17004 14.59C4.92004 14.59 3.08002 12.76 3.08002 10.5C3.08002 8.24001 4.91003 6.41 7.17004 6.41C8.21002 6.41 9.16003 6.78 9.91003 7.48001L9.98004 7.54001L8.75 8.72L8.69 8.67C8.40002 8.40001 7.91003 8.08 7.17004 8.08C5.86005 8.08 4.79004 9.17 4.79004 10.5C4.79004 11.83 5.86005 12.92 7.17004 12.92C8.54004 12.92 9.13 12.05 9.29004 11.46H7.08002V9.91H11.03L11.04 9.98001C11.08 10.19 11.09 10.38 11.09 10.59C11.09 12.94 9.48004 14.59 7.17004 14.59ZM16.66 11.08H12.67L12.98 12.12H13.97C14.21 12.59 14.58 13.2 15.1 13.82C16.32 12.39 16.66 11.08 16.66 11.08ZM14.39 14.58L13.85 15.11L13.2 12.88C13.53 13.48 13.94 14.06 14.39 14.58ZM20 21C20.55 21 21 20.55 21 20V7C21 6.45 20.55 6 20 6H11.18L12.36 10.04H14.32V9H15.36V10.04H19V11.08H17.73C17.41 12.34 16.71 13.56 15.81 14.59L18.52 17.27L17.79 18L15.11 15.31L14.19 16.23L15 19L13 21H20Z" fill="currentColor" fill-opacity="0.54"/>
</g>
</g>
</svg>
