<svg width="1em" height="1em" viewBox="0 0 24 24" fill="none" xmlns="http://www.w3.org/2000/svg">
<g id="gesture_24px">
<g id="&#226;&#134;&#179; Dark Color">
<path id="Mask" fill-rule="evenodd" clip-rule="evenodd" d="M6.3 5.67C5.99 5.54 5.29 6.18 4.59 6.89L2.84 5.18C3.05998 4.91002 3.35996 4.61004 3.71992 4.25008L3.72 4.25C3.97 4 5.12 3 6.44 3C7.31 3 8.95 3.69 8.95 5.86C8.95 7.22 8.43 8 7.65 9.14C7.2 9.8 6.15 11.57 5.8 12.66C5.44 13.75 5.71 14.58 6.16 14.58C6.57221 14.58 6.98443 14.0838 7.23807 13.7784C7.24901 13.7652 7.25966 13.7524 7.27 13.74C7.5 13.5 8.98 11.75 9.56 11.02C10.32 10.09 12.25 8.18 14.5 8.18C17.44 8.18 18.38 10.73 18.53 12.38H21V14.88H18.54C18.14 19.65 15.48 20.98 13.85 20.98C12.08 20.98 10.64 19.59 10.64 17.89C10.64 16.19 12.24 13.16 16.02 12.52C16.0129 12.4697 16.0062 12.4184 15.9994 12.3665C15.9007 11.6139 15.7849 10.73 14.26 10.73C13.01 10.73 11.39 12.68 10.18 14.17L10.1673 14.1856C9.0633 15.5483 8.18593 16.6312 7.12 16.94C6.22 17.21 5.23 17.04 4.48 16.48C3.62 15.84 3.14 14.78 3.14 13.5C3.14 11.3926 5.11928 8.48892 5.79571 7.49658C5.89604 7.34939 5.96771 7.24425 6 7.19C6.3 6.7 6.8 5.87 6.3 5.67ZM13.14 17.83C13.14 18.29 13.57 18.55 13.88 18.55C14.58 18.55 15.71 17.76 16.01 15.07C13.87 15.63 13.14 17.23 13.14 17.83Z" fill="currentColor" fill-opacity="0.54"/>
</g>
</g>
</svg>
