<svg width="1em" height="1em" viewBox="0 0 24 24" fill="none" xmlns="http://www.w3.org/2000/svg">
<g id="gradient_24px">
<g id="&#226;&#134;&#179; Dark Color">
<path id="Mask" d="M13 11H15V13H13V11Z" fill="currentColor" fill-opacity="0.54"/>
</g>
<g id="&#226;&#134;&#179; Dark Color_2">
<path id="Mask_2" fill-rule="evenodd" clip-rule="evenodd" d="M19 21C20.1 21 21 20.1 21 19V5C21 3.89999 20.1 3 19 3H5C3.90002 3 3 3.89999 3 5V19C3 20.1 3.90002 21 5 21H19ZM9 18H7V16H9V18ZM11 18H13V16H11V18ZM17 18H15V16H17V18ZM7 13H5V15H7V13ZM7 11V13H9V15H11V13H13V15H15V13H17V15H19V13H17V11H19V5H5V11H7Z" fill="currentColor" fill-opacity="0.54"/>
</g>
<g id="&#226;&#134;&#179; Dark Color_3">
<path id="Mask_3" d="M7 9H9V11H7V9Z" fill="currentColor" fill-opacity="0.54"/>
</g>
<g id="&#226;&#134;&#179; Dark Color_4">
<path id="Mask_4" d="M15 9H17V11H15V9Z" fill="currentColor" fill-opacity="0.54"/>
</g>
<g id="&#226;&#134;&#179; Dark Color_5">
<path id="Mask_5" d="M11 9H13V11H11V9Z" fill="currentColor" fill-opacity="0.54"/>
</g>
<g id="&#226;&#134;&#179; Dark Color_6">
<path id="Mask_6" d="M9 11H11V13H9V11Z" fill="currentColor" fill-opacity="0.54"/>
</g>
</g>
</svg>
