<svg width="1em" height="1em" viewBox="0 0 24 24" fill="none" xmlns="http://www.w3.org/2000/svg">
<g id="grade_24px">
<g id="&#226;&#134;&#179; Light Color">
<path id="Mask" opacity="0.5" d="M17.11 10.83L14.64 10.62L13.44 10.52L12.97 9.41L12 7.13L11.03 9.41L10.56 10.52L9.36001 10.62L6.89001 10.83L8.77001 12.46L9.68001 13.25L9.41001 14.42L8.84001 16.84L10.97 15.56L12 14.93L13.03 15.56L15.16 16.84L14.59 14.42L14.32 13.25L15.23 12.46L17.11 10.83Z" fill="currentColor" fill-opacity="0.54"/>
</g>
<g id="&#226;&#134;&#179; Dark Color">
<path id="Mask_2" fill-rule="evenodd" clip-rule="evenodd" d="M14.8101 8.63L22 9.23999L16.54 13.97L18.1801 21L12 17.27L5.81995 21L7.45996 13.97L2 9.23999L9.18994 8.63L12 2L14.8101 8.63ZM15.15 16.83L14.59 14.42L14.3201 13.26L15.23 12.47L17.11 10.84L14.64 10.63L13.4401 10.53L12.97 9.42001L12 7.13L11.03 9.39999L10.5601 10.51L9.35999 10.61L6.89001 10.82L8.77002 12.45L9.68005 13.24L9.41003 14.42L8.84998 16.83L10.97 15.55L12 14.93L13.03 15.55L15.15 16.83Z" fill="currentColor" fill-opacity="0.54"/>
</g>
</g>
</svg>
