<svg width="1em" height="1em" viewBox="0 0 24 24" fill="none" xmlns="http://www.w3.org/2000/svg">
<g id="grid_on_24px">
<g id="&#226;&#134;&#179; Light Color">
<path id="Mask" opacity="0.5" d="M10 10H14V14H10V10Z" fill="currentColor" fill-opacity="0.54"/>
</g>
<g id="&#226;&#134;&#179; Light Color_2">
<path id="Mask_2" opacity="0.5" d="M10 16H14V20H10V16Z" fill="currentColor" fill-opacity="0.54"/>
</g>
<g id="&#226;&#134;&#179; Light Color_3">
<path id="Mask_3" opacity="0.5" d="M4 4H8V8H4V4Z" fill="currentColor" fill-opacity="0.54"/>
</g>
<g id="&#226;&#134;&#179; Light Color_4">
<path id="Mask_4" opacity="0.5" d="M4 10H8V14H4V10Z" fill="currentColor" fill-opacity="0.54"/>
</g>
<g id="&#226;&#134;&#179; Light Color_5">
<path id="Mask_5" opacity="0.5" d="M4 16H8V20H4V16Z" fill="currentColor" fill-opacity="0.54"/>
</g>
<g id="&#226;&#134;&#179; Light Color_6">
<path id="Mask_6" opacity="0.5" d="M16 4H20V8H16V4Z" fill="currentColor" fill-opacity="0.54"/>
</g>
<g id="&#226;&#134;&#179; Light Color_7">
<path id="Mask_7" opacity="0.5" d="M16 10H20V14H16V10Z" fill="currentColor" fill-opacity="0.54"/>
</g>
<g id="&#226;&#134;&#179; Light Color_8">
<path id="Mask_8" opacity="0.5" d="M16 16H20V20H16V16Z" fill="currentColor" fill-opacity="0.54"/>
</g>
<g id="&#226;&#134;&#179; Light Color_9">
<path id="Mask_9" opacity="0.5" d="M10 4H14V8H10V4Z" fill="currentColor" fill-opacity="0.54"/>
</g>
<g id="&#226;&#134;&#179; Dark Color">
<path id="Mask_10" fill-rule="evenodd" clip-rule="evenodd" d="M4 2H20C21.1 2 22 2.89999 22 4V20C22 21.1 21.1 22 20 22H4C2.90002 22 2 21.1 2 20V4C2 2.89999 2.90002 2 4 2ZM4 20H8V16H4V20ZM8 14H4V10H8V14ZM4 8H8V4H4V8ZM14 20H10V16H14V20ZM10 14H14V10H10V14ZM14 8H10V4H14V8ZM16 20H20V16H16V20ZM20 14H16V10H20V14ZM16 8H20V4H16V8Z" fill="currentColor" fill-opacity="0.54"/>
</g>
</g>
</svg>
