<svg width="1em" height="1em" viewBox="0 0 24 24" fill="none" xmlns="http://www.w3.org/2000/svg">
<g id="grid_off_24px">
<g id="&#226;&#134;&#179; Light Color">
<path id="Mask" opacity="0.5" d="M20 13.44V9.60001H16V12.3744L17.11 13.44H20Z" fill="currentColor" fill-opacity="0.54"/>
</g>
<g id="&#226;&#134;&#179; Light Color_2">
<path id="Mask_2" opacity="0.5" d="M10 12.048V13.44H11.45L10 12.048Z" fill="currentColor" fill-opacity="0.54"/>
</g>
<g id="&#226;&#134;&#179; Light Color_3">
<path id="Mask_3" opacity="0.5" d="M14 9.60001H13.11L14 10.4544V9.60001Z" fill="currentColor" fill-opacity="0.54"/>
</g>
<g id="&#226;&#134;&#179; Light Color_4">
<path id="Mask_4" opacity="0.5" d="M19.11 15.36L20 16.2144V15.36H19.11Z" fill="currentColor" fill-opacity="0.54"/>
</g>
<g id="&#226;&#134;&#179; Light Color_5">
<path id="Mask_5" opacity="0.5" d="M7.99999 3.84H7.10999L7.99999 4.6944V3.84Z" fill="currentColor" fill-opacity="0.54"/>
</g>
<g id="&#226;&#134;&#179; Light Color_6">
<path id="Mask_6" opacity="0.5" d="M14 7.68V3.84H10V6.6144L11.11 7.68H14Z" fill="currentColor" fill-opacity="0.54"/>
</g>
<g id="&#226;&#134;&#179; Light Color_7">
<path id="Mask_7" opacity="0.5" d="M16 3.84H20V7.68H16V3.84Z" fill="currentColor" fill-opacity="0.54"/>
</g>
<g id="&#226;&#134;&#179; Light Color_8">
<path id="Mask_8" opacity="0.5" d="M10 15.36V19.2H14V15.888L13.45 15.36H10Z" fill="currentColor" fill-opacity="0.54"/>
</g>
<g id="&#226;&#134;&#179; Light Color_9">
<path id="Mask_9" opacity="0.5" d="M4 9.60001V13.44H8V10.128L7.45 9.60001H4Z" fill="currentColor" fill-opacity="0.54"/>
</g>
<g id="&#226;&#134;&#179; Light Color_10">
<path id="Mask_10" opacity="0.5" d="M16 19.2H17.45L16 17.808V19.2Z" fill="currentColor" fill-opacity="0.54"/>
</g>
<g id="&#226;&#134;&#179; Light Color_11">
<path id="Mask_11" opacity="0.5" d="M4 15.36H8V19.2H4V15.36Z" fill="currentColor" fill-opacity="0.54"/>
</g>
<g id="&#226;&#134;&#179; Light Color_12">
<path id="Mask_12" opacity="0.5" d="M4 6.28799V7.67999H5.45L4 6.28799Z" fill="currentColor" fill-opacity="0.54"/>
</g>
<g id="&#226;&#134;&#179; Dark Color">
<path id="Mask_13" fill-rule="evenodd" clip-rule="evenodd" d="M8 4.6944V3.84H7.10999L5.10999 1.92H20C21.1 1.92 22 2.784 22 3.84V18.1344L20 16.2144V15.36H19.11L17.11 13.44H20V9.59999H16V12.3744L14 10.4544V9.59999H13.11L11.11 7.67999H14V3.84H10V6.6144L8 4.6944ZM20 3.84H16V7.67999H20V3.84Z" fill="currentColor" fill-opacity="0.54"/>
</g>
<g id="&#226;&#134;&#179; Dark Color_2">
<path id="Mask_14" fill-rule="evenodd" clip-rule="evenodd" d="M1.41003 1.09441L0 2.44801L2 4.36801V19.2C2 20.256 2.90002 21.12 4 21.12H19.45L21.46 23.0496L22.87 21.696L1.41003 1.09441ZM10 12.048L11.45 13.44H10V12.048ZM5.44995 7.68001L4 6.28801V7.68001H5.44995ZM8 19.2H4V15.36H8V19.2ZM4 13.44H8V10.128L7.44995 9.60001H4V13.44ZM14 19.2H10V15.36H13.45L14 15.888V19.2ZM16 17.808V19.2H17.45L16 17.808Z" fill="currentColor" fill-opacity="0.54"/>
</g>
</g>
</svg>
