<svg width="1em" height="1em" viewBox="0 0 24 24" fill="none" xmlns="http://www.w3.org/2000/svg">
<g id="group_work_24px">
<g id="&#226;&#134;&#179; Light Color">
<path id="Mask" opacity="0.5" fill-rule="evenodd" clip-rule="evenodd" d="M4 12C4 7.59 7.58997 4 12 4C16.41 4 20 7.59 20 12C20 16.41 16.41 20 12 20C7.58997 20 4 16.41 4 12ZM6 14C6 15.1 6.90002 16 8 16C9.09998 16 10 15.1 10 14C10 12.9 9.09998 12 8 12C6.90002 12 6 12.9 6 14ZM12 10C10.9 10 10 9.10001 10 8C10 6.89999 10.9 6 12 6C13.1 6 14 6.89999 14 8C14 9.10001 13.1 10 12 10ZM14 14C14 15.1 14.9 16 16 16C17.1 16 18 15.1 18 14C18 12.9 17.1 12 16 12C14.9 12 14 12.9 14 14Z" fill="currentColor" fill-opacity="0.54"/>
</g>
<g id="&#226;&#134;&#179; Dark Color">
<path id="Mask_2" fill-rule="evenodd" clip-rule="evenodd" d="M2 12C2 6.48001 6.47998 2 12 2C17.52 2 22 6.48001 22 12C22 17.52 17.52 22 12 22C6.47998 22 2 17.52 2 12ZM4 12C4 16.41 7.58997 20 12 20C16.41 20 20 16.41 20 12C20 7.59 16.41 4 12 4C7.58997 4 4 7.59 4 12Z" fill="currentColor" fill-opacity="0.54"/>
</g>
<g id="&#226;&#134;&#179; Dark Color_2">
<path id="Mask_3" d="M8 16C9.10457 16 10 15.1046 10 14C10 12.8954 9.10457 12 8 12C6.89543 12 6 12.8954 6 14C6 15.1046 6.89543 16 8 16Z" fill="currentColor" fill-opacity="0.54"/>
</g>
<g id="&#226;&#134;&#179; Dark Color_3">
<path id="Mask_4" d="M12 10C13.1046 10 14 9.10457 14 8C14 6.89543 13.1046 6 12 6C10.8954 6 10 6.89543 10 8C10 9.10457 10.8954 10 12 10Z" fill="currentColor" fill-opacity="0.54"/>
</g>
<g id="&#226;&#134;&#179; Dark Color_4">
<path id="Mask_5" d="M16 16C17.1046 16 18 15.1046 18 14C18 12.8954 17.1046 12 16 12C14.8954 12 14 12.8954 14 14C14 15.1046 14.8954 16 16 16Z" fill="currentColor" fill-opacity="0.54"/>
</g>
</g>
</svg>
