<svg width="1em" height="1em" viewBox="0 0 24 24" fill="none" xmlns="http://www.w3.org/2000/svg">
<g id="hdr_off_24px">
<g id="&#226;&#134;&#179; Dark Color">
<path id="Mask" fill-rule="evenodd" clip-rule="evenodd" d="M17.5 13V15H17.14L16 13.86V9H19.5C20.3 9 21 9.7 21 10.5V11.5C21 12.1 20.6 12.6 20.1 12.9L21 15H19.5L18.6 13H17.5ZM19.5 10.5H17.5V11.5H19.5V10.5Z" fill="currentColor" fill-opacity="0.54"/>
</g>
<g id="&#226;&#134;&#179; Dark Color_2">
<path id="Mask_2" d="M13 10.5V10.86L14.5 12.36V10.5C14.5 9.7 13.8 9 13 9H11.14L12.64 10.5H13Z" fill="currentColor" fill-opacity="0.54"/>
</g>
<g id="&#226;&#134;&#179; Dark Color_3">
<path id="Mask_3" d="M2.50995 2.49001L1.44995 3.55001L6.89995 9.00001H6.49995V11H4.49995V9.00001H2.99995V15H4.49995V12.5H6.49995V15H7.99995V10.1L9.49995 11.6V15H12.9L20.5 22.6L21.56 21.54L2.50995 2.49001Z" fill="currentColor" fill-opacity="0.54"/>
</g>
</g>
</svg>
