<svg width="1em" height="1em" viewBox="0 0 24 24" fill="none" xmlns="http://www.w3.org/2000/svg">
<g id="hdr_weak_24px">
<g id="&#226;&#134;&#179; Dark Color">
<path id="Mask" fill-rule="evenodd" clip-rule="evenodd" d="M11 12C11 8.69 13.6899 6 17 6C20.3101 6 23 8.69 23 12C23 15.31 20.3101 18 17 18C13.6899 18 11 15.31 11 12ZM13 12C13 14.21 14.79 16 17 16C19.21 16 21 14.21 21 12C21 9.78999 19.21 8 17 8C14.79 8 13 9.78999 13 12Z" fill="currentColor" fill-opacity="0.54"/>
</g>
<g id="&#226;&#134;&#179; Light Color">
<path id="Mask_2" opacity="0.5" d="M5 14C6.10457 14 7 13.1046 7 12C7 10.8954 6.10457 10 5 10C3.89543 10 3 10.8954 3 12C3 13.1046 3.89543 14 5 14Z" fill="currentColor" fill-opacity="0.54"/>
</g>
<g id="&#226;&#134;&#179; Dark Color_2">
<path id="Mask_3" fill-rule="evenodd" clip-rule="evenodd" d="M1 12C1 9.78999 2.79004 8 5 8C7.20996 8 9 9.78999 9 12C9 14.21 7.20996 16 5 16C2.79004 16 1 14.21 1 12ZM3 12C3 13.1 3.90002 14 5 14C6.09998 14 7 13.1 7 12C7 10.9 6.09998 10 5 10C3.90002 10 3 10.9 3 12Z" fill="currentColor" fill-opacity="0.54"/>
</g>
</g>
</svg>
