<svg width="1em" height="1em" viewBox="0 0 24 24" fill="none" xmlns="http://www.w3.org/2000/svg">
<g id="hdr_on_24px">
<g id="&#226;&#134;&#179; Dark Color">
<path id="Mask" fill-rule="evenodd" clip-rule="evenodd" d="M9.5 9H13C13.8 9 14.5 9.7 14.5 10.5V13.5C14.5 14.3 13.8 15 13 15H9.5V9ZM11 13.5H13V10.5H11V13.5Z" fill="currentColor" fill-opacity="0.54"/>
</g>
<g id="&#226;&#134;&#179; Dark Color_2">
<path id="Mask_2" fill-rule="evenodd" clip-rule="evenodd" d="M21 10.5V11.5C21 12.1 20.6 12.6 20.1 12.9L21 15H19.5L18.6 13H17.5V15H16V9H19.5C20.3 9 21 9.7 21 10.5ZM17.5 11.5H19.5V10.5H17.5V11.5Z" fill="currentColor" fill-opacity="0.54"/>
</g>
<g id="&#226;&#134;&#179; Dark Color_3">
<path id="Mask_3" d="M6.5 11H4.5V9H3V15H4.5V12.5H6.5V15H8V9H6.5V11Z" fill="currentColor" fill-opacity="0.54"/>
</g>
</g>
</svg>
