<svg width="1em" height="1em" viewBox="0 0 24 24" fill="none" xmlns="http://www.w3.org/2000/svg">
<g id="healing_24px">
<g id="&#226;&#134;&#179; Light Color">
<path id="Mask" opacity="0.5" d="M13.03 16.72L16.66 20.34L20.28 16.71L16.66 13.09L13.03 16.72Z" fill="currentColor" fill-opacity="0.54"/>
</g>
<g id="&#226;&#134;&#179; Light Color_2">
<path id="Mask_2" opacity="0.5" d="M7.29003 3.71001L3.66003 7.34001L7.29003 10.96L10.91 7.33001L7.29003 3.71001Z" fill="currentColor" fill-opacity="0.54"/>
</g>
<g id="&#226;&#134;&#179; Dark Color">
<path id="Mask_3" fill-rule="evenodd" clip-rule="evenodd" d="M17.73 12.02L21.71 8.04C22.1 7.65 22.1 7.02001 21.71 6.63001L17.37 2.29C16.98 1.9 16.35 1.9 15.96 2.29L11.98 6.27001L8.00003 2.29C7.80008 2.09999 7.55008 2 7.29007 2C7.04007 2 6.78006 2.09999 6.59 2.29L2.25003 6.63001C1.86002 7.02001 1.86002 7.65 2.25003 8.04L6.23001 12.02L2.25003 16C1.86002 16.39 1.86002 17.02 2.25003 17.41L6.59 21.75C6.98001 22.14 7.61002 22.14 8.00003 21.75L11.98 17.77L15.96 21.75C16.1601 21.95 16.4101 22.04 16.6701 22.04C16.9301 22.04 17.1801 21.94 17.38 21.75L21.72 17.41C22.11 17.02 22.11 16.39 21.72 16L17.73 12.02ZM12 9C12.5501 9 13 9.45 13 10C13 10.55 12.5501 11 12 11C11.45 11 11 10.55 11 10C11 9.45 11.45 9 12 9ZM3.66006 7.34L7.29007 10.96L10.9101 7.32999L7.29007 3.71L3.66006 7.34ZM10 13C9.44998 13 9.00003 12.55 9.00003 12C9.00003 11.45 9.44998 11 10 11C10.5501 11 11 11.45 11 12C11 12.55 10.5501 13 10 13ZM11 14C11 14.55 11.45 15 12 15C12.5501 15 13 14.55 13 14C13 13.45 12.5501 13 12 13C11.45 13 11 13.45 11 14ZM14 11C14.5501 11 15 11.45 15 12C15 12.55 14.5501 13 14 13C13.45 13 13 12.55 13 12C13 11.45 13.45 11 14 11ZM13.0301 16.72L16.6601 20.34L20.2801 16.71L16.6601 13.09L13.0301 16.72Z" fill="currentColor" fill-opacity="0.54"/>
</g>
</g>
</svg>
