<svg width="1em" height="1em" viewBox="0 0 24 24" fill="none" xmlns="http://www.w3.org/2000/svg">
<g id="help_24px">
<g id="&#226;&#134;&#179; Light Color">
<path id="Mask" opacity="0.5" fill-rule="evenodd" clip-rule="evenodd" d="M12 4C7.58997 4 4 7.59 4 12C4 16.41 7.58997 20 12 20C16.41 20 20 16.41 20 12C20 7.59 16.41 4 12 4ZM11 18V16H13V18H11ZM12.7704 11.8217C11.9421 12.4566 11 13.1787 11 15H13C13 13.9046 13.7111 13.2833 14.4408 12.6455C15.21 11.9733 16 11.2829 16 10C16 7.79001 14.21 6 12 6C9.79004 6 8 7.79001 8 10H10C10 8.89999 10.9 8 12 8C13.1 8 14 8.89999 14 10C14 10.8792 13.4203 11.3236 12.7704 11.8217Z" fill="currentColor" fill-opacity="0.54"/>
</g>
<g id="&#226;&#134;&#179; Dark Color">
<path id="Mask_2" d="M11 16H13V18H11V16Z" fill="currentColor" fill-opacity="0.54"/>
</g>
<g id="&#226;&#134;&#179; Dark Color_2">
<path id="Mask_3" fill-rule="evenodd" clip-rule="evenodd" d="M2 12C2 6.48001 6.47998 2 12 2C17.52 2 22 6.48001 22 12C22 17.52 17.52 22 12 22C6.47998 22 2 17.52 2 12ZM4 12C4 16.41 7.58997 20 12 20C16.41 20 20 16.41 20 12C20 7.59 16.41 4 12 4C7.58997 4 4 7.59 4 12Z" fill="currentColor" fill-opacity="0.54"/>
</g>
<g id="&#226;&#134;&#179; Dark Color_3">
<path id="Mask_4" d="M12 6C9.79 6 8 7.79 8 10H10C10 8.9 10.9 8 12 8C13.1 8 14 8.9 14 10C14 12 11 11.75 11 15H13C13 12.75 16 12.5 16 10C16 7.79 14.21 6 12 6Z" fill="currentColor" fill-opacity="0.54"/>
</g>
</g>
</svg>
