<svg width="1em" height="1em" viewBox="0 0 24 24" fill="none" xmlns="http://www.w3.org/2000/svg">
<g id="highlight_off_24px">
<g id="&#226;&#134;&#179; Light Color">
<path id="Mask" opacity="0.5" fill-rule="evenodd" clip-rule="evenodd" d="M4 12C4 7.59 7.59003 4 12 4C16.41 4 20 7.59 20 12C20 16.41 16.41 20 12 20C7.59003 20 4 16.41 4 12ZM14.59 16L16 14.59L13.41 12L16 9.41L14.59 8L12 10.59L9.40997 8L8 9.41L10.59 12L8 14.59L9.40997 16L12 13.41L14.59 16Z" fill="currentColor" fill-opacity="0.54"/>
</g>
<g id="&#226;&#134;&#179; Dark Color">
<path id="Mask_2" d="M14.59 8L12 10.59L9.41 8L8 9.41L10.59 12L8 14.59L9.41 16L12 13.41L14.59 16L16 14.59L13.41 12L16 9.41L14.59 8Z" fill="currentColor" fill-opacity="0.54"/>
</g>
<g id="&#226;&#134;&#179; Dark Color_2">
<path id="Mask_3" fill-rule="evenodd" clip-rule="evenodd" d="M2 12C2 6.47 6.46997 2 12 2C17.53 2 22 6.47 22 12C22 17.53 17.53 22 12 22C6.46997 22 2 17.53 2 12ZM4 12C4 16.41 7.59003 20 12 20C16.41 20 20 16.41 20 12C20 7.59 16.41 4 12 4C7.59003 4 4 7.59 4 12Z" fill="currentColor" fill-opacity="0.54"/>
</g>
</g>
</svg>
