<svg width="1em" height="1em" viewBox="0 0 24 24" fill="none" xmlns="http://www.w3.org/2000/svg">
<g id="highlight_24px">
<g id="&#226;&#134;&#179; Light Color">
<path id="Mask" opacity="0.5" d="M11 20H13V16.17L16 13.17V11H8V13.17L11 16.17V20Z" fill="currentColor" fill-opacity="0.54"/>
</g>
<g id="&#226;&#134;&#179; Dark Color">
<path id="Mask_2" fill-rule="evenodd" clip-rule="evenodd" d="M9 17L6 14V9H18V14L15 17V22H9V17ZM16 11H8V13.17L11 16.17V20H13V16.17L16 13.17V11Z" fill="currentColor" fill-opacity="0.54"/>
</g>
<g id="&#226;&#134;&#179; Dark Color_2">
<path id="Mask_3" d="M11 2H13V5H11V2Z" fill="currentColor" fill-opacity="0.54"/>
</g>
<g id="&#226;&#134;&#179; Dark Color_3">
<path id="Mask_4" d="M4.91565 4.46376L7.03605 6.58596L5.62125 7.99956L3.50085 5.87736L4.91565 4.46376Z" fill="currentColor" fill-opacity="0.54"/>
</g>
<g id="&#226;&#134;&#179; Dark Color_4">
<path id="Mask_5" d="M18.3721 8.00043L16.9579 6.58623L19.0792 4.46494L20.4934 5.87913L18.3721 8.00043Z" fill="currentColor" fill-opacity="0.54"/>
</g>
</g>
</svg>
