<svg width="1em" height="1em" viewBox="0 0 24 24" fill="none" xmlns="http://www.w3.org/2000/svg">
<g id="hourglass_full_24px">
<g id="&#226;&#134;&#179; Light Color">
<path id="Mask" opacity="0.5" d="M8 7.5L12 11.5L16 7.5V4H8V7.5Z" fill="currentColor" fill-opacity="0.54"/>
</g>
<g id="&#226;&#134;&#179; Light Color_2">
<path id="Mask_2" opacity="0.5" d="M8 16.5V20H16V16.5L12 12.5L8 16.5Z" fill="currentColor" fill-opacity="0.54"/>
</g>
<g id="&#226;&#134;&#179; Dark Color">
<path id="Mask_3" fill-rule="evenodd" clip-rule="evenodd" d="M18 2H6V8H6.01001L6 8.01001L10 12L6 16L6.01001 16.01H6V22H18V16.01H17.99L18 16L14 12L18 8.01001L17.99 8H18V2ZM16 16.5V20H8V16.5L12 12.5L16 16.5ZM8 7.5L12 11.5L16 7.5V4H8V7.5Z" fill="currentColor" fill-opacity="0.54"/>
</g>
</g>
</svg>
