<svg width="1em" height="1em" viewBox="0 0 24 24" fill="none" xmlns="http://www.w3.org/2000/svg">
<g id="how_to_vote_24px">
<g id="&#226;&#134;&#179; Light Color">
<path id="Mask" opacity="0.5" d="M5 19H19V20H5V19Z" fill="currentColor" fill-opacity="0.54"/>
</g>
<g id="&#226;&#134;&#179; Dark Color">
<path id="Mask_2" fill-rule="evenodd" clip-rule="evenodd" d="M17.32 13H18L21 16V20C21 21.11 20.1 22 19 22H4.99C3.89 22 3 21.1 3 20V16L6 13H6.83L8.83 15H6.78L5 17H19L17.23 15H15.32L17.32 13ZM5 20H19V19H5V20Z" fill="currentColor" fill-opacity="0.54"/>
</g>
<g id="&#226;&#134;&#179; Light Color_2">
<path id="Mask_3" opacity="0.5" d="M12.0479 12.9049L8.50532 9.36229L13.455 4.41259L16.9976 7.95516L12.0479 12.9049Z" fill="currentColor" fill-opacity="0.54"/>
</g>
<g id="&#226;&#134;&#179; Dark Color_2">
<path id="Mask_4" fill-rule="evenodd" clip-rule="evenodd" d="M14.16 2.3L19.11 7.25C19.5 7.64 19.5 8.27 19.11 8.66L12.75 15.02C12.36 15.41 11.73 15.41 11.34 15.02L6.39 10.07C5.99999 9.68 5.99999 9.05 6.39 8.66L12.76 2.29C13.15 1.9 13.78 1.9 14.16 2.3ZM8.51 9.36L12.05 12.9L17 7.95L13.46 4.41L8.51 9.36Z" fill="currentColor" fill-opacity="0.54"/>
</g>
</g>
</svg>
