<svg width="1em" height="1em" viewBox="0 0 24 24" fill="none" xmlns="http://www.w3.org/2000/svg">
<g id="how_to_reg_24px">
<g id="&#226;&#134;&#179; Light Color">
<path id="Mask" opacity="0.5" d="M11 10C12.1046 10 13 9.10457 13 8C13 6.89543 12.1046 6 11 6C9.89543 6 9 6.89543 9 8C9 9.10457 9.89543 10 11 10Z" fill="currentColor" fill-opacity="0.54"/>
</g>
<g id="&#226;&#134;&#179; Light Color_2">
<path id="Mask_2" opacity="0.5" d="M5 18H9.99L9 17L9.93 16.06C7.55 16.33 5.2 17.37 5 18Z" fill="currentColor" fill-opacity="0.54"/>
</g>
<g id="&#226;&#134;&#179; Dark Color">
<path id="Mask_3" fill-rule="evenodd" clip-rule="evenodd" d="M15 8C15 10.21 13.21 12 11 12C8.79 12 7 10.21 7 8C7 5.79 8.79 4 11 4C13.21 4 15 5.79 15 8ZM13 8C13 6.9 12.1 6 11 6C9.9 6 9 6.9 9 8C9 9.1 9.9 10 11 10C12.1 10 13 9.1 13 8Z" fill="currentColor" fill-opacity="0.54"/>
</g>
<g id="&#226;&#134;&#179; Dark Color_2">
<path id="Mask_4" d="M10 18H5C5.2 17.37 7.55 16.33 9.93 16.06C9.94 16.06 9.95 16.06 9.96 16.06L10.42 15.61L12 14.06C11.61 14.02 11.32 14 11 14C8.33 14 3 15.34 3 18V20H11.97H12L10 18Z" fill="currentColor" fill-opacity="0.54"/>
</g>
<g id="&#226;&#134;&#179; Dark Color_3">
<path id="Mask_5" d="M20.6 12.5L15.47 17.67L13.4 15.59L12 17L15.47 20.5L22 13.91L20.6 12.5Z" fill="currentColor" fill-opacity="0.54"/>
</g>
</g>
</svg>
