<svg width="1em" height="1em" viewBox="0 0 24 24" fill="none" xmlns="http://www.w3.org/2000/svg">
<g id="https_24px">
<g id="&#226;&#134;&#179; Light Color">
<path id="Mask" opacity="0.5" fill-rule="evenodd" clip-rule="evenodd" d="M18 10V20H6V10H18ZM14 15C14 13.9 13.1 13 12 13C10.9 13 10 13.9 10 15C10 16.1 10.9 17 12 17C13.1 17 14 16.1 14 15Z" fill="currentColor" fill-opacity="0.54"/>
</g>
<g id="&#226;&#134;&#179; Dark Color">
<path id="Mask_2" fill-rule="evenodd" clip-rule="evenodd" d="M17 8H18C19.1 8 20 8.89999 20 10V20C20 21.1 19.1 22 18 22H6C4.90002 22 4 21.1 4 20V10C4 8.89999 4.90002 8 6 8H7V6C7 3.23999 9.23999 1 12 1C14.76 1 17 3.23999 17 6V8ZM12 3C10.34 3 9 4.34 9 6V8H15V6C15 4.34 13.66 3 12 3ZM6 20V10H18V20H6ZM14 15C14 16.1 13.1 17 12 17C10.9 17 10 16.1 10 15C10 13.9 10.9 13 12 13C13.1 13 14 13.9 14 15Z" fill="currentColor" fill-opacity="0.54"/>
</g>
</g>
</svg>
