<svg width="1em" height="1em" viewBox="0 0 24 24" fill="none" xmlns="http://www.w3.org/2000/svg">
<g id="image_aspect_ratio_24px">
<g id="&#226;&#134;&#179; Light Color">
<path id="Mask" opacity="0.5" fill-rule="evenodd" clip-rule="evenodd" d="M4 18H20V6H4V18ZM14 10H16V12H14V10ZM16 14H14V16H16V14ZM10 10H12V12H10V10ZM8 10H6V12H8V10Z" fill="currentColor" fill-opacity="0.54"/>
</g>
<g id="&#226;&#134;&#179; Dark Color">
<path id="Mask_2" d="M14 10H16V12H14V10Z" fill="currentColor" fill-opacity="0.54"/>
</g>
<g id="&#226;&#134;&#179; Dark Color_2">
<path id="Mask_3" d="M14 14H16V16H14V14Z" fill="currentColor" fill-opacity="0.54"/>
</g>
<g id="&#226;&#134;&#179; Dark Color_3">
<path id="Mask_4" d="M6 10H8V12H6V10Z" fill="currentColor" fill-opacity="0.54"/>
</g>
<g id="&#226;&#134;&#179; Dark Color_4">
<path id="Mask_5" d="M10 10H12V12H10V10Z" fill="currentColor" fill-opacity="0.54"/>
</g>
<g id="&#226;&#134;&#179; Dark Color_5">
<path id="Mask_6" fill-rule="evenodd" clip-rule="evenodd" d="M4 4H20C21.1 4 22 4.89999 22 6V18C22 19.1 21.1 20 20 20H4C2.90002 20 2 19.1 2 18V6C2 4.89999 2.90002 4 4 4ZM4 18H20V6H4V18Z" fill="currentColor" fill-opacity="0.54"/>
</g>
</g>
</svg>
