<svg width="1em" height="1em" viewBox="0 0 24 24" fill="none" xmlns="http://www.w3.org/2000/svg">
<g id="image_search_24px">
<g id="&#226;&#134;&#179; Light Color">
<path id="Mask" opacity="0.5" fill-rule="evenodd" clip-rule="evenodd" d="M15.49 12C16.25 12 17 11.84 17.7 11.53L18 11.83V20H4V6H10.03C10.01 6.16 10 6.32999 10 6.5C10 9.53 12.46 12 15.49 12ZM8.25 14.47L5.5 18H16.5L12.96 13.29L10.21 16.83L8.25 14.47Z" fill="currentColor" fill-opacity="0.54"/>
</g>
<g id="&#226;&#134;&#179; Dark Color">
<path id="Mask_2" d="M10.21 16.83L8.25 14.47L5.5 18H16.5L12.96 13.29L10.21 16.83Z" fill="currentColor" fill-opacity="0.54"/>
</g>
<g id="&#226;&#134;&#179; Dark Color_2">
<path id="Mask_3" fill-rule="evenodd" clip-rule="evenodd" d="M15.5 2C17.99 2 20 4.01001 20 6.5C20 7.38 19.74 8.19 19.3 8.89001L22.42 12L21 13.42L17.88 10.3C17.1899 10.74 16.37 11 15.49 11C13.01 11 11 8.98999 11 6.5C11 4.01001 13.01 2 15.5 2ZM13 6.5C13 7.88 14.12 9 15.5 9C16.88 9 18 7.88 18 6.5C18 5.12 16.88 4 15.5 4C14.12 4 13 5.12 13 6.5Z" fill="currentColor" fill-opacity="0.54"/>
</g>
<g id="&#226;&#134;&#179; Dark Color_3">
<path id="Mask_4" d="M18 20H4V6H10.03C10.09 5.28 10.3 4.61 10.61 4H4C2.9 4 2 4.9 2 6V20C2 21.1 2.9 22 4 22H18C19.1 22 20 21.1 20 20V13.83L18 11.83V20Z" fill="currentColor" fill-opacity="0.54"/>
</g>
</g>
</svg>
