<svg width="1em" height="1em" viewBox="0 0 24 24" fill="none" xmlns="http://www.w3.org/2000/svg">
<g id="important_devices_24px">
<g id="&#226;&#134;&#179; Light Color">
<path id="Mask" opacity="0.5" d="M18 13H23V20H18V13Z" fill="currentColor" fill-opacity="0.54"/>
</g>
<g id="&#226;&#134;&#179; Dark Color">
<path id="Mask_2" fill-rule="evenodd" clip-rule="evenodd" d="M18 11L23 11.01C23.55 11.01 24 11.45 24 12V21C24 21.55 23.55 22 23 22H18C17.45 22 17 21.55 17 21V12C17 11.45 17.45 11 18 11ZM18 20H23V13H18V20Z" fill="currentColor" fill-opacity="0.54"/>
</g>
<g id="&#226;&#134;&#179; Dark Color_2">
<path id="Mask_3" d="M2 4H20V9H22V4C22 2.89 21.1 2 20 2H2C0.89 2 0 2.89 0 4V16C0 17.1 0.89 18 2 18H9V20H7V22H15V20H13V18H15V16H2V4Z" fill="currentColor" fill-opacity="0.54"/>
</g>
<g id="&#226;&#134;&#179; Dark Color_3">
<path id="Mask_4" d="M11 6L10.03 9H7L9.47 10.76L8.53 13.67L11 11.87L13.47 13.67L12.53 10.76L15 9H11.97L11 6Z" fill="currentColor" fill-opacity="0.54"/>
</g>
</g>
</svg>
