<svg width="1em" height="1em" viewBox="0 0 24 24" fill="none" xmlns="http://www.w3.org/2000/svg">
<g id="inbox_24px">
<g id="&#226;&#134;&#179; Light Color">
<path id="Mask" opacity="0.5" d="M12.01 18C10.53 18 9.26 17.19 8.56 16H5V19H19V16H15.45C14.76 17.19 13.48 18 12.01 18Z" fill="currentColor" fill-opacity="0.54"/>
</g>
<g id="&#226;&#134;&#179; Dark Color">
<path id="Mask_2" fill-rule="evenodd" clip-rule="evenodd" d="M19 3H5C3.89999 3 3 3.9 3 5V19C3 20.1 3.89 21 5 21H19C20.1 21 21 20.1 21 19V5C21 3.9 20.1 3 19 3ZM19 16V19H5V16H8.56C9.25 17.19 10.53 18 12.01 18C13.49 18 14.76 17.19 15.46 16H19ZM14 14H19V5H5V14H10C10 15.1 10.9 16 12 16C13.1 16 14 15.1 14 14Z" fill="currentColor" fill-opacity="0.54"/>
</g>
</g>
</svg>
