<svg width="1em" height="1em" viewBox="0 0 24 24" fill="none" xmlns="http://www.w3.org/2000/svg">
<g id="info_outline_24px">
<g id="&#226;&#134;&#179; Dark Color">
<path id="Mask" fill-rule="evenodd" clip-rule="evenodd" d="M2 12C2 6.48001 6.47998 2 12 2C17.52 2 22 6.48001 22 12C22 17.52 17.52 22 12 22C6.47998 22 2 17.52 2 12ZM13 11V17H11V11H13ZM12 20C7.59003 20 4 16.41 4 12C4 7.59 7.59003 4 12 4C16.41 4 20 7.59 20 12C20 16.41 16.41 20 12 20ZM13 7V9H11V7H13Z" fill="currentColor" fill-opacity="0.54"/>
</g>
</g>
</svg>
