<svg width="1em" height="1em" viewBox="0 0 24 24" fill="none" xmlns="http://www.w3.org/2000/svg">
<g id="insert_comment_24px">
<g id="&#226;&#134;&#179; Light Color">
<path id="Mask" opacity="0.5" fill-rule="evenodd" clip-rule="evenodd" d="M18.83 16H4V4H20V17.17L18.83 16ZM18 6H6V8H18V6ZM6 9H18V11H6V9ZM18 12H6V14H18V12Z" fill="currentColor" fill-opacity="0.54"/>
</g>
<g id="&#226;&#134;&#179; Dark Color">
<path id="Mask_2" fill-rule="evenodd" clip-rule="evenodd" d="M4 2H20C21.1 2 22 2.9 22 4V22L18 18H4C2.90002 18 2 17.1 2 16V4C2 2.9 2.90002 2 4 2ZM20 17.17V4H4V16H18.83L20 17.17Z" fill="currentColor" fill-opacity="0.54"/>
</g>
<g id="&#226;&#134;&#179; Dark Color_2">
<path id="Mask_3" d="M6 12H18V14H6V12Z" fill="currentColor" fill-opacity="0.54"/>
</g>
<g id="&#226;&#134;&#179; Dark Color_3">
<path id="Mask_4" d="M6 9H18V11H6V9Z" fill="currentColor" fill-opacity="0.54"/>
</g>
<g id="&#226;&#134;&#179; Dark Color_4">
<path id="Mask_5" d="M6 6H18V8H6V6Z" fill="currentColor" fill-opacity="0.54"/>
</g>
</g>
</svg>
