<svg width="1em" height="1em" viewBox="0 0 24 24" fill="none" xmlns="http://www.w3.org/2000/svg">
<g id="insert_link_24px">
<g id="&#226;&#134;&#179; Dark Color">
<path id="Mask" fill-rule="evenodd" clip-rule="evenodd" d="M3.90002 12C3.90002 10.29 5.28998 8.9 7 8.9H11V7H7C4.23999 7 2 9.24 2 12C2 14.76 4.23999 17 7 17H11V15.1H7C5.28998 15.1 3.90002 13.71 3.90002 12ZM8 13H16V11H8V13ZM13 7H17C19.76 7 22 9.24 22 12C22 14.76 19.76 17 17 17H13V15.1H17C18.71 15.1 20.1 13.71 20.1 12C20.1 10.29 18.71 8.9 17 8.9H13V7Z" fill="currentColor" fill-opacity="0.54"/>
</g>
</g>
</svg>
