<svg width="1em" height="1em" viewBox="0 0 24 24" fill="none" xmlns="http://www.w3.org/2000/svg">
<g id="insert_invitation_24px">
<g id="&#226;&#134;&#179; Light Color">
<path id="Mask" opacity="0.5" d="M19 5H5V7H19V5Z" fill="currentColor" fill-opacity="0.54"/>
</g>
<g id="&#226;&#134;&#179; Dark Color">
<path id="Mask_2" fill-rule="evenodd" clip-rule="evenodd" d="M5 21H19C20.1 21 21 20.1 21 19V5C21 3.9 20.1 3 19 3H18V1H16V3H8V1H6V3H5C3.89001 3 3.01001 3.9 3.01001 5L3 19C3 20.1 3.89001 21 5 21ZM5 7V5H19V7H5ZM19 9H5V19H19V9Z" fill="currentColor" fill-opacity="0.54"/>
</g>
<g id="&#226;&#134;&#179; Dark Color_2">
<path id="Mask_3" d="M12 12H17V17H12V12Z" fill="currentColor" fill-opacity="0.54"/>
</g>
</g>
</svg>
