<svg width="1em" height="1em" viewBox="0 0 24 24" fill="none" xmlns="http://www.w3.org/2000/svg">
<g id="invert_colors_24px">
<g id="&#226;&#134;&#179; Light Color">
<path id="Mask" opacity="0.5" d="M6 13.59C6 15.19 6.62 16.69 7.76 17.83C8.89 18.97 10.4 19.59 12 19.59V5.10001L7.76 9.35001C6.62 10.48 6 11.99 6 13.59Z" fill="currentColor" fill-opacity="0.54"/>
</g>
<g id="&#226;&#134;&#179; Dark Color">
<path id="Mask_2" fill-rule="evenodd" clip-rule="evenodd" d="M6.34004 7.92999L12 2.26999L17.66 7.92999C20.78 11.05 20.78 16.12 17.66 19.24C16.1 20.8 14.05 21.58 12 21.58C9.95003 21.58 7.90004 20.8 6.34004 19.24C3.21999 16.12 3.21999 11.05 6.34004 7.92999ZM7.76003 17.83C8.89003 18.97 10.4 19.59 12 19.59V5.09998L7.76003 9.34998C6.62001 10.48 6.00002 11.99 6.00002 13.59C6.00002 15.19 6.62001 16.69 7.76003 17.83Z" fill="currentColor" fill-opacity="0.54"/>
</g>
</g>
</svg>
