<svg width="1em" height="1em" viewBox="0 0 24 24" fill="none" xmlns="http://www.w3.org/2000/svg">
<g id="iso_24px">
<g id="&#226;&#134;&#179; Light Color">
<path id="Mask" opacity="0.5" fill-rule="evenodd" clip-rule="evenodd" d="M19 5V19H5L19 5ZM17 17V15.5H12V17H17Z" fill="currentColor" fill-opacity="0.54"/>
</g>
<g id="&#226;&#134;&#179; Dark Color">
<path id="Mask_2" d="M12 15.5H17V17H12V15.5Z" fill="currentColor" fill-opacity="0.54"/>
</g>
<g id="&#226;&#134;&#179; Dark Color_2">
<path id="Mask_3" fill-rule="evenodd" clip-rule="evenodd" d="M19 3H5C3.90002 3 3 3.89999 3 5V19C3 20.1 3.90002 21 5 21H19C20.1 21 21 20.1 21 19V5C21 3.89999 20.1 3 19 3ZM5.5 7.5H7.5V5.5H9V7.5H11V9H9V11H7.5V9H5.5V7.5ZM5 19H19V5L5 19Z" fill="currentColor" fill-opacity="0.54"/>
</g>
</g>
</svg>
