<svg width="1em" height="1em" viewBox="0 0 24 24" fill="none" xmlns="http://www.w3.org/2000/svg">
<g id="label_off_24px">
<g id="&#226;&#134;&#179; Light Color">
<path id="Mask" opacity="0.5" d="M5 7.03V17H14.97L5 7.03Z" fill="currentColor" fill-opacity="0.54"/>
</g>
<g id="&#226;&#134;&#179; Light Color_2">
<path id="Mask_2" opacity="0.5" d="M16 7H10.63L17.92 14.29L19.55 12L16 7Z" fill="currentColor" fill-opacity="0.54"/>
</g>
<g id="&#226;&#134;&#179; Dark Color">
<path id="Mask_3" d="M16 7L19.55 12L17.92 14.29L19.35 15.72L22 12L17.63 5.84C17.27 5.33 16.67 5 16 5L8.63 5.01L10.63 7H16Z" fill="currentColor" fill-opacity="0.54"/>
</g>
<g id="&#226;&#134;&#179; Dark Color_2">
<path id="Mask_4" fill-rule="evenodd" clip-rule="evenodd" d="M3.57996 5.60999L2 4.03L3.41003 2.62L20.38 19.59L18.97 21L16.79 18.82C16.55 18.93 16.28 19 16 19L5 18.99C3.90002 18.99 3 18.1 3 17V7C3 6.45999 3.21997 5.95999 3.57996 5.60999ZM14.97 17L5 7.03V17H14.97Z" fill="currentColor" fill-opacity="0.54"/>
</g>
</g>
</svg>
