<svg width="1em" height="1em" viewBox="0 0 24 24" fill="none" xmlns="http://www.w3.org/2000/svg">
<g id="language_24px">
<g id="&#226;&#134;&#179; Light Color">
<path id="Mask" opacity="0.5" d="M5.07996 8H8.02996C8.34996 6.75 8.80996 5.55 9.40996 4.44C7.56996 5.07 6.03996 6.34 5.07996 8Z" fill="currentColor" fill-opacity="0.54"/>
</g>
<g id="&#226;&#134;&#179; Light Color_2">
<path id="Mask_2" opacity="0.5" d="M7.5 12C7.5 11.32 7.56 10.66 7.64 10H4.26C4.1 10.64 4 11.31 4 12C4 12.69 4.1 13.36 4.26 14H7.64C7.56 13.34 7.5 12.68 7.5 12Z" fill="currentColor" fill-opacity="0.54"/>
</g>
<g id="&#226;&#134;&#179; Light Color_3">
<path id="Mask_3" opacity="0.5" d="M5.07996 16C6.03996 17.66 7.56996 18.93 9.40996 19.56C8.80996 18.45 8.34996 17.25 8.02996 16H5.07996V16Z" fill="currentColor" fill-opacity="0.54"/>
</g>
<g id="&#226;&#134;&#179; Light Color_4">
<path id="Mask_4" opacity="0.5" d="M12 4.04001C11.17 5.24001 10.52 6.57001 10.09 8.00001H13.91C13.48 6.57001 12.83 5.24001 12 4.04001Z" fill="currentColor" fill-opacity="0.54"/>
</g>
<g id="&#226;&#134;&#179; Light Color_5">
<path id="Mask_5" opacity="0.5" d="M18.92 8C17.96 6.35 16.43 5.07 14.59 4.44C15.19 5.55 15.65 6.75 15.97 8H18.92Z" fill="currentColor" fill-opacity="0.54"/>
</g>
<g id="&#226;&#134;&#179; Light Color_6">
<path id="Mask_6" opacity="0.5" d="M12 19.96C12.83 18.76 13.48 17.43 13.91 16H10.09C10.52 17.43 11.17 18.76 12 19.96Z" fill="currentColor" fill-opacity="0.54"/>
</g>
<g id="&#226;&#134;&#179; Light Color_7">
<path id="Mask_7" opacity="0.5" d="M14.59 19.56C16.43 18.93 17.96 17.65 18.92 16H15.97C15.65 17.25 15.19 18.45 14.59 19.56Z" fill="currentColor" fill-opacity="0.54"/>
</g>
<g id="&#226;&#134;&#179; Light Color_8">
<path id="Mask_8" opacity="0.5" d="M19.74 10H16.36C16.44 10.66 16.5 11.32 16.5 12C16.5 12.68 16.44 13.34 16.36 14H19.74C19.9 13.36 20 12.69 20 12C20 11.31 19.9 10.64 19.74 10Z" fill="currentColor" fill-opacity="0.54"/>
</g>
<g id="&#226;&#134;&#179; Light Color_9">
<path id="Mask_9" opacity="0.5" d="M9.66 10C9.57 10.65 9.5 11.32 9.5 12C9.5 12.68 9.57 13.34 9.66 14H14.34C14.43 13.34 14.5 12.68 14.5 12C14.5 11.32 14.43 10.65 14.34 10H9.66Z" fill="currentColor" fill-opacity="0.54"/>
</g>
<g id="&#226;&#134;&#179; Dark Color">
<path id="Mask_10" fill-rule="evenodd" clip-rule="evenodd" d="M2 12C2 6.48001 6.46997 2 11.99 2C17.52 2 22 6.48001 22 12C22 17.52 17.52 22 11.99 22C6.46997 22 2 17.52 2 12ZM15.97 8H18.9199C17.96 6.35001 16.4299 5.07001 14.59 4.44C15.1899 5.54999 15.65 6.75 15.97 8ZM12 4.04001C12.83 5.24002 13.48 6.57001 13.9099 8H10.09C10.52 6.57001 11.1699 5.24002 12 4.04001ZM4 12C4 12.69 4.09998 13.36 4.26001 14H7.64001C7.56006 13.34 7.5 12.68 7.5 12C7.5 11.32 7.56006 10.66 7.64001 10H4.26001C4.09998 10.64 4 11.31 4 12ZM5.07996 16H8.02991C8.34998 17.25 8.80994 18.45 9.40991 19.56C7.56995 18.93 6.03992 17.66 5.07996 16ZM5.07996 8H8.02991C8.34998 6.75 8.80994 5.54999 9.40991 4.44C7.56995 5.07001 6.03992 6.34 5.07996 8ZM12 19.96C11.1699 18.76 10.52 17.43 10.09 16H13.9099C13.48 17.43 12.83 18.76 12 19.96ZM9.5 12C9.5 12.68 9.56995 13.34 9.66003 14H14.34C14.4301 13.34 14.5 12.68 14.5 12C14.5 11.32 14.4301 10.65 14.34 10H9.66003C9.56995 10.65 9.5 11.32 9.5 12ZM14.59 19.56C15.1899 18.45 15.65 17.25 15.97 16H18.9199C17.96 17.65 16.4299 18.93 14.59 19.56ZM16.5 12C16.5 12.68 16.4399 13.34 16.36 14H19.74C19.9 13.36 20 12.69 20 12C20 11.31 19.9 10.64 19.74 10H16.36C16.4399 10.66 16.5 11.32 16.5 12Z" fill="currentColor" fill-opacity="0.54"/>
</g>
</g>
</svg>
