<svg width="1em" height="1em" viewBox="0 0 24 24" fill="none" xmlns="http://www.w3.org/2000/svg">
<g id="leak_add_24px">
<g id="&#226;&#134;&#179; Dark Color">
<path id="Mask" d="M18 21H21V18C19.34 18 18 19.34 18 21Z" fill="currentColor" fill-opacity="0.54"/>
</g>
<g id="&#226;&#134;&#179; Dark Color_2">
<path id="Mask_2" d="M3 14C9.08 14 14 9.07 14 3H12C12 7.97 7.97 12 3 12V14Z" fill="currentColor" fill-opacity="0.54"/>
</g>
<g id="&#226;&#134;&#179; Dark Color_3">
<path id="Mask_3" d="M14 21H16C16 18.24 18.24 16 21 16V14C17.13 14 14 17.13 14 21Z" fill="currentColor" fill-opacity="0.54"/>
</g>
<g id="&#226;&#134;&#179; Dark Color_4">
<path id="Mask_4" d="M3 10C6.87 10 10 6.87 10 3H8C8 5.76 5.76 8 3 8V10Z" fill="currentColor" fill-opacity="0.54"/>
</g>
<g id="&#226;&#134;&#179; Dark Color_5">
<path id="Mask_5" d="M10 21H12C12 16.03 16.03 12 21 12V10C14.93 10 10 14.93 10 21Z" fill="currentColor" fill-opacity="0.54"/>
</g>
<g id="&#226;&#134;&#179; Dark Color_6">
<path id="Mask_6" d="M3 3V6C4.66 6 6 4.66 6 3H3Z" fill="currentColor" fill-opacity="0.54"/>
</g>
</g>
</svg>
