<svg width="1em" height="1em" viewBox="0 0 24 24" fill="none" xmlns="http://www.w3.org/2000/svg">
<g id="leak_remove_24px">
<g id="&#226;&#134;&#179; Dark Color">
<path id="Mask" d="M14 3H12C12 4.35 11.69 5.63 11.16 6.77L12.65 8.26C13.51 6.7 14 4.91 14 3Z" fill="currentColor" fill-opacity="0.54"/>
</g>
<g id="&#226;&#134;&#179; Dark Color_2">
<path id="Mask_2" d="M21 12V10C19.09 10 17.3 10.49 15.73 11.35L17.22 12.84C18.37 12.31 19.65 12 21 12Z" fill="currentColor" fill-opacity="0.54"/>
</g>
<g id="&#226;&#134;&#179; Dark Color_3">
<path id="Mask_3" d="M21 16V14C20.21 14 19.46 14.13 18.76 14.37L20.44 16.05C20.63 16.04 20.81 16 21 16Z" fill="currentColor" fill-opacity="0.54"/>
</g>
<g id="&#226;&#134;&#179; Dark Color_4">
<path id="Mask_4" d="M9.99994 3H7.99994C7.99994 3.19 7.95994 3.37 7.93994 3.56L9.61994 5.24C9.86994 4.54 9.99994 3.78 9.99994 3Z" fill="currentColor" fill-opacity="0.54"/>
</g>
<g id="&#226;&#134;&#179; Dark Color_5">
<path id="Mask_5" d="M4.41 2.85999L3 4.26999L5.84 7.10999C5.03 7.66999 4.06 7.99999 3 7.99999V9.99999C4.61 9.99999 6.09 9.44999 7.27 8.53999L8.7 9.96999C7.14 11.24 5.16 12 3 12V14C5.72 14 8.2 13.01 10.11 11.38L12.62 13.89C10.99 15.81 10 18.29 10 21H12C12 18.84 12.76 16.86 14.03 15.3L15.46 16.73C14.55 17.91 14 19.39 14 21H16C16 19.94 16.33 18.97 16.89 18.16L19.73 21L21.14 19.59L4.41 2.85999Z" fill="currentColor" fill-opacity="0.54"/>
</g>
</g>
</svg>
