<svg width="1em" height="1em" viewBox="0 0 24 24" fill="none" xmlns="http://www.w3.org/2000/svg">
<g id="linked_camera_24px">
<g id="&#226;&#134;&#179; Dark Color">
<path id="Mask" d="M20 20H4V8H8.05L9.88 6H15V4H9L7.17 6H4C2.9 6 2 6.9 2 8V20C2 21.1 2.9 22 4 22H20C21.1 22 22 21.1 22 20V9H20V20Z" fill="currentColor" fill-opacity="0.54"/>
</g>
<g id="&#226;&#134;&#179; Dark Color_2">
<path id="Mask_2" d="M16 2V3.33C18.58 3.33 20.66 5.42 20.67 7.99H22C21.99 4.68 19.31 2 16 2Z" fill="currentColor" fill-opacity="0.54"/>
</g>
<g id="&#226;&#134;&#179; Dark Color_3">
<path id="Mask_3" d="M16 4.67001V6.00001C17.11 6.00001 17.99 6.89001 18 7.99001H19.33C19.32 6.15001 17.84 4.67001 16 4.67001Z" fill="currentColor" fill-opacity="0.54"/>
</g>
<g id="&#226;&#134;&#179; Light Color">
<path id="Mask_4" opacity="0.5" d="M14.98 10.01C14.85 9.92 14.72 9.83 14.59 9.75C14.73 9.83 14.86 9.92 14.98 10.01Z" fill="currentColor" fill-opacity="0.54"/>
</g>
<g id="&#226;&#134;&#179; Light Color_2">
<path id="Mask_5" opacity="0.5" fill-rule="evenodd" clip-rule="evenodd" d="M16.72 7.98999C16.89 8.29001 17 8.63 17 9H20V10.01V20H4V8H8.05005L9.88 6H15V7C15.36 7 15.7 7.10001 15.99 7.26999C16.29 7.44 16.54 7.69 16.72 7.98999ZM7 14C7 16.76 9.23999 19 12 19C14.76 19 17 16.76 17 14C17 11.24 14.76 9 12 9C9.23999 9 7 11.24 7 14Z" fill="currentColor" fill-opacity="0.54"/>
</g>
<g id="&#226;&#134;&#179; Dark Color_4">
<path id="Mask_6" fill-rule="evenodd" clip-rule="evenodd" d="M7 14C7 11.24 9.23999 9 12 9C14.76 9 17 11.24 17 14C17 16.76 14.76 19 12 19C9.23999 19 7 16.76 7 14ZM9 14C9 15.65 10.35 17 12 17C13.65 17 15 15.65 15 14C15 12.35 13.65 11 12 11C10.35 11 9 12.35 9 14Z" fill="currentColor" fill-opacity="0.54"/>
</g>
</g>
</svg>
