<svg width="1em" height="1em" viewBox="0 0 24 24" fill="none" xmlns="http://www.w3.org/2000/svg">
<g id="list_24px">
<g id="&#226;&#134;&#179; Dark Color">
<path id="Mask" fill-rule="evenodd" clip-rule="evenodd" d="M3 9H5V7H3V9ZM5 13H3V11H5V13ZM5 17H3V15H5V17ZM21 13H7V11H21V13ZM7 17H21V15H7V17ZM7 9V7H21V9H7Z" fill="currentColor" fill-opacity="0.54"/>
</g>
<g id="&#226;&#134;&#179; Dark Color_2">
<path id="Mask_2" fill-rule="evenodd" clip-rule="evenodd" d="M3 9H5V7H3V9ZM5 13H3V11H5V13ZM5 17H3V15H5V17ZM21 13H7V11H21V13ZM7 17H21V15H7V17ZM7 9V7H21V9H7Z" fill="currentColor" fill-opacity="0.54"/>
</g>
</g>
</svg>
