<svg width="1em" height="1em" viewBox="0 0 24 24" fill="none" xmlns="http://www.w3.org/2000/svg">
<g id="looks_3_24px">
<g id="&#226;&#134;&#179; Light Color">
<path id="Mask" opacity="0.5" fill-rule="evenodd" clip-rule="evenodd" d="M19 19H5V5H19V19ZM13 15H9V17H13C14.1 17 15 16.11 15 15V13.5C15 12.67 14.33 12 13.5 12C14.33 12 15 11.33 15 10.5V9C15 7.89001 14.1 7 13 7H9V9H13V11H11V13H13V15Z" fill="currentColor" fill-opacity="0.54"/>
</g>
<g id="&#226;&#134;&#179; Dark Color">
<path id="Mask_2" fill-rule="evenodd" clip-rule="evenodd" d="M5 3H19C20.1 3 21 3.89999 21 5V19C21 20.1 20.1 21 19 21H5C3.90002 21 3 20.1 3 19V5C3 3.89999 3.90002 3 5 3ZM5 19H19V5H5V19Z" fill="currentColor" fill-opacity="0.54"/>
</g>
<g id="&#226;&#134;&#179; Dark Color_2">
<path id="Mask_3" d="M15 15V13.5C15 12.67 14.33 12 13.5 12C14.33 12 15 11.33 15 10.5V9C15 7.89 14.1 7 13 7H9V9H13V11H11V13H13V15H9V17H13C14.1 17 15 16.11 15 15Z" fill="currentColor" fill-opacity="0.54"/>
</g>
</g>
</svg>
