<svg width="1em" height="1em" viewBox="0 0 24 24" fill="none" xmlns="http://www.w3.org/2000/svg">
<g id="looks_6_24px">
<g id="&#226;&#134;&#179; Light Color">
<path id="Mask" opacity="0.5" d="M11 13H13V15H11V13Z" fill="currentColor" fill-opacity="0.54"/>
</g>
<g id="&#226;&#134;&#179; Light Color_2">
<path id="Mask_2" opacity="0.5" fill-rule="evenodd" clip-rule="evenodd" d="M5 5H19V19H5V5ZM11 9H15V7H11C9.90002 7 9 7.89001 9 9V15C9 16.11 9.90002 17 11 17H13C14.1 17 15 16.11 15 15V13C15 11.89 14.1 11 13 11H11V9Z" fill="currentColor" fill-opacity="0.54"/>
</g>
<g id="&#226;&#134;&#179; Dark Color">
<path id="Mask_3" fill-rule="evenodd" clip-rule="evenodd" d="M9 15V9C9 7.89001 9.90002 7 11 7H15V9H11V11H13C14.1 11 15 11.89 15 13V15C15 16.11 14.1 17 13 17H11C9.90002 17 9 16.11 9 15ZM13 15V13H11V15H13Z" fill="currentColor" fill-opacity="0.54"/>
</g>
<g id="&#226;&#134;&#179; Dark Color_2">
<path id="Mask_4" fill-rule="evenodd" clip-rule="evenodd" d="M19 21H5C3.90002 21 3 20.1 3 19V5C3 3.89999 3.90002 3 5 3H19C20.1 3 21 3.89999 21 5V19C21 20.1 20.1 21 19 21ZM19 5H5V19H19V5Z" fill="currentColor" fill-opacity="0.54"/>
</g>
</g>
</svg>
