<svg width="1em" height="1em" viewBox="0 0 24 24" fill="none" xmlns="http://www.w3.org/2000/svg">
<g id="looks_two_24px">
<g id="&#226;&#134;&#179; Light Color">
<path id="Mask" opacity="0.5" fill-rule="evenodd" clip-rule="evenodd" d="M5 5H19V19H5V5ZM13 13C14.1 13 15 12.11 15 11V9C15 7.89001 14.1 7 13 7H9V9H13V11H11C9.90002 11 9 11.89 9 13V17H15V15H11V13H13Z" fill="currentColor" fill-opacity="0.54"/>
</g>
<g id="&#226;&#134;&#179; Dark Color">
<path id="Mask_2" fill-rule="evenodd" clip-rule="evenodd" d="M19 21H5C3.90002 21 3 20.1 3 19V5C3 3.89999 3.90002 3 5 3H19C20.1 3 21 3.89999 21 5V19C21 20.1 20.1 21 19 21ZM19 5H5V19H19V5Z" fill="currentColor" fill-opacity="0.54"/>
</g>
<g id="&#226;&#134;&#179; Dark Color_2">
<path id="Mask_3" d="M13 7H9V9H13V11H11C9.9 11 9 11.89 9 13V17H15V15H11V13H13C14.1 13 15 12.11 15 11V9C15 7.89 14.1 7 13 7Z" fill="currentColor" fill-opacity="0.54"/>
</g>
</g>
</svg>
