<svg width="1em" height="1em" viewBox="0 0 24 24" fill="none" xmlns="http://www.w3.org/2000/svg">
<g id="looks_4_24px">
<g id="&#226;&#134;&#179; Light Color">
<path id="Mask" opacity="0.5" fill-rule="evenodd" clip-rule="evenodd" d="M18.2783 19H4.83838V5H18.2783V19ZM10.5984 7H8.67834V13H12.5183V17H14.4384V7H12.5183V11H10.5984V7Z" fill="currentColor" fill-opacity="0.54"/>
</g>
<g id="&#226;&#134;&#179; Dark Color">
<path id="Mask_2" fill-rule="evenodd" clip-rule="evenodd" d="M4.8385 3H18.2784C19.3345 3 20.1985 3.89999 20.1985 5V19C20.1985 20.1 19.3345 21 18.2784 21H4.8385C3.78247 21 2.91846 20.1 2.91846 19V5C2.91846 3.89999 3.78247 3 4.8385 3ZM4.8385 19H18.2784V5H4.8385V19Z" fill="currentColor" fill-opacity="0.54"/>
</g>
<g id="&#226;&#134;&#179; Dark Color_2">
<path id="Mask_3" d="M12.5183 17H14.4383V7H12.5183V11H10.5983V7H8.67834V13H12.5183V17Z" fill="currentColor" fill-opacity="0.54"/>
</g>
</g>
</svg>
