<svg width="1em" height="1em" viewBox="0 0 24 24" fill="none" xmlns="http://www.w3.org/2000/svg">
<g id="loupe_24px">
<g id="&#226;&#134;&#179; Light Color">
<path id="Mask" opacity="0.5" fill-rule="evenodd" clip-rule="evenodd" d="M20 12C20 16.41 16.41 20 12 20C7.58997 20 4 16.41 4 12C4 7.59 7.58997 4 12 4C16.41 4 20 7.59 20 12ZM11 11H7V13H11V17H13V13H17V11H13V7H11V11Z" fill="currentColor" fill-opacity="0.54"/>
</g>
<g id="&#226;&#134;&#179; Dark Color">
<path id="Mask_2" d="M11 17H13V13H17V11H13V7H11V11H7V13H11V17Z" fill="currentColor" fill-opacity="0.54"/>
</g>
<g id="&#226;&#134;&#179; Dark Color_2">
<path id="Mask_3" fill-rule="evenodd" clip-rule="evenodd" d="M20 22H12C6.48999 22 2 17.51 2 12C2 6.48999 6.48999 2 12 2C17.51 2 22 6.48999 22 12V20C22 21.1 21.1 22 20 22ZM20 12C20 7.59 16.41 4 12 4C7.58997 4 4 7.59 4 12C4 16.41 7.58997 20 12 20C16.41 20 20 16.41 20 12Z" fill="currentColor" fill-opacity="0.54"/>
</g>
</g>
</svg>
