<svg width="1em" height="1em" viewBox="0 0 24 24" fill="none" xmlns="http://www.w3.org/2000/svg">
<g id="loyalty_24px">
<g id="&#226;&#134;&#179; Light Color">
<path id="Mask" opacity="0.5" fill-rule="evenodd" clip-rule="evenodd" d="M11 4H4V11L13 20.01L20 13L11 4ZM6.5 8C5.67004 8 5 7.32999 5 6.5C5 5.67001 5.67004 5 6.5 5C7.32996 5 8 5.67001 8 6.5C8 7.32999 7.32996 8 6.5 8ZM13.6 11.1L13 11.7L12.4 11.11C12.03 10.73 11.52 10.5 10.9501 10.5C9.82007 10.5 8.90002 11.42 8.90002 12.55C8.90002 13.11 9.13 13.62 9.5 14L13 17.5L16.5 14C16.87 13.63 17.1 13.12 17.1 12.55C17.1 11.42 16.1801 10.5 15.05 10.5C14.49 10.5 13.97 10.73 13.6 11.1Z" fill="currentColor" fill-opacity="0.54"/>
</g>
<g id="&#226;&#134;&#179; Dark Color">
<path id="Mask_2" fill-rule="evenodd" clip-rule="evenodd" d="M12.41 2.57999L21.41 11.58C21.77 11.94 22 12.45 22 13C22 13.55 21.78 14.05 21.41 14.41L14.41 21.41C14.05 21.78 13.55 22 13 22C12.45 22 11.95 21.78 11.59 21.42L2.58997 12.42C2.21997 12.05 2 11.55 2 11V4C2 2.89999 2.90002 2 4 2H11C11.55 2 12.05 2.22 12.41 2.57999ZM4 11L13 20.01L20 12.99L11 3.98999V4H4V11Z" fill="currentColor" fill-opacity="0.54"/>
</g>
<g id="&#226;&#134;&#179; Dark Color_2">
<path id="Mask_3" d="M6.5 8C7.32843 8 8 7.32843 8 6.5C8 5.67157 7.32843 5 6.5 5C5.67157 5 5 5.67157 5 6.5C5 7.32843 5.67157 8 6.5 8Z" fill="currentColor" fill-opacity="0.54"/>
</g>
<g id="&#226;&#134;&#179; Dark Color_3">
<path id="Mask_4" d="M8.90002 12.55C8.90002 13.12 9.13002 13.62 9.50002 14L13 17.5L16.5 14C16.87 13.63 17.1 13.11 17.1 12.55C17.1 11.42 16.18 10.5 15.05 10.5C14.48 10.5 13.97 10.73 13.6 11.1L13 11.7L12.4 11.11C12.03 10.73 11.51 10.5 10.95 10.5C9.82002 10.5 8.90002 11.42 8.90002 12.55Z" fill="currentColor" fill-opacity="0.54"/>
</g>
</g>
</svg>
