<svg width="1em" height="1em" viewBox="0 0 24 24" fill="none" xmlns="http://www.w3.org/2000/svg">
<g id="monetization_on_24px">
<g id="&#226;&#134;&#179; Light Color">
<path id="Mask" opacity="0.5" fill-rule="evenodd" clip-rule="evenodd" d="M4 12C4 7.59 7.59003 4 12 4C16.41 4 20 7.59 20 12C20 16.41 16.41 20 12 20C7.59003 20 4 16.41 4 12ZM13.23 19V17.33C14.7599 17.04 15.96 16.16 15.97 14.56C15.97 12.36 14.08 11.6 12.31 11.14C10.54 10.69 9.96997 10.2 9.96997 9.47C9.96997 8.63 10.7599 8.04 12.07 8.04C13.45 8.04 13.97 8.71 14.0099 9.68H15.72C15.67 8.34 14.86 7.1 13.23 6.71V5H10.89V6.7C9.38995 7.03 8.16998 8 8.16998 9.51C8.16998 11.3 9.65997 12.19 11.83 12.72C13.78 13.18 14.17 13.86 14.17 14.59C14.17 15.12 13.78 15.98 12.07 15.98C10.47 15.98 9.83997 15.26 9.75 14.34H8.03998C8.13 16.03 9.39996 17 10.9 17.31V19H13.23Z" fill="currentColor" fill-opacity="0.54"/>
</g>
<g id="&#226;&#134;&#179; Dark Color">
<path id="Mask_2" fill-rule="evenodd" clip-rule="evenodd" d="M2 12C2 6.48 6.47998 2 12 2C17.52 2 22 6.48 22 12C22 17.52 17.52 22 12 22C6.47998 22 2 17.52 2 12ZM4 12C4 16.41 7.59003 20 12 20C16.41 20 20 16.41 20 12C20 7.59 16.41 4 12 4C7.59003 4 4 7.59 4 12Z" fill="currentColor" fill-opacity="0.54"/>
</g>
<g id="&#226;&#134;&#179; Dark Color_2">
<path id="Mask_3" d="M12.31 11.14C10.54 10.69 9.96998 10.2 9.96998 9.47C9.96998 8.63 10.76 8.04 12.07 8.04C13.45 8.04 13.97 8.7 14.01 9.68H15.72C15.67 8.34 14.85 7.11 13.23 6.71V5H10.9V6.69C9.38998 7.01 8.17998 7.99 8.17998 9.5C8.17998 11.29 9.66998 12.19 11.84 12.71C13.79 13.17 14.18 13.86 14.18 14.58C14.18 15.11 13.79 15.97 12.08 15.97C10.48 15.97 9.84998 15.25 9.75998 14.33H8.03998C8.13998 16.03 9.39998 16.99 10.9 17.3V19H13.24V17.33C14.76 17.04 15.96 16.17 15.97 14.56C15.96 12.36 14.07 11.6 12.31 11.14Z" fill="currentColor" fill-opacity="0.54"/>
</g>
</g>
</svg>
