<svg width="1em" height="1em" viewBox="0 0 24 24" fill="none" xmlns="http://www.w3.org/2000/svg">
<g id="monochrome_photos_24px">
<g id="&#226;&#134;&#179; Light Color">
<path id="Mask" opacity="0.5" d="M12 18V16.2C10.2 16.2 8.8 14.8 8.8 13C8.8 11.2 10.2 9.8 12 9.8V8C9.2 8 7 10.2 7 13C7 15.8 9.2 18 12 18Z" fill="currentColor" fill-opacity="0.54"/>
</g>
<g id="&#226;&#134;&#179; Light Color_2">
<path id="Mask_2" opacity="0.5" d="M17 13C17 15.8 14.8 18 12 18V19H20V7H12V8C14.8 8 17 10.2 17 13Z" fill="currentColor" fill-opacity="0.54"/>
</g>
<g id="&#226;&#134;&#179; Dark Color">
<path id="Mask_3" fill-rule="evenodd" clip-rule="evenodd" d="M22 19C22 20.1 21.1 21 20 21H4C2.90002 21 2 20.1 2 19V7C2 5.89999 2.90002 5 4 5H7.19995L9 3H15L16.8 5H20C21.1 5 22 5.89999 22 7V19ZM12 7V8C9.19995 8 7 10.2 7 13C7 15.8 9.19995 18 12 18V19H20V7H12Z" fill="currentColor" fill-opacity="0.54"/>
</g>
<g id="&#226;&#134;&#179; Dark Color_2">
<path id="Mask_4" d="M15.2 13C15.2 14.8 13.8 16.2 12 16.2V18C14.8 18 17 15.8 17 13C17 10.2 14.8 8 12 8V9.8C13.8 9.8 15.2 11.2 15.2 13Z" fill="currentColor" fill-opacity="0.54"/>
</g>
<g id="&#226;&#134;&#179; Dark Color_3">
<path id="Mask_5" d="M8.80005 13C8.80005 14.8 10.2 16.2 12 16.2V9.79999C10.2 9.79999 8.80005 11.2 8.80005 13Z" fill="currentColor" fill-opacity="0.54"/>
</g>
</g>
</svg>
