<svg width="1em" height="1em" viewBox="0 0 24 24" fill="none" xmlns="http://www.w3.org/2000/svg">
<g id="more_vert_24px">
<g id="&#226;&#134;&#179; Dark Color">
<path id="Mask" fill-rule="evenodd" clip-rule="evenodd" d="M12 8C13.1001 8 14 7.1 14 6C14 4.9 13.1001 4 12 4C10.8999 4 10 4.9 10 6C10 7.1 10.8999 8 12 8ZM12 10C10.8999 10 10 10.9 10 12C10 13.1 10.8999 14 12 14C13.1001 14 14 13.1 14 12C14 10.9 13.1001 10 12 10ZM10 18C10 16.9 10.8999 16 12 16C13.1001 16 14 16.9 14 18C14 19.1 13.1001 20 12 20C10.8999 20 10 19.1 10 18Z" fill="currentColor" fill-opacity="0.54"/>
</g>
</g>
</svg>
