<svg width="1em" height="1em" viewBox="0 0 24 24" fill="none" xmlns="http://www.w3.org/2000/svg">
<g id="motorcycle_24px">
<g id="&#226;&#134;&#179; Light Color">
<path id="Mask" opacity="0.5" d="M9.69998 12.31L9.94998 13H10.68H10.72L12.72 11H8.97998C9.27998 11.39 9.51998 11.83 9.69998 12.31Z" fill="currentColor" fill-opacity="0.54"/>
</g>
<g id="&#226;&#134;&#179; Dark Color">
<path id="Mask_2" fill-rule="evenodd" clip-rule="evenodd" d="M15.41 5L19.44 9.03C22.03 9.23001 24 11.35 24 14C24 16.8 21.8 19 19 19C16.2 19 14 16.8 14 14C14 13.37 14.11 12.77 14.32 12.23L11.55 15H9.90002C9.45001 17.31 7.46002 19 5 19C2.20001 19 0 16.8 0 14C0 11.2 2.20001 9 5 9H16.59L14.59 7H11V5H15.41ZM5 17C6.28003 17 7.40002 16.15 7.82001 15H5V13H7.82001C7.40002 11.85 6.28003 11 5 11C3.37 11 2 12.37 2 14C2 15.63 3.37 17 5 17ZM10.72 13H10.68H9.94995L9.69995 12.31C9.51996 11.83 9.27997 11.39 8.97998 11H12.72L10.72 13ZM16 14C16 15.66 17.34 17 19 17C20.66 17 22 15.66 22 14C22 12.34 20.66 11 19 11C17.34 11 16 12.34 16 14Z" fill="currentColor" fill-opacity="0.54"/>
</g>
</g>
</svg>
