<svg width="1em" height="1em" viewBox="0 0 24 24" fill="none" xmlns="http://www.w3.org/2000/svg">
<g id="move_to_inbox_24px">
<g id="&#226;&#134;&#179; Light Color">
<path id="Mask" opacity="0.5" d="M12.01 18C10.53 18 9.26 17.19 8.56 16H5V19H19V16H15.45C14.76 17.19 13.48 18 12.01 18Z" fill="currentColor" fill-opacity="0.54"/>
</g>
<g id="&#226;&#134;&#179; Dark Color">
<path id="Mask_2" d="M16 9H13.45V6H10.55V9H8L12 13L16 9Z" fill="currentColor" fill-opacity="0.54"/>
</g>
<g id="&#226;&#134;&#179; Dark Color_2">
<path id="Mask_3" fill-rule="evenodd" clip-rule="evenodd" d="M19 3H4.98999C3.88 3 3 3.9 3 5V19C3 20.1 3.88 21 4.98999 21H19C20.1 21 21 20.1 21 19V5C21 3.9 20.1 3 19 3ZM19 19H5V16H8.56C9.25 17.19 10.53 18 12.01 18C13.49 18 14.76 17.19 15.46 16H19V19ZM14.01 14H19V5H4.98999L5 14H10.01C10.01 15.1 10.91 16 12.01 16C13.11 16 14.01 15.1 14.01 14Z" fill="currentColor" fill-opacity="0.54"/>
</g>
</g>
</svg>
