<svg width="1em" height="1em" viewBox="0 0 24 24" fill="none" xmlns="http://www.w3.org/2000/svg">
<g id="movie_filter_24px">
<g id="&#226;&#134;&#179; Light Color">
<path id="Mask" opacity="0.5" fill-rule="evenodd" clip-rule="evenodd" d="M18 12L16.63 11.37L16 10H20.01V18H4.01001V6.47L5.77002 10H16L15.37 11.37L14 12L15.37 12.63L16 14L16.63 12.63L18 12ZM10 17L10.9399 14.94L13 14L10.9399 13.06L10 11L9.06006 13.06L7 14L9.06006 14.94L10 17Z" fill="currentColor" fill-opacity="0.54"/>
</g>
<g id="&#226;&#134;&#179; Dark Color">
<path id="Mask_2" d="M10 11L9.06 13.06L7 14L9.06 14.94L10 17L10.94 14.94L13 14L10.94 13.06L10 11Z" fill="currentColor" fill-opacity="0.54"/>
</g>
<g id="&#226;&#134;&#179; Dark Color_2">
<path id="Mask_3" fill-rule="evenodd" clip-rule="evenodd" d="M17.01 8H20.01L18.01 4H22V18C22 19.1 21.11 20 20.01 20H4.01001C2.91003 20 2.01001 19.1 2.01001 18L2.02002 6C2.02002 4.89999 2.91003 4 4.01001 4H5.01001L7.01001 8H10.01L8.01001 4H10.01L12.01 8H15.01L13.01 4H15.01L17.01 8ZM4.01001 6.47V18H20.01V10H16H5.77002L4.01001 6.47ZM16 10L16.63 11.37L18 12L16.63 12.63L16 14L15.37 12.63L14 12L15.37 11.37L16 10Z" fill="currentColor" fill-opacity="0.54"/>
</g>
</g>
</svg>
