<svg width="1em" height="1em" viewBox="0 0 24 24" fill="none" xmlns="http://www.w3.org/2000/svg">
<g id="movie_creation_24px">
<g id="&#226;&#134;&#179; Light Color">
<path id="Mask" opacity="0.5" d="M4 6.47V18H20V10H5.76L4 6.47Z" fill="currentColor" fill-opacity="0.54"/>
</g>
<g id="&#226;&#134;&#179; Dark Color">
<path id="Mask_2" fill-rule="evenodd" clip-rule="evenodd" d="M17 8H20L18 4H22V18C22 19.1 21.1 20 20 20H4C2.90002 20 2 19.1 2 18V6C2 4.89999 2.90002 4 4 4H5L7 8H10L8 4H10L12 8H15L13 4H15L17 8ZM4 6.47V18H20V10H5.76001L4 6.47Z" fill="currentColor" fill-opacity="0.54"/>
</g>
</g>
</svg>
