<svg width="1em" height="1em" viewBox="0 0 24 24" fill="none" xmlns="http://www.w3.org/2000/svg">
<g id="music_off_24px">
<g id="&#226;&#134;&#179; Light Color">
<path id="Mask" opacity="0.5" d="M10 19C11.1046 19 12 18.1046 12 17C12 15.8954 11.1046 15 10 15C8.89543 15 8 15.8954 8 17C8 18.1046 8.89543 19 10 19Z" fill="currentColor" fill-opacity="0.54"/>
</g>
<g id="&#226;&#134;&#179; Dark Color">
<path id="Mask_2" d="M14 7H18V3H12V7.61L14 9.61V7Z" fill="currentColor" fill-opacity="0.54"/>
</g>
<g id="&#226;&#134;&#179; Dark Color_2">
<path id="Mask_3" fill-rule="evenodd" clip-rule="evenodd" d="M4.41003 2.85999L12 10.44L21.14 19.59L19.73 21L14 15.27V16.85C14 18.84 12.61 20.64 10.65 20.95C7.92004 21.38 5.59998 19.04 6.06006 16.3C6.30005 14.9 7.32996 13.71 8.67004 13.23C9.90002 12.8 11.0601 13.01 12 13.55V13.27L3 4.26999L4.41003 2.85999ZM8 17C8 18.1 8.90002 19 10 19C11.1 19 12 18.1 12 17C12 15.9 11.1 15 10 15C8.90002 15 8 15.9 8 17Z" fill="currentColor" fill-opacity="0.54"/>
</g>
</g>
</svg>
