<svg width="1em" height="1em" viewBox="0 0 24 24" fill="none" xmlns="http://www.w3.org/2000/svg">
<g id="music_note_24px">
<g id="&#226;&#134;&#179; Light Color">
<path id="Mask" opacity="0.5" d="M10.01 19C11.1146 19 12.01 18.1046 12.01 17C12.01 15.8954 11.1146 15 10.01 15C8.90544 15 8.01001 15.8954 8.01001 17C8.01001 18.1046 8.90544 19 10.01 19Z" fill="currentColor" fill-opacity="0.54"/>
</g>
<g id="&#226;&#134;&#179; Dark Color">
<path id="Mask_2" fill-rule="evenodd" clip-rule="evenodd" d="M12.01 13.55L12 3H18V7H14V17C14 19.21 12.23 21 10.01 21C7.79004 21 6 19.21 6 17C6 14.79 7.79004 13 10.01 13C10.74 13 11.42 13.21 12.01 13.55ZM8.01001 17C8.01001 18.1 8.91003 19 10.01 19C11.11 19 12.01 18.1 12.01 17C12.01 15.9 11.11 15 10.01 15C8.91003 15 8.01001 15.9 8.01001 17Z" fill="currentColor" fill-opacity="0.54"/>
</g>
</g>
</svg>
