<svg width="1em" height="1em" viewBox="0 0 24 24" fill="none" xmlns="http://www.w3.org/2000/svg">
<g id="nature_people_24px">
<g id="&#226;&#134;&#179; Light Color">
<path id="Mask" opacity="0.5" d="M15.17 14.17C17.9315 14.17 20.17 11.9314 20.17 9.17001C20.17 6.40859 17.9315 4.17001 15.17 4.17001C12.4086 4.17001 10.17 6.40859 10.17 9.17001C10.17 11.9314 12.4086 14.17 15.17 14.17Z" fill="currentColor" fill-opacity="0.54"/>
</g>
<g id="&#226;&#134;&#179; Dark Color">
<path id="Mask_2" d="M4.5 11C5.32843 11 6 10.3284 6 9.5C6 8.67157 5.32843 8 4.5 8C3.67157 8 3 8.67157 3 9.5C3 10.3284 3.67157 11 4.5 11Z" fill="currentColor" fill-opacity="0.54"/>
</g>
<g id="&#226;&#134;&#179; Dark Color_2">
<path id="Mask_3" fill-rule="evenodd" clip-rule="evenodd" d="M8.17004 9.17001C8.17004 5.30002 11.3 2.17001 15.17 2.17001C19.04 2.17001 22.17 5.30002 22.17 9.17001C22.17 12.76 19.47 15.71 16 16.12V20H19V22H3V17H2V13C2 12.45 2.44995 12 3 12H6C6.55005 12 7 12.45 7 13V17H6V20H14V16.06C10.6899 15.51 8.17004 12.64 8.17004 9.17001ZM10.17 9.17001C10.17 11.93 12.41 14.17 15.17 14.17C17.9301 14.17 20.17 11.93 20.17 9.17001C20.17 6.41 17.9301 4.17001 15.17 4.17001C12.41 4.17001 10.17 6.41 10.17 9.17001Z" fill="currentColor" fill-opacity="0.54"/>
</g>
</g>
</svg>
