<svg width="1em" height="1em" viewBox="0 0 24 24" fill="none" xmlns="http://www.w3.org/2000/svg">
<g id="nature_24px">
<g id="&#226;&#134;&#179; Light Color">
<path id="Mask" opacity="0.5" d="M12.17 4.17001C9.41004 4.17001 7.17004 6.41001 7.17004 9.17001C7.17004 11.93 9.41004 14.17 12.17 14.17C14.93 14.17 17.17 11.93 17.17 9.17001C17.17 6.41001 14.92 4.17001 12.17 4.17001Z" fill="currentColor" fill-opacity="0.54"/>
</g>
<g id="&#226;&#134;&#179; Dark Color">
<path id="Mask_2" fill-rule="evenodd" clip-rule="evenodd" d="M12.17 2.17001C16.04 2.17001 19.17 5.30002 19.17 9.17001C19.17 12.76 16.46 15.72 12.97 16.12H13V20H19V22H5V20H11V16.06C7.68994 15.51 5.17004 12.64 5.17004 9.17001C5.17004 5.30002 8.30005 2.17001 12.17 2.17001ZM7.17004 9.17001C7.17004 11.93 9.41003 14.17 12.17 14.17C14.92 14.17 17.17 11.93 17.17 9.17001C17.17 6.41 14.9301 4.17001 12.17 4.17001C9.41003 4.17001 7.17004 6.41 7.17004 9.17001Z" fill="currentColor" fill-opacity="0.54"/>
</g>
</g>
</svg>
