<svg width="1em" height="1em" viewBox="0 0 24 24" fill="none" xmlns="http://www.w3.org/2000/svg">
<g id="note_add_24px">
<g id="&#226;&#134;&#179; Light Color">
<path id="Mask" opacity="0.5" fill-rule="evenodd" clip-rule="evenodd" d="M6 4H13V9H18V20H6V4ZM16 16V14H13V11H11V14H8V16H11V19H13V16H16Z" fill="currentColor" fill-opacity="0.54"/>
</g>
<g id="&#226;&#134;&#179; Dark Color">
<path id="Mask_2" d="M13 11H11V14H8V16H11V19H13V16H16V14H13V11Z" fill="currentColor" fill-opacity="0.54"/>
</g>
<g id="&#226;&#134;&#179; Dark Color_2">
<path id="Mask_3" fill-rule="evenodd" clip-rule="evenodd" d="M6 2H14L20 8V20C20 21.1 19.1 22 18 22H5.98999C4.89001 22 4 21.1 4 20V4C4 2.89999 4.90002 2 6 2ZM6 20H18V9H13V4H6V20Z" fill="currentColor" fill-opacity="0.54"/>
</g>
</g>
</svg>
