<svg width="1em" height="1em" viewBox="0 0 24 24" fill="none" xmlns="http://www.w3.org/2000/svg">
<g id="offline_pin_24px">
<g id="&#226;&#134;&#179; Light Color">
<path id="Mask" opacity="0.5" fill-rule="evenodd" clip-rule="evenodd" d="M12 4C7.59003 4 4 7.59 4 12C4 16.41 7.59003 20 12 20C16.41 20 20 16.41 20 12C20 7.59 16.41 4 12 4ZM7 17V15H17V17H7ZM7 10.7L10.3 14L17 7.29999L15.6 5.89999L10.3 11.2L8.40002 9.29999L7 10.7Z" fill="currentColor" fill-opacity="0.54"/>
</g>
<g id="&#226;&#134;&#179; Dark Color">
<path id="Mask_2" fill-rule="evenodd" clip-rule="evenodd" d="M2 12C2 6.5 6.5 2 12 2C17.5 2 22 6.5 22 12C22 17.5 17.5 22 12 22C6.5 22 2 17.5 2 12ZM4 12C4 16.41 7.59003 20 12 20C16.41 20 20 16.41 20 12C20 7.59 16.41 4 12 4C7.59003 4 4 7.59 4 12Z" fill="currentColor" fill-opacity="0.54"/>
</g>
<g id="&#226;&#134;&#179; Dark Color_2">
<path id="Mask_3" d="M7 15H17V17H7V15Z" fill="currentColor" fill-opacity="0.54"/>
</g>
<g id="&#226;&#134;&#179; Dark Color_3">
<path id="Mask_4" d="M10.3 11.2L8.4 9.29999L7 10.7L10.3 14L17 7.29999L15.6 5.89999L10.3 11.2Z" fill="currentColor" fill-opacity="0.54"/>
</g>
</g>
</svg>
