<svg width="1em" height="1em" viewBox="0 0 24 24" fill="none" xmlns="http://www.w3.org/2000/svg">
<g id="offline_bolt_24px">
<g id="&#226;&#134;&#179; Light Color">
<path id="Mask" opacity="0.5" fill-rule="evenodd" clip-rule="evenodd" d="M4.02002 12C4.02002 7.59998 7.60004 4.01999 12 4.01999C16.4 4.01999 19.98 7.59998 19.98 12C19.98 16.4 16.4 19.98 12 19.98C7.60004 19.98 4.02002 16.4 4.02002 12ZM11.39 13.5V19L15.75 10.5H12.75V5L8.25 13.5H11.39Z" fill="currentColor" fill-opacity="0.54"/>
</g>
<g id="&#226;&#134;&#179; Dark Color">
<path id="Mask_2" fill-rule="evenodd" clip-rule="evenodd" d="M12 2.01999C6.48999 2.01999 2.02002 6.48999 2.02002 12C2.02002 17.51 6.48999 21.98 12 21.98C17.51 21.98 21.98 17.51 21.98 12C21.98 6.48999 17.51 2.01999 12 2.01999ZM12 19.98C7.60004 19.98 4.02002 16.4 4.02002 12C4.02002 7.59998 7.60004 4.01999 12 4.01999C16.4 4.01999 19.98 7.59998 19.98 12C19.98 16.4 16.4 19.98 12 19.98ZM8.25 13.5L12.75 5V10.5H15.75L11.39 19V13.5H8.25Z" fill="currentColor" fill-opacity="0.54"/>
</g>
</g>
</svg>
