<svg width="1em" height="1em" viewBox="0 0 24 24" fill="none" xmlns="http://www.w3.org/2000/svg">
<g id="opacity_24px">
<g id="&#226;&#134;&#179; Light Color">
<path id="Mask" opacity="0.5" d="M16.24 9.64999L12 5.26999L7.76 9.59999C6.62 10.73 6.01 12 6 14H18C17.99 12 17.38 10.77 16.24 9.64999Z" fill="currentColor" fill-opacity="0.54"/>
</g>
<g id="&#226;&#134;&#179; Dark Color">
<path id="Mask_2" fill-rule="evenodd" clip-rule="evenodd" d="M12 2.35001L17.66 8C19.22 9.56 20 11.64 20 13.64C20 15.64 19.22 17.75 17.66 19.31C16.1 20.87 14.05 21.66 12 21.66C9.95001 21.66 7.90002 20.87 6.34003 19.31C4.78003 17.75 4 15.64 4 13.64C4 11.64 4.78003 9.56 6.34003 8L12 2.35001ZM7.76001 9.60001C6.62 10.73 6.01001 12 6 14H18C17.99 12 17.38 10.77 16.24 9.65002L12 5.27002L7.76001 9.60001Z" fill="currentColor" fill-opacity="0.54"/>
</g>
</g>
</svg>
