<svg width="1em" height="1em" viewBox="0 0 24 24" fill="none" xmlns="http://www.w3.org/2000/svg">
<g id="pageview_24px">
<g id="&#226;&#134;&#179; Light Color">
<path id="Mask" opacity="0.5" fill-rule="evenodd" clip-rule="evenodd" d="M20 18H4V6H20V18ZM16 11.5C16 9.01001 13.99 7 11.5 7C9.01001 7 7 9.01001 7 11.5C7 13.99 9.01001 16 11.49 16C12.37 16 13.1899 15.74 13.88 15.3L16.3199 17.74L17.74 16.32L15.3 13.89C15.74 13.19 16 12.38 16 11.5Z" fill="currentColor" fill-opacity="0.54"/>
</g>
<g id="&#226;&#134;&#179; Dark Color">
<path id="Mask_2" fill-rule="evenodd" clip-rule="evenodd" d="M13.88 15.3C13.1899 15.74 12.37 16 11.49 16C9.01001 16 7 13.99 7 11.5C7 9.01001 9.01001 7 11.5 7C13.99 7 16 9.01001 16 11.5C16 12.38 15.74 13.19 15.3 13.89L17.74 16.32L16.3199 17.74L13.88 15.3ZM14 11.5C14 10.12 12.88 9 11.5 9C10.12 9 9 10.12 9 11.5C9 12.88 10.12 14 11.5 14C12.88 14 14 12.88 14 11.5Z" fill="currentColor" fill-opacity="0.54"/>
</g>
<g id="&#226;&#134;&#179; Dark Color_2">
<path id="Mask_3" fill-rule="evenodd" clip-rule="evenodd" d="M4 4H20C21.1 4 22 4.89999 22 6V18C22 19.1 21.1 20 20 20H4C2.90002 20 2 19.1 2 18V6C2 4.89999 2.90002 4 4 4ZM4 18H20V6H4V18Z" fill="currentColor" fill-opacity="0.54"/>
</g>
</g>
</svg>
