<svg width="1em" height="1em" viewBox="0 0 24 24" fill="none" xmlns="http://www.w3.org/2000/svg">
<g id="pan_tool_24px">
<g id="&#226;&#134;&#179; Light Color">
<path id="Mask" opacity="0.5" d="M19.5 5.424C19.22 5.424 19 5.6352 19 5.904V11.52H17V3.2832C17 3.0144 16.78 2.8032 16.5 2.8032C16.22 2.8032 16 3.0144 16 3.2832V11.52H14V2.4096C14 2.1408 13.78 1.9296 13.5 1.9296C13.22 1.9296 13 2.1408 13 2.4096V11.52H11V4.5984C11 4.3296 10.78 4.1184 10.5 4.1184C10.22 4.1184 10 4.3392 10 4.5984V16.9536L4.65001 14.2368L4.14001 14.6688L10 20.5248C10.38 20.8992 10.9 21.12 11.44 21.12H18C19.1 21.12 20 20.256 20 19.2V5.904C20 5.6352 19.78 5.424 19.5 5.424Z" fill="currentColor" fill-opacity="0.54"/>
</g>
<g id="&#226;&#134;&#179; Dark Color">
<path id="Mask_2" fill-rule="evenodd" clip-rule="evenodd" d="M19 3.552C19.16 3.52322 19.33 3.50403 19.5 3.50403C20.88 3.50403 22 4.57922 22 5.90402V19.2C22 21.3216 20.21 23.04 18 23.04H11.45C10.36 23.04 9.31 22.608 8.56 21.8592L1.26001 14.5536L3.33002 12.7968C3.95001 12.2688 4.85999 12.1632 5.59003 12.5376L8 13.7664V4.59842C8 3.27362 9.12 2.19843 10.5 2.19843C10.68 2.19843 10.85 2.21762 11.01 2.2464C11.09 0.998413 12.18 0.00961304 13.5 0.00961304C14.35 0.00961304 15.11 0.422424 15.56 1.056C15.85 0.940826 16.17 0.883209 16.5 0.883209C17.88 0.883209 19 1.9584 19 3.2832V3.552ZM18 21.12C19.1 21.12 20 20.256 20 19.2V5.90402C20 5.63522 19.78 5.42401 19.5 5.42401C19.22 5.42401 19 5.63522 19 5.90402V11.52H17V3.28323C17 3.01443 16.78 2.80322 16.5 2.80322C16.22 2.80322 16 3.01443 16 3.28323V11.52H14V2.40964C14 2.14084 13.78 1.92963 13.5 1.92963C13.22 1.92963 13 2.14084 13 2.40964V11.52H11V4.59842C11 4.33923 10.78 4.11844 10.5 4.11844C10.22 4.11844 10 4.32962 10 4.59842V16.9536L4.66003 14.2272L4.15002 14.6592L10.01 20.5248C10.38 20.9088 10.91 21.12 11.45 21.12H18Z" fill="currentColor" fill-opacity="0.54"/>
</g>
</g>
</svg>
