<svg width="1em" height="1em" viewBox="0 0 24 24" fill="none" xmlns="http://www.w3.org/2000/svg">
<g id="panorama_wide_angle_24px">
<g id="&#226;&#134;&#179; Light Color">
<path id="Mask" opacity="0.5" d="M12 6C9.55 6 7.29 6.2 4.71 6.64C4.24 8.42 4 10.22 4 12C4 13.78 4.24 15.58 4.71 17.36C7.29 17.8 9.55 18 12 18C14.45 18 16.71 17.8 19.29 17.36C19.76 15.58 20 13.78 20 12C20 10.22 19.76 8.42 19.29 6.64C16.71 6.2 14.45 6 12 6Z" fill="currentColor" fill-opacity="0.54"/>
</g>
<g id="&#226;&#134;&#179; Dark Color">
<path id="Mask_2" fill-rule="evenodd" clip-rule="evenodd" d="M20.88 4.89001L21.13 5.78C21.71 7.85001 22 9.92999 22 12C22 14.07 21.71 16.15 21.13 18.23L20.88 19.12L19.95 19.28C17.22 19.76 14.73 20 12 20C9.27002 20 6.78003 19.76 4.05005 19.27L3.12 19.11L2.87 18.22C2.29004 16.15 2 14.07 2 12C2 9.92999 2.29004 7.85001 2.87 5.78L3.12 4.88L4.05005 4.72C6.78003 4.23999 9.27002 4 12 4C14.73 4 17.22 4.23999 19.95 4.73001L20.88 4.89001ZM12 18C14.45 18 16.71 17.8 19.29 17.36C19.76 15.58 20 13.78 20 12C20 10.22 19.76 8.42001 19.29 6.64001C16.71 6.20001 14.45 6 12 6C9.55005 6 7.29004 6.20001 4.70996 6.64001C4.23999 8.42001 4 10.22 4 12C4 13.78 4.23999 15.58 4.70996 17.36C7.29004 17.8 9.55005 18 12 18Z" fill="currentColor" fill-opacity="0.54"/>
</g>
</g>
</svg>
