<svg width="1em" height="1em" viewBox="0 0 24 24" fill="none" xmlns="http://www.w3.org/2000/svg">
<g id="panorama_horizontal_24px">
<g id="&#226;&#134;&#179; Light Color">
<path id="Mask" opacity="0.5" d="M4 6.54001V17.45C6.6 16.68 9.28 16.29 12 16.29C14.72 16.29 17.4 16.68 20 17.45V6.54001C17.4 7.32001 14.72 7.71001 12 7.70001C9.28 7.70001 6.6 7.31001 4 6.54001Z" fill="currentColor" fill-opacity="0.54"/>
</g>
<g id="&#226;&#134;&#179; Dark Color">
<path id="Mask_2" fill-rule="evenodd" clip-rule="evenodd" d="M21.12 4.06C21.23 4.01999 21.33 4 21.4301 4C21.76 4 22 4.23001 22 4.63V19.37C22 19.77 21.76 20 21.4301 20C21.33 20 21.23 19.98 21.12 19.94C18.1801 18.85 15.09 18.3 12 18.3C8.91003 18.3 5.81995 18.84 2.88 19.94C2.77002 19.98 2.67004 20 2.56995 20C2.22998 20 2 19.77 2 19.38V4.63C2 4.23001 2.22998 4 2.56995 4C2.66003 4 2.77002 4.01999 2.88 4.06C5.81995 5.14999 8.91003 5.70001 12 5.70001C15.09 5.70001 18.1801 5.16 21.12 4.06ZM12 16.29C14.72 16.29 17.4 16.68 20 17.45V6.54001C17.4 7.32001 14.72 7.71002 12 7.70001C9.28003 7.70001 6.59998 7.31 4 6.54001V17.45C6.59998 16.68 9.28003 16.29 12 16.29Z" fill="currentColor" fill-opacity="0.54"/>
</g>
</g>
</svg>
