<svg width="1em" height="1em" viewBox="0 0 24 24" fill="none" xmlns="http://www.w3.org/2000/svg">
<g id="panorama_24px">
<g id="&#226;&#134;&#179; Light Color">
<path id="Mask" opacity="0.5" fill-rule="evenodd" clip-rule="evenodd" d="M21 18H3V6H21V18ZM11 15.51L8.5 12.5L5 17H19L14.5 11L11 15.51Z" fill="currentColor" fill-opacity="0.54"/>
</g>
<g id="&#226;&#134;&#179; Dark Color">
<path id="Mask_2" fill-rule="evenodd" clip-rule="evenodd" d="M3 4H21C22.1 4 23 4.89999 23 6V18C23 19.1 22.1 20 21 20H3C1.90002 20 1 19.1 1 18V6C1 4.89999 1.90002 4 3 4ZM3 18H21V6H3V18Z" fill="currentColor" fill-opacity="0.54"/>
</g>
<g id="&#226;&#134;&#179; Dark Color_2">
<path id="Mask_3" d="M14.5 11L11 15.51L8.5 12.5L5 17H19L14.5 11Z" fill="currentColor" fill-opacity="0.54"/>
</g>
</g>
</svg>
