<svg width="1em" height="1em" viewBox="0 0 24 24" fill="none" xmlns="http://www.w3.org/2000/svg">
<g id="panorama_vertical_24px">
<g id="&#226;&#134;&#179; Light Color">
<path id="Mask" opacity="0.5" d="M6.54004 4C7.31004 6.6 7.70004 9.28 7.70004 12C7.70004 14.72 7.31004 17.4 6.54004 20H17.45C16.68 17.4 16.29 14.72 16.29 12C16.29 9.28 16.68 6.6 17.45 4H6.54004Z" fill="currentColor" fill-opacity="0.54"/>
</g>
<g id="&#226;&#134;&#179; Dark Color">
<path id="Mask_2" fill-rule="evenodd" clip-rule="evenodd" d="M18.3 12C18.3 15.09 18.84 18.18 19.9399 21.12C19.98 21.23 20 21.33 20.01 21.43C20.01 21.76 19.77 22 19.38 22H4.63C4.22998 22 4 21.76 4 21.43C4 21.34 4.02002 21.23 4.06995 21.12C5.16003 18.18 5.70996 15.09 5.70996 12C5.70996 8.91 5.16003 5.82001 4.06006 2.88C4.02002 2.76999 4 2.67001 4 2.57001C4 2.23001 4.22998 2 4.63 2H19.37C19.77 2 20 2.23001 20 2.57001C20 2.66 19.98 2.76999 19.9399 2.88C18.85 5.82001 18.3 8.91 18.3 12ZM6.54004 20H17.4501C16.6801 17.4 16.29 14.72 16.29 12C16.29 9.28 16.6801 6.60001 17.4501 4H6.54004C7.31006 6.60001 7.70007 9.28 7.70007 12C7.70007 14.72 7.31006 17.4 6.54004 20Z" fill="currentColor" fill-opacity="0.54"/>
</g>
</g>
</svg>
