<svg width="1em" height="1em" viewBox="0 0 24 24" fill="none" xmlns="http://www.w3.org/2000/svg">
<g id="paste_24px">
<g id="&#226;&#134;&#179; Light Color">
<path id="Mask" opacity="0.5" d="M17 7H7V4H5V20H19V4H17V7Z" fill="currentColor" fill-opacity="0.54"/>
</g>
<g id="&#226;&#134;&#179; Dark Color">
<path id="Mask_2" fill-rule="evenodd" clip-rule="evenodd" d="M19 2H14.82C14.4 0.84 13.3 0 12 0C10.7 0 9.6 0.84 9.18 2H5C3.9 2 3 2.9 3 4V20C3 21.1 3.9 22 5 22H19C20.1 22 21 21.1 21 20V4C21 2.9 20.1 2 19 2ZM12 2C12.55 2 13 2.45 13 3C13 3.55 12.55 4 12 4C11.45 4 11 3.55 11 3C11 2.45 11.45 2 12 2ZM5 4V20H19V4H17V7H7V4H5Z" fill="currentColor" fill-opacity="0.54"/>
</g>
</g>
</svg>
