<svg width="1em" height="1em" viewBox="0 0 24 24" fill="none" xmlns="http://www.w3.org/2000/svg">
<g id="perm_media_24px">
<g id="&#226;&#134;&#179; Light Color">
<path id="Mask" opacity="0.5" fill-rule="evenodd" clip-rule="evenodd" d="M12.58 5.40997L13.17 6H14H22V16H6V4H11.17L12.58 5.40997ZM21 15L17.5 10.5L15 13.51L11.5 9L7 15H21Z" fill="currentColor" fill-opacity="0.54"/>
</g>
<g id="&#226;&#134;&#179; Dark Color">
<path id="Mask_2" d="M2 6H0V11H0.01L0 20C0 21.1 0.9 22 2 22H20V20H2V6Z" fill="currentColor" fill-opacity="0.54"/>
</g>
<g id="&#226;&#134;&#179; Dark Color_2">
<path id="Mask_3" d="M7 15H21L17.5 10.5L15 13.51L11.5 9L7 15Z" fill="currentColor" fill-opacity="0.54"/>
</g>
<g id="&#226;&#134;&#179; Dark Color_3">
<path id="Mask_4" fill-rule="evenodd" clip-rule="evenodd" d="M14 4H22C23.1 4 24 4.90002 24 6V16C24 17.1 23.1 18 22 18H6C4.90002 18 4 17.1 4 16L4.01001 4C4.01001 2.90002 4.90002 2 6 2H12L14 4ZM6 4V16H22V6H14H13.17L12.58 5.40997L11.17 4H6Z" fill="currentColor" fill-opacity="0.54"/>
</g>
</g>
</svg>
