<svg width="1em" height="1em" viewBox="0 0 24 24" fill="none" xmlns="http://www.w3.org/2000/svg">
<g id="perm_identity_24px">
<g id="&#226;&#134;&#179; Light Color">
<path id="Mask" opacity="0.5" d="M12 10C13.1046 10 14 9.10457 14 8C14 6.89543 13.1046 6 12 6C10.8954 6 10 6.89543 10 8C10 9.10457 10.8954 10 12 10Z" fill="currentColor" fill-opacity="0.54"/>
</g>
<g id="&#226;&#134;&#179; Light Color_2">
<path id="Mask_2" opacity="0.5" d="M12 15C9.3 15 6.2 16.29 6 17.01V18H18V17C17.8 16.29 14.7 15 12 15Z" fill="currentColor" fill-opacity="0.54"/>
</g>
<g id="&#226;&#134;&#179; Dark Color">
<path id="Mask_3" fill-rule="evenodd" clip-rule="evenodd" d="M16 8C16 10.21 14.21 12 12 12C9.79004 12 8 10.21 8 8C8 5.78998 9.79004 4 12 4C14.21 4 16 5.78998 16 8ZM14 8C14 6.90002 13.1 6 12 6C10.9 6 10 6.90002 10 8C10 9.09998 10.9 10 12 10C13.1 10 14 9.09998 14 8Z" fill="currentColor" fill-opacity="0.54"/>
</g>
<g id="&#226;&#134;&#179; Dark Color_2">
<path id="Mask_4" fill-rule="evenodd" clip-rule="evenodd" d="M4 17C4 14.34 9.32996 13 12 13C14.67 13 20 14.34 20 17V20H4V17ZM6 17.01V18H18V17C17.8 16.29 14.7 15 12 15C9.30005 15 6.19995 16.29 6 17.01Z" fill="currentColor" fill-opacity="0.54"/>
</g>
</g>
</svg>
