<svg width="1em" height="1em" viewBox="0 0 24 24" fill="none" xmlns="http://www.w3.org/2000/svg">
<g id="perm_scan_wifi_24px">
<g id="&#226;&#134;&#179; Light Color">
<path id="Mask" opacity="0.5" fill-rule="evenodd" clip-rule="evenodd" d="M12 5C8.73999 5 5.80005 5.84998 2.92004 7.65002L12 18.83L21.0801 7.66998C18.1801 5.84998 15.25 5 12 5ZM11 16V10H13V16H11ZM11 6V8H13V6H11Z" fill="currentColor" fill-opacity="0.54"/>
</g>
<g id="&#226;&#134;&#179; Dark Color">
<path id="Mask_2" fill-rule="evenodd" clip-rule="evenodd" d="M0 7.22998C3.15002 4.84998 6.94995 3 12 3C17.05 3 20.85 4.87 24 7.25L12 22L0 7.22998ZM12 5C8.73999 5 5.80005 5.84998 2.92004 7.65002L12 18.83L21.0801 7.66998C18.1801 5.84998 15.25 5 12 5Z" fill="currentColor" fill-opacity="0.54"/>
</g>
<g id="&#226;&#134;&#179; Dark Color_2">
<path id="Mask_3" d="M11 10H13V16H11V10Z" fill="currentColor" fill-opacity="0.54"/>
</g>
<g id="&#226;&#134;&#179; Dark Color_3">
<path id="Mask_4" d="M11 6H13V8H11V6Z" fill="currentColor" fill-opacity="0.54"/>
</g>
</g>
</svg>
