<svg width="1em" height="1em" viewBox="0 0 24 24" fill="none" xmlns="http://www.w3.org/2000/svg">
<g id="perm_device_information_24px">
<g id="&#226;&#134;&#179; Light Color">
<path id="Mask" opacity="0.5" d="M7 20H17V21H7V20Z" fill="currentColor" fill-opacity="0.54"/>
</g>
<g id="&#226;&#134;&#179; Light Color_2">
<path id="Mask_2" opacity="0.5" d="M7 3H17V4H7V3Z" fill="currentColor" fill-opacity="0.54"/>
</g>
<g id="&#226;&#134;&#179; Dark Color">
<path id="Mask_3" d="M11 7H13V9H11V7Z" fill="currentColor" fill-opacity="0.54"/>
</g>
<g id="&#226;&#134;&#179; Dark Color_2">
<path id="Mask_4" d="M11 11H13V17H11V11Z" fill="currentColor" fill-opacity="0.54"/>
</g>
<g id="&#226;&#134;&#179; Dark Color_3">
<path id="Mask_5" fill-rule="evenodd" clip-rule="evenodd" d="M7 1L17 1.01001C18.1 1.01001 19 1.89999 19 3V21C19 22.1 18.1 23 17 23H7C5.90002 23 5 22.1 5 21V3C5 1.89999 5.90002 1 7 1ZM7 21H17V20H7V21ZM17 18H7V6H17V18ZM7 4H17V3H7V4Z" fill="currentColor" fill-opacity="0.54"/>
</g>
</g>
</svg>
