<svg width="1em" height="1em" viewBox="0 0 24 24" fill="none" xmlns="http://www.w3.org/2000/svg">
<g id="perm_contact_calendar_24px">
<g id="&#226;&#134;&#179; Light Color">
<path id="Mask" opacity="0.5" fill-rule="evenodd" clip-rule="evenodd" d="M16 5H8H6H5V19H19V5H18H16ZM12 6C13.65 6 15 7.35001 15 9C15 10.65 13.65 12 12 12C10.35 12 9 10.65 9 9C9 7.35001 10.35 6 12 6ZM6 16.47V18H18V16.47C18 13.97 14.03 12.89 12 12.89C9.96997 12.89 6 13.97 6 16.47Z" fill="currentColor" fill-opacity="0.54"/>
</g>
<g id="&#226;&#134;&#179; Dark Color">
<path id="Mask_2" fill-rule="evenodd" clip-rule="evenodd" d="M20.66 3.88C20.73 3.98999 20.79 4.10001 20.84 4.22C20.94 4.45999 21 4.72 21 5V19C21 19.41 20.87 19.8 20.66 20.12C20.52 20.33 20.33 20.52 20.12 20.66C20.01 20.73 19.9 20.79 19.78 20.84C19.54 20.94 19.28 21 19 21H5C3.89001 21 3 20.1 3 19V5C3 4.72 3.06 4.45999 3.15997 4.22C3.21002 4.10001 3.27002 3.98999 3.34003 3.88C3.47998 3.67001 3.66998 3.48001 3.88 3.34C4.20001 3.13 4.58002 3 5 3H6V1H8V3H16V1H18V3H19C19.28 3 19.54 3.06 19.78 3.16C19.9 3.20999 20.01 3.26999 20.12 3.34C20.33 3.48001 20.52 3.67001 20.66 3.88ZM5 19H19V5H18H16H8H6H5V19Z" fill="currentColor" fill-opacity="0.54"/>
</g>
<g id="&#226;&#134;&#179; Dark Color_2">
<path id="Mask_3" fill-rule="evenodd" clip-rule="evenodd" d="M6 16.46C6 13.96 9.96997 12.88 12 12.88C14.03 12.88 18 13.96 18 16.47V18H6V16.46ZM12 14.88C10.69 14.88 9 15.44 8.31 16H15.69C15.01 15.44 13.31 14.88 12 14.88Z" fill="currentColor" fill-opacity="0.54"/>
</g>
<g id="&#226;&#134;&#179; Dark Color_3">
<path id="Mask_4" fill-rule="evenodd" clip-rule="evenodd" d="M15 9C15 10.65 13.65 12 12 12C10.35 12 9 10.65 9 9C9 7.35001 10.35 6 12 6C13.65 6 15 7.35001 15 9ZM13 9C13 8.45001 12.55 8 12 8C11.45 8 11 8.45001 11 9C11 9.54999 11.45 10 12 10C12.55 10 13 9.54999 13 9Z" fill="currentColor" fill-opacity="0.54"/>
</g>
</g>
</svg>
