<svg width="1em" height="1em" viewBox="0 0 24 24" fill="none" xmlns="http://www.w3.org/2000/svg">
<g id="perm_camera_mic_24px">
<g id="&#226;&#134;&#179; Light Color">
<path id="Mask" opacity="0.5" fill-rule="evenodd" clip-rule="evenodd" d="M15.52 6.35001L16.11 7H16.99H20V19H13V17.91C15.83 17.43 18 14.97 18 12H16C16 14.21 14.21 16 12 16C9.78998 16 8 14.21 8 12H6C6 14.97 8.16998 17.43 11 17.91V19H4V7H7.33002H8.21002L8.81 6.35001L10.04 5H14.28L15.52 6.35001ZM12 14C13.1 14 14 13.1 14 12V8C14 6.89999 13.1 6 12 6C10.9 6 10 6.89999 10 8V12C10 13.1 10.9 14 12 14Z" fill="currentColor" fill-opacity="0.54"/>
</g>
<g id="&#226;&#134;&#179; Dark Color">
<path id="Mask_2" d="M12 6C10.9 6 10 6.9 10 8V12C10 13.1 10.9 14 12 14C13.1 14 14 13.1 14 12V8C14 6.9 13.1 6 12 6Z" fill="currentColor" fill-opacity="0.54"/>
</g>
<g id="&#226;&#134;&#179; Dark Color_2">
<path id="Mask_3" fill-rule="evenodd" clip-rule="evenodd" d="M16.83 5H20C21.1 5 22 5.89999 22 7V19C22 20.1 21.1 21 20 21H4C2.90002 21 2 20.1 2 19V7C2 5.89999 2.90002 5 4 5H7.16998L8.96002 3H14.97L16.83 5ZM13 19H20V7H16.99H16.11L15.52 6.35001L14.28 5H10.04L8.79999 6.35001L8.21002 7H7.33002H4V19H11V17.91C8.16998 17.43 6 14.97 6 12H8C8 14.21 9.78998 16 12 16C14.21 16 16 14.21 16 12H18C18 14.97 15.83 17.43 13 17.91V19Z" fill="currentColor" fill-opacity="0.54"/>
</g>
</g>
</svg>
