<svg width="1em" height="1em" viewBox="0 0 24 24" fill="none" xmlns="http://www.w3.org/2000/svg">
<g id="photo_filter_24px">
<g id="&#226;&#134;&#179; Dark Color">
<path id="Mask" d="M19 10V19H4.98V5H13.98V3H5C3.9 3 3 3.9 3 5V19C3 20.1 3.9 21 5 21H19C20.1 21 21 20.1 21 19V10H19Z" fill="currentColor" fill-opacity="0.54"/>
</g>
<g id="&#226;&#134;&#179; Dark Color_2">
<path id="Mask_2" d="M16.06 7.94L17 10L17.94 7.94L20 7L17.94 6.06L17 4L16.06 6.06L14 7L16.06 7.94Z" fill="currentColor" fill-opacity="0.54"/>
</g>
<g id="&#226;&#134;&#179; Dark Color_3">
<path id="Mask_3" d="M12 8L10.75 10.75L8 12L10.75 13.25L12 16L13.25 13.25L16 12L13.25 10.75L12 8Z" fill="currentColor" fill-opacity="0.54"/>
</g>
</g>
</svg>
