<svg width="1em" height="1em" viewBox="0 0 24 24" fill="none" xmlns="http://www.w3.org/2000/svg">
<g id="photo_size_select_actual_24px">
<g id="&#226;&#134;&#179; Light Color">
<path id="Mask" opacity="0.5" fill-rule="evenodd" clip-rule="evenodd" d="M3 5.07999L3.07996 5H20.92L21 5.07999V18.92C20.9939 18.9261 20.9869 18.9341 20.9792 18.9427C20.9617 18.9625 20.9408 18.9861 20.92 19H3V5.07999ZM8.5 12.5L5 17H19L14.5 11L11 15.51L8.5 12.5Z" fill="currentColor" fill-opacity="0.54"/>
</g>
<g id="&#226;&#134;&#179; Dark Color">
<path id="Mask_2" fill-rule="evenodd" clip-rule="evenodd" d="M3 3H21C22 3 23 4 23 5V19C23 20 22 21 21 21H3C1.90002 21 1 20.1 1 19V5C1 4 2 3 3 3ZM20.9429 18.9791C20.9625 18.9616 20.9861 18.9408 21 18.92H20.99V5.07999C20.9839 5.07391 20.9769 5.06595 20.9692 5.05728C20.9517 5.03751 20.9308 5.01392 20.91 5H3.07996L3 5.07999V19H20.92C20.9261 18.9939 20.9341 18.9868 20.9429 18.9791Z" fill="currentColor" fill-opacity="0.54"/>
</g>
<g id="&#226;&#134;&#179; Dark Color_2">
<path id="Mask_3" d="M11 15.51L8.5 12.5L5 17H19L14.5 11L11 15.51Z" fill="currentColor" fill-opacity="0.54"/>
</g>
</g>
</svg>
