<svg width="1em" height="1em" viewBox="0 0 24 24" fill="none" xmlns="http://www.w3.org/2000/svg">
<g id="photo_camera_24px">
<g id="&#226;&#134;&#179; Light Color">
<path id="Mask" opacity="0.5" fill-rule="evenodd" clip-rule="evenodd" d="M15.95 6H20V18H4V6H8.05005L9.88 4H14.12L15.95 6ZM7 12C7 14.76 9.23999 17 12 17C14.76 17 17 14.76 17 12C17 9.23999 14.76 7 12 7C9.23999 7 7 9.23999 7 12Z" fill="currentColor" fill-opacity="0.54"/>
</g>
<g id="&#226;&#134;&#179; Dark Color">
<path id="Mask_2" fill-rule="evenodd" clip-rule="evenodd" d="M20 20H4C2.90002 20 2 19.1 2 18V6C2 4.89999 2.90002 4 4 4H7.17004L9 2H15L16.83 4H20C21.1 4 22 4.89999 22 6V18C22 19.1 21.1 20 20 20ZM8.05005 6H4V18H20V6H15.95L14.12 4H9.88L8.05005 6Z" fill="currentColor" fill-opacity="0.54"/>
</g>
<g id="&#226;&#134;&#179; Dark Color_2">
<path id="Mask_3" fill-rule="evenodd" clip-rule="evenodd" d="M7 12C7 9.23999 9.23999 7 12 7C14.76 7 17 9.23999 17 12C17 14.76 14.76 17 12 17C9.23999 17 7 14.76 7 12ZM9 12C9 13.65 10.35 15 12 15C13.65 15 15 13.65 15 12C15 10.35 13.65 9 12 9C10.35 9 9 10.35 9 12Z" fill="currentColor" fill-opacity="0.54"/>
</g>
</g>
</svg>
