<svg width="1em" height="1em" viewBox="0 0 24 24" fill="none" xmlns="http://www.w3.org/2000/svg">
<g id="photo_library_24px">
<g id="&#226;&#134;&#179; Light Color">
<path id="Mask" opacity="0.5" fill-rule="evenodd" clip-rule="evenodd" d="M20 16H8V4H20V16ZM13.1899 13.93L11.5 11.67L9 15H19L15.67 10.84L13.1899 13.93Z" fill="currentColor" fill-opacity="0.54"/>
</g>
<g id="&#226;&#134;&#179; Dark Color">
<path id="Mask_2" fill-rule="evenodd" clip-rule="evenodd" d="M22 4V16C22 17.1 21.1 18 20 18H8C6.90002 18 6 17.1 6 16V4C6 2.89999 6.90002 2 8 2H20C21.1 2 22 2.89999 22 4ZM8 16H20V4H8V16Z" fill="currentColor" fill-opacity="0.54"/>
</g>
<g id="&#226;&#134;&#179; Dark Color_2">
<path id="Mask_3" d="M15.67 10.83L13.19 13.92L11.5 11.67L9 15H19L15.67 10.83Z" fill="currentColor" fill-opacity="0.54"/>
</g>
<g id="&#226;&#134;&#179; Dark Color_3">
<path id="Mask_4" d="M4 22H18V20H4V6H2V20C2 21.1 2.9 22 4 22Z" fill="currentColor" fill-opacity="0.54"/>
</g>
</g>
</svg>
