<svg width="1em" height="1em" viewBox="0 0 24 24" fill="none" xmlns="http://www.w3.org/2000/svg">
<g id="pie_chart_outline_24px">
<g id="&#226;&#134;&#179; Dark Color">
<path id="Mask" fill-rule="evenodd" clip-rule="evenodd" d="M2 12C2 6.5 6.5 2 12 2C17.5 2 22 6.5 22 12C22 17.5 17.5 22 12 22C6.5 22 2 17.5 2 12ZM4 12C4 16.06 7.07001 19.44 11 19.94V4.07001C7.07001 4.56001 4 7.94 4 12ZM13 19.93V13H19.93C19.48 16.61 16.61 19.48 13 19.93ZM13 4.07001V11H19.93C19.48 7.40001 16.61 4.52 13 4.07001Z" fill="currentColor" fill-opacity="0.54"/>
</g>
</g>
</svg>
