<svg width="1em" height="1em" viewBox="0 0 24 24" fill="none" xmlns="http://www.w3.org/2000/svg">
<g id="pie_chart_24px">
<g id="&#226;&#134;&#179; Light Color">
<path id="Mask" opacity="0.5" d="M4 12C4 16.07 7.06 19.44 11 19.93V4.07001C7.06 4.56001 4 7.93001 4 12Z" fill="currentColor" fill-opacity="0.54"/>
</g>
<g id="&#226;&#134;&#179; Light Color_2">
<path id="Mask_2" opacity="0.5" d="M13 19.93C16.61 19.48 19.48 16.61 19.93 13H13V19.93Z" fill="currentColor" fill-opacity="0.54"/>
</g>
<g id="&#226;&#134;&#179; Light Color_3">
<path id="Mask_3" opacity="0.5" d="M13 4.07001V11H19.93C19.48 7.39001 16.61 4.52001 13 4.07001Z" fill="currentColor" fill-opacity="0.54"/>
</g>
<g id="&#226;&#134;&#179; Dark Color">
<path id="Mask_4" fill-rule="evenodd" clip-rule="evenodd" d="M2 12C2 6.48 6.47998 2 12 2C17.52 2 22 6.48 22 12C22 17.52 17.52 22 12 22C6.47998 22 2 17.52 2 12ZM4 12C4 16.07 7.06 19.44 11 19.93V4.07001C7.06 4.56001 4 7.93001 4 12ZM13 19.93V13H19.93C19.48 16.61 16.61 19.48 13 19.93ZM13 4.07001V11H19.93C19.48 7.39001 16.61 4.52 13 4.07001Z" fill="currentColor" fill-opacity="0.54"/>
</g>
</g>
</svg>
