<svg width="1em" height="1em" viewBox="0 0 24 24" fill="none" xmlns="http://www.w3.org/2000/svg">
<g id="portrait_24px">
<g id="&#226;&#134;&#179; Light Color">
<path id="Mask" opacity="0.5" fill-rule="evenodd" clip-rule="evenodd" d="M5 19H19V5H5V19ZM12 6C13.65 6 15 7.35001 15 9C15 10.65 13.65 12 12 12C10.35 12 9 10.65 9 9C9 7.35001 10.35 6 12 6ZM12 13C9.96997 13 6 14.08 6 16.58V18H18V16.58C18 14.08 14.03 13 12 13Z" fill="currentColor" fill-opacity="0.54"/>
</g>
<g id="&#226;&#134;&#179; Dark Color">
<path id="Mask_2" fill-rule="evenodd" clip-rule="evenodd" d="M15 9C15 10.65 13.65 12 12 12C10.35 12 9 10.65 9 9C9 7.35001 10.35 6 12 6C13.65 6 15 7.35001 15 9ZM13 9C13 8.45001 12.55 8 12 8C11.45 8 11 8.45001 11 9C11 9.54999 11.45 10 12 10C12.55 10 13 9.54999 13 9Z" fill="currentColor" fill-opacity="0.54"/>
</g>
<g id="&#226;&#134;&#179; Dark Color_2">
<path id="Mask_3" fill-rule="evenodd" clip-rule="evenodd" d="M12 13C14.03 13 18 14.08 18 16.58V18H6V16.58C6 14.08 9.96997 13 12 13ZM12 15C10.71 15 9.21997 15.49 8.47998 16H15.52C14.78 15.49 13.29 15 12 15Z" fill="currentColor" fill-opacity="0.54"/>
</g>
<g id="&#226;&#134;&#179; Dark Color_3">
<path id="Mask_4" fill-rule="evenodd" clip-rule="evenodd" d="M5 3H19C20.1 3 21 3.89999 21 5V19C21 20.1 20.1 21 19 21H5C3.89001 21 3 20.1 3 19V5C3 3.89999 3.89001 3 5 3ZM5 19H19V5H5V19Z" fill="currentColor" fill-opacity="0.54"/>
</g>
</g>
</svg>
