<svg width="1em" height="1em" viewBox="0 0 24 24" fill="none" xmlns="http://www.w3.org/2000/svg">
<g id="power_settings_new_24px">
<g id="&#226;&#134;&#179; Dark Color">
<path id="Mask" fill-rule="evenodd" clip-rule="evenodd" d="M11 3H13V13H11V3ZM16.41 6.58997L17.83 5.16998C19.77 6.82001 21 9.26001 21 12C21 16.97 16.97 21 12 21C7.03003 21 3 16.97 3 12C3 9.26001 4.22998 6.82001 6.16998 5.16998L7.58002 6.57996C6.01001 7.85999 5 9.81 5 12C5 15.87 8.13 19 12 19C15.87 19 19 15.87 19 12C19 9.81 17.99 7.85999 16.41 6.58997Z" fill="currentColor" fill-opacity="0.54"/>
</g>
</g>
</svg>
