<svg width="1em" height="1em" viewBox="0 0 24 24" fill="none" xmlns="http://www.w3.org/2000/svg">
<g id="question_answer_24px">
<g id="&#226;&#134;&#179; Light Color">
<path id="Mask" opacity="0.5" d="M15 11V4H4V12.17L4.59 11.59L5.17 11H6H15Z" fill="currentColor" fill-opacity="0.54"/>
</g>
<g id="&#226;&#134;&#179; Dark Color">
<path id="Mask_2" d="M21 6H19V15H6V17C6 17.55 6.45 18 7 18H18L22 22V7C22 6.45 21.55 6 21 6Z" fill="currentColor" fill-opacity="0.54"/>
</g>
<g id="&#226;&#134;&#179; Dark Color_2">
<path id="Mask_3" fill-rule="evenodd" clip-rule="evenodd" d="M17 12C17 12.55 16.55 13 16 13H6L2 17V3C2 2.45001 2.44995 2 3 2H16C16.55 2 17 2.45001 17 3V12ZM4 12.17L4.58997 11.59L5.17004 11H6H15V4H4V12.17Z" fill="currentColor" fill-opacity="0.54"/>
</g>
</g>
</svg>
