<svg width="1em" height="1em" viewBox="0 0 24 24" fill="none" xmlns="http://www.w3.org/2000/svg">
<g id="receipt_24px">
<g id="&#226;&#134;&#179; Light Color">
<path id="Mask" opacity="0.5" fill-rule="evenodd" clip-rule="evenodd" d="M19 19.09H5V4.90997H19V19.09ZM18 7H6V9H18V7ZM6 11H18V13H6V11ZM18 15H6V17H18V15Z" fill="currentColor" fill-opacity="0.54"/>
</g>
<g id="&#226;&#134;&#179; Dark Color">
<path id="Mask_2" fill-rule="evenodd" clip-rule="evenodd" d="M18 2L19.5 3.5L21 2V22L19.5 20.5L18 22L16.5 20.5L15 22L13.5 20.5L12 22L10.5 20.5L9 22L7.5 20.5L6 22L4.5 20.5L3 22V2L4.5 3.5L6 2L7.5 3.5L9 2L10.5 3.5L12 2L13.5 3.5L15 2L16.5 3.5L18 2ZM5 4.90997V19.09H19V4.90997H5Z" fill="currentColor" fill-opacity="0.54"/>
</g>
<g id="&#226;&#134;&#179; Dark Color_2">
<path id="Mask_3" d="M6 15H18V17H6V15Z" fill="currentColor" fill-opacity="0.54"/>
</g>
<g id="&#226;&#134;&#179; Dark Color_3">
<path id="Mask_4" d="M6 11H18V13H6V11Z" fill="currentColor" fill-opacity="0.54"/>
</g>
<g id="&#226;&#134;&#179; Dark Color_4">
<path id="Mask_5" d="M6 7H18V9H6V7Z" fill="currentColor" fill-opacity="0.54"/>
</g>
</g>
</svg>
