<svg width="1em" height="1em" viewBox="0 0 24 24" fill="none" xmlns="http://www.w3.org/2000/svg">
<g id="record_voice_over_24px">
<g id="&#226;&#134;&#179; Dark Color">
<path id="Mask" d="M9 11C10.1046 11 11 10.1046 11 9C11 7.89543 10.1046 7 9 7C7.89543 7 7 7.89543 7 9C7 10.1046 7.89543 11 9 11Z" fill="currentColor" fill-opacity="0.54"/>
</g>
<g id="&#226;&#134;&#179; Dark Color_2">
<path id="Mask_2" d="M9 17C6.31 17 3.23 18.28 3 19H15C14.8 18.29 11.7 17 9 17Z" fill="currentColor" fill-opacity="0.54"/>
</g>
<g id="&#226;&#134;&#179; Dark Color_3">
<path id="Mask_3" fill-rule="evenodd" clip-rule="evenodd" d="M13 9C13 11.21 11.21 13 9 13C6.78998 13 5 11.21 5 9C5 6.78998 6.78998 5 9 5C11.21 5 13 6.78998 13 9ZM11 9C11 7.90002 10.1 7 9 7C7.90002 7 7 7.90002 7 9C7 10.1 7.90002 11 9 11C10.1 11 11 10.1 11 9Z" fill="currentColor" fill-opacity="0.54"/>
</g>
<g id="&#226;&#134;&#179; Dark Color_4">
<path id="Mask_4" fill-rule="evenodd" clip-rule="evenodd" d="M1 19C1 16.34 6.33002 15 9 15C11.67 15 17 16.34 17 19V21H1V19ZM9 17C6.31 17 3.21997 18.28 3 19H15C14.8 18.29 11.7 17 9 17Z" fill="currentColor" fill-opacity="0.54"/>
</g>
<g id="&#226;&#134;&#179; Dark Color_5">
<path id="Mask_5" d="M16.76 5.35999L15.08 7.04999C15.92 8.22999 15.92 9.75999 15.08 10.94L16.76 12.63C18.78 10.61 18.78 7.55999 16.76 5.35999Z" fill="currentColor" fill-opacity="0.54"/>
</g>
<g id="&#226;&#134;&#179; Dark Color_6">
<path id="Mask_6" d="M20.07 2L18.44 3.63C21.21 6.65 21.21 11.19 18.44 14.37L20.07 16C23.97 12.11 23.98 6.05 20.07 2Z" fill="currentColor" fill-opacity="0.54"/>
</g>
</g>
</svg>
