<svg width="1em" height="1em" viewBox="0 0 24 24" fill="none" xmlns="http://www.w3.org/2000/svg">
<g id="redeem_24px">
<g id="&#226;&#134;&#179; Light Color">
<path id="Mask" opacity="0.5" d="M4 17H20V19H4V17Z" fill="currentColor" fill-opacity="0.54"/>
</g>
<g id="&#226;&#134;&#179; Light Color_2">
<path id="Mask_2" opacity="0.5" d="M17 10.83L15.38 12L13 8.76002L12 7.40002L11 8.76002L8.62 12L7 10.83L9.08 8.00002H4V14H20V8.00002H14.92L17 10.83Z" fill="currentColor" fill-opacity="0.54"/>
</g>
<g id="&#226;&#134;&#179; Dark Color">
<path id="Mask_3" fill-rule="evenodd" clip-rule="evenodd" d="M20 6H17.82C17.93 5.69 18 5.34998 18 5C18 3.34003 16.66 2 15 2C13.95 2 13.04 2.53998 12.5 3.34998L12 4.02002L11.5 3.34003C10.96 2.53998 10.05 2 9 2C7.34003 2 6 3.34003 6 5C6 5.34998 6.07001 5.69 6.17999 6H4C2.89001 6 2.01001 6.89001 2.01001 8L2 19C2 20.11 2.89001 21 4 21H20C21.11 21 22 20.11 22 19V8C22 6.89001 21.11 6 20 6ZM15 4C15.55 4 16 4.45001 16 5C16 5.54999 15.55 6 15 6C14.45 6 14 5.54999 14 5C14 4.45001 14.45 4 15 4ZM10 5C10 4.45001 9.54999 4 9 4C8.45001 4 8 4.45001 8 5C8 5.54999 8.45001 6 9 6C9.54999 6 10 5.54999 10 5ZM4 19V17H20V19H4ZM4 8V14H20V8H14.92L17 10.83L15.38 12L13 8.76001L12 7.40002L11 8.76001L8.62 12L7 10.83L9.08002 8H4Z" fill="currentColor" fill-opacity="0.54"/>
</g>
</g>
</svg>
