<svg width="1em" height="1em" viewBox="0 0 24 24" fill="none" xmlns="http://www.w3.org/2000/svg">
<g id="remove_shopping_cart_24px">
<g id="&#226;&#134;&#179; Dark Color">
<path id="Mask" fill-rule="evenodd" clip-rule="evenodd" d="M0 2.53998L1.40997 1.13L22.87 22.59L21.46 24L18.62 21.16C18.26 21.67 17.67 22 17 22C15.9 22 15.01 21.1 15.01 20C15.01 19.33 15.34 18.74 15.84 18.38L14.46 17H7C5.90002 17 5 16.1 5 15C5 14.65 5.09003 14.32 5.25 14.04L6.59998 11.59L4.39001 6.92999L0 2.53998ZM8.09998 13L7 15H12.46L10.46 13H8.09998Z" fill="currentColor" fill-opacity="0.54"/>
</g>
<g id="&#226;&#134;&#179; Light Color">
<path id="Mask_2" opacity="0.5" d="M18.31 6H9.12L14.11 11H15.55L18.31 6Z" fill="currentColor" fill-opacity="0.54"/>
</g>
<g id="&#226;&#134;&#179; Dark Color_2">
<path id="Mask_3" d="M20 4H7.12L9.12 6H18.31L15.55 11H14.11L16.05 12.94C16.59 12.8 17.04 12.45 17.3 11.97L20.88 5.48C21.25 4.82 20.76 4 20 4Z" fill="currentColor" fill-opacity="0.54"/>
</g>
<g id="&#226;&#134;&#179; Dark Color_3">
<path id="Mask_4" d="M7.00001 18C5.90001 18 5.01001 18.9 5.01001 20C5.01001 21.1 5.90001 22 7.00001 22C8.10001 22 9.00001 21.1 9.00001 20C9.00001 18.9 8.10001 18 7.00001 18Z" fill="currentColor" fill-opacity="0.54"/>
</g>
</g>
</svg>
