<svg width="1em" height="1em" viewBox="0 0 24 24" fill="none" xmlns="http://www.w3.org/2000/svg">
<g id="report_off_24px">
<g id="&#226;&#134;&#179; Light Color">
<path id="Mask" opacity="0.5" d="M19 9.1L14.9 5H9.1L8.88 5.22L11 7.33V7H13V9.33L18.78 15.12L19 14.9V9.1Z" fill="currentColor" fill-opacity="0.54"/>
</g>
<g id="&#226;&#134;&#179; Light Color_2">
<path id="Mask_2" opacity="0.5" fill-rule="evenodd" clip-rule="evenodd" d="M5 9.1L6.05 8.04L15.95 17.95L14.9 19H9.1L5 14.9V9.1ZM12 17C12.55 17 13 16.55 13 16C13 15.45 12.55 15 12 15C11.45 15 11 15.45 11 16C11 16.55 11.45 17 12 17Z" fill="currentColor" fill-opacity="0.54"/>
</g>
<g id="&#226;&#134;&#179; Dark Color">
<path id="Mask_3" d="M9.1 5H14.9L19 9.1V14.9L18.78 15.12L20.2 16.53L21 15.73V8.27L15.73 3H8.27L7.47 3.8L8.88 5.22L9.1 5Z" fill="currentColor" fill-opacity="0.54"/>
</g>
<g id="&#226;&#134;&#179; Dark Color_2">
<path id="Mask_4" d="M12 17C12.5523 17 13 16.5523 13 16C13 15.4477 12.5523 15 12 15C11.4477 15 11 15.4477 11 16C11 16.5523 11.4477 17 12 17Z" fill="currentColor" fill-opacity="0.54"/>
</g>
<g id="&#226;&#134;&#179; Dark Color_3">
<path id="Mask_5" d="M13 7H11V7.33L13 9.33V7Z" fill="currentColor" fill-opacity="0.54"/>
</g>
<g id="&#226;&#134;&#179; Dark Color_4">
<path id="Mask_6" fill-rule="evenodd" clip-rule="evenodd" d="M1 2.99L2.41 1.58L22.42 21.59L21.01 23L17.37 19.36L15.73 21H8.27L3 15.73V8.27L4.64 6.63L1 2.99ZM9.1 19H14.9L15.95 17.95L6.05 8.05L5 9.1V14.9L9.1 19Z" fill="currentColor" fill-opacity="0.54"/>
</g>
</g>
</svg>
