<svg width="1em" height="1em" viewBox="0 0 24 24" fill="none" xmlns="http://www.w3.org/2000/svg">
<g id="report_gmailerrorred_24px">
<g id="&#226;&#134;&#179; Dark Color">
<path id="Mask" fill-rule="evenodd" clip-rule="evenodd" d="M8.27 3H15.73L21 8.27V15.73L15.73 21H8.27L3 15.73V8.27L8.27 3ZM14.9 19L19 14.9V9.1L14.9 5H9.1L5 9.1V14.9L9.1 19H14.9Z" fill="currentColor" fill-opacity="0.54"/>
</g>
<g id="&#226;&#134;&#179; Dark Color_2">
<path id="Mask_2" d="M12 17C12.5523 17 13 16.5523 13 16C13 15.4477 12.5523 15 12 15C11.4477 15 11 15.4477 11 16C11 16.5523 11.4477 17 12 17Z" fill="currentColor" fill-opacity="0.54"/>
</g>
<g id="&#226;&#134;&#179; Dark Color_3">
<path id="Mask_3" d="M11 7H13V14H11V7Z" fill="currentColor" fill-opacity="0.54"/>
</g>
</g>
</svg>
