<svg width="1em" height="1em" viewBox="0 0 24 24" fill="none" xmlns="http://www.w3.org/2000/svg">
<g id="restore_from_trash_24px">
<g id="&#226;&#134;&#179; Light Color">
<path id="Mask" opacity="0.5" d="M16 14H14V18H10V14H8V19H16V14Z" fill="currentColor" fill-opacity="0.54"/>
</g>
<g id="&#226;&#134;&#179; Light Color_2">
<path id="Mask_2" opacity="0.5" d="M16 14V9H8V14L12 10L16 14Z" fill="currentColor" fill-opacity="0.54"/>
</g>
<g id="&#226;&#134;&#179; Dark Color">
<path id="Mask_3" fill-rule="evenodd" clip-rule="evenodd" d="M8 21C6.90002 21 6 20.1 6 19V7H18V19C18 20.1 17.1 21 16 21H8ZM8 9V14V19H16V14V9H8Z" fill="currentColor" fill-opacity="0.54"/>
</g>
<g id="&#226;&#134;&#179; Dark Color_2">
<path id="Mask_4" d="M15.5 4L14.5 3H9.5L8.5 4H5V6H19V4H15.5Z" fill="currentColor" fill-opacity="0.54"/>
</g>
<g id="&#226;&#134;&#179; Dark Color_3">
<path id="Mask_5" d="M10 18H14V14H16L12 10L8 14H10V18Z" fill="currentColor" fill-opacity="0.54"/>
</g>
</g>
</svg>
