<svg width="1em" height="1em" viewBox="0 0 24 24" fill="none" xmlns="http://www.w3.org/2000/svg">
<g id="restore_page_24px">
<g id="&#226;&#134;&#179; Light Color">
<path id="Mask" opacity="0.5" fill-rule="evenodd" clip-rule="evenodd" d="M6 20V4H13.17L18 8.83002V20H6ZM12.22 17.5C14.7001 17.5 16.72 15.48 16.72 13C16.72 10.52 14.7101 8.5 12.23 8.5C10.64 8.5 9.25 9.33002 8.45007 10.57L7.28003 9.40002V13H10.88L9.43005 11.56C9.95007 10.55 11.01 9.84998 12.22 9.84998C13.9601 9.84998 15.37 11.26 15.37 13C15.37 14.74 13.9601 16.15 12.22 16.15C11.15 16.15 10.2101 15.61 9.64001 14.8H8.09998C8.79004 16.38 10.38 17.5 12.22 17.5Z" fill="currentColor" fill-opacity="0.54"/>
</g>
<g id="&#226;&#134;&#179; Dark Color">
<path id="Mask_2" fill-rule="evenodd" clip-rule="evenodd" d="M6 2H14L20 8V20C20 21.1 19.1 22 18 22H5.98999C4.89001 22 4 21.1 4 20L4.01001 4C4.01001 2.90002 4.90002 2 6 2ZM6 20H18V8.83002L13.17 4H6V20Z" fill="currentColor" fill-opacity="0.54"/>
</g>
<g id="&#226;&#134;&#179; Dark Color_2">
<path id="Mask_3" d="M8.45003 10.57L7.28003 9.4V13H10.88L9.44003 11.56C9.96003 10.55 11.02 9.85 12.23 9.85C13.97 9.85 15.38 11.26 15.38 13C15.38 14.74 13.97 16.15 12.23 16.15C11.16 16.15 10.21 15.61 9.65003 14.8H8.10003C8.79003 16.38 10.38 17.5 12.22 17.5C14.7 17.5 16.72 15.48 16.72 13C16.72 10.52 14.7 8.5 12.22 8.5C10.63 8.5 9.25003 9.33 8.45003 10.57Z" fill="currentColor" fill-opacity="0.54"/>
</g>
</g>
</svg>
