<svg width="1em" height="1em" viewBox="0 0 24 24" fill="none" xmlns="http://www.w3.org/2000/svg">
<g id="room_24px">
<g id="&#226;&#134;&#179; Light Color">
<path id="Mask" opacity="0.5" fill-rule="evenodd" clip-rule="evenodd" d="M7 9C7 6.23999 9.23999 4 12 4C14.76 4 17 6.23999 17 9C17 11.88 14.11 16.19 12 18.88C9.92004 16.21 7 11.85 7 9ZM9.5 9C9.5 10.38 10.62 11.5 12 11.5C13.38 11.5 14.5 10.38 14.5 9C14.5 7.62 13.38 6.5 12 6.5C10.62 6.5 9.5 7.62 9.5 9Z" fill="currentColor" fill-opacity="0.54"/>
</g>
<g id="&#226;&#134;&#179; Dark Color">
<path id="Mask_2" fill-rule="evenodd" clip-rule="evenodd" d="M5 9C5 5.13 8.13 2 12 2C15.87 2 19 5.13 19 9C19 14.25 12 22 12 22C12 22 5 14.25 5 9ZM12 4C9.23999 4 7 6.23999 7 9C7 11.85 9.92004 16.21 12 18.88C14.12 16.19 17 11.88 17 9C17 6.23999 14.76 4 12 4Z" fill="currentColor" fill-opacity="0.54"/>
</g>
<g id="&#226;&#134;&#179; Dark Color_2">
<path id="Mask_3" d="M12 11.5C13.3807 11.5 14.5 10.3807 14.5 9C14.5 7.61929 13.3807 6.5 12 6.5C10.6193 6.5 9.5 7.61929 9.5 9C9.5 10.3807 10.6193 11.5 12 11.5Z" fill="currentColor" fill-opacity="0.54"/>
</g>
</g>
</svg>
