<svg width="1em" height="1em" viewBox="0 0 24 24" fill="none" xmlns="http://www.w3.org/2000/svg">
<g id="rotate_left_24px">
<g id="&#226;&#134;&#179; Dark Color">
<path id="Mask" d="M13 17.91V19.93C16.95 19.44 20 16.08 20 12C20 7.92 16.95 4.56 13 4.07V1L8.44995 5.55L13 10V6.09C15.84 6.57 18 9.03 18 12C18 14.97 15.84 17.43 13 17.91Z" fill="currentColor" fill-opacity="0.54"/>
</g>
<g id="&#226;&#134;&#179; Dark Color_2">
<path id="Mask_2" d="M5.68995 16.89L7.09995 15.47C6.57995 14.72 6.22995 13.88 6.08995 13H4.06995C4.23995 14.39 4.78995 15.73 5.68995 16.89Z" fill="currentColor" fill-opacity="0.54"/>
</g>
<g id="&#226;&#134;&#179; Dark Color_3">
<path id="Mask_3" d="M7.10995 8.52999L5.69995 7.10999C4.79995 8.26999 4.23995 9.60999 4.06995 11H6.08995C6.22995 10.13 6.57995 9.27999 7.10995 8.52999Z" fill="currentColor" fill-opacity="0.54"/>
</g>
<g id="&#226;&#134;&#179; Dark Color_4">
<path id="Mask_4" d="M11 17.9C10.13 17.75 9.28998 17.41 8.53998 16.87L7.09998 18.32C8.25998 19.22 9.60998 19.76 11 19.93V17.9Z" fill="currentColor" fill-opacity="0.54"/>
</g>
</g>
</svg>
