<svg width="1em" height="1em" viewBox="0 0 24 24" fill="none" xmlns="http://www.w3.org/2000/svg">
<g id="rotate_right_24px">
<g id="&#226;&#134;&#179; Dark Color">
<path id="Mask" d="M19.93 11C19.76 9.60999 19.21 8.26999 18.31 7.10999L16.89 8.52999C17.43 9.27999 17.77 10.13 17.91 11H19.93Z" fill="currentColor" fill-opacity="0.54"/>
</g>
<g id="&#226;&#134;&#179; Dark Color_2">
<path id="Mask_2" d="M11 1V4.07C7.06 4.56 4 7.92 4 12C4 16.08 7.05 19.44 11 19.93V17.91C8.16 17.43 6 14.97 6 12C6 9.03 8.16 6.57 11 6.09V10L15.55 5.55L11 1Z" fill="currentColor" fill-opacity="0.54"/>
</g>
<g id="&#226;&#134;&#179; Dark Color_3">
<path id="Mask_3" d="M15.46 16.87C14.71 17.41 13.87 17.76 13 17.9V19.92C14.39 19.75 15.74 19.21 16.9 18.31L15.46 16.87Z" fill="currentColor" fill-opacity="0.54"/>
</g>
<g id="&#226;&#134;&#179; Dark Color_4">
<path id="Mask_4" d="M18.31 16.89C19.21 15.73 19.76 14.39 19.93 13H17.91C17.77 13.87 17.43 14.72 16.89 15.48L18.31 16.89Z" fill="currentColor" fill-opacity="0.54"/>
</g>
</g>
</svg>
