<svg width="1em" height="1em" viewBox="0 0 24 24" fill="none" xmlns="http://www.w3.org/2000/svg">
<g id="rowing_24px">
<g id="&#226;&#134;&#179; Dark Color">
<path id="Mask" fill-rule="evenodd" clip-rule="evenodd" d="M15 1C13.9 1 13 1.90002 13 3C13 4.09998 13.9 5 15 5C16.1 5 17 4.09998 17 3C17 1.90002 16.1 1 15 1ZM8.5 14.5L4 19L5.5 20.5L9 17H11L8.5 14.5ZM18 24L21 21.01L18 18H16.5L10.21 11.71C11.07 11.34 11.87 10.84 12.5 10.32V12.59L16.08 16.17C16.65 15.62 17 14.85 17 14.01V8.26001C17 7.02002 15.99 6.01001 14.75 6H14.72C14.38 6 14.05 6.09003 13.76 6.22998C13.5 6.34998 13.26 6.52002 13.07 6.72998L11.67 8.28003C10.61 9.45001 8.65997 10.35 7 10.32V12.48C7.29999 12.48 7.59998 12.46 7.90997 12.41L15.01 19.5V20.99L18 24Z" fill="currentColor" fill-opacity="0.54"/>
</g>
</g>
</svg>
