<svg width="1em" height="1em" viewBox="0 0 24 24" fill="none" xmlns="http://www.w3.org/2000/svg">
<g id="save_24px">
<g id="&#226;&#134;&#179; Light Color">
<path id="Mask" opacity="0.5" fill-rule="evenodd" clip-rule="evenodd" d="M5 5V19H19V7.83L16.17 5H5ZM12 18C10.34 18 9 16.66 9 15C9 13.34 10.34 12 12 12C13.66 12 15 13.34 15 15C15 16.66 13.66 18 12 18ZM6 10H15V6H6V10Z" fill="currentColor" fill-opacity="0.54"/>
</g>
<g id="&#226;&#134;&#179; Dark Color">
<path id="Mask_2" fill-rule="evenodd" clip-rule="evenodd" d="M5 3H17L21 7V19C21 20.1 20.1 21 19 21H5C3.89 21 3 20.1 3 19V5C3 3.9 3.89 3 5 3ZM5 19H19V7.83L16.17 5H5V19Z" fill="currentColor" fill-opacity="0.54"/>
</g>
<g id="&#226;&#134;&#179; Dark Color_2">
<path id="Mask_3" d="M12 12C10.34 12 9 13.34 9 15C9 16.66 10.34 18 12 18C13.66 18 15 16.66 15 15C15 13.34 13.66 12 12 12Z" fill="currentColor" fill-opacity="0.54"/>
</g>
<g id="&#226;&#134;&#179; Dark Color_3">
<path id="Mask_4" d="M6 6H15V10H6V6Z" fill="currentColor" fill-opacity="0.54"/>
</g>
</g>
</svg>
