<svg width="1em" height="1em" viewBox="0 0 24 24" fill="none" xmlns="http://www.w3.org/2000/svg">
<g id="scatter_plot_24px">
<g id="&#226;&#134;&#179; Light Color">
<path id="Mask" opacity="0.5" d="M11 8C12.1046 8 13 7.10457 13 6C13 4.89543 12.1046 4 11 4C9.89543 4 9 4.89543 9 6C9 7.10457 9.89543 8 11 8Z" fill="currentColor" fill-opacity="0.54"/>
</g>
<g id="&#226;&#134;&#179; Light Color_2">
<path id="Mask_2" opacity="0.5" d="M16.6 19.6C17.7045 19.6 18.6 18.7046 18.6 17.6C18.6 16.4954 17.7045 15.6 16.6 15.6C15.4954 15.6 14.6 16.4954 14.6 17.6C14.6 18.7046 15.4954 19.6 16.6 19.6Z" fill="currentColor" fill-opacity="0.54"/>
</g>
<g id="&#226;&#134;&#179; Light Color_3">
<path id="Mask_3" opacity="0.5" d="M7 16C8.10457 16 9 15.1046 9 14C9 12.8954 8.10457 12 7 12C5.89543 12 5 12.8954 5 14C5 15.1046 5.89543 16 7 16Z" fill="currentColor" fill-opacity="0.54"/>
</g>
<g id="&#226;&#134;&#179; Dark Color">
<path id="Mask_4" fill-rule="evenodd" clip-rule="evenodd" d="M3 14C3 11.79 4.78998 10 7 10C9.21002 10 11 11.79 11 14C11 16.21 9.21002 18 7 18C4.78998 18 3 16.21 3 14ZM5 14C5 15.1 5.90002 16 7 16C8.09998 16 9 15.1 9 14C9 12.9 8.09998 12 7 12C5.90002 12 5 12.9 5 14Z" fill="currentColor" fill-opacity="0.54"/>
</g>
<g id="&#226;&#134;&#179; Dark Color_2">
<path id="Mask_5" fill-rule="evenodd" clip-rule="evenodd" d="M11 2C13.21 2 15 3.78999 15 6C15 8.21001 13.21 10 11 10C8.78998 10 7 8.21001 7 6C7 3.78999 8.78998 2 11 2ZM9 6C9 7.10001 9.90002 8 11 8C12.1 8 13 7.10001 13 6C13 4.89999 12.1 4 11 4C9.90002 4 9 4.89999 9 6Z" fill="currentColor" fill-opacity="0.54"/>
</g>
<g id="&#226;&#134;&#179; Dark Color_3">
<path id="Mask_6" fill-rule="evenodd" clip-rule="evenodd" d="M12.6 17.6C12.6 15.39 14.39 13.6 16.6 13.6C18.81 13.6 20.6 15.39 20.6 17.6C20.6 19.81 18.81 21.6 16.6 21.6C14.39 21.6 12.6 19.81 12.6 17.6ZM14.6 17.6C14.6 18.7 15.5 19.6 16.6 19.6C17.7 19.6 18.6 18.7 18.6 17.6C18.6 16.5 17.7 15.6 16.6 15.6C15.5 15.6 14.6 16.5 14.6 17.6Z" fill="currentColor" fill-opacity="0.54"/>
</g>
</g>
</svg>
