<svg width="1em" height="1em" viewBox="0 0 24 24" fill="none" xmlns="http://www.w3.org/2000/svg">
<g id="schedule_24px">
<g id="&#226;&#134;&#179; Light Color">
<path id="Mask" opacity="0.5" fill-rule="evenodd" clip-rule="evenodd" d="M4 12C4 7.58002 7.58002 4 12 4C16.42 4 20 7.58002 20 12C20 16.42 16.42 20 12 20C7.58002 20 4 16.42 4 12ZM11 13L16.25 16.15L17 14.92L12.5 12.25V7H11V13Z" fill="currentColor" fill-opacity="0.54"/>
</g>
<g id="&#226;&#134;&#179; Dark Color">
<path id="Mask_2" fill-rule="evenodd" clip-rule="evenodd" d="M2 12C2 6.47998 6.46997 2 11.99 2C17.52 2 22 6.47998 22 12C22 17.52 17.52 22 11.99 22C6.46997 22 2 17.52 2 12ZM4 12C4 16.42 7.58002 20 12 20C16.42 20 20 16.42 20 12C20 7.58002 16.42 4 12 4C7.58002 4 4 7.58002 4 12Z" fill="currentColor" fill-opacity="0.54"/>
</g>
<g id="&#226;&#134;&#179; Dark Color_2">
<path id="Mask_3" d="M12.5 7H11V13L16.25 16.15L17 14.92L12.5 12.25V7Z" fill="currentColor" fill-opacity="0.54"/>
</g>
</g>
</svg>
