<svg width="1em" height="1em" viewBox="0 0 24 24" fill="none" xmlns="http://www.w3.org/2000/svg">
<g id="score_24px">
<g id="&#226;&#134;&#179; Light Color">
<path id="Mask" opacity="0.5" d="M5 19H13L9 15L5 19Z" fill="currentColor" fill-opacity="0.54"/>
</g>
<g id="&#226;&#134;&#179; Light Color_2">
<path id="Mask_2" opacity="0.5" fill-rule="evenodd" clip-rule="evenodd" d="M5 5V16.5L9 12.5L13 16.5L19 10.5V5H5ZM12 6H13.5V9V12H12V6ZM13.5 9L15.5 6H17.2L15.2 9L17.2 12H15.5L13.5 9ZM9.5 8.25H7V12H11V10.5H8.5V9.75H11V6H7V7.5H9.5V8.25Z" fill="currentColor" fill-opacity="0.54"/>
</g>
<g id="&#226;&#134;&#179; Light Color_3">
<path id="Mask_3" opacity="0.5" d="M19 19V13L13 19H19Z" fill="currentColor" fill-opacity="0.54"/>
</g>
<g id="&#226;&#134;&#179; Dark Color">
<path id="Mask_4" fill-rule="evenodd" clip-rule="evenodd" d="M19 3H5C3.90002 3 3 3.89999 3 5V19C3 20.1 3.90002 21 5 21H19C20.1 21 21 20.1 21 19V5C21 3.89999 20.1 3 19 3ZM19 19H13L19 13V19ZM13 19H5L9 15L13 19ZM13 16.5L19 10.5V5H5V16.5L9 12.5L13 16.5Z" fill="currentColor" fill-opacity="0.54"/>
</g>
<g id="&#226;&#134;&#179; Dark Color_2">
<path id="Mask_5" d="M13.5 9V6H12V12H13.5V9Z" fill="currentColor" fill-opacity="0.54"/>
</g>
<g id="&#226;&#134;&#179; Dark Color_3">
<path id="Mask_6" d="M17.2 12L15.2 9L17.2 6H15.5L13.5 9L15.5 12H17.2Z" fill="currentColor" fill-opacity="0.54"/>
</g>
<g id="&#226;&#134;&#179; Dark Color_4">
<path id="Mask_7" d="M11 10.5H8.5V9.75H11V6H7V7.5H9.5V8.25H7V12H11V10.5Z" fill="currentColor" fill-opacity="0.54"/>
</g>
</g>
</svg>
