<svg width="1em" height="1em" viewBox="0 0 24 24" fill="none" xmlns="http://www.w3.org/2000/svg">
<g id="settings_phone_24px">
<g id="&#226;&#134;&#179; Light Color">
<path id="Mask" opacity="0.5" d="M6.54004 5H5.04004C5.13004 6.32 5.39004 7.59 5.79004 8.79L6.99004 7.58C6.75004 6.75 6.60004 5.88 6.54004 5Z" fill="currentColor" fill-opacity="0.54"/>
</g>
<g id="&#226;&#134;&#179; Light Color_2">
<path id="Mask_2" opacity="0.5" d="M15.2 18.21C16.41 18.62 17.68 18.88 19 18.97V17.47C18.12 17.4 17.25 17.25 16.4 17.02L15.2 18.21Z" fill="currentColor" fill-opacity="0.54"/>
</g>
<g id="&#226;&#134;&#179; Dark Color">
<path id="Mask_3" d="M11 9H13V11H11V9Z" fill="currentColor" fill-opacity="0.54"/>
</g>
<g id="&#226;&#134;&#179; Dark Color_2">
<path id="Mask_4" d="M15 9H17V11H15V9Z" fill="currentColor" fill-opacity="0.54"/>
</g>
<g id="&#226;&#134;&#179; Dark Color_3">
<path id="Mask_5" fill-rule="evenodd" clip-rule="evenodd" d="M20 15.5C18.75 15.5 17.55 15.3 16.4301 14.93C16.33 14.9 16.22 14.88 16.12 14.88C15.86 14.88 15.61 14.98 15.41 15.17L13.21 17.37C10.38 15.93 8.06006 13.62 6.62 10.79L8.81995 8.58002C9.09998 8.31 9.18005 7.91998 9.06995 7.57001C8.69995 6.45001 8.5 5.25 8.5 4C8.5 3.45001 8.05005 3 7.5 3H4C3.44995 3 3 3.45001 3 4C3 13.39 10.61 21 20 21C20.55 21 21 20.55 21 20V16.5C21 15.95 20.55 15.5 20 15.5ZM5.03003 5H6.53003C6.59998 5.88 6.75 6.75 6.98999 7.59003L5.79004 8.79999C5.38 7.59003 5.12 6.32001 5.03003 5ZM15.2 18.21C16.3999 18.62 17.6799 18.88 19 18.97V17.46C18.12 17.4 17.25 17.25 16.3999 17.01L15.2 18.21Z" fill="currentColor" fill-opacity="0.54"/>
</g>
<g id="&#226;&#134;&#179; Dark Color_4">
<path id="Mask_6" d="M19 9H21V11H19V9Z" fill="currentColor" fill-opacity="0.54"/>
</g>
</g>
</svg>
