<svg width="1em" height="1em" viewBox="0 0 24 24" fill="none" xmlns="http://www.w3.org/2000/svg">
<g id="settings_power_24px">
<g id="&#226;&#134;&#179; Dark Color">
<path id="Mask" fill-rule="evenodd" clip-rule="evenodd" d="M11 2H13V12H11V2ZM7 24H9V22H7V24ZM13 24V22H11V24H13ZM16.5601 4.44L15.11 5.89001C16.84 6.94 18 8.83002 18 11C18 14.31 15.3101 17 12 17C8.68994 17 6 14.31 6 11C6 8.83002 7.16003 6.94 8.88 5.88L7.43994 4.44C5.35999 5.88 4 8.28003 4 11C4 15.42 7.57996 19 12 19C16.42 19 20 15.42 20 11C20 8.28003 18.64 5.88 16.5601 4.44ZM17 24H15V22H17V24Z" fill="currentColor" fill-opacity="0.54"/>
</g>
</g>
</svg>
