<svg width="1em" height="1em" viewBox="0 0 24 24" fill="none" xmlns="http://www.w3.org/2000/svg">
<g id="settings_bluetooth_24px">
<g id="&#226;&#134;&#179; Dark Color">
<path id="Mask" fill-rule="evenodd" clip-rule="evenodd" d="M12 0L17.71 5.71002L13.41 10L17.71 14.29L12 20H11V12.41L6.41003 17L5 15.59L10.59 10L5 4.40997L6.41003 3L11 7.59003V0H12ZM9 24H7V22H9V24ZM13 22V24H11V22H13ZM15 24H17V22H15V24ZM13 3.83002L14.88 5.71002L13 7.59003V3.83002ZM13 16.17L14.88 14.29L13 12.41V16.17Z" fill="currentColor" fill-opacity="0.54"/>
</g>
</g>
</svg>
