<svg width="1em" height="1em" viewBox="0 0 24 24" fill="none" xmlns="http://www.w3.org/2000/svg">
<g id="settings_24px">
<g id="&#226;&#134;&#179; Light Color">
<path id="Mask" opacity="0.5" fill-rule="evenodd" clip-rule="evenodd" d="M18.58 7.39001L19.28 8.59998L18.18 9.44L17.29 10.14L17.43 11.27C17.46 11.57 17.48 11.79 17.48 12C17.48 12.21 17.47 12.42 17.43 12.73L17.29 13.86L18.18 14.56L19.2599 15.4L18.56 16.61L17.29 16.1L16.25 15.68L15.35 16.36C14.92 16.68 14.5099 16.92 14.1 17.09L13.04 17.52L12.8799 18.65L12.6899 20H11.3L11.11 18.64L10.95 17.51L9.88995 17.08C9.45996 16.91 9.04999 16.67 8.65997 16.37L7.75 15.67L6.68994 16.1L5.41998 16.61L4.71997 15.4L5.79999 14.56L6.68994 13.86L6.54999 12.73C6.51996 12.43 6.5 12.2 6.5 12C6.5 11.8 6.51996 11.57 6.54999 11.27L6.68994 10.14L5.79999 9.44L4.71997 8.59998L5.41998 7.39001L6.68994 7.90997L7.73999 8.33002L8.63995 7.65002C9.06995 7.33002 9.47998 7.09003 9.88995 6.91998L10.95 6.47998L11.11 5.34998L11.3 4H12.7L12.89 5.35999L13.05 6.48999L14.11 6.91998C14.54 7.09003 14.95 7.33002 15.34 7.63L16.25 8.33002L17.31 7.90002L18.58 7.39001ZM8 12C8 14.21 9.78998 16 12 16C14.21 16 16 14.21 16 12C16 9.78998 14.21 8 12 8C9.78998 8 8 9.78998 8 12Z" fill="currentColor" fill-opacity="0.54"/>
</g>
<g id="&#226;&#134;&#179; Dark Color">
<path id="Mask_2" fill-rule="evenodd" clip-rule="evenodd" d="M19.5 12C19.5 12.34 19.47 12.66 19.4301 12.98L21.54 14.63C21.73 14.78 21.78 15.05 21.66 15.27L19.66 18.73C19.57 18.89 19.4 18.98 19.23 18.98C19.17 18.98 19.11 18.97 19.05 18.95L16.56 17.95C16.04 18.34 15.48 18.68 14.87 18.93L14.4901 21.58C14.46 21.82 14.25 22 14 22H10C9.75 22 9.54004 21.82 9.51001 21.58L9.13 18.93C8.52002 18.68 7.96002 18.35 7.44 17.95L4.95001 18.95C4.90002 18.97 4.84003 18.98 4.78003 18.98C4.60004 18.98 4.42999 18.89 4.34003 18.73L2.34003 15.27C2.22003 15.05 2.27002 14.78 2.46002 14.63L4.57001 12.98C4.53003 12.66 4.5 12.33 4.5 12C4.5 11.67 4.53003 11.34 4.57001 11.02L2.46002 9.37C2.27002 9.21997 2.21002 8.95001 2.34003 8.72998L4.34003 5.27002C4.42999 5.10999 4.60004 5.02002 4.77002 5.02002C4.83002 5.02002 4.89001 5.03003 4.95001 5.04999L7.44 6.04999C7.96002 5.65997 8.52002 5.32001 9.13 5.07001L9.51001 2.41998C9.54004 2.17999 9.75 2 10 2H14C14.25 2 14.46 2.17999 14.4901 2.41998L14.87 5.07001C15.48 5.32001 16.04 5.65002 16.56 6.04999L19.05 5.04999C19.1 5.03003 19.16 5.02002 19.22 5.02002C19.4 5.02002 19.57 5.10999 19.66 5.27002L21.66 8.72998C21.78 8.95001 21.73 9.21997 21.54 9.37L19.4301 11.02C19.47 11.34 19.5 11.66 19.5 12ZM17.5001 12C17.5001 11.79 17.4901 11.58 17.45 11.27L17.3101 10.14L18.2 9.44L19.27 8.59003L18.57 7.38L17.3 7.89001L16.2401 8.32001L15.33 7.62C14.9301 7.32001 14.53 7.09003 14.1 6.90997L13.04 6.47998L12.88 5.34998L12.69 4H11.3L11.1 5.34998L10.94 6.47998L9.88 6.90997C9.47003 7.08002 9.06006 7.32001 8.63 7.64001L7.73004 8.32001L6.69 7.90002L5.42004 7.39001L4.72003 8.59998L5.80005 9.44L6.69 10.14L6.55005 11.27C6.52002 11.57 6.50006 11.8 6.50006 12C6.50006 12.2 6.52002 12.43 6.55005 12.74L6.69 13.87L5.80005 14.57L4.72003 15.41L5.42004 16.62L6.69 16.11L7.75006 15.68L8.66003 16.38C9.06006 16.68 9.46002 16.91 9.89001 17.09L10.95 17.52L11.11 18.65L11.3 20H12.7L12.9 18.65L13.0601 17.52L14.1201 17.09C14.53 16.92 14.94 16.68 15.3701 16.36L16.27 15.68L17.3101 16.1L18.58 16.61L19.28 15.4L18.2 14.56L17.3101 13.86L17.45 12.73C17.48 12.43 17.5001 12.21 17.5001 12Z" fill="currentColor" fill-opacity="0.54"/>
</g>
<g id="&#226;&#134;&#179; Dark Color_2">
<path id="Mask_3" fill-rule="evenodd" clip-rule="evenodd" d="M8 12C8 9.78998 9.78998 8 12 8C14.21 8 16 9.78998 16 12C16 14.21 14.21 16 12 16C9.78998 16 8 14.21 8 12ZM10 12C10 13.1 10.9 14 12 14C13.1 14 14 13.1 14 12C14 10.9 13.1 10 12 10C10.9 10 10 10.9 10 12Z" fill="currentColor" fill-opacity="0.54"/>
</g>
</g>
</svg>
