<svg width="1em" height="1em" viewBox="0 0 24 24" fill="none" xmlns="http://www.w3.org/2000/svg">
<g id="settings_remote_24px">
<g id="&#226;&#134;&#179; Light Color">
<path id="Mask" opacity="0.5" fill-rule="evenodd" clip-rule="evenodd" d="M14 11V21H10V11H14ZM13 13C13 12.45 12.55 12 12 12C11.45 12 11 12.45 11 13C11 13.55 11.45 14 12 14C12.55 14 13 13.55 13 13Z" fill="currentColor" fill-opacity="0.54"/>
</g>
<g id="&#226;&#134;&#179; Dark Color">
<path id="Mask_2" fill-rule="evenodd" clip-rule="evenodd" d="M9 9H15C15.55 9 16 9.45001 16 10V22C16 22.55 15.55 23 15 23H9C8.44995 23 8 22.55 8 22V10C8 9.45001 8.44995 9 9 9ZM10 21H14V11H10V21Z" fill="currentColor" fill-opacity="0.54"/>
</g>
<g id="&#226;&#134;&#179; Dark Color_2">
<path id="Mask_3" d="M12 14C12.5523 14 13 13.5523 13 13C13 12.4477 12.5523 12 12 12C11.4477 12 11 12.4477 11 13C11 13.5523 11.4477 14 12 14Z" fill="currentColor" fill-opacity="0.54"/>
</g>
<g id="&#226;&#134;&#179; Dark Color_3">
<path id="Mask_4" d="M7.05005 6.05L8.46005 7.46C9.37005 6.56 10.62 6 12 6C13.38 6 14.63 6.56 15.54 7.46L16.95 6.05C15.68 4.78 13.93 4 12 4C10.07 4 8.32005 4.78 7.05005 6.05Z" fill="currentColor" fill-opacity="0.54"/>
</g>
<g id="&#226;&#134;&#179; Dark Color_4">
<path id="Mask_5" d="M12 0C8.95997 0 6.20997 1.23 4.21997 3.22L5.62997 4.63C7.25997 3.01 9.50997 2 12 2C14.49 2 16.74 3.01 18.36 4.64L19.77 3.23C17.79 1.23 15.04 0 12 0Z" fill="currentColor" fill-opacity="0.54"/>
</g>
</g>
</svg>
