<svg width="1em" height="1em" viewBox="0 0 24 24" fill="none" xmlns="http://www.w3.org/2000/svg">
<g id="settings_cell_24px">
<g id="&#226;&#134;&#179; Light Color">
<path id="Mask" opacity="0.5" d="M8 17H16V18H8V17Z" fill="currentColor" fill-opacity="0.54"/>
</g>
<g id="&#226;&#134;&#179; Light Color_2">
<path id="Mask_2" opacity="0.5" d="M8 2H16V3H8V2Z" fill="currentColor" fill-opacity="0.54"/>
</g>
<g id="&#226;&#134;&#179; Dark Color">
<path id="Mask_3" d="M7 22H9V24H7V22Z" fill="currentColor" fill-opacity="0.54"/>
</g>
<g id="&#226;&#134;&#179; Dark Color_2">
<path id="Mask_4" d="M11 22H13V24H11V22Z" fill="currentColor" fill-opacity="0.54"/>
</g>
<g id="&#226;&#134;&#179; Dark Color_3">
<path id="Mask_5" d="M15 22H17V24H15V22Z" fill="currentColor" fill-opacity="0.54"/>
</g>
<g id="&#226;&#134;&#179; Dark Color_4">
<path id="Mask_6" fill-rule="evenodd" clip-rule="evenodd" d="M8 0L16 0.0100098C17.1 0.0100098 18 0.900024 18 2V18C18 19.1 17.1 20 16 20H8C6.90002 20 6 19.1 6 18V2C6 0.900024 6.90002 0 8 0ZM8 18H16V17H8V18ZM16 15H8V5H16V15ZM8 3H16V2H8V3Z" fill="currentColor" fill-opacity="0.54"/>
</g>
</g>
</svg>
