<svg width="1em" height="1em" viewBox="0 0 24 24" fill="none" xmlns="http://www.w3.org/2000/svg">
<g id="settings_input_hdmi_24px">
<g id="&#226;&#134;&#179; Light Color">
<path id="Mask" opacity="0.5" d="M8 9H7V12.53L9.79 18.11L10 18.53V19V20H14V19V18.53L14.21 18.11L17 12.53V9H16H8Z" fill="currentColor" fill-opacity="0.54"/>
</g>
<g id="&#226;&#134;&#179; Dark Color">
<path id="Mask_2" fill-rule="evenodd" clip-rule="evenodd" d="M18 7V4C18 2.90002 17.1 2 16 2H8C6.90002 2 6 2.90002 6 4V7H5V9V13L8 19V22H16V19L19 13V9V7H18ZM8 4H16V7H13.99V5H12.99V7H11V5H10V7H8V4ZM14 18.53L17 12.53V9H7V12.53L10 18.53V20H14V18.53Z" fill="currentColor" fill-opacity="0.54"/>
</g>
</g>
</svg>
