<svg width="1em" height="1em" viewBox="0 0 24 24" fill="none" xmlns="http://www.w3.org/2000/svg">
<g id="settings_input_svideo_24px">
<g id="&#226;&#134;&#179; Light Color">
<path id="Mask" opacity="0.5" fill-rule="evenodd" clip-rule="evenodd" d="M3 12C3 7.03998 7.03998 3 12 3C16.96 3 21 7.03998 21 12C21 16.96 16.96 21 12 21C7.03998 21 3 16.96 3 12ZM6.5 10C5.66998 10 5 10.67 5 11.5C5 12.33 5.66998 13 6.5 13C7.33002 13 8 12.33 8 11.5C8 10.67 7.33002 10 6.5 10ZM8.5 18C7.66998 18 7 17.33 7 16.5C7 15.67 7.66998 15 8.5 15C9.33002 15 10 15.67 10 16.5C10 17.33 9.33002 18 8.5 18ZM9 6.5C9 7.33002 9.66998 8 10.5 8H13.5C14.33 8 15 7.33002 15 6.5C15 5.66998 14.33 5 13.5 5H10.5C9.66998 5 9 5.66998 9 6.5ZM15.5 18C14.67 18 14 17.33 14 16.5C14 15.67 14.67 15 15.5 15C16.33 15 17 15.67 17 16.5C17 17.33 16.33 18 15.5 18ZM16 11.5C16 12.33 16.67 13 17.5 13C18.33 13 19 12.33 19 11.5C19 10.67 18.33 10 17.5 10C16.67 10 16 10.67 16 11.5Z" fill="currentColor" fill-opacity="0.54"/>
</g>
<g id="&#226;&#134;&#179; Dark Color">
<path id="Mask_2" d="M15 6.5C15 5.67 14.33 5 13.5 5H10.5C9.67 5 9 5.67 9 6.5C9 7.33 9.67 8 10.5 8H13.5C14.33 8 15 7.33 15 6.5Z" fill="currentColor" fill-opacity="0.54"/>
</g>
<g id="&#226;&#134;&#179; Dark Color_2">
<path id="Mask_3" d="M15.5 18C16.3284 18 17 17.3284 17 16.5C17 15.6716 16.3284 15 15.5 15C14.6716 15 14 15.6716 14 16.5C14 17.3284 14.6716 18 15.5 18Z" fill="currentColor" fill-opacity="0.54"/>
</g>
<g id="&#226;&#134;&#179; Dark Color_3">
<path id="Mask_4" d="M17.5 13C18.3284 13 19 12.3284 19 11.5C19 10.6716 18.3284 10 17.5 10C16.6716 10 16 10.6716 16 11.5C16 12.3284 16.6716 13 17.5 13Z" fill="currentColor" fill-opacity="0.54"/>
</g>
<g id="&#226;&#134;&#179; Dark Color_4">
<path id="Mask_5" fill-rule="evenodd" clip-rule="evenodd" d="M1 12C1 5.92999 5.92999 1 12 1C18.07 1 23 5.92999 23 12C23 18.07 18.07 23 12 23C5.92999 23 1 18.07 1 12ZM3 12C3 16.96 7.03998 21 12 21C16.96 21 21 16.96 21 12C21 7.03998 16.96 3 12 3C7.03998 3 3 7.03998 3 12Z" fill="currentColor" fill-opacity="0.54"/>
</g>
<g id="&#226;&#134;&#179; Dark Color_5">
<path id="Mask_6" d="M6.5 13C7.32843 13 8 12.3284 8 11.5C8 10.6716 7.32843 10 6.5 10C5.67157 10 5 10.6716 5 11.5C5 12.3284 5.67157 13 6.5 13Z" fill="currentColor" fill-opacity="0.54"/>
</g>
<g id="&#226;&#134;&#179; Dark Color_6">
<path id="Mask_7" d="M8.5 18C9.32843 18 10 17.3284 10 16.5C10 15.6716 9.32843 15 8.5 15C7.67157 15 7 15.6716 7 16.5C7 17.3284 7.67157 18 8.5 18Z" fill="currentColor" fill-opacity="0.54"/>
</g>
</g>
</svg>
