<svg width="1em" height="1em" viewBox="0 0 24 24" fill="none" xmlns="http://www.w3.org/2000/svg">
<g id="settings_overscan_24px">
<g id="&#226;&#134;&#179; Light Color">
<path id="Mask" opacity="0.5" fill-rule="evenodd" clip-rule="evenodd" d="M3 19.01H21V4.98999H3V19.01ZM18 10L20.5 12.01L18 14V10ZM14 8L12.01 5.5L10 8H14ZM14 16L12.01 18.5L10 16H14ZM6 14V10L3.5 12.01L6 14Z" fill="currentColor" fill-opacity="0.54"/>
</g>
<g id="&#226;&#134;&#179; Dark Color">
<path id="Mask_2" d="M14 16H10L12.01 18.5L14 16Z" fill="currentColor" fill-opacity="0.54"/>
</g>
<g id="&#226;&#134;&#179; Dark Color_2">
<path id="Mask_3" d="M18 10V14L20.5 12.01L18 10Z" fill="currentColor" fill-opacity="0.54"/>
</g>
<g id="&#226;&#134;&#179; Dark Color_3">
<path id="Mask_4" fill-rule="evenodd" clip-rule="evenodd" d="M3 3H21C22.1 3 23 3.90002 23 5V19C23 20.1 22.1 21 21 21H3C1.90002 21 1 20.1 1 19V5C1 3.90002 1.90002 3 3 3ZM3 19.01H21V4.98999H3V19.01Z" fill="currentColor" fill-opacity="0.54"/>
</g>
<g id="&#226;&#134;&#179; Dark Color_4">
<path id="Mask_5" d="M6 10L3.5 12.01L6 14V10Z" fill="currentColor" fill-opacity="0.54"/>
</g>
<g id="&#226;&#134;&#179; Dark Color_5">
<path id="Mask_6" d="M12.01 5.5L10 8H14L12.01 5.5Z" fill="currentColor" fill-opacity="0.54"/>
</g>
</g>
</svg>
