<svg width="1em" height="1em" viewBox="0 0 24 24" fill="none" xmlns="http://www.w3.org/2000/svg">
<g id="settings_applications_24px">
<g id="&#226;&#134;&#179; Light Color">
<path id="Mask" opacity="0.5" fill-rule="evenodd" clip-rule="evenodd" d="M19 19H5V5H19V19ZM7.53998 11.42C7.51996 11.61 7.5 11.8 7.5 12C7.5 12.2 7.51996 12.39 7.54999 12.59L6.27997 13.58C6.16998 13.68 6.13 13.84 6.20996 13.97L7.40997 16.04C7.48999 16.17 7.63995 16.22 7.77997 16.17L9.26996 15.57C9.57996 15.81 9.90997 16.01 10.28 16.16L10.5 17.75C10.53 17.89 10.65 18 10.8 18H13.2C13.35 18 13.47 17.89 13.5 17.74L13.72 16.15C14.08 16 14.42 15.8 14.73 15.56L16.22 16.16C16.36 16.21 16.5099 16.16 16.59 16.03L17.79 13.96C17.87 13.83 17.83 13.66 17.72 13.57L16.45 12.58C16.47 12.39 16.49 12.2 16.49 12C16.49 11.8 16.48 11.61 16.45 11.41L17.72 10.42C17.83 10.32 17.87 10.16 17.79 10.03L16.59 7.96002C16.5099 7.83002 16.36 7.78003 16.22 7.83002L14.73 8.42999C14.42 8.19 14.09 7.98999 13.72 7.84003L13.5 6.25C13.47 6.10999 13.35 6 13.2 6H10.8C10.65 6 10.53 6.10999 10.5 6.25L10.28 7.84003C9.91998 8 9.56995 8.19 9.25995 8.44L7.76996 7.84003C7.63 7.78998 7.47998 7.84003 7.39996 7.96997L6.19995 10.04C6.12 10.17 6.15997 10.34 6.26996 10.43L7.53998 11.42Z" fill="currentColor" fill-opacity="0.54"/>
</g>
<g id="&#226;&#134;&#179; Dark Color">
<path id="Mask_2" fill-rule="evenodd" clip-rule="evenodd" d="M7.40997 16.04L6.21001 13.97C6.13 13.84 6.15997 13.68 6.27001 13.58L7.53997 12.59L7.5371 12.5612C7.51812 12.3717 7.49999 12.1904 7.49999 12C7.49999 11.8 7.52001 11.61 7.54998 11.41L6.27996 10.42C6.16997 10.32 6.13 10.16 6.21001 10.03L7.40997 7.96002C7.48998 7.83002 7.64001 7.78003 7.77996 7.83002L9.27001 8.42999C9.57 8.19 9.91998 8 10.28 7.84998L10.5 6.26001C10.53 6.10999 10.65 6 10.8 6H13.2C13.35 6 13.47 6.10999 13.5 6.25L13.72 7.84003C14.09 7.98999 14.42 8.19 14.73 8.42999L16.22 7.83002C16.36 7.78003 16.51 7.83002 16.59 7.96002L17.79 10.03C17.87 10.16 17.83 10.33 17.72 10.42L16.45 11.41L16.4529 11.4388C16.4719 11.6283 16.49 11.8096 16.49 12C16.49 12.19 16.48 12.39 16.45 12.58L17.72 13.57C17.83 13.67 17.87 13.83 17.79 13.96L16.59 16.03C16.51 16.16 16.36 16.21 16.22 16.16L14.73 15.56C14.42 15.8 14.08 16 13.72 16.15L13.5 17.74C13.47 17.89 13.35 18 13.2 18H10.8C10.65 18 10.53 17.89 10.5 17.75L10.28 16.16C9.90997 16.01 9.58001 15.81 9.27001 15.57L7.77996 16.17C7.64001 16.22 7.48998 16.17 7.40997 16.04ZM13.71 12C13.71 11.06 12.94 10.29 12 10.29C11.06 10.29 10.29 11.06 10.29 12C10.29 12.94 11.06 13.71 12 13.71C12.94 13.71 13.71 12.94 13.71 12Z" fill="currentColor" fill-opacity="0.54"/>
</g>
<g id="&#226;&#134;&#179; Dark Color_2">
<path id="Mask_3" fill-rule="evenodd" clip-rule="evenodd" d="M5 3H19C20.11 3 21 3.90002 21 5V19C21 20.1 20.11 21 19 21H5C3.89001 21 3 20.1 3 19V5C3 3.90002 3.89001 3 5 3ZM5 19H19V5H5V19Z" fill="currentColor" fill-opacity="0.54"/>
</g>
</g>
</svg>
