<svg width="1em" height="1em" viewBox="0 0 24 24" fill="none" xmlns="http://www.w3.org/2000/svg">
<g id="settings_brightness_24px">
<g id="&#226;&#134;&#179; Light Color">
<path id="Mask" opacity="0.5" fill-rule="evenodd" clip-rule="evenodd" d="M21 4.98999V19.01H3V4.98999H21ZM8 8V10.5L6.5 12L8 13.5V16H10.5L12 17.5L13.5 16H16V13.5L17.5 12L16 10.5V8H13.5L12 6.5L10.5 8H8Z" fill="currentColor" fill-opacity="0.54"/>
</g>
<g id="&#226;&#134;&#179; Dark Color">
<path id="Mask_2" fill-rule="evenodd" clip-rule="evenodd" d="M10.5 16H8V13.5L6.5 12L8 10.5V8H10.5L12 6.5L13.5 8H16V10.5L17.5 12L16 13.5V16H13.5L12 17.5L10.5 16ZM15 12C15 10.34 13.66 9 12 9V15C13.66 15 15 13.66 15 12Z" fill="currentColor" fill-opacity="0.54"/>
</g>
<g id="&#226;&#134;&#179; Dark Color_2">
<path id="Mask_3" fill-rule="evenodd" clip-rule="evenodd" d="M3 3H21C22.1 3 23 3.90002 23 5V19C23 20.1 22.1 21 21 21H3C1.90002 21 1 20.1 1 19V5C1 3.90002 1.90002 3 3 3ZM3 19.01H21V4.98999H3V19.01Z" fill="currentColor" fill-opacity="0.54"/>
</g>
</g>
</svg>
