<svg width="1em" height="1em" viewBox="0 0 24 24" fill="none" xmlns="http://www.w3.org/2000/svg">
<g id="settings_input_antenna_24px">
<g id="&#226;&#134;&#179; Dark Color">
<path id="Mask" fill-rule="evenodd" clip-rule="evenodd" d="M1 12C1 5.92999 5.92999 1 12 1C18.07 1 23 5.92999 23 12H21C21 7.03003 16.97 3 12 3C7.03003 3 3 7.03003 3 12H1ZM12 5C8.13 5 5 8.13 5 12H7C7 9.23999 9.23999 7 12 7C14.76 7 17 9.23999 17 12H19C19 8.13 15.87 5 12 5ZM13 14.29C13.88 13.9 14.5 13.03 14.5 12C14.5 10.62 13.38 9.5 12 9.5C10.6201 9.5 9.5 10.62 9.5 12C9.5 13.02 10.1201 13.9 11 14.29V17.59L7.59003 21L9 22.41L12 19.41L15 22.41L16.41 21L13 17.59V14.29Z" fill="currentColor" fill-opacity="0.54"/>
</g>
</g>
</svg>
