<svg width="1em" height="1em" viewBox="0 0 24 24" fill="none" xmlns="http://www.w3.org/2000/svg">
<g id="settings_backup_restore_24px">
<g id="&#226;&#134;&#179; Dark Color">
<path id="Mask" fill-rule="evenodd" clip-rule="evenodd" d="M3 12C3 7.03003 7.03003 3 12 3C16.97 3 21 7.03003 21 12C21 16.97 16.97 21 12 21C9.93994 21 8.04004 20.3 6.52002 19.14L7.93994 17.7C9.08997 18.51 10.49 19 12 19C15.87 19 19 15.87 19 12C19 8.13 15.87 5 12 5C8.13 5 5 8.13 5 12H8L4 16L0 12H3ZM12 10C13.1 10 14 10.9 14 12C14 13.1 13.1 14 12 14C10.9 14 10 13.1 10 12C10 10.9 10.9 10 12 10Z" fill="currentColor" fill-opacity="0.54"/>
</g>
</g>
</svg>
