<svg width="1em" height="1em" viewBox="0 0 24 24" fill="none" xmlns="http://www.w3.org/2000/svg">
<g id="settings_voice_24px">
<g id="&#226;&#134;&#179; Light Color">
<path id="Mask" opacity="0.5" d="M12 11C12.56 11 12.99 10.56 12.99 10L13 4C13 3.45 12.55 3 12 3C11.45 3 11 3.45 11 4V10C11 10.55 11.45 11 12 11Z" fill="currentColor" fill-opacity="0.54"/>
</g>
<g id="&#226;&#134;&#179; Dark Color">
<path id="Mask_2" d="M7 22H9V24H7V22Z" fill="currentColor" fill-opacity="0.54"/>
</g>
<g id="&#226;&#134;&#179; Dark Color_2">
<path id="Mask_3" fill-rule="evenodd" clip-rule="evenodd" d="M14.99 10C14.99 11.66 13.66 13 12 13C10.34 13 9 11.66 9 10V4C9 2.34003 10.34 1 12 1C13.66 1 15 2.34003 15 4L14.99 10ZM12 3C11.45 3 11 3.45001 11 4V10C11 10.55 11.45 11 12 11C12.56 11 13 10.56 13 10V4C13 3.45001 12.55 3 12 3Z" fill="currentColor" fill-opacity="0.54"/>
</g>
<g id="&#226;&#134;&#179; Dark Color_3">
<path id="Mask_4" d="M11 22H13V24H11V22Z" fill="currentColor" fill-opacity="0.54"/>
</g>
<g id="&#226;&#134;&#179; Dark Color_4">
<path id="Mask_5" d="M15 22H17V24H15V22Z" fill="currentColor" fill-opacity="0.54"/>
</g>
<g id="&#226;&#134;&#179; Dark Color_5">
<path id="Mask_6" d="M19 10H17.3C17.3 13 14.76 15.1 12 15.1C9.24 15.1 6.7 13 6.7 10H5C5 13.41 7.72 16.23 11 16.72V20H13V16.72C16.28 16.23 19 13.41 19 10Z" fill="currentColor" fill-opacity="0.54"/>
</g>
</g>
</svg>
