<svg width="1em" height="1em" viewBox="0 0 24 24" fill="none" xmlns="http://www.w3.org/2000/svg">
<g id="settings_input_composite_24px">
<g id="&#226;&#134;&#179; Light Color">
<path id="Mask" opacity="0.5" d="M3 16C3 16.55 3.45 17 4 17C4.55 17 5 16.55 5 16V14H3V16Z" fill="currentColor" fill-opacity="0.54"/>
</g>
<g id="&#226;&#134;&#179; Light Color_2">
<path id="Mask_2" opacity="0.5" d="M11 16C11 16.55 11.45 17 12 17C12.55 17 13 16.55 13 16V14H11V16Z" fill="currentColor" fill-opacity="0.54"/>
</g>
<g id="&#226;&#134;&#179; Light Color_3">
<path id="Mask_3" opacity="0.5" d="M19 16C19 16.55 19.45 17 20 17C20.55 17 21 16.55 21 16V14H19V16Z" fill="currentColor" fill-opacity="0.54"/>
</g>
<g id="&#226;&#134;&#179; Dark Color">
<path id="Mask_4" fill-rule="evenodd" clip-rule="evenodd" d="M5 2C5 1.45001 4.54999 1 4 1C3.45001 1 3 1.45001 3 2V6H1V12V14V16C1 17.3 1.84003 18.4 3 18.82V23H5V18.82C6.15997 18.4 7 17.3 7 16V14V12V6H5V2ZM5 16C5 16.55 4.54999 17 4 17C3.45001 17 3 16.55 3 16V14H5V16ZM3 12H5V8H3V12Z" fill="currentColor" fill-opacity="0.54"/>
</g>
<g id="&#226;&#134;&#179; Dark Color_2">
<path id="Mask_5" fill-rule="evenodd" clip-rule="evenodd" d="M13 2C13 1.45001 12.55 1 12 1C11.45 1 11 1.45001 11 2V6H9V12V14V16C9 17.3 9.84003 18.4 11 18.82V23H13V18.82C14.16 18.4 15 17.3 15 16V14V12V6H13V2ZM13 16C13 16.55 12.55 17 12 17C11.45 17 11 16.55 11 16V14H13V16ZM11 12H13V8H11V12Z" fill="currentColor" fill-opacity="0.54"/>
</g>
<g id="&#226;&#134;&#179; Dark Color_3">
<path id="Mask_6" fill-rule="evenodd" clip-rule="evenodd" d="M21 6V2C21 1.45001 20.55 1 20 1C19.45 1 19 1.45001 19 2V6H17V12V14V16C17 17.3 17.84 18.4 19 18.82V23H21V18.82C22.16 18.4 23 17.3 23 16V14V12V6H21ZM21 16C21 16.55 20.55 17 20 17C19.45 17 19 16.55 19 16V14H21V16ZM19 12H21V8H19V12Z" fill="currentColor" fill-opacity="0.54"/>
</g>
</g>
</svg>
