<svg width="1em" height="1em" viewBox="0 0 24 24" fill="none" xmlns="http://www.w3.org/2000/svg">
<g id="shop_two_24px">
<g id="&#226;&#134;&#179; Light Color">
<path id="Mask" opacity="0.5" fill-rule="evenodd" clip-rule="evenodd" d="M7 16V7H21V16H7ZM12 8V15L17.5 11L12 8Z" fill="currentColor" fill-opacity="0.54"/>
</g>
<g id="&#226;&#134;&#179; Dark Color">
<path id="Mask_2" d="M3 9H1V20C1 21.11 1.89 22 3 22H17C18.11 22 19 21.11 19 20H3V9Z" fill="currentColor" fill-opacity="0.54"/>
</g>
<g id="&#226;&#134;&#179; Dark Color_2">
<path id="Mask_3" fill-rule="evenodd" clip-rule="evenodd" d="M18 5V3C18 1.89001 17.11 1 16 1H12C10.89 1 10 1.89001 10 3V5H5V16C5 17.11 5.89001 18 7 18H21C22.11 18 23 17.11 23 16V5H18ZM12 3H16V5H12V3ZM7 16H21V7H7V16Z" fill="currentColor" fill-opacity="0.54"/>
</g>
<g id="&#226;&#134;&#179; Dark Color_3">
<path id="Mask_4" d="M12 15L17.5 11L12 8V15Z" fill="currentColor" fill-opacity="0.54"/>
</g>
</g>
</svg>
