<svg width="1em" height="1em" viewBox="0 0 24 24" fill="none" xmlns="http://www.w3.org/2000/svg">
<g id="shop_24px">
<g id="&#226;&#134;&#179; Light Color">
<path id="Mask" opacity="0.5" fill-rule="evenodd" clip-rule="evenodd" d="M20 19H4V8H20V19ZM16.5 13L9 9V18L16.5 13Z" fill="currentColor" fill-opacity="0.54"/>
</g>
<g id="&#226;&#134;&#179; Dark Color">
<path id="Mask_2" fill-rule="evenodd" clip-rule="evenodd" d="M16 6V4C16 2.89001 15.11 2 14 2H10C8.89001 2 8 2.89001 8 4V6H2V19C2 20.11 2.89001 21 4 21H20C21.11 21 22 20.11 22 19V6H16ZM10 4H14V6H10V4ZM4 19H20V8H4V19Z" fill="currentColor" fill-opacity="0.54"/>
</g>
<g id="&#226;&#134;&#179; Dark Color_2">
<path id="Mask_3" d="M9 9V18L16.5 13L9 9Z" fill="currentColor" fill-opacity="0.54"/>
</g>
</g>
</svg>
