<svg width="1em" height="1em" viewBox="0 0 24 24" fill="none" xmlns="http://www.w3.org/2000/svg">
<g id="shopping_basket_24px">
<g id="&#226;&#134;&#179; Light Color">
<path id="Mask" opacity="0.5" fill-rule="evenodd" clip-rule="evenodd" d="M5.51001 19.01L3.31 11H20.7L18.5 19L5.51001 19.01ZM10 15C10 16.1 10.9 17 12 17C13.1 17 14 16.1 14 15C14 13.9 13.1 13 12 13C10.9 13 10 13.9 10 15Z" fill="currentColor" fill-opacity="0.54"/>
</g>
<g id="&#226;&#134;&#179; Dark Color">
<path id="Mask_2" fill-rule="evenodd" clip-rule="evenodd" d="M22 9H17.21L12.83 2.44C12.64 2.16003 12.32 2.02002 12 2.02002C11.68 2.02002 11.36 2.16003 11.17 2.45001L6.78998 9H2C1.45001 9 1 9.45001 1 10C1 10.09 1.01001 10.18 1.03998 10.27L3.58002 19.54C3.81 20.38 4.58002 21 5.5 21H18.5C19.42 21 20.19 20.38 20.43 19.54L22.97 10.27L23 10C23 9.45001 22.55 9 22 9ZM12 4.80005L14.8 9.00006H9.20001L12 4.80005ZM5.51001 19.01L18.5 19L20.7 11H3.31L5.51001 19.01Z" fill="currentColor" fill-opacity="0.54"/>
</g>
<g id="&#226;&#134;&#179; Dark Color_2">
<path id="Mask_3" d="M12 13C10.9 13 10 13.9 10 15C10 16.1 10.9 17 12 17C13.1 17 14 16.1 14 15C14 13.9 13.1 13 12 13Z" fill="currentColor" fill-opacity="0.54"/>
</g>
</g>
</svg>
