<svg width="1em" height="1em" viewBox="0 0 24 24" fill="none" xmlns="http://www.w3.org/2000/svg">
<g id="shutter_speed_24px">
<g id="&#226;&#134;&#179; Light Color">
<path id="Mask" opacity="0.5" fill-rule="evenodd" clip-rule="evenodd" d="M12 6C8.13 6 5 9.13 5 13C5 16.87 8.13 20 12 20C15.87 20 19 16.87 19 13C19 9.13 15.87 6 12 6ZM12 7C12.4601 7 12.9 7.06 13.3301 7.14999L10.61 11.85L8.29004 8.29001C9.31006 7.48999 10.6001 7 12 7ZM7.55005 8.98999C6.58997 10.05 6 11.46 6 13C6 13.34 6.04004 13.67 6.08997 14H10.8101L7.55005 8.98999ZM6.34998 15H11.6799L9.65002 18.5L9.76001 18.56C8.16992 17.92 6.91992 16.62 6.34998 15ZM10.61 18.83C11.0599 18.94 11.52 19 12 19C13.34 19 14.5699 18.55 15.5699 17.81L13.46 13.91L10.61 18.83ZM18 13C18 14.6 17.37 16.06 16.34 17.13L13.5699 12H17.9099C17.96 12.33 18 12.66 18 13ZM14.3101 7.45999L12.26 11H17.65C17.08 9.39999 15.87 8.10999 14.3101 7.45999Z" fill="currentColor" fill-opacity="0.54"/>
</g>
<g id="&#226;&#134;&#179; Dark Color">
<path id="Mask_2" d="M7.55 8.98999C6.59 10.05 6 11.46 6 13C6 13.34 6.04 13.67 6.09 14H10.81L7.55 8.98999Z" fill="currentColor" fill-opacity="0.54"/>
</g>
<g id="&#226;&#134;&#179; Dark Color_2">
<path id="Mask_3" d="M14.31 7.45999L12.26 11H17.65C17.08 9.39999 15.87 8.10999 14.31 7.45999Z" fill="currentColor" fill-opacity="0.54"/>
</g>
<g id="&#226;&#134;&#179; Dark Color_3">
<path id="Mask_4" d="M13.33 7.15C12.9 7.06 12.46 7 12 7C10.6 7 9.31004 7.49 8.29004 8.29L10.61 11.85L13.33 7.15Z" fill="currentColor" fill-opacity="0.54"/>
</g>
<g id="&#226;&#134;&#179; Dark Color_4">
<path id="Mask_5" d="M11.68 15H6.34998C6.91998 16.62 8.16998 17.92 9.75998 18.56L9.64998 18.5L11.68 15Z" fill="currentColor" fill-opacity="0.54"/>
</g>
<g id="&#226;&#134;&#179; Dark Color_5">
<path id="Mask_6" fill-rule="evenodd" clip-rule="evenodd" d="M20.45 5.97L19.03 7.39001C20.26 8.92999 21 10.88 21 13C21 17.97 16.98 22 12 22C7.02002 22 3 17.97 3 13C3 8.03 7.03003 4 12 4C14.12 4 16.0699 4.73999 17.62 5.98001L19.04 4.56C19.55 4.98001 20.02 5.45999 20.45 5.97ZM5 13C5 16.87 8.13 20 12 20C15.87 20 19 16.87 19 13C19 9.13 15.87 6 12 6C8.13 6 5 9.13 5 13Z" fill="currentColor" fill-opacity="0.54"/>
</g>
<g id="&#226;&#134;&#179; Dark Color_6">
<path id="Mask_7" d="M9 1H15V3H9V1Z" fill="currentColor" fill-opacity="0.54"/>
</g>
<g id="&#226;&#134;&#179; Dark Color_7">
<path id="Mask_8" d="M16.3399 17.13C17.3699 16.06 17.9999 14.6 17.9999 13C17.9999 12.66 17.9599 12.33 17.9099 12H13.5699L16.3399 17.13Z" fill="currentColor" fill-opacity="0.54"/>
</g>
<g id="&#226;&#134;&#179; Dark Color_8">
<path id="Mask_9" d="M10.61 18.83C11.06 18.94 11.52 19 12 19C13.34 19 14.57 18.55 15.57 17.81L13.46 13.91L10.61 18.83Z" fill="currentColor" fill-opacity="0.54"/>
</g>
</g>
</svg>
