<svg width="1em" height="1em" viewBox="0 0 24 24" fill="none" xmlns="http://www.w3.org/2000/svg">
<g id="speaker_notes_24px">
<g id="&#226;&#134;&#179; Light Color">
<path id="Mask" opacity="0.5" fill-rule="evenodd" clip-rule="evenodd" d="M4 17.17L4.59003 16.58L5.16998 16H6H20V4H4V17.17ZM10 6H18V8H10V6ZM18 9H10V11H18V9ZM10 12H15V14H10V12ZM8 6H6V8H8V6ZM6 9H8V11H6V9ZM8 12H6V14H8V12Z" fill="currentColor" fill-opacity="0.54"/>
</g>
<g id="&#226;&#134;&#179; Dark Color">
<path id="Mask_2" fill-rule="evenodd" clip-rule="evenodd" d="M4 2H20C21.1 2 22 2.90002 22 4V16C22 17.1 21.1 18 20 18H6L2 22L2.01001 4C2.01001 2.90002 2.90002 2 4 2ZM6 16H20V4H4V17.17L4.58002 16.59L5.16998 16H6Z" fill="currentColor" fill-opacity="0.54"/>
</g>
<g id="&#226;&#134;&#179; Dark Color_2">
<path id="Mask_3" d="M6 12H8V14H6V12Z" fill="currentColor" fill-opacity="0.54"/>
</g>
<g id="&#226;&#134;&#179; Dark Color_3">
<path id="Mask_4" d="M6 9H8V11H6V9Z" fill="currentColor" fill-opacity="0.54"/>
</g>
<g id="&#226;&#134;&#179; Dark Color_4">
<path id="Mask_5" d="M6 6H8V8H6V6Z" fill="currentColor" fill-opacity="0.54"/>
</g>
<g id="&#226;&#134;&#179; Dark Color_5">
<path id="Mask_6" d="M10 12H15V14H10V12Z" fill="currentColor" fill-opacity="0.54"/>
</g>
<g id="&#226;&#134;&#179; Dark Color_6">
<path id="Mask_7" d="M10 9H18V11H10V9Z" fill="currentColor" fill-opacity="0.54"/>
</g>
<g id="&#226;&#134;&#179; Dark Color_7">
<path id="Mask_8" d="M10 6H18V8H10V6Z" fill="currentColor" fill-opacity="0.54"/>
</g>
</g>
</svg>
