<svg width="1em" height="1em" viewBox="0 0 24 24" fill="none" xmlns="http://www.w3.org/2000/svg">
<g id="speaker_notes_off_24px">
<g id="&#226;&#134;&#179; Light Color">
<path id="Mask" opacity="0.5" fill-rule="evenodd" clip-rule="evenodd" d="M6 9V11H8L13 16H5.17004L4 17.17V7L6 9ZM6 14H8V12H6V14Z" fill="currentColor" fill-opacity="0.54"/>
</g>
<g id="&#226;&#134;&#179; Light Color_2">
<path id="Mask_2" opacity="0.5" d="M20 4H6.66003L10 7.34V6H18V8H10.66L11.66 9H18V11H13.66L18.66 16H20V4Z" fill="currentColor" fill-opacity="0.54"/>
</g>
<g id="&#226;&#134;&#179; Dark Color">
<path id="Mask_3" d="M20 4V16H18.66L20.57 17.91C21.39 17.66 22 16.9 22 16V4C22 2.9 21.1 2 20 2H4.66003L6.66003 4H20Z" fill="currentColor" fill-opacity="0.54"/>
</g>
<g id="&#226;&#134;&#179; Dark Color_2">
<path id="Mask_4" d="M6 12H8V14H6V12Z" fill="currentColor" fill-opacity="0.54"/>
</g>
<g id="&#226;&#134;&#179; Dark Color_3">
<path id="Mask_5" d="M18 11V9H11.66L13.66 11H18Z" fill="currentColor" fill-opacity="0.54"/>
</g>
<g id="&#226;&#134;&#179; Dark Color_4">
<path id="Mask_6" d="M18 8V6H10V7.34L10.66 8H18Z" fill="currentColor" fill-opacity="0.54"/>
</g>
<g id="&#226;&#134;&#179; Dark Color_5">
<path id="Mask_7" fill-rule="evenodd" clip-rule="evenodd" d="M0 3L1.41003 1.59003L22.14 22.32L20.73 23.73L15 18H6L2 22V5.01001L0 3ZM4 17.17L5.17004 16H13L8 11H6V9L4 7V17.17Z" fill="currentColor" fill-opacity="0.54"/>
</g>
</g>
</svg>
