<svg width="1em" height="1em" viewBox="0 0 24 24" fill="none" xmlns="http://www.w3.org/2000/svg">
<g id="stars_24px">
<g id="&#226;&#134;&#179; Light Color">
<path id="Mask" opacity="0.5" d="M19.47 9.16002C18.37 6.29002 15.67 4.21002 12.46 4.02002L14.46 8.73002L19.47 9.16002Z" fill="currentColor" fill-opacity="0.54"/>
</g>
<g id="&#226;&#134;&#179; Light Color_2">
<path id="Mask_2" opacity="0.5" d="M11.54 4.02002C8.32002 4.20002 5.62002 6.29002 4.52002 9.17002L9.54002 8.74002L11.54 4.02002Z" fill="currentColor" fill-opacity="0.54"/>
</g>
<g id="&#226;&#134;&#179; Light Color_3">
<path id="Mask_3" opacity="0.5" d="M4.23 10.14C4.08 10.74 4 11.36 4 12C4 14.48 5.14 16.7 6.91 18.17L8.02 13.42L4.23 10.14Z" fill="currentColor" fill-opacity="0.54"/>
</g>
<g id="&#226;&#134;&#179; Light Color_4">
<path id="Mask_4" opacity="0.5" d="M19.77 10.13L15.98 13.41L17.08 18.17C18.86 16.7 20 14.48 20 12C20 11.36 19.91 10.73 19.77 10.13Z" fill="currentColor" fill-opacity="0.54"/>
</g>
<g id="&#226;&#134;&#179; Light Color_5">
<path id="Mask_5" opacity="0.5" d="M7.83997 18.82C9.04997 19.56 10.47 20 11.99 20C13.52 20 14.94 19.56 16.16 18.82L12 16.31L7.83997 18.82Z" fill="currentColor" fill-opacity="0.54"/>
</g>
<g id="&#226;&#134;&#179; Dark Color">
<path id="Mask_6" fill-rule="evenodd" clip-rule="evenodd" d="M11.99 2C6.46997 2 2 6.47998 2 12C2 17.52 6.46997 22 11.99 22C17.52 22 22 17.52 22 12C22 6.47998 17.52 2 11.99 2ZM19.47 9.16003L14.46 8.73004L12.46 4.02002C15.6699 4.21002 18.37 6.29004 19.47 9.16003ZM13.09 10.62L12 8.06L10.91 10.63L8.13 10.87L10.24 12.7L9.60999 15.42L12 13.98L14.39 15.42L13.76 12.69L15.87 10.86L13.09 10.62ZM11.54 4.02002L9.54004 8.73999L4.52002 9.17004C5.62 6.29004 8.32007 4.20001 11.54 4.02002ZM4.22998 10.14C4.07996 10.74 4 11.36 4 12C4 14.48 5.14001 16.7 6.91003 18.17L8.02002 13.42L4.22998 10.14ZM11.99 20C10.47 20 9.04993 19.56 7.83997 18.82L12 16.31L16.1599 18.82C14.9399 19.56 13.52 20 11.99 20ZM15.99 13.41L17.09 18.17C18.86 16.7 20 14.48 20 12C20 11.36 19.91 10.73 19.78 10.13L15.99 13.41Z" fill="currentColor" fill-opacity="0.54"/>
</g>
</g>
</svg>
