<svg width="1em" height="1em" viewBox="0 0 24 24" fill="none" xmlns="http://www.w3.org/2000/svg">
<g id="star_24px">
<g id="&#226;&#134;&#179; Light Color">
<path id="Mask" opacity="0.5" d="M11.9999 15.4L8.23992 17.67L9.23992 13.39L5.91992 10.51L10.2999 10.13L11.9999 6.09998L13.7099 10.14L18.0899 10.52L14.7699 13.4L15.7699 17.68L11.9999 15.4Z" fill="currentColor" fill-opacity="0.54"/>
</g>
<g id="&#226;&#134;&#179; Dark Color">
<path id="Mask_2" fill-rule="evenodd" clip-rule="evenodd" d="M14.8101 8.62L22 9.23999L16.55 13.97L18.1799 21L12 17.27L5.82007 21L7.45996 13.97L2 9.23999L9.18994 8.63L12 2L14.8101 8.62ZM8.23999 17.6699L12 15.4L15.77 17.6799L14.77 13.4L18.0898 10.52L13.71 10.14L12 6.09998L10.2998 10.13L5.91992 10.51L9.23999 13.39L8.23999 17.6699Z" fill="currentColor" fill-opacity="0.54"/>
</g>
</g>
</svg>
