<svg width="1em" height="1em" viewBox="0 0 24 24" fill="none" xmlns="http://www.w3.org/2000/svg">
<g id="straighten_24px">
<g id="&#226;&#134;&#179; Light Color">
<path id="Mask" opacity="0.5" d="M19 12H17V8H15V12H13V8H11V12H9V8H7V12H5V8H3V16H21V8H19V12Z" fill="currentColor" fill-opacity="0.54"/>
</g>
<g id="&#226;&#134;&#179; Dark Color">
<path id="Mask_2" fill-rule="evenodd" clip-rule="evenodd" d="M3 6H21C22.1 6 23 6.89999 23 8V16C23 17.1 22.1 18 21 18H3C1.90002 18 1 17.1 1 16V8C1 6.89999 1.90002 6 3 6ZM3 16H21V8H19V12H17V8H15V12H13V8H11V12H9V8H7V12H5V8H3V16Z" fill="currentColor" fill-opacity="0.54"/>
</g>
</g>
</svg>
