<svg width="1em" height="1em" viewBox="0 0 24 24" fill="none" xmlns="http://www.w3.org/2000/svg">
<g id="style_24px">
<g id="&#226;&#134;&#179; Light Color">
<path id="Mask" opacity="0.5" fill-rule="evenodd" clip-rule="evenodd" d="M7.87 7.79001L15.22 4.75L20.1801 16.7L12.83 19.75L7.87 7.79001ZM10 9C10 9.54999 10.45 10 11 10C11.55 10 12 9.54999 12 9C12 8.45001 11.55 8 11 8C10.45 8 10 8.45001 10 9Z" fill="currentColor" fill-opacity="0.54"/>
</g>
<g id="&#226;&#134;&#179; Dark Color">
<path id="Mask_2" d="M3.86998 11.18L1.43998 17.04C1.02998 18.06 1.51998 19.23 2.52998 19.65L3.86998 20.21V11.18Z" fill="currentColor" fill-opacity="0.54"/>
</g>
<g id="&#226;&#134;&#179; Dark Color_2">
<path id="Mask_3" fill-rule="evenodd" clip-rule="evenodd" d="M17.0701 3.98001L22.0301 15.95C22.4501 16.96 21.9601 18.13 20.9401 18.55L13.5801 21.6C13.3301 21.7 13.0701 21.75 12.8101 21.75C12.0301 21.74 11.2901 21.28 10.98 20.52L6.02005 8.54999C5.91006 8.29001 5.86002 8.01999 5.87003 7.75C5.89005 6.98001 6.35001 6.26001 7.10001 5.95001L14.47 2.89999C14.73 2.79001 15 2.75 15.26 2.75C16.0301 2.76999 16.76 3.23001 17.0701 3.98001ZM7.87003 7.79001L12.83 19.75L20.1801 16.7L15.23 4.75H15.22L7.87003 7.79001Z" fill="currentColor" fill-opacity="0.54"/>
</g>
<g id="&#226;&#134;&#179; Dark Color_3">
<path id="Mask_4" d="M11 10C11.5523 10 12 9.55228 12 9C12 8.44772 11.5523 8 11 8C10.4477 8 10 8.44772 10 9C10 9.55228 10.4477 10 11 10Z" fill="currentColor" fill-opacity="0.54"/>
</g>
<g id="&#226;&#134;&#179; Dark Color_4">
<path id="Mask_5" d="M9.33 21.75L5.88 13.41V19.75C5.88 20.85 6.78 21.75 7.88 21.75H9.33Z" fill="currentColor" fill-opacity="0.54"/>
</g>
</g>
</svg>
