<svg width="1em" height="1em" viewBox="0 0 24 24" fill="none" xmlns="http://www.w3.org/2000/svg">
<g id="supervised_user_circle_24px">
<g id="&#226;&#134;&#179; Light Color">
<path id="Mask" opacity="0.5" d="M9.5 11C10.0523 11 10.5 10.5523 10.5 10C10.5 9.44772 10.0523 9 9.5 9C8.94772 9 8.5 9.44772 8.5 10C8.5 10.5523 8.94772 11 9.5 11Z" fill="currentColor" fill-opacity="0.54"/>
</g>
<g id="&#226;&#134;&#179; Light Color_2">
<path id="Mask_2" opacity="0.5" fill-rule="evenodd" clip-rule="evenodd" d="M11.5 17.21C11.5 15.33 14.48 14.51 16 14.51C16.88 14.51 18.24 14.78 19.24 15.38C19.72 14.36 19.99 13.22 19.99 12.01C19.99 7.60004 16.4 4.01001 11.99 4.01001C7.58002 4.01001 3.98999 7.60004 3.98999 12.01C3.98999 13.24 4.27997 14.4 4.77002 15.44C6.10999 14.46 8.20001 14.01 9.5 14.01C9.94 14.01 10.47 14.06 11.03 14.17C10.4 14.74 9.96997 15.39 9.72998 16.03C9.68994 16.03 9.65247 16.0275 9.61499 16.025C9.57751 16.0225 9.54004 16.02 9.5 16.02C8.12 16.02 6.52002 16.59 5.83997 17.13C7.20996 18.78 9.22998 19.86 11.5 19.99V17.21ZM15.9999 9C17.11 9 17.9999 9.89001 17.9999 11C17.9999 12.11 17.11 13 15.9999 13C14.89 13 13.9999 12.11 13.9999 11C13.99 9.89001 14.89 9 15.9999 9ZM6.5 10C6.5 11.65 7.84998 13 9.5 13C11.15 13 12.5 11.65 12.5 10C12.5 8.34998 11.15 7 9.5 7C7.84998 7 6.5 8.34998 6.5 10Z" fill="currentColor" fill-opacity="0.54"/>
</g>
<g id="&#226;&#134;&#179; Dark Color">
<path id="Mask_3" fill-rule="evenodd" clip-rule="evenodd" d="M9.5 7C11.15 7 12.5 8.34998 12.5 10C12.5 11.65 11.15 13 9.5 13C7.84998 13 6.5 11.65 6.5 10C6.5 8.34998 7.84998 7 9.5 7ZM8.5 10C8.5 10.55 8.95001 11 9.5 11C10.05 11 10.5 10.55 10.5 10C10.5 9.45001 10.05 9 9.5 9C8.95001 9 8.5 9.45001 8.5 10Z" fill="currentColor" fill-opacity="0.54"/>
</g>
<g id="&#226;&#134;&#179; Dark Color_2">
<path id="Mask_4" d="M16 13C17.11 13 18 12.11 18 11C18 9.89 17.11 9 16 9C14.89 9 13.99 9.89 14 11C14 12.11 14.89 13 16 13Z" fill="currentColor" fill-opacity="0.54"/>
</g>
<g id="&#226;&#134;&#179; Dark Color_3">
<path id="Mask_5" fill-rule="evenodd" clip-rule="evenodd" d="M1.98999 12.01C1.98999 6.48999 6.46997 2.01001 11.99 2.01001C17.51 2.01001 21.99 6.48999 21.99 12.01C21.99 17.53 17.51 22.01 11.99 22.01C6.46997 22.01 1.98999 17.53 1.98999 12.01ZM9.5 16.01C8.10999 16.01 6.52002 16.58 5.83997 17.12C7.20996 18.77 9.22998 19.85 11.5 19.98V17.2C11.5 15.31 14.48 14.5 16 14.5C16.88 14.5 18.24 14.78 19.24 15.37C19.72 14.34 19.99 13.2 19.99 12C19.99 7.59003 16.4 4 11.99 4C7.58002 4 3.98999 7.59003 3.98999 12C3.98999 13.23 4.27002 14.39 4.77002 15.43C6.10999 14.45 8.20001 14 9.5 14C9.94 14 10.47 14.06 11.03 14.16C10.4 14.73 9.96997 15.38 9.72998 16.02C9.68866 16.02 9.64728 16.0173 9.60736 16.0148C9.57001 16.0123 9.53381 16.01 9.5 16.01Z" fill="currentColor" fill-opacity="0.54"/>
</g>
</g>
</svg>
