<svg width="1em" height="1em" viewBox="0 0 24 24" fill="none" xmlns="http://www.w3.org/2000/svg">
<g id="swap_horizontal_circle_24px">
<g id="&#226;&#134;&#179; Light Color">
<path id="Mask" opacity="0.5" fill-rule="evenodd" clip-rule="evenodd" d="M12 4C7.59003 4 4 7.59003 4 12C4 16.41 7.59003 20 12 20C16.41 20 20 16.41 20 12C20 7.59003 16.41 4 12 4ZM9 10.5V13H13V15H9V17.5L5.5 14L9 10.5ZM15 11V13.5L18.5 10L15 6.5V9H11V11H15Z" fill="currentColor" fill-opacity="0.54"/>
</g>
<g id="&#226;&#134;&#179; Dark Color">
<path id="Mask_2" fill-rule="evenodd" clip-rule="evenodd" d="M2 12C2 6.47998 6.47998 2 12 2C17.52 2 22 6.47998 22 12C22 17.52 17.52 22 12 22C6.47998 22 2 17.52 2 12ZM4 12C4 16.41 7.59003 20 12 20C16.41 20 20 16.41 20 12C20 7.59003 16.41 4 12 4C7.59003 4 4 7.59003 4 12Z" fill="currentColor" fill-opacity="0.54"/>
</g>
<g id="&#226;&#134;&#179; Dark Color_2">
<path id="Mask_3" d="M15 6.5V9H11V11H15V13.5L18.5 10L15 6.5Z" fill="currentColor" fill-opacity="0.54"/>
</g>
<g id="&#226;&#134;&#179; Dark Color_3">
<path id="Mask_4" d="M9 10.5L5.5 14L9 17.5V15H13V13H9V10.5Z" fill="currentColor" fill-opacity="0.54"/>
</g>
</g>
</svg>
