<svg width="1em" height="1em" viewBox="0 0 24 24" fill="none" xmlns="http://www.w3.org/2000/svg">
<g id="swap_vertical_circle_24px">
<g id="&#226;&#134;&#179; Light Color">
<path id="Mask" opacity="0.5" fill-rule="evenodd" clip-rule="evenodd" d="M12 4C7.58997 4 4 7.59003 4 12C4 16.41 7.58997 20 12 20C16.41 20 20 16.41 20 12C20 7.59003 16.41 4 12 4ZM6.5 9L10 5.5L13.5 9H11V13H9V9H6.5ZM10.5 15L14 18.5L17.5 15H15V11H13V15H10.5Z" fill="currentColor" fill-opacity="0.54"/>
</g>
<g id="&#226;&#134;&#179; Dark Color">
<path id="Mask_2" fill-rule="evenodd" clip-rule="evenodd" d="M2 12C2 6.47998 6.47998 2 12 2C17.52 2 22 6.47998 22 12C22 17.52 17.52 22 12 22C6.47998 22 2 17.52 2 12ZM4 12C4 16.41 7.58997 20 12 20C16.41 20 20 16.41 20 12C20 7.59003 16.41 4 12 4C7.58997 4 4 7.59003 4 12Z" fill="currentColor" fill-opacity="0.54"/>
</g>
<g id="&#226;&#134;&#179; Dark Color_2">
<path id="Mask_3" d="M11 13V9H13.5L10 5.5L6.5 9H9V13H11Z" fill="currentColor" fill-opacity="0.54"/>
</g>
<g id="&#226;&#134;&#179; Dark Color_3">
<path id="Mask_4" d="M15 11H13V15H10.5L14 18.5L17.5 15H15V11Z" fill="currentColor" fill-opacity="0.54"/>
</g>
</g>
</svg>
