<svg width="1em" height="1em" viewBox="0 0 24 24" fill="none" xmlns="http://www.w3.org/2000/svg">
<g id="switch_video_24px">
<g id="&#226;&#134;&#179; Light Color">
<path id="Mask" opacity="0.5" fill-rule="evenodd" clip-rule="evenodd" d="M16 17H4V7H16V17ZM8 11V9L5 12L8 15V13H12V15L15 12L12 9V11H8Z" fill="currentColor" fill-opacity="0.54"/>
</g>
<g id="&#226;&#134;&#179; Dark Color">
<path id="Mask_2" d="M8 13H12V15L15 12L12 9V11H8V9L5 12L8 15V13Z" fill="currentColor" fill-opacity="0.54"/>
</g>
<g id="&#226;&#134;&#179; Dark Color_2">
<path id="Mask_3" fill-rule="evenodd" clip-rule="evenodd" d="M18 6V9.5L22 5.5V18.5L18 14.5V18C18 18.55 17.55 19 17 19H3C2.44995 19 2 18.55 2 18V6C2 5.45001 2.44995 5 3 5H17C17.55 5 18 5.45001 18 6ZM4 17H16V7H4V17Z" fill="currentColor" fill-opacity="0.54"/>
</g>
</g>
</svg>
