<svg width="1em" height="1em" viewBox="0 0 24 24" fill="none" xmlns="http://www.w3.org/2000/svg">
<g id="switch_camera_24px">
<g id="&#226;&#134;&#179; Light Color">
<path id="Mask" opacity="0.5" fill-rule="evenodd" clip-rule="evenodd" d="M9.88 4H14.12L15.95 6H20V18H4V6H8.05005L9.88 4ZM15 13V15.5L18.5 12L15 8.5V11H9V8.5L5.5 12L9 15.5V13H15Z" fill="currentColor" fill-opacity="0.54"/>
</g>
<g id="&#226;&#134;&#179; Dark Color">
<path id="Mask_2" fill-rule="evenodd" clip-rule="evenodd" d="M16.83 4H20C21.1 4 22 4.89999 22 6V18C22 19.1 21.1 20 20 20H4C2.90002 20 2 19.1 2 18V6C2 4.89999 2.90002 4 4 4H7.17004L9 2H15L16.83 4ZM4 18H20V6H15.95L14.12 4H9.88L8.05005 6H4V18Z" fill="currentColor" fill-opacity="0.54"/>
</g>
<g id="&#226;&#134;&#179; Dark Color_2">
<path id="Mask_3" d="M15 11H9V8.5L5.5 12L9 15.5V13H15V15.5L18.5 12L15 8.5V11Z" fill="currentColor" fill-opacity="0.54"/>
</g>
</g>
</svg>
