<svg width="1em" height="1em" viewBox="0 0 24 24" fill="none" xmlns="http://www.w3.org/2000/svg">
<g id="tag_faces_24px">
<g id="&#226;&#134;&#179; Light Color">
<path id="Mask" opacity="0.5" fill-rule="evenodd" clip-rule="evenodd" d="M4 12C4 7.58002 7.57996 4 12 4C16.42 4 20 7.58002 20 12C20 16.42 16.42 20 12 20C7.57996 20 4 16.42 4 12ZM17 9.5C17 8.66998 16.33 8 15.5 8C14.67 8 14 8.66998 14 9.5C14 10.33 14.67 11 15.5 11C16.33 11 17 10.33 17 9.5ZM8.5 8C9.32996 8 10 8.66998 10 9.5C10 10.33 9.32996 11 8.5 11C7.67004 11 7 10.33 7 9.5C7 8.66998 7.67004 8 8.5 8ZM6.89001 14C7.69006 16.04 9.67004 17.5 12 17.5C14.33 17.5 16.3101 16.04 17.11 14H6.89001Z" fill="currentColor" fill-opacity="0.54"/>
</g>
<g id="&#226;&#134;&#179; Dark Color">
<path id="Mask_2" d="M8.5 11C9.32843 11 10 10.3284 10 9.5C10 8.67157 9.32843 8 8.5 8C7.67157 8 7 8.67157 7 9.5C7 10.3284 7.67157 11 8.5 11Z" fill="currentColor" fill-opacity="0.54"/>
</g>
<g id="&#226;&#134;&#179; Dark Color_2">
<path id="Mask_3" d="M12 17.5C14.33 17.5 16.31 16.04 17.11 14H6.89001C7.69001 16.04 9.67001 17.5 12 17.5Z" fill="currentColor" fill-opacity="0.54"/>
</g>
<g id="&#226;&#134;&#179; Dark Color_3">
<path id="Mask_4" d="M15.5 11C16.3284 11 17 10.3284 17 9.5C17 8.67157 16.3284 8 15.5 8C14.6716 8 14 8.67157 14 9.5C14 10.3284 14.6716 11 15.5 11Z" fill="currentColor" fill-opacity="0.54"/>
</g>
<g id="&#226;&#134;&#179; Dark Color_4">
<path id="Mask_5" fill-rule="evenodd" clip-rule="evenodd" d="M2 12C2 6.47998 6.46997 2 11.99 2C17.52 2 22 6.47998 22 12C22 17.52 17.52 22 11.99 22C6.46997 22 2 17.52 2 12ZM4 12C4 16.42 7.57996 20 12 20C16.42 20 20 16.42 20 12C20 7.58002 16.42 4 12 4C7.57996 4 4 7.58002 4 12Z" fill="currentColor" fill-opacity="0.54"/>
</g>
</g>
</svg>
