<svg width="1em" height="1em" viewBox="0 0 24 24" fill="none" xmlns="http://www.w3.org/2000/svg">
<g id="texture_24px">
<g id="&#226;&#134;&#179; Dark Color">
<path id="Mask" d="M11.88 3L3 11.88V14.71L14.71 3H11.88Z" fill="currentColor" fill-opacity="0.54"/>
</g>
<g id="&#226;&#134;&#179; Dark Color_2">
<path id="Mask_2" d="M3 5V7L7 3H5C3.9 3 3 3.9 3 5Z" fill="currentColor" fill-opacity="0.54"/>
</g>
<g id="&#226;&#134;&#179; Dark Color_3">
<path id="Mask_3" d="M19.51 3.08002L3.07996 19.51C3.16996 19.85 3.34996 20.16 3.58996 20.41C3.83996 20.65 4.14996 20.83 4.48996 20.92L20.93 4.49002C20.74 3.80002 20.2 3.26002 19.51 3.08002Z" fill="currentColor" fill-opacity="0.54"/>
</g>
<g id="&#226;&#134;&#179; Dark Color_4">
<path id="Mask_4" d="M21 9.28998L9.29004 21H12.12L21 12.12V9.28998Z" fill="currentColor" fill-opacity="0.54"/>
</g>
<g id="&#226;&#134;&#179; Dark Color_5">
<path id="Mask_5" d="M20.41 20.41C20.78 20.05 21 19.55 21 19V17L17 21H19C19.55 21 20.05 20.78 20.41 20.41Z" fill="currentColor" fill-opacity="0.54"/>
</g>
</g>
</svg>
