<svg width="1em" height="1em" viewBox="0 0 24 24" fill="none" xmlns="http://www.w3.org/2000/svg">
<g id="theaters_24px">
<g id="&#226;&#134;&#179; Dark Color">
<path id="Mask" fill-rule="evenodd" clip-rule="evenodd" d="M18 5V3H20V21H18V19H16V21H8V19H6V21H4V3H6V5H8V3H16V5H18ZM6 17H8V15H6V17ZM8 13H6V11H8V13ZM6 9H8V7H6V9ZM14 19H10V5H14V19ZM16 17H18V15H16V17ZM18 13H16V11H18V13ZM16 9H18V7H16V9Z" fill="currentColor" fill-opacity="0.54"/>
</g>
<g id="&#226;&#134;&#179; Light Color">
<path id="Mask_2" opacity="0.5" d="M10 5H14V19H10V5Z" fill="currentColor" fill-opacity="0.54"/>
</g>
</g>
</svg>
