<svg width="1em" height="1em" viewBox="0 0 24 24" fill="none" xmlns="http://www.w3.org/2000/svg">
<g id="thumbs_up_down_24px">
<g id="&#226;&#134;&#179; Dark Color">
<path id="Mask" fill-rule="evenodd" clip-rule="evenodd" d="M11 5C11.55 5 12 5.45001 12 6V7.25C12 7.44 11.96 7.63 11.89 7.79999L9.63 13.09C9.40002 13.62 8.87 14 8.25 14H1.5C0.669983 14 0 13.33 0 12.5V6C0 5.59003 0.169983 5.21002 0.440002 4.94L5.38 0L6.16998 0.789978C6.37 1 6.5 1.28003 6.5 1.59003L6.47998 1.82001L5.82001 5H11ZM7.91998 12L10 7.13V7H3.35999L3.92999 4.28003L2 6.21002V12H7.91998Z" fill="currentColor" fill-opacity="0.54"/>
</g>
<g id="&#226;&#134;&#179; Dark Color_2">
<path id="Mask_2" fill-rule="evenodd" clip-rule="evenodd" d="M15.75 10H22.5C23.33 10 24 10.67 24 11.5V18C24 18.41 23.83 18.79 23.56 19.06L18.62 24L17.83 23.22C17.63 23.01 17.5 22.73 17.5 22.42L17.52 22.18L18.18 19H13C12.45 19 12 18.55 12 18V16.75C12 16.56 12.04 16.37 12.11 16.2L14.37 10.91C14.6 10.38 15.13 10 15.75 10ZM20.07 19.72L22 17.79V12H16.08L14 16.87V17H20.64L20.07 19.72Z" fill="currentColor" fill-opacity="0.54"/>
</g>
<g id="&#226;&#134;&#179; Light Color">
<path id="Mask_3" opacity="0.5" d="M3.93 4.28003L2 6.21003V12H7.92L10 7.13003V7.00003H3.36L3.93 4.28003Z" fill="currentColor" fill-opacity="0.54"/>
</g>
<g id="&#226;&#134;&#179; Light Color_2">
<path id="Mask_4" opacity="0.5" d="M14 16.87V17H20.64L20.07 19.72L22 17.79V12H16.08L14 16.87Z" fill="currentColor" fill-opacity="0.54"/>
</g>
</g>
</svg>
