<svg width="1em" height="1em" viewBox="0 0 24 24" fill="none" xmlns="http://www.w3.org/2000/svg">
<g id="thumb_up_24px">
<g id="&#226;&#134;&#179; Light Color">
<path id="Mask" opacity="0.5" d="M21 12V9.99997H12L13.34 4.65997L9 8.99997V19H18L21 12Z" fill="currentColor" fill-opacity="0.54"/>
</g>
<g id="&#226;&#134;&#179; Dark Color">
<path id="Mask_2" fill-rule="evenodd" clip-rule="evenodd" d="M18 21H9C7.90002 21 7 20.1 7 19V9C7 8.45001 7.21997 7.95001 7.57996 7.59003L14.17 1L15.23 2.04999C15.5 2.32001 15.67 2.70001 15.67 3.10999L15.64 3.42999L14.6899 8H21C22.1 8 23 8.90002 23 10V12C23 12.26 22.95 12.5 22.86 12.73L19.84 19.78C19.54 20.5 18.83 21 18 21ZM13.34 4.65997L9 9V19H18L21 12V10H12L13.34 4.65997Z" fill="currentColor" fill-opacity="0.54"/>
</g>
<g id="&#226;&#134;&#179; Dark Color_2">
<path id="Mask_3" d="M1 9H5V21H1V9Z" fill="currentColor" fill-opacity="0.54"/>
</g>
</g>
</svg>
