<svg width="1em" height="1em" viewBox="0 0 24 24" fill="none" xmlns="http://www.w3.org/2000/svg">
<g id="thumb_down_24px">
<g id="&#226;&#134;&#179; Light Color">
<path id="Mask" opacity="0.5" d="M3 12V14H12L10.66 19.34L15 15V5H6L3 12Z" fill="currentColor" fill-opacity="0.54"/>
</g>
<g id="&#226;&#134;&#179; Dark Color">
<path id="Mask_2" fill-rule="evenodd" clip-rule="evenodd" d="M6 3H15C16.1 3 17 3.90002 17 5V15C17 15.55 16.78 16.05 16.42 16.41L9.82996 23L8.77002 21.95C8.5 21.68 8.32996 21.3 8.32996 20.89L8.35999 20.57L9.31006 16H3C1.90002 16 1 15.1 1 14V12C1 11.74 1.05005 11.5 1.14001 11.27L4.16003 4.21997C4.45996 3.5 5.17004 3 6 3ZM10.66 19.34L15 15V5H6L3 12V14H12L10.66 19.34Z" fill="currentColor" fill-opacity="0.54"/>
</g>
<g id="&#226;&#134;&#179; Dark Color_2">
<path id="Mask_3" d="M19 3H23V15H19V3Z" fill="currentColor" fill-opacity="0.54"/>
</g>
</g>
</svg>
