<svg width="1em" height="1em" viewBox="0 0 24 24" fill="none" xmlns="http://www.w3.org/2000/svg">
<g id="timer_off_24px">
<g id="&#226;&#134;&#179; Light Color">
<path id="Mask" opacity="0.5" d="M12 6C10.88 6 9.82 6.27 8.88 6.74L11 8.86V8H13V10.86L18.26 16.12C18.73 15.18 19 14.12 19 13C19 9.13 15.87 6 12 6Z" fill="currentColor" fill-opacity="0.54"/>
</g>
<g id="&#226;&#134;&#179; Light Color_2">
<path id="Mask_2" opacity="0.5" d="M12 20C13.29 20 14.49 19.65 15.52 19.04L5.96 9.47998C5.35 10.51 5 11.71 5 13C5 16.87 8.13 20 12 20Z" fill="currentColor" fill-opacity="0.54"/>
</g>
<g id="&#226;&#134;&#179; Dark Color">
<path id="Mask_3" d="M12 6C15.87 6 19 9.13 19 13C19 14.12 18.73 15.18 18.26 16.12L19.73 17.59C20.53 16.25 21 14.68 21 13C21 10.88 20.26 8.93 19.03 7.39L20.45 5.97C20.02 5.46 19.55 4.98 19.04 4.56L17.62 5.98C16.07 4.74 14.12 4 12 4C10.32 4 8.75003 4.47 7.41003 5.27L8.88003 6.74C9.82003 6.27 10.88 6 12 6Z" fill="currentColor" fill-opacity="0.54"/>
</g>
<g id="&#226;&#134;&#179; Dark Color_2">
<path id="Mask_4" d="M11 8V8.86L13 10.86V8H11Z" fill="currentColor" fill-opacity="0.54"/>
</g>
<g id="&#226;&#134;&#179; Dark Color_3">
<path id="Mask_5" d="M9 1H15V3H9V1Z" fill="currentColor" fill-opacity="0.54"/>
</g>
<g id="&#226;&#134;&#179; Dark Color_4">
<path id="Mask_6" fill-rule="evenodd" clip-rule="evenodd" d="M1.75 5.26996L3.16003 3.85999L20.89 21.59L19.48 23L16.98 20.5C15.55 21.45 13.84 22 12 22C7.02002 22 3 17.97 3 13C3 11.16 3.56006 9.45001 4.5 8.01996L1.75 5.26996ZM5 13C5 16.87 8.13 20 12 20C13.29 20 14.49 19.65 15.53 19.05L5.95996 9.47998C5.34998 10.51 5 11.71 5 13Z" fill="currentColor" fill-opacity="0.54"/>
</g>
</g>
</svg>
