<svg width="1em" height="1em" viewBox="0 0 24 24" fill="none" xmlns="http://www.w3.org/2000/svg">
<g id="timer_24px">
<g id="&#226;&#134;&#179; Light Color">
<path id="Mask" opacity="0.5" fill-rule="evenodd" clip-rule="evenodd" d="M5.06995 13.01C5.06995 9.14001 8.19995 6.01001 12.0699 6.01001C15.9399 6.01001 19.0699 9.14001 19.0699 13.01C19.0699 16.88 15.9399 20.01 12.0699 20.01C8.19995 20.01 5.06995 16.88 5.06995 13.01ZM11.0699 8.01001V14.01H13.0699V8.01001H11.0699Z" fill="currentColor" fill-opacity="0.54"/>
</g>
<g id="&#226;&#134;&#179; Dark Color">
<path id="Mask_2" d="M9.06995 1.01001H15.0699V3.01001H9.06995V1.01001Z" fill="currentColor" fill-opacity="0.54"/>
</g>
<g id="&#226;&#134;&#179; Dark Color_2">
<path id="Mask_3" d="M11.0699 8.01001H13.0699V14.01H11.0699V8.01001Z" fill="currentColor" fill-opacity="0.54"/>
</g>
<g id="&#226;&#134;&#179; Dark Color_3">
<path id="Mask_4" fill-rule="evenodd" clip-rule="evenodd" d="M20.5199 5.96997L19.1 7.39001C20.33 8.92999 21.0699 10.89 21.0699 13C21.0699 17.97 17.0499 22 12.0699 22C7.08997 22 3.06995 17.97 3.06995 13C3.06995 8.03003 7.09998 4 12.0699 4C14.1899 4 16.1399 4.73999 17.6899 5.97998L19.11 4.56C19.62 4.97998 20.09 5.46002 20.5199 5.96997ZM5.06995 13.01C5.06995 16.88 8.19995 20.01 12.0699 20.01C15.9399 20.01 19.0699 16.88 19.0699 13.01C19.0699 9.14001 15.9399 6.01001 12.0699 6.01001C8.19995 6.01001 5.06995 9.14001 5.06995 13.01Z" fill="currentColor" fill-opacity="0.54"/>
</g>
</g>
</svg>
