<svg width="1em" height="1em" viewBox="0 0 24 24" fill="none" xmlns="http://www.w3.org/2000/svg">
<g id="timer_3_24px">
<g id="&#226;&#134;&#179; Dark Color">
<path id="Mask" d="M16.4601 10.8C16.5801 10.7 16.7301 10.62 16.9101 10.56C17.0901 10.5 17.3101 10.47 17.5501 10.47C17.8001 10.47 18.0201 10.51 18.2101 10.58C18.4001 10.65 18.5601 10.75 18.6901 10.87C18.8201 10.99 18.9101 11.13 18.9801 11.29C19.0401 11.45 19.0801 11.61 19.0801 11.78H21.0301C21.0301 11.39 20.9501 11.03 20.7901 10.69C20.6301 10.35 20.4001 10.06 20.1001 9.81C19.8001 9.56 19.4401 9.37 19.0101 9.22C18.5801 9.07 18.0901 9 17.5501 9C17.0401 9 16.5701 9.07 16.1601 9.21C15.7501 9.35 15.3901 9.54 15.1001 9.78C14.8101 10.02 14.5901 10.3 14.4301 10.62C14.2701 10.94 14.2001 11.27 14.2001 11.63C14.2001 11.99 14.2801 12.31 14.4301 12.59C14.5801 12.87 14.8001 13.11 15.0701 13.32C15.3401 13.53 15.6701 13.7 16.0501 13.85C16.4301 13.99 16.8601 14.11 17.3201 14.21C17.7101 14.29 18.0301 14.38 18.2701 14.47C18.5101 14.56 18.7001 14.66 18.8401 14.76C18.9701 14.86 19.0601 14.98 19.1101 15.1C19.1601 15.22 19.1801 15.35 19.1801 15.49C19.1801 15.81 19.0501 16.06 18.7801 16.26C18.5101 16.46 18.1201 16.55 17.6101 16.55C17.3901 16.55 17.1801 16.53 16.9701 16.47C16.7601 16.42 16.5701 16.34 16.4101 16.23C16.2401 16.12 16.1101 15.97 16.0001 15.79C15.8901 15.61 15.8301 15.38 15.8201 15.12H13.9301C13.9301 15.48 14.0101 15.83 14.1701 16.17C14.3301 16.51 14.5601 16.82 14.8701 17.1C15.1801 17.37 15.5601 17.59 16.0201 17.76C16.4801 17.93 17.0001 18.01 17.6001 18.01C18.1301 18.01 18.6101 17.95 19.0401 17.82C19.4701 17.69 19.8401 17.51 20.1501 17.28C20.4601 17.05 20.6901 16.77 20.8601 16.45C21.0301 16.13 21.1101 15.78 21.1101 15.39C21.0901 14.99 21.0201 14.65 20.8701 14.37C20.7301 14.09 20.5201 13.84 20.2401 13.63C19.9601 13.42 19.6301 13.24 19.2301 13.1C18.8301 12.96 18.3801 12.83 17.8801 12.72C17.5301 12.65 17.2401 12.57 17.0101 12.49C16.7801 12.41 16.6001 12.33 16.4601 12.24C16.3201 12.15 16.2301 12.05 16.1801 11.94C16.1301 11.83 16.1001 11.7 16.1001 11.55C16.1001 11.4 16.1301 11.27 16.1901 11.14C16.2501 11.01 16.3401 10.89 16.4601 10.8Z" fill="currentColor" fill-opacity="0.54"/>
</g>
<g id="&#226;&#134;&#179; Dark Color_2">
<path id="Mask_2" d="M8.11994 16.51C7.82994 16.51 7.55994 16.47 7.31994 16.38C7.07994 16.3 6.87994 16.18 6.70994 16.02C6.53994 15.86 6.40994 15.68 6.31994 15.46C6.22994 15.24 6.17994 15 6.17994 14.74H4.18994C4.18994 15.29 4.29994 15.77 4.50994 16.19C4.71994 16.61 5.00994 16.96 5.36994 17.24C5.72994 17.52 6.13994 17.73 6.60994 17.87C7.07994 18.01 7.56994 18.08 8.08994 18.08C8.65994 18.08 9.17994 18 9.66994 17.85C10.1599 17.7 10.5799 17.47 10.9299 17.17C11.2899 16.87 11.5699 16.51 11.7699 16.07C11.9699 15.64 12.0699 15.14 12.0699 14.59C12.0699 14.3 12.0299 14.01 11.9599 13.73C11.8799 13.48 11.7699 13.22 11.6099 12.97C11.4499 12.73 11.2499 12.51 10.9899 12.32C10.7399 12.13 10.4299 11.97 10.0599 11.84C10.3599 11.7 10.6299 11.54 10.8599 11.34C11.0899 11.14 11.2799 10.93 11.4299 10.7C11.5799 10.47 11.6999 10.24 11.7699 9.99002C11.8499 9.75002 11.8799 9.50002 11.8799 9.26002C11.8799 8.71002 11.7899 8.22002 11.5999 7.80002C11.4199 7.38002 11.1599 7.03002 10.8199 6.74002C10.4899 6.46002 10.0899 6.24002 9.61994 6.10002C9.16994 5.97002 8.64994 5.90002 8.08994 5.90002C7.53994 5.90002 7.02994 5.98002 6.56994 6.14002C6.09994 6.31002 5.69994 6.54002 5.36994 6.83002C5.03994 7.12002 4.76994 7.46002 4.58994 7.86002C4.38994 8.25002 4.29994 8.69002 4.29994 9.15002H6.27994C6.27994 8.89002 6.32994 8.66002 6.41994 8.46002C6.50994 8.26002 6.63994 8.08002 6.79994 7.94002C6.96994 7.80002 7.15994 7.69002 7.37994 7.61002C7.59994 7.53002 7.83994 7.49002 8.10994 7.49002C8.71994 7.49002 9.16994 7.65002 9.46994 7.96002C9.76994 8.27002 9.90994 8.71002 9.90994 9.28002C9.90994 9.55002 9.86994 9.80002 9.78994 10.02C9.70994 10.24 9.57994 10.43 9.40994 10.59C9.23994 10.75 9.02994 10.87 8.77994 10.96C8.52994 11.05 8.22994 11.09 7.88994 11.09H6.71994V12.66H7.89994C8.23994 12.66 8.53994 12.7 8.80994 12.77C9.07994 12.85 9.30994 12.96 9.49994 13.12C9.68994 13.28 9.83994 13.48 9.93994 13.73C10.0399 13.97 10.0999 14.27 10.0999 14.6C10.0999 15.22 9.91994 15.69 9.56994 16.02C9.21994 16.35 8.72994 16.51 8.11994 16.51Z" fill="currentColor" fill-opacity="0.54"/>
</g>
</g>
</svg>
