<svg width="1em" height="1em" viewBox="0 0 24 24" fill="none" xmlns="http://www.w3.org/2000/svg">
<g id="timer_10_24px">
<g id="&#226;&#134;&#179; Dark Color">
<path id="Mask" d="M3.68305 17.75H5.5292V6.25H5.29843L0.913818 7.89833V9.50833L3.68305 8.55V17.75Z" fill="currentColor" fill-opacity="0.54"/>
</g>
<g id="&#226;&#134;&#179; Dark Color_2">
<path id="Mask_2" fill-rule="evenodd" clip-rule="evenodd" d="M11.0677 6.15417C11.603 6.15417 12.1016 6.24042 12.5354 6.4129C12.9785 6.58545 13.3569 6.87292 13.6708 7.25629C13.9846 7.63959 14.2246 8.14752 14.3907 8.78003C14.5662 9.40295 14.6493 10.1696 14.6493 11.0704V12.9104C14.6493 13.8113 14.5569 14.5779 14.3907 15.2009C14.2246 15.8333 13.9846 16.3412 13.6708 16.7342C13.3569 17.1271 12.9877 17.4146 12.5447 17.5871C12.1107 17.7692 11.6216 17.8554 11.0769 17.8554C10.5415 17.8554 10.0524 17.7596 9.60925 17.5871C9.16614 17.4146 8.78772 17.1271 8.47388 16.7342C8.15076 16.3412 7.91077 15.8333 7.73535 15.2009C7.56006 14.5779 7.47693 13.8113 7.47693 12.9104V11.0704C7.47693 10.1696 7.56921 9.40295 7.73535 8.78003C7.91077 8.14752 8.15076 7.64917 8.4646 7.25629C8.77844 6.86334 9.15698 6.58545 9.59998 6.4129C10.0431 6.24042 10.5323 6.15417 11.0677 6.15417ZM12.8215 13.1692H12.8308V10.7637C12.8308 10.1888 12.7847 9.70001 12.7108 9.30707C12.637 8.91418 12.517 8.5979 12.3693 8.35834C12.2216 8.10919 12.037 7.93665 11.8154 7.83124C11.6031 7.72583 11.3539 7.66833 11.0677 7.66833C10.7908 7.66833 10.5415 7.72583 10.3201 7.83124C10.0985 7.94623 9.91382 8.11877 9.76624 8.35834C9.60925 8.60748 9.49854 8.92377 9.41541 9.31665C9.33228 9.70959 9.29541 10.1984 9.29541 10.7733V13.1692C9.29541 13.7441 9.33228 14.2329 9.41541 14.6354C9.49854 15.0379 9.61853 15.3638 9.76624 15.6129C9.91382 15.8621 10.0985 16.0442 10.3201 16.1592C10.5415 16.2742 10.8 16.3317 11.0769 16.3317C11.3632 16.3317 11.6216 16.2742 11.8339 16.1592C12.0461 16.0442 12.2308 15.8621 12.3785 15.6129C12.5261 15.3638 12.637 15.0379 12.7108 14.6354C12.7847 14.2329 12.8215 13.7441 12.8215 13.1692Z" fill="currentColor" fill-opacity="0.54"/>
</g>
<g id="&#226;&#134;&#179; Dark Color_3">
<path id="Mask_3" d="M22.2831 13.5621C22.0247 13.3608 21.72 13.1883 21.3508 13.0542C20.9816 12.92 20.5662 12.7954 20.1047 12.69C19.7816 12.6229 19.5139 12.5462 19.3016 12.4696C19.0893 12.3929 18.9231 12.3163 18.7939 12.23C18.6646 12.1437 18.5816 12.0479 18.5354 11.9425C18.4893 11.8371 18.4616 11.7125 18.4616 11.5687C18.4616 11.4346 18.4893 11.3004 18.5446 11.1758C18.6 11.0512 18.6831 10.9362 18.7939 10.85C18.9046 10.7542 19.0431 10.6775 19.2093 10.62C19.3754 10.5625 19.5785 10.5338 19.8 10.5338C20.0308 10.5338 20.2339 10.5721 20.4093 10.6392C20.5847 10.7063 20.7323 10.8021 20.8523 10.9171C20.9723 11.0321 21.0554 11.1662 21.12 11.3196C21.1754 11.4729 21.2123 11.6263 21.2123 11.7892H23.0123C23.0123 11.4154 22.9385 11.0704 22.7908 10.7446C22.6431 10.4188 22.4308 10.1408 22.1539 9.90125C21.877 9.66167 21.5447 9.47958 21.1477 9.33583C20.7508 9.19208 20.2985 9.125 19.8 9.125C19.3293 9.125 18.8954 9.19208 18.517 9.32625C18.1385 9.46042 17.8062 9.6425 17.5385 9.8725C17.2708 10.1025 17.0677 10.3708 16.92 10.6775C16.7723 10.9842 16.7077 11.3004 16.7077 11.6454C16.7077 11.9904 16.7816 12.3067 16.92 12.5654C17.0585 12.8338 17.2523 13.0637 17.5108 13.265C17.76 13.4662 18.0647 13.6292 18.4154 13.7729C18.7662 13.9071 19.1631 14.0221 19.5877 14.1179C19.9477 14.1946 20.2431 14.2808 20.4647 14.3671C20.6862 14.4533 20.8616 14.5492 20.9908 14.645C21.1108 14.7408 21.1939 14.8558 21.24 14.9708C21.2862 15.0858 21.3046 15.2104 21.3046 15.3446C21.3046 15.6513 21.1846 15.8908 20.9354 16.0825C20.6862 16.2742 20.3262 16.3604 19.8554 16.3604C19.6523 16.3604 19.4585 16.3412 19.2646 16.2838C19.0708 16.2358 18.8954 16.1592 18.7477 16.0538C18.5908 15.9483 18.4708 15.8046 18.3693 15.6321C18.2677 15.4596 18.2123 15.2392 18.2031 14.99H16.4585C16.4585 15.335 16.5323 15.6704 16.68 15.9963C16.8277 16.3221 17.04 16.6192 17.3262 16.8875C17.6123 17.1462 17.9631 17.3571 18.3877 17.52C18.8123 17.6829 19.2923 17.7596 19.8462 17.7596C20.3354 17.7596 20.7785 17.7021 21.1754 17.5775C21.5723 17.4529 21.9139 17.2804 22.2 17.06C22.4862 16.8396 22.6985 16.5712 22.8554 16.2646C23.0123 15.9579 23.0862 15.6225 23.0862 15.2488C23.0677 14.8654 23.0031 14.5396 22.8646 14.2712C22.7354 14.0029 22.5416 13.7633 22.2831 13.5621Z" fill="currentColor" fill-opacity="0.54"/>
</g>
</g>
</svg>
