<svg width="1em" height="1em" viewBox="0 0 24 24" fill="none" xmlns="http://www.w3.org/2000/svg">
<g id="timelapse_24px">
<g id="&#226;&#134;&#179; Light Color">
<path id="Mask" opacity="0.5" fill-rule="evenodd" clip-rule="evenodd" d="M4 11.99C4 7.57001 7.57996 3.98999 12 3.98999C16.42 3.98999 20 7.57001 20 11.99C20 16.41 16.42 19.99 12 19.99C7.57996 19.99 4 16.41 4 11.99ZM7.76001 16.23C10.1 18.57 13.9 18.57 16.25 16.23C18.59 13.89 18.59 10.09 16.24 7.75C15.0701 6.58002 13.54 5.98999 12 5.98999V11.99L7.76001 16.23Z" fill="currentColor" fill-opacity="0.54"/>
</g>
<g id="&#226;&#134;&#179; Dark Color">
<path id="Mask_2" d="M16.24 7.74999C15.07 6.57999 13.54 5.98999 12 5.98999V11.99L7.76001 16.23C10.1 18.57 13.9 18.57 16.25 16.23C18.59 13.89 18.59 10.09 16.24 7.74999Z" fill="currentColor" fill-opacity="0.54"/>
</g>
<g id="&#226;&#134;&#179; Dark Color_2">
<path id="Mask_3" fill-rule="evenodd" clip-rule="evenodd" d="M2 11.99C2 6.46997 6.47998 1.98999 12 1.98999C17.52 1.98999 22 6.46997 22 11.99C22 17.51 17.52 21.99 12 21.99C6.47998 21.99 2 17.51 2 11.99ZM4 11.99C4 16.41 7.57996 19.99 12 19.99C16.42 19.99 20 16.41 20 11.99C20 7.57001 16.42 3.98999 12 3.98999C7.57996 3.98999 4 7.57001 4 11.99Z" fill="currentColor" fill-opacity="0.54"/>
</g>
</g>
</svg>
