<svg width="1em" height="1em" viewBox="0 0 24 24" fill="none" xmlns="http://www.w3.org/2000/svg">
<g id="today_24px">
<g id="&#226;&#134;&#179; Dark Color">
<path id="Mask" fill-rule="evenodd" clip-rule="evenodd" d="M19 3H18V1H16V3H8V1H6V3H5C3.89001 3 3.01001 3.90002 3.01001 5L3 19C3 20.1 3.89001 21 5 21H19C20.1 21 21 20.1 21 19V5C21 3.90002 20.1 3 19 3ZM19 19H5V9H19V19ZM5 7H19V5H5V7Z" fill="currentColor" fill-opacity="0.54"/>
</g>
<g id="&#226;&#134;&#179; Dark Color_2">
<path id="Mask_2" d="M12 11H7V16H12V11Z" fill="currentColor" fill-opacity="0.54"/>
</g>
<g id="&#226;&#134;&#179; Light Color">
<path id="Mask_3" opacity="0.5" d="M5 5H19V7H5V5Z" fill="currentColor" fill-opacity="0.54"/>
</g>
</g>
</svg>
