<svg width="1em" height="1em" viewBox="0 0 24 24" fill="none" xmlns="http://www.w3.org/2000/svg">
<g id="toggle_off_24px">
<g id="&#226;&#134;&#179; Light Color">
<path id="Mask" opacity="0.5" fill-rule="evenodd" clip-rule="evenodd" d="M7 8H17C19.21 8 21 9.79004 21 12C21 14.21 19.21 16 17 16H7C4.79004 16 3 14.21 3 12C3 9.79004 4.79004 8 7 8ZM4 12C4 13.66 5.33997 15 7 15C8.66003 15 10 13.66 10 12C10 10.34 8.66003 9 7 9C5.33997 9 4 10.34 4 12Z" fill="currentColor" fill-opacity="0.54"/>
</g>
<g id="&#226;&#134;&#179; Dark Color">
<path id="Mask_2" fill-rule="evenodd" clip-rule="evenodd" d="M7 6H17C20.3101 6 23 8.68994 23 12C23 15.3101 20.3101 18 17 18H7C3.68994 18 1 15.3101 1 12C1 8.68994 3.68994 6 7 6ZM7 16H17C19.21 16 21 14.21 21 12C21 9.79004 19.21 8 17 8H7C4.79004 8 3 9.79004 3 12C3 14.21 4.79004 16 7 16Z" fill="currentColor" fill-opacity="0.54"/>
</g>
<g id="&#226;&#134;&#179; Dark Color_2">
<path id="Mask_3" d="M7 9C5.34 9 4 10.34 4 12C4 13.66 5.34 15 7 15C8.66 15 10 13.66 10 12C10 10.34 8.66 9 7 9Z" fill="currentColor" fill-opacity="0.54"/>
</g>
</g>
</svg>
