<svg width="1em" height="1em" viewBox="0 0 24 24" fill="none" xmlns="http://www.w3.org/2000/svg">
<g id="toggle_on_24px">
<g id="&#226;&#134;&#179; Light Color">
<path id="Mask" opacity="0.5" fill-rule="evenodd" clip-rule="evenodd" d="M7 8H17C19.21 8 21 9.79004 21 12C21 14.21 19.21 16 17 16H7C4.79004 16 3 14.21 3 12C3 9.79004 4.79004 8 7 8ZM14 12C14 13.66 15.34 15 17 15C18.66 15 20 13.66 20 12C20 10.34 18.66 9 17 9C15.34 9 14 10.34 14 12Z" fill="currentColor" fill-opacity="0.54"/>
</g>
<g id="&#226;&#134;&#179; Dark Color">
<path id="Mask_2" fill-rule="evenodd" clip-rule="evenodd" d="M7 6H17C20.3101 6 23 8.68994 23 12C23 15.3101 20.3101 18 17 18H7C3.68994 18 1 15.3101 1 12C1 8.68994 3.68994 6 7 6ZM7 16H17C19.21 16 21 14.21 21 12C21 9.79004 19.21 8 17 8H7C4.79004 8 3 9.79004 3 12C3 14.21 4.79004 16 7 16Z" fill="currentColor" fill-opacity="0.54"/>
</g>
<g id="&#226;&#134;&#179; Dark Color_2">
<path id="Mask_3" d="M17 9C15.34 9 14 10.34 14 12C14 13.66 15.34 15 17 15C18.66 15 20 13.66 20 12C20 10.34 18.66 9 17 9Z" fill="currentColor" fill-opacity="0.54"/>
</g>
</g>
</svg>
