<svg width="1em" height="1em" viewBox="0 0 24 24" fill="none" xmlns="http://www.w3.org/2000/svg">
<g id="toll_24px">
<g id="&#226;&#134;&#179; Light Color">
<path id="Mask" opacity="0.5" d="M15 6C11.69 6 9 8.69 9 12C9 15.31 11.69 18 15 18C18.31 18 21 15.31 21 12C21 8.69 18.31 6 15 6Z" fill="currentColor" fill-opacity="0.54"/>
</g>
<g id="&#226;&#134;&#179; Dark Color">
<path id="Mask_2" fill-rule="evenodd" clip-rule="evenodd" d="M7 12C7 7.58002 10.58 4 15 4C19.42 4 23 7.58002 23 12C23 16.42 19.42 20 15 20C10.58 20 7 16.42 7 12ZM9 12C9 15.31 11.69 18 15 18C18.31 18 21 15.31 21 12C21 8.69 18.31 6 15 6C11.69 6 9 8.69 9 12Z" fill="currentColor" fill-opacity="0.54"/>
</g>
<g id="&#226;&#134;&#179; Dark Color_2">
<path id="Mask_3" d="M3 12C3 9.39001 4.67 7.17001 7 6.35001V4.26001C3.55 5.15001 1 8.27001 1 12C1 15.73 3.55 18.85 7 19.74V17.65C4.67 16.83 3 14.61 3 12Z" fill="currentColor" fill-opacity="0.54"/>
</g>
</g>
</svg>
