<svg width="1em" height="1em" viewBox="0 0 24 24" fill="none" xmlns="http://www.w3.org/2000/svg">
<g id="tonality_24px">
<g id="&#226;&#134;&#179; Light Color">
<path id="Mask" opacity="0.5" d="M4 12C4 16.08 7.06 19.44 11 19.93V4.07001C7.05 4.56001 4 7.92001 4 12Z" fill="currentColor" fill-opacity="0.54"/>
</g>
<g id="&#226;&#134;&#179; Dark Color">
<path id="Mask_2" fill-rule="evenodd" clip-rule="evenodd" d="M2 12C2 6.47998 6.47998 2 12 2C17.52 2 22 6.47998 22 12C22 17.52 17.52 22 12 22C6.47998 22 2 17.52 2 12ZM4 12C4 16.08 7.06006 19.44 11 19.93V4.07001C7.05005 4.56 4 7.91998 4 12ZM13 4.07001C14.03 4.20001 15 4.52002 15.87 5H13V4.07001ZM18.24 7H13V8H18.92C18.72 7.65002 18.49 7.31 18.24 7ZM13 10H19.74C19.8199 10.33 19.89 10.66 19.9301 11H13V10ZM13 19V19.93C14.03 19.8 15 19.48 15.87 19H13ZM18.24 17H13V16H18.92C18.72 16.35 18.49 16.69 18.24 17ZM13 14H19.74C19.8199 13.67 19.89 13.34 19.9301 13H13V14Z" fill="currentColor" fill-opacity="0.54"/>
</g>
</g>
</svg>
