<svg width="1em" height="1em" viewBox="0 0 24 24" fill="none" xmlns="http://www.w3.org/2000/svg">
<g id="touch_app_24px">
<g id="&#226;&#134;&#179; Dark Color">
<path id="Mask" fill-rule="evenodd" clip-rule="evenodd" d="M18.12 14.44L14.88 12.82C16.17 11.82 17 10.26 17 8.5C17 5.46997 14.53 3 11.5 3C8.46997 3 6 5.46997 6 8.5C6 10.63 7.21997 12.48 9 13.39V16.65L7.15997 16.26L7.06 16.24C6.96002 16.22 6.85999 16.21 6.73999 16.21C6.21002 16.21 5.71002 16.42 5.33002 16.8L3.92999 18.22L9.02002 23.31C9.45001 23.75 10.05 24 10.67 24H16.97C17.95 24 18.78 23.3 18.94 22.33L19.74 17.62C19.96 16.32 19.31 15.04 18.12 14.44ZM8 8.5C8 6.57001 9.57001 5 11.5 5C13.43 5 15 6.57001 15 8.5C15 9.45001 14.62 10.31 14 10.94V8.5C14 7.12 12.88 6 11.5 6C10.12 6 9 7.12 9 8.5V10.94C8.38 10.31 8 9.45001 8 8.5ZM16.97 22L17.77 17.29C17.84 16.86 17.62 16.43 17.22 16.23L13.76 14.5H12V8.5C12 8.21997 11.78 8 11.5 8C11.22 8 11 8.21997 11 8.5V19.11L6.75 18.22L10.43 21.9C10.5 21.96 10.58 22 10.67 22H16.97Z" fill="currentColor" fill-opacity="0.54"/>
</g>
<g id="&#226;&#134;&#179; Light Color">
<path id="Mask_2" opacity="0.5" d="M17.23 16.23L13.77 14.5H12V8.5C12 8.22 11.78 8 11.5 8C11.22 8 11 8.22 11 8.5V19.11L6.75 18.22L10.43 21.9C10.49 21.96 10.58 22 10.67 22H16.97L17.77 17.29C17.84 16.86 17.62 16.43 17.23 16.23Z" fill="currentColor" fill-opacity="0.54"/>
</g>
</g>
</svg>
