<svg width="1em" height="1em" viewBox="0 0 24 24" fill="none" xmlns="http://www.w3.org/2000/svg">
<g id="translate_24px">
<g id="&#226;&#134;&#179; Dark Color">
<path id="Mask" fill-rule="evenodd" clip-rule="evenodd" d="M12.87 15.07L10.33 12.56L10.36 12.53C12.1 10.59 13.34 8.35999 14.0699 6H17V4H10V2H8V4H1V5.98999H12.17C11.5 7.91998 10.4399 9.75 9 11.35C8.06995 10.32 7.30005 9.19 6.68994 8H4.68994C5.42004 9.63 6.42004 11.17 7.67004 12.56L2.57996 17.58L4 19L9 14L12.11 17.11L12.87 15.07ZM18.5 10H16.5L12 22H14L15.12 19H19.87L21 22H23L18.5 10ZM17.5 12.67L15.88 17H19.12L17.5 12.67Z" fill="currentColor" fill-opacity="0.54"/>
</g>
</g>
</svg>
