<svg width="1em" height="1em" viewBox="0 0 24 24" fill="none" xmlns="http://www.w3.org/2000/svg">
<g id="unarchive_24px">
<g id="&#226;&#134;&#179; Light Color">
<path id="Mask" opacity="0.5" fill-rule="evenodd" clip-rule="evenodd" d="M19 8V19H5V8H19ZM16 14L12 10L8 14H10.54V17H13.45V14H16Z" fill="currentColor" fill-opacity="0.54"/>
</g>
<g id="&#226;&#134;&#179; Dark Color">
<path id="Mask_2" fill-rule="evenodd" clip-rule="evenodd" d="M20.54 5.23L19.15 3.55C18.88 3.21 18.47 3 18 3H6C5.53 3 5.12 3.21 4.84 3.55L3.45999 5.23C3.17001 5.57 3 6.02 3 6.5V19C3 20.1 3.89999 21 5 21H19C20.1 21 21 20.1 21 19V6.5C21 6.02 20.83 5.57 20.54 5.23ZM6.24002 5H17.76L18.59 6H5.42001L6.24002 5ZM5 19H19V8H5V19Z" fill="currentColor" fill-opacity="0.54"/>
</g>
<g id="&#226;&#134;&#179; Dark Color_2">
<path id="Mask_3" d="M10.55 17H13.45V14H16L12 10L8 14H10.55V17Z" fill="currentColor" fill-opacity="0.54"/>
</g>
</g>
</svg>
