<svg width="1em" height="1em" viewBox="0 0 24 24" fill="none" xmlns="http://www.w3.org/2000/svg">
<g id="update_24px">
<g id="&#226;&#134;&#179; Dark Color">
<path id="Mask" d="M11 8V13L15.25 15.52L16.02 14.24L12.5 12.15V8H11Z" fill="currentColor" fill-opacity="0.54"/>
</g>
<g id="&#226;&#134;&#179; Dark Color_2">
<path id="Mask_2" d="M21 10V3L18.36 5.64C16.74 4.01 14.49 3 12 3C7.03 3 3 7.03 3 12C3 16.97 7.03 21 12 21C16.97 21 21 16.97 21 12H19C19 15.86 15.86 19 12 19C8.14 19 5 15.86 5 12C5 8.14 8.14 5 12 5C13.93 5 15.68 5.79 16.95 7.05L14 10H21Z" fill="currentColor" fill-opacity="0.54"/>
</g>
</g>
</svg>
