<svg width="1em" height="1em" viewBox="0 0 24 24" fill="none" xmlns="http://www.w3.org/2000/svg">
<g id="view_comfy_24px">
<g id="&#226;&#134;&#179; Light Color">
<path id="Mask" opacity="0.5" d="M9.25 11H11.5V13H9.25V11Z" fill="currentColor" fill-opacity="0.54"/>
</g>
<g id="&#226;&#134;&#179; Light Color_2">
<path id="Mask_2" opacity="0.5" d="M9.25 15H11.5V17H9.25V15Z" fill="currentColor" fill-opacity="0.54"/>
</g>
<g id="&#226;&#134;&#179; Light Color_3">
<path id="Mask_3" opacity="0.5" d="M9.25 7H11.5V9H9.25V7Z" fill="currentColor" fill-opacity="0.54"/>
</g>
<g id="&#226;&#134;&#179; Light Color_4">
<path id="Mask_4" opacity="0.5" d="M13.5 15H15.75V17H13.5V15Z" fill="currentColor" fill-opacity="0.54"/>
</g>
<g id="&#226;&#134;&#179; Light Color_5">
<path id="Mask_5" opacity="0.5" d="M5 15H7.25V17H5V15Z" fill="currentColor" fill-opacity="0.54"/>
</g>
<g id="&#226;&#134;&#179; Light Color_6">
<path id="Mask_6" opacity="0.5" d="M5 11H7.25V13H5V11Z" fill="currentColor" fill-opacity="0.54"/>
</g>
<g id="&#226;&#134;&#179; Light Color_7">
<path id="Mask_7" opacity="0.5" d="M5 7H7.25V9H5V7Z" fill="currentColor" fill-opacity="0.54"/>
</g>
<g id="&#226;&#134;&#179; Light Color_8">
<path id="Mask_8" opacity="0.5" d="M17.75 7H20V9H17.75V7Z" fill="currentColor" fill-opacity="0.54"/>
</g>
<g id="&#226;&#134;&#179; Light Color_9">
<path id="Mask_9" opacity="0.5" d="M13.5 11H15.75V13H13.5V11Z" fill="currentColor" fill-opacity="0.54"/>
</g>
<g id="&#226;&#134;&#179; Light Color_10">
<path id="Mask_10" opacity="0.5" d="M13.5 7H15.75V9H13.5V7Z" fill="currentColor" fill-opacity="0.54"/>
</g>
<g id="&#226;&#134;&#179; Light Color_11">
<path id="Mask_11" opacity="0.5" d="M17.75 15H20V17H17.75V15Z" fill="currentColor" fill-opacity="0.54"/>
</g>
<g id="&#226;&#134;&#179; Light Color_12">
<path id="Mask_12" opacity="0.5" d="M17.75 11H20V13H17.75V11Z" fill="currentColor" fill-opacity="0.54"/>
</g>
<g id="&#226;&#134;&#179; Dark Color">
<path id="Mask_13" fill-rule="evenodd" clip-rule="evenodd" d="M3 5V19H22V5H3ZM7.25 17H5V15H7.25V17ZM5 13H7.25V11H5V13ZM7.25 9H5V7H7.25V9ZM9.25 17H11.5V15H9.25V17ZM11.5 13H9.25V11H11.5V13ZM9.25 9H11.5V7H9.25V9ZM15.75 17H13.5V15H15.75V17ZM13.5 13H15.75V11H13.5V13ZM15.75 9H13.5V7H15.75V9ZM17.75 17H20V15H17.75V17ZM20 13H17.75V11H20V13ZM17.75 9H20V7H17.75V9Z" fill="currentColor" fill-opacity="0.54"/>
</g>
</g>
</svg>
