<svg width="1em" height="1em" viewBox="0 0 24 24" fill="none" xmlns="http://www.w3.org/2000/svg">
<g id="view_module_24px">
<g id="&#226;&#134;&#179; Dark Color">
<path id="Mask" d="M11 12.5H14V16H11V12.5Z" fill="currentColor" fill-opacity="0.54"/>
</g>
<g id="&#226;&#134;&#179; Dark Color_2">
<path id="Mask_2" d="M11 7H14V10.5H11V7Z" fill="currentColor" fill-opacity="0.54"/>
</g>
<g id="&#226;&#134;&#179; Dark Color_3">
<path id="Mask_3" d="M6 12.5H9V16H6V12.5Z" fill="currentColor" fill-opacity="0.54"/>
</g>
<g id="&#226;&#134;&#179; Dark Color_4">
<path id="Mask_4" d="M6 7H9V10.5H6V7Z" fill="currentColor" fill-opacity="0.54"/>
</g>
<g id="&#226;&#134;&#179; Dark Color_5">
<path id="Mask_5" d="M16 7H19V10.5H16V7Z" fill="currentColor" fill-opacity="0.54"/>
</g>
<g id="&#226;&#134;&#179; Dark Color_6">
<path id="Mask_6" d="M16 12.5H19V16H16V12.5Z" fill="currentColor" fill-opacity="0.54"/>
</g>
<g id="&#226;&#134;&#179; Dark Color_7">
<path id="Mask_7" fill-rule="evenodd" clip-rule="evenodd" d="M4 5V18H21V5H4ZM9 16H6V12.5H9V16ZM6 10.5H9V7H6V10.5ZM14 16H11V12.5H14V16ZM11 10.5H14V7H11V10.5ZM19 16H16V12.5H19V16ZM16 10.5H19V7H16V10.5Z" fill="currentColor" fill-opacity="0.54"/>
</g>
</g>
</svg>
