<svg width="1em" height="1em" viewBox="0 0 24 24" fill="none" xmlns="http://www.w3.org/2000/svg">
<g id="view_week_24px">
<g id="&#226;&#134;&#179; Dark Color">
<path id="Mask" fill-rule="evenodd" clip-rule="evenodd" d="M3 4H21C21.55 4 22 4.45001 22 5V19C22 19.55 21.55 20 21 20H3C2.44995 20 2 19.55 2 19V5C2 4.45001 2.44995 4 3 4ZM4 18H8V6H4V18ZM14 18H10V6H14V18ZM16 18H20V6H16V18Z" fill="currentColor" fill-opacity="0.54"/>
</g>
<g id="&#226;&#134;&#179; Light Color">
<path id="Mask_2" opacity="0.5" d="M10 6H14V18H10V6Z" fill="currentColor" fill-opacity="0.54"/>
</g>
<g id="&#226;&#134;&#179; Light Color_2">
<path id="Mask_3" opacity="0.5" d="M16 6H20V18H16V6Z" fill="currentColor" fill-opacity="0.54"/>
</g>
<g id="&#226;&#134;&#179; Light Color_3">
<path id="Mask_4" opacity="0.5" d="M4 6H8V18H4V6Z" fill="currentColor" fill-opacity="0.54"/>
</g>
</g>
</svg>
