<svg width="1em" height="1em" viewBox="0 0 24 24" fill="none" xmlns="http://www.w3.org/2000/svg">
<g id="view_agenda_24px">
<g id="&#226;&#134;&#179; Dark Color">
<path id="Mask" fill-rule="evenodd" clip-rule="evenodd" d="M3 3H20C20.55 3 21 3.45001 21 4V10C21 10.55 20.55 11 20 11H3C2.44995 11 2 10.55 2 10V4C2 3.45001 2.44995 3 3 3ZM4 9H19V5H4V9Z" fill="currentColor" fill-opacity="0.54"/>
</g>
<g id="&#226;&#134;&#179; Dark Color_2">
<path id="Mask_2" fill-rule="evenodd" clip-rule="evenodd" d="M3 13H20C20.55 13 21 13.45 21 14V20C21 20.55 20.55 21 20 21H3C2.44995 21 2 20.55 2 20V14C2 13.45 2.44995 13 3 13ZM4 19H19V15H4V19Z" fill="currentColor" fill-opacity="0.54"/>
</g>
<g id="&#226;&#134;&#179; Light Color">
<path id="Mask_3" opacity="0.5" d="M4 15H19V19H4V15Z" fill="currentColor" fill-opacity="0.54"/>
</g>
<g id="&#226;&#134;&#179; Light Color_2">
<path id="Mask_4" opacity="0.5" d="M4 5H19V9H4V5Z" fill="currentColor" fill-opacity="0.54"/>
</g>
</g>
</svg>
