<svg width="1em" height="1em" viewBox="0 0 24 24" fill="none" xmlns="http://www.w3.org/2000/svg">
<g id="vignette_24px">
<g id="&#226;&#134;&#179; Light Color">
<path id="Mask" opacity="0.5" fill-rule="evenodd" clip-rule="evenodd" d="M21 5V19H3V5H21ZM20 12C20 8.69 16.42 6 12 6C7.57996 6 4 8.69 4 12C4 15.31 7.57996 18 12 18C16.42 18 20 15.31 20 12Z" fill="currentColor" fill-opacity="0.54"/>
</g>
<g id="&#226;&#134;&#179; Dark Color">
<path id="Mask_2" fill-rule="evenodd" clip-rule="evenodd" d="M3 3H21C22.1 3 23 3.90002 23 5V19C23 20.1 22.1 21 21 21H3C1.90002 21 1 20.1 1 19V5C1 3.90002 1.90002 3 3 3ZM3 19H21V5H3V19Z" fill="currentColor" fill-opacity="0.54"/>
</g>
<g id="&#226;&#134;&#179; Dark Color_2">
<path id="Mask_3" fill-rule="evenodd" clip-rule="evenodd" d="M20 12C20 15.31 16.42 18 12 18C7.57996 18 4 15.31 4 12C4 8.69 7.57996 6 12 6C16.42 6 20 8.69 20 12ZM18 12C18 9.83002 15.25 8 12 8C8.75 8 6 9.83002 6 12C6 14.17 8.75 16 12 16C15.25 16 18 14.17 18 12Z" fill="currentColor" fill-opacity="0.54"/>
</g>
</g>
</svg>
