<svg width="1em" height="1em" viewBox="0 0 24 24" fill="none" xmlns="http://www.w3.org/2000/svg">
<g id="visibility_off_24px">
<g id="&#226;&#134;&#179; Light Color">
<path id="Mask" opacity="0.5" d="M12 14C12.04 14 12.08 13.99 12.12 13.99L9.51 11.38C9.51 11.42 9.5 11.46 9.5 11.5C9.5 12.88 10.62 14 12 14Z" fill="currentColor" fill-opacity="0.54"/>
</g>
<g id="&#226;&#134;&#179; Light Color_2">
<path id="Mask_2" opacity="0.5" d="M13.01 9.21002L14.29 10.49C14.03 9.92002 13.58 9.46002 13.01 9.21002Z" fill="currentColor" fill-opacity="0.54"/>
</g>
<g id="&#226;&#134;&#179; Light Color_3">
<path id="Mask_3" opacity="0.5" d="M20.82 11.5C19.17 8.13 15.79 6 12 6C11.32 6 10.66 6.09 10.01 6.22L10.93 7.14C11.28 7.05 11.63 7 12 7C14.48 7 16.5 9.02 16.5 11.5C16.5 11.87 16.44 12.22 16.36 12.57L18.41 14.62C19.39 13.76 20.22 12.71 20.82 11.5Z" fill="currentColor" fill-opacity="0.54"/>
</g>
<g id="&#226;&#134;&#179; Light Color_4">
<path id="Mask_4" opacity="0.5" d="M12.0001 17C12.9501 17 13.8701 16.87 14.7501 16.61L13.7701 15.63C13.2301 15.87 12.6301 16 12.0001 16C9.52005 16 7.50005 13.98 7.50005 11.5C7.50005 10.87 7.63005 10.27 7.86005 9.72997L6.11005 7.96997C4.89005 8.87997 3.88005 10.07 3.18005 11.49C4.83005 14.86 8.21005 17 12.0001 17Z" fill="currentColor" fill-opacity="0.54"/>
</g>
<g id="&#226;&#134;&#179; Dark Color">
<path id="Mask_5" d="M12 6C15.79 6 19.17 8.13 20.82 11.5C20.23 12.72 19.4 13.77 18.41 14.62L19.82 16.03C21.21 14.8 22.31 13.26 23 11.5C21.27 7.11 17 4 12 4C10.73 4 9.50999 4.2 8.35999 4.57L10.01 6.22C10.66 6.09 11.32 6 12 6Z" fill="currentColor" fill-opacity="0.54"/>
</g>
<g id="&#226;&#134;&#179; Dark Color_2">
<path id="Mask_6" d="M14.2801 10.49L16.3501 12.56C16.4301 12.22 16.4901 11.86 16.4901 11.49C16.5001 9.01 14.4801 7 12.0001 7C11.6301 7 11.2801 7.06 10.9301 7.14L13.0001 9.21C13.5801 9.46 14.0301 9.92 14.2801 10.49Z" fill="currentColor" fill-opacity="0.54"/>
</g>
<g id="&#226;&#134;&#179; Dark Color_3">
<path id="Mask_7" fill-rule="evenodd" clip-rule="evenodd" d="M2.01001 3.87L4.68994 6.54999C3.06006 7.83002 1.77002 9.53003 1 11.5C2.72998 15.89 7 19 12 19C13.52 19 14.98 18.71 16.3199 18.18L19.74 21.6L21.15 20.19L3.42004 2.45001L2.01001 3.87ZM9.51001 11.37L12.12 13.98C12.08 13.99 12.04 14 12 14C10.62 14 9.5 12.88 9.5 11.5C9.5 11.475 9.50244 11.455 9.505 11.435C9.50757 11.415 9.51001 11.395 9.51001 11.37ZM7.86011 9.72003L6.11011 7.97003C4.90002 8.89001 3.88 10.07 3.18005 11.5001C4.83008 14.8701 8.21008 17.0001 12 17.0001C12.9501 17.0001 13.87 16.86 14.75 16.6201L13.77 15.64C13.2301 15.8701 12.63 16.0001 12 16.0001C9.52002 16.0001 7.5 13.98 7.5 11.5001C7.5 10.8701 7.63 10.27 7.86011 9.72003Z" fill="currentColor" fill-opacity="0.54"/>
</g>
</g>
</svg>
