<svg width="1em" height="1em" viewBox="0 0 24 24" fill="none" xmlns="http://www.w3.org/2000/svg">
<g id="visibility_24px">
<g id="&#226;&#134;&#179; Light Color">
<path id="Mask" opacity="0.5" fill-rule="evenodd" clip-rule="evenodd" d="M3.18005 11.5C4.83008 8.13 8.21008 6 12 6C15.79 6 19.17 8.13 20.8201 11.5C19.17 14.87 15.79 17 12 17C8.21008 17 4.83008 14.87 3.18005 11.5ZM7.5 11.5C7.5 13.98 9.52002 16 12 16C14.48 16 16.5 13.98 16.5 11.5C16.5 9.02002 14.48 7 12 7C9.52002 7 7.5 9.02002 7.5 11.5Z" fill="currentColor" fill-opacity="0.54"/>
</g>
<g id="&#226;&#134;&#179; Dark Color">
<path id="Mask_2" fill-rule="evenodd" clip-rule="evenodd" d="M1 11.5C2.72998 7.10999 7 4 12 4C17 4 21.27 7.10999 23 11.5C21.27 15.89 17 19 12 19C7 19 2.72998 15.89 1 11.5ZM3.18005 11.5C4.83008 14.87 8.21008 17 12 17C15.79 17 19.17 14.87 20.8201 11.5C19.17 8.13 15.79 6 12 6C8.21008 6 4.83008 8.13 3.18005 11.5Z" fill="currentColor" fill-opacity="0.54"/>
</g>
<g id="&#226;&#134;&#179; Dark Color_2">
<path id="Mask_3" fill-rule="evenodd" clip-rule="evenodd" d="M7.5 11.5C7.5 9.02002 9.52002 7 12 7C14.48 7 16.5 9.02002 16.5 11.5C16.5 13.98 14.48 16 12 16C9.52002 16 7.5 13.98 7.5 11.5ZM9.5 11.5C9.5 12.88 10.62 14 12 14C13.38 14 14.5 12.88 14.5 11.5C14.5 10.12 13.38 9 12 9C10.62 9 9.5 10.12 9.5 11.5Z" fill="currentColor" fill-opacity="0.54"/>
</g>
</g>
</svg>
