<svg width="1em" height="1em" viewBox="0 0 24 24" fill="none" xmlns="http://www.w3.org/2000/svg">
<g id="voice_over_off_24px">
<g id="&#226;&#134;&#179; Light Color">
<path id="Mask" opacity="0.5" d="M9 17C6.31 17 3.23 18.28 3 19H15C14.8 18.29 11.7 17 9 17Z" fill="currentColor" fill-opacity="0.54"/>
</g>
<g id="&#226;&#134;&#179; Light Color_2">
<path id="Mask_2" opacity="0.5" d="M7 9C7 10.1 7.9 11 9 11C9.22 11 9.42 10.96 9.62 10.89L7.11 8.38C7.04 8.58 7 8.78 7 9Z" fill="currentColor" fill-opacity="0.54"/>
</g>
<g id="&#226;&#134;&#179; Dark Color">
<path id="Mask_3" d="M16.76 5.35999L15.08 7.04999C15.88 8.17999 15.91 9.62999 15.17 10.79L16.87 12.49C18.77 10.47 18.74 7.50999 16.76 5.35999Z" fill="currentColor" fill-opacity="0.54"/>
</g>
<g id="&#226;&#134;&#179; Dark Color_2">
<path id="Mask_4" d="M20.0699 2L18.4399 3.63C21.1599 6.6 21.1999 11.02 18.5799 14.19L20.2199 15.83C23.9599 11.94 23.9299 5.99 20.0699 2Z" fill="currentColor" fill-opacity="0.54"/>
</g>
<g id="&#226;&#134;&#179; Dark Color_3">
<path id="Mask_5" d="M9.43005 5.03998L12.9601 8.56998C12.7601 6.70998 11.2901 5.23998 9.43005 5.03998Z" fill="currentColor" fill-opacity="0.54"/>
</g>
<g id="&#226;&#134;&#179; Dark Color_4">
<path id="Mask_6" fill-rule="evenodd" clip-rule="evenodd" d="M4.41003 2.85999L3 4.26996L5.62 6.89001C5.22998 7.5 5 8.21997 5 9C5 11.21 6.79004 13 9 13C9.78003 13 10.5 12.77 11.11 12.38L15.51 16.78C13.74 15.6 10.78 15 9 15C6.32996 15 1 16.34 1 19V21H17V19C17 18.63 16.89 18.3 16.71 17.98L19.73 21L21.14 19.59L4.41003 2.85999ZM3 19C3.21997 18.28 6.31006 17 9 17C11.7 17 14.8 18.29 15 19H3ZM7 9C7 10.1 7.90002 11 9 11C9.21997 11 9.42004 10.96 9.62 10.89L7.10999 8.38C7.04004 8.58002 7 8.78003 7 9Z" fill="currentColor" fill-opacity="0.54"/>
</g>
</g>
</svg>
