<svg width="1em" height="1em" viewBox="0 0 24 24" fill="none" xmlns="http://www.w3.org/2000/svg">
<g id="watch_later_24px">
<g id="&#226;&#134;&#179; Light Color">
<path id="Mask" opacity="0.5" fill-rule="evenodd" clip-rule="evenodd" d="M4 12C4 7.59003 7.59003 4 12 4C16.41 4 20 7.59003 20 12C20 16.41 16.41 20 12 20C7.59003 20 4 16.41 4 12ZM11 13L16.2 16.2L17 14.9L12.5 12.2V7H11V13Z" fill="currentColor" fill-opacity="0.54"/>
</g>
<g id="&#226;&#134;&#179; Dark Color">
<path id="Mask_2" fill-rule="evenodd" clip-rule="evenodd" d="M2 12C2 6.5 6.5 2 12 2C17.5 2 22 6.5 22 12C22 17.5 17.5 22 12 22C6.5 22 2 17.5 2 12ZM4 12C4 16.41 7.59003 20 12 20C16.41 20 20 16.41 20 12C20 7.59003 16.41 4 12 4C7.59003 4 4 7.59003 4 12Z" fill="currentColor" fill-opacity="0.54"/>
</g>
<g id="&#226;&#134;&#179; Dark Color_2">
<path id="Mask_3" d="M12.5 7H11V13L16.2 16.2L17 14.9L12.5 12.2V7Z" fill="currentColor" fill-opacity="0.54"/>
</g>
</g>
</svg>
