<svg width="1em" height="1em" viewBox="0 0 24 24" fill="none" xmlns="http://www.w3.org/2000/svg">
<g id="waves_24px">
<g id="&#226;&#134;&#179; Dark Color">
<path id="Mask" fill-rule="evenodd" clip-rule="evenodd" d="M19.95 4.46001C19.2 4.08 18.37 3.66 17 3.66C15.63 3.66 14.8 4.08 14.05 4.46001L13.9703 4.4993C13.3558 4.80258 12.8342 5.06001 12 5.06001C11.1 5.06001 10.6 4.81001 9.95 4.46001L9.87174 4.42134C9.14248 4.06071 8.33217 3.66 7 3.66C5.62881 3.66 4.8105 4.07465 4.06438 4.45272L4.05 4.46001L4.02446 4.47298C3.38628 4.79704 2.86844 5.06001 2 5.06001V6.99001C3.3291 6.99001 4.17356 6.57322 4.9151 6.20723L4.95 6.19L4.97548 6.17706C5.61369 5.85297 6.13153 5.59 7 5.59C7.88 5.59 8.4 5.84 9.05 6.19L9.06438 6.19729C9.8105 6.57536 10.6288 6.99001 12 6.99001C13.3322 6.99001 14.1425 6.58929 14.8717 6.22867L14.95 6.19L15.0297 6.15071C15.6442 5.84743 16.1658 5.59 17 5.59C17.9 5.59 18.4 5.84 19.05 6.19C19.8 6.57001 20.63 6.99001 22 6.99001V5.04C21.1 5.04 20.6 4.79 19.95 4.46001ZM14.0849 13.3228C14.8264 12.9568 15.6709 12.54 17 12.54C18.35 12.54 19.2 12.96 19.95 13.34C20.6 13.69 21.1 13.94 22 13.94V15.89C20.63 15.89 19.8 15.47 19.05 15.09C18.4 14.74 17.9 14.49 17 14.49C16.1 14.49 15.6 14.74 14.95 15.09L14.8717 15.1287C14.1425 15.4893 13.3322 15.89 12 15.89C10.6288 15.89 9.81052 15.4754 9.06441 15.0973L9.05 15.09C8.4 14.74 7.9 14.49 7 14.49C6.1 14.49 5.6 14.74 4.95 15.09L4.91507 15.1072C4.17354 15.4732 3.32908 15.89 2 15.89V13.94C2.83575 13.94 3.3468 13.6875 3.95288 13.3879L4.05 13.34L4.12826 13.3013C4.85752 12.9407 5.66783 12.54 7 12.54C8.37119 12.54 9.1895 12.9547 9.93562 13.3327L9.95 13.34C10.6 13.69 11.1 13.94 12 13.94C12.8342 13.94 13.3558 13.6826 13.9703 13.3793L14.05 13.34L14.0849 13.3228ZM14.05 17.79C14.8 17.41 15.65 16.99 17 16.99C18.35 16.99 19.2 17.41 19.95 17.79C20.6 18.14 21.1 18.39 22 18.39V20.34C20.63 20.34 19.8 19.92 19.05 19.54C18.4 19.19 17.9 18.94 17 18.94C16.1318 18.94 15.6022 19.2089 14.9541 19.5379L14.95 19.54L14.9356 19.5473C14.1895 19.9254 13.3712 20.34 12 20.34C10.6288 20.34 9.81052 19.9254 9.06441 19.5473L9.05 19.54C8.4 19.19 7.88 18.94 7 18.94C6.13154 18.94 5.6137 19.203 4.97552 19.5271L4.95 19.54C4.2 19.92 3.35 20.34 2 20.34V18.39C2.86844 18.39 3.38628 18.127 4.02446 17.803L4.05 17.79L4.06438 17.7827C4.8105 17.4047 5.62881 16.99 7 16.99C8.37119 16.99 9.1895 17.4047 9.93562 17.7827L9.95 17.79C10.6 18.14 11.1 18.39 12 18.39C12.8682 18.39 13.3978 18.1211 14.0459 17.7921L14.05 17.79ZM14.0849 8.87278C14.8264 8.5068 15.6709 8.09 17 8.09C18.35 8.09 19.2 8.51 19.95 8.89001C20.6 9.24001 21.1 9.49001 22 9.49001V11.44C20.63 11.44 19.8 11.02 19.05 10.64C18.4 10.29 17.9 10.04 17 10.04C16.1658 10.04 15.6442 10.2974 15.0297 10.6007C15.0033 10.6137 14.9768 10.6268 14.95 10.64C14.924 10.6528 14.8979 10.6657 14.8717 10.6787C14.1425 11.0393 13.3322 11.44 12 11.44C10.6288 11.44 9.81052 11.0254 9.06441 10.6473L9.05 10.64C8.4 10.29 7.87 10.04 7 10.04C6.16582 10.04 5.64422 10.2974 5.02971 10.6007C5.00332 10.6137 4.97676 10.6268 4.95 10.64L4.91507 10.6572C4.17354 11.0232 3.32908 11.44 2 11.44V9.49001C2.9 9.49001 3.4 9.24001 4.05 8.89001C4.07599 8.87718 4.10207 8.86429 4.12826 8.85134C4.85752 8.49072 5.66783 8.09 7 8.09C8.37119 8.09 9.1895 8.50465 9.93562 8.88272L9.95 8.89001C10.6 9.24001 11.1 9.49001 12 9.49001C12.9 9.49001 13.4 9.24001 14.05 8.89001L14.0849 8.87278Z" fill="currentColor" fill-opacity="0.54"/>
</g>
</g>
</svg>
