<svg width="1em" height="1em" viewBox="0 0 24 24" fill="none" xmlns="http://www.w3.org/2000/svg">
<g id="wb_auto_24px">
<g id="&#226;&#134;&#179; Light Color">
<path id="Mask" opacity="0.5" fill-rule="evenodd" clip-rule="evenodd" d="M2 12C2 8.69 4.68994 6 8 6C11.3101 6 14 8.69 14 12C14 12.96 13.77 13.86 13.37 14.67L13.36 14.68C12.38 16.64 10.35 18 8 18C4.68994 18 2 15.31 2 12ZM9.6001 14L10.3 16H12.2001L9 7H7L3.80005 16H5.70007L6.40002 14H9.6001Z" fill="currentColor" fill-opacity="0.54"/>
</g>
<g id="&#226;&#134;&#179; Light Color_2">
<path id="Mask_2" opacity="0.5" d="M6.84998 12.65H9.14998L7.99998 9L6.84998 12.65Z" fill="currentColor" fill-opacity="0.54"/>
</g>
<g id="&#226;&#134;&#179; Dark Color">
<path id="Mask_3" fill-rule="evenodd" clip-rule="evenodd" d="M3.80005 16L7 7H9L12.2001 16H10.3L9.6001 14H6.40002L5.70007 16H3.80005ZM8.00012 9L6.8501 12.65H9.15015L8.00012 9Z" fill="currentColor" fill-opacity="0.54"/>
</g>
<g id="&#226;&#134;&#179; Dark Color_2">
<path id="Mask_4" fill-rule="evenodd" clip-rule="evenodd" d="M19.3 7L20.8 13.29L22 7H23.8L21.75 16H20L18.5 9.90002L17 16H15.25L15.15 15.57C15.125 15.61 15.1025 15.6525 15.0801 15.695C15.0575 15.7375 15.035 15.78 15.01 15.82C14.9949 15.8502 14.9823 15.8804 14.9697 15.9106C14.9573 15.9404 14.9449 15.9702 14.9301 16C13.55 18.39 10.96 20 8 20C3.57996 20 0 16.42 0 12C0 7.58002 3.57996 4 8 4C10.53 4 12.76 5.17999 14.23 7.01001L14.24 7H15L16.21 13.29L17.7 7H19.3ZM8 18C10.35 18 12.38 16.64 13.37 14.67C13.77 13.86 14 12.96 14 12C14 8.69 11.3101 6 8 6C4.68994 6 2 8.69 2 12C2 15.31 4.68994 18 8 18Z" fill="currentColor" fill-opacity="0.54"/>
</g>
</g>
</svg>
