<svg width="1em" height="1em" viewBox="0 0 24 24" fill="none" xmlns="http://www.w3.org/2000/svg">
<g id="wb_cloudy_24px">
<g id="&#226;&#134;&#179; Light Color">
<path id="Mask" opacity="0.5" d="M18.4608 12.04L17.0016 11.93L16.7136 10.43C16.2144 7.86 14.0352 6 11.5296 6C9.55197 6 7.75677 7.14 6.84477 8.96L6.36477 9.91L5.33757 10.02C3.39837 10.24 1.92957 11.95 1.92957 14C1.92957 16.21 3.64797 18 5.76957 18H18.2496C19.8336 18 21.1296 16.65 21.1296 15C21.1296 13.45 19.9488 12.14 18.4608 12.04Z" fill="currentColor" fill-opacity="0.54"/>
</g>
<g id="&#226;&#134;&#179; Dark Color">
<path id="Mask_2" fill-rule="evenodd" clip-rule="evenodd" d="M11.5297 4C15.024 4 17.9232 6.59003 18.5857 10.04C21.0817 10.22 23.0497 12.36 23.0497 15C23.0497 17.76 20.8993 20 18.2496 20H5.76965C2.59204 20 0.00964355 17.31 0.00964355 14C0.00964355 10.91 2.2561 8.35999 5.13599 8.03998C6.33606 5.64001 8.74561 4 11.5297 4ZM5.76965 18H18.2496C19.8337 18 21.1296 16.65 21.1296 15C21.1296 13.45 19.9585 12.15 18.4609 12.04L17.0017 11.93L16.7137 10.43C16.2241 7.85999 14.0353 6 11.5297 6C9.55212 6 7.75684 7.14001 6.85449 8.96997L6.37451 9.91998L5.34729 10.03C3.39844 10.24 1.92969 11.95 1.92969 14C1.92969 16.21 3.64807 18 5.76965 18Z" fill="currentColor" fill-opacity="0.54"/>
</g>
</g>
</svg>
