<svg width="1em" height="1em" viewBox="0 0 24 24" fill="none" xmlns="http://www.w3.org/2000/svg">
<g id="wb_incandescent_24px">
<g id="&#226;&#134;&#179; Light Color">
<path id="Mask" opacity="0.5" d="M14 8.58999L13 8.00999V6.85999V4.04999H11V6.85999V8.00999L10 8.58999C8.76 9.30999 8 10.63 8 12.05C8 14.26 9.79 16.05 12 16.05C14.21 16.05 16 14.26 16 12.05C16 10.63 15.23 9.30999 14 8.58999Z" fill="currentColor" fill-opacity="0.54"/>
</g>
<g id="&#226;&#134;&#179; Dark Color">
<path id="Mask_2" d="M3.55005 19.09L4.96005 20.5L6.75005 18.7L5.34005 17.29L3.55005 19.09Z" fill="currentColor" fill-opacity="0.54"/>
</g>
<g id="&#226;&#134;&#179; Dark Color_2">
<path id="Mask_3" d="M11 20H13V23H11V20Z" fill="currentColor" fill-opacity="0.54"/>
</g>
<g id="&#226;&#134;&#179; Dark Color_3">
<path id="Mask_4" d="M1 11H4V13H1V11Z" fill="currentColor" fill-opacity="0.54"/>
</g>
<g id="&#226;&#134;&#179; Dark Color_4">
<path id="Mask_5" fill-rule="evenodd" clip-rule="evenodd" d="M15 2.04999V6.85999C16.79 7.89996 18 9.83002 18 12.05C18 15.36 15.3101 18.05 12 18.05C8.68994 18.05 6 15.36 6 12.05C6 9.83002 7.20996 7.89996 9 6.85999V2.04999H15ZM8 12.05C8 14.26 9.79004 16.05 12 16.05C14.21 16.05 16 14.26 16 12.05C16 10.63 15.24 9.31 14 8.58997L13 8.01001V6.85999V4.04999H11V6.85999V8.01001L10 8.58997C8.77002 9.31 8 10.63 8 12.05Z" fill="currentColor" fill-opacity="0.54"/>
</g>
<g id="&#226;&#134;&#179; Dark Color_5">
<path id="Mask_6" d="M20 11H23V13H20V11Z" fill="currentColor" fill-opacity="0.54"/>
</g>
<g id="&#226;&#134;&#179; Dark Color_6">
<path id="Mask_7" d="M17.24 18.71L19.03 20.51L20.44 19.1L18.64 17.31L17.24 18.71Z" fill="currentColor" fill-opacity="0.54"/>
</g>
</g>
</svg>
