<svg width="1em" height="1em" viewBox="0 0 24 24" fill="none" xmlns="http://www.w3.org/2000/svg">
<g id="wb_iridescent_24px">
<g id="&#226;&#134;&#179; Light Color">
<path id="Mask" opacity="0.5" d="M7 11H17V13H7V11Z" fill="currentColor" fill-opacity="0.54"/>
</g>
<g id="&#226;&#134;&#179; Dark Color">
<path id="Mask_2" fill-rule="evenodd" clip-rule="evenodd" d="M19 15H5V9H19V15ZM17 11H7V13H17V11Z" fill="currentColor" fill-opacity="0.54"/>
</g>
<g id="&#226;&#134;&#179; Dark Color_2">
<path id="Mask_3" d="M11 1H13V4H11V1Z" fill="currentColor" fill-opacity="0.54"/>
</g>
<g id="&#226;&#134;&#179; Dark Color_3">
<path id="Mask_4" d="M17.25 5.38998L18.66 6.79998L20.46 5.00998L19.04 3.59998L17.25 5.38998Z" fill="currentColor" fill-opacity="0.54"/>
</g>
<g id="&#226;&#134;&#179; Dark Color_4">
<path id="Mask_5" d="M11 20H13V23H11V20Z" fill="currentColor" fill-opacity="0.54"/>
</g>
<g id="&#226;&#134;&#179; Dark Color_5">
<path id="Mask_6" d="M17.24 18.71L19.03 20.51L20.45 19.09L18.65 17.3L17.24 18.71Z" fill="currentColor" fill-opacity="0.54"/>
</g>
<g id="&#226;&#134;&#179; Dark Color_6">
<path id="Mask_7" d="M5.34106 6.8053L3.5521 5.01633L4.95923 3.60921L6.74819 5.39817L5.34106 6.8053Z" fill="currentColor" fill-opacity="0.54"/>
</g>
<g id="&#226;&#134;&#179; Dark Color_7">
<path id="Mask_8" d="M3.55005 19.08L4.96005 20.5L6.75005 18.7L5.34005 17.29L3.55005 19.08Z" fill="currentColor" fill-opacity="0.54"/>
</g>
</g>
</svg>
