<svg width="1em" height="1em" viewBox="0 0 24 24" fill="none" xmlns="http://www.w3.org/2000/svg">
<g id="wb_sunny_24px">
<g id="&#226;&#134;&#179; Light Color">
<path id="Mask" opacity="0.5" d="M12 7.5C9.79 7.5 8 9.29 8 11.5C8 13.71 9.79 15.5 12 15.5C14.21 15.5 16 13.71 16 11.5C16 9.29 14.21 7.5 12 7.5Z" fill="currentColor" fill-opacity="0.54"/>
</g>
<g id="&#226;&#134;&#179; Dark Color">
<path id="Mask_2" d="M5.34005 6.24999L6.76005 4.83999L4.96005 3.04999L3.55005 4.45999L5.34005 6.24999Z" fill="currentColor" fill-opacity="0.54"/>
</g>
<g id="&#226;&#134;&#179; Dark Color_2">
<path id="Mask_3" d="M1 10.5H4V12.5H1V10.5Z" fill="currentColor" fill-opacity="0.54"/>
</g>
<g id="&#226;&#134;&#179; Dark Color_3">
<path id="Mask_4" d="M11 0.549988H13V3.49999H11V0.549988Z" fill="currentColor" fill-opacity="0.54"/>
</g>
<g id="&#226;&#134;&#179; Dark Color_4">
<path id="Mask_5" d="M18.6588 6.25549L17.2517 4.84836L19.0406 3.0594L20.4478 4.46653L18.6588 6.25549Z" fill="currentColor" fill-opacity="0.54"/>
</g>
<g id="&#226;&#134;&#179; Dark Color_5">
<path id="Mask_6" d="M17.24 18.16L19.03 19.96L20.44 18.55L18.64 16.76L17.24 18.16Z" fill="currentColor" fill-opacity="0.54"/>
</g>
<g id="&#226;&#134;&#179; Dark Color_6">
<path id="Mask_7" d="M20 10.5H23V12.5H20V10.5Z" fill="currentColor" fill-opacity="0.54"/>
</g>
<g id="&#226;&#134;&#179; Dark Color_7">
<path id="Mask_8" fill-rule="evenodd" clip-rule="evenodd" d="M6 11.5C6 8.19 8.68994 5.5 12 5.5C15.3101 5.5 18 8.19 18 11.5C18 14.81 15.3101 17.5 12 17.5C8.68994 17.5 6 14.81 6 11.5ZM8 11.5C8 13.71 9.79004 15.5 12 15.5C14.21 15.5 16 13.71 16 11.5C16 9.28998 14.21 7.5 12 7.5C9.79004 7.5 8 9.28998 8 11.5Z" fill="currentColor" fill-opacity="0.54"/>
</g>
<g id="&#226;&#134;&#179; Dark Color_8">
<path id="Mask_9" d="M11 19.5H13V22.45H11V19.5Z" fill="currentColor" fill-opacity="0.54"/>
</g>
<g id="&#226;&#134;&#179; Dark Color_9">
<path id="Mask_10" d="M3.55005 18.54L4.96005 19.95L6.75005 18.15L5.34005 16.74L3.55005 18.54Z" fill="currentColor" fill-opacity="0.54"/>
</g>
</g>
</svg>
