<svg width="1em" height="1em" viewBox="0 0 24 24" fill="none" xmlns="http://www.w3.org/2000/svg">
<g id="where_to_vote_24px">
<g id="&#226;&#134;&#179; Light Color">
<path id="Mask" opacity="0.5" fill-rule="evenodd" clip-rule="evenodd" d="M6 9C6 5.69 8.69 3 12 3C15.31 3 18 5.69 18 9C18 12.84 13.75 18.36 12 20.47C9.82 17.86 6 12.54 6 9ZM7.29 10.82L10.47 14L16.49 7.98L15.08 6.57L10.48 11.17L8.71 9.4L7.29 10.82Z" fill="currentColor" fill-opacity="0.54"/>
</g>
<g id="&#226;&#134;&#179; Dark Color">
<path id="Mask_2" fill-rule="evenodd" clip-rule="evenodd" d="M4 9C4 4.59 7.59 1 12 1C16.41 1 20 4.59 20 9C20 14.57 13.04 22.34 12.74 22.67L12 23.49L11.26 22.67C10.96 22.34 4 14.57 4 9ZM6 9C6 12.54 9.82 17.86 12 20.47C13.75 18.36 18 12.83 18 9C18 5.69 15.31 3 12 3C8.69 3 6 5.69 6 9Z" fill="currentColor" fill-opacity="0.54"/>
</g>
<g id="&#226;&#134;&#179; Dark Color_2">
<path id="Mask_3" d="M15.07 6.57L10.47 11.17L8.71 9.4L7.29 10.82L10.47 14L16.48 7.99L15.07 6.57Z" fill="currentColor" fill-opacity="0.54"/>
</g>
</g>
</svg>
