<svg width="1em" height="1em" viewBox="0 0 24 24" fill="none" xmlns="http://www.w3.org/2000/svg">
<g id="work_24px">
<g id="&#226;&#134;&#179; Light Color">
<path id="Mask" opacity="0.5" d="M4 8H20V19H4V8Z" fill="currentColor" fill-opacity="0.54"/>
</g>
<g id="&#226;&#134;&#179; Dark Color">
<path id="Mask_2" fill-rule="evenodd" clip-rule="evenodd" d="M20 6H16V4C16 2.89001 15.11 2 14 2H10C8.89001 2 8 2.89001 8 4V6H4C2.89001 6 2.01001 6.89001 2.01001 8L2 19C2 20.11 2.89001 21 4 21H20C21.11 21 22 20.11 22 19V8C22 6.89001 21.11 6 20 6ZM10 4H14V6H10V4ZM4 19H20V8H4V19Z" fill="currentColor" fill-opacity="0.54"/>
</g>
</g>
</svg>
