<svg width="1em" height="1em" viewBox="0 0 24 24" fill="none" xmlns="http://www.w3.org/2000/svg">
<g id="work_off_24px">
<g id="&#226;&#134;&#179; Light Color">
<path id="Mask" opacity="0.5" d="M4 8V19H17.74L6.74 8H4Z" fill="currentColor" fill-opacity="0.54"/>
</g>
<g id="&#226;&#134;&#179; Light Color_2">
<path id="Mask_2" opacity="0.5" d="M12.4 8L20 15.6V8H12.4Z" fill="currentColor" fill-opacity="0.54"/>
</g>
<g id="&#226;&#134;&#179; Dark Color">
<path id="Mask_3" d="M9.99998 4H14V6H10.4L12.4 8H20V15.6L22 17.6V8C22 6.89 21.11 6 20 6H16V4C16 2.89 15.11 2 14 2H9.99998C9.00998 2 8.19998 2.7 8.03998 3.64L9.99998 5.6V4Z" fill="currentColor" fill-opacity="0.54"/>
</g>
<g id="&#226;&#134;&#179; Dark Color_2">
<path id="Mask_4" fill-rule="evenodd" clip-rule="evenodd" d="M1.98999 3.25L3.39996 1.84003L23.15 21.59L21.74 23L19.74 21H4C2.89001 21 2 20.11 2 19L2.01001 8C2.01001 6.89001 2.89001 6 4 6H4.73999L1.98999 3.25ZM4 8V19H17.74L6.73999 8H4Z" fill="currentColor" fill-opacity="0.54"/>
</g>
</g>
</svg>
