<svg width="1em" height="1em" viewBox="0 0 24 24" fill="none" xmlns="http://www.w3.org/2000/svg">
<g id="zoom_out_24px">
<g id="&#226;&#134;&#179; Dark Color">
<path id="Mask" fill-rule="evenodd" clip-rule="evenodd" d="M14.71 14H15.5L20.49 19L19 20.49L14 15.5V14.71L13.73 14.4301C12.59 15.41 11.11 16 9.5 16C5.91003 16 3 13.09 3 9.5C3 5.91003 5.91003 3 9.5 3C13.09 3 16 5.91003 16 9.5C16 11.11 15.41 12.59 14.4301 13.73L14.71 14ZM5 9.5C5 11.99 7.01001 14 9.5 14C11.99 14 14 11.99 14 9.5C14 7.01001 11.99 5 9.5 5C7.01001 5 5 7.01001 5 9.5Z" fill="currentColor" fill-opacity="0.54"/>
</g>
<g id="&#226;&#134;&#179; Dark Color_2">
<path id="Mask_2" d="M7 9H12V10H7V9Z" fill="currentColor" fill-opacity="0.54"/>
</g>
</g>
</svg>
