<svg width="1em" height="1em" viewBox="0 0 24 24" fill="none" xmlns="http://www.w3.org/2000/svg">
<path d="M2.1711 7.6785C2.29215 5.81694 3.72849 4.33555 5.58971 4.20941C7.21433 4.09931 9.40027 4 12 4C14.5997 4 16.7857 4.09931 18.4103 4.20941C20.2715 4.33555 21.7079 5.81694 21.8289 7.6785C21.9193 9.06851 22 10.6796 22 12C22 13.3204 21.9193 14.9315 21.8289 16.3215C21.7079 18.1831 20.2715 19.6645 18.4103 19.7906C16.7857 19.9007 14.5997 20 12 20C9.40027 20 7.21433 19.9007 5.58971 19.7906C3.72849 19.6645 2.29215 18.1831 2.1711 16.3215C2.08072 14.9315 2 13.3204 2 12C2 10.6796 2.08072 9.06851 2.1711 7.6785Z" />
<path d="M8.64912 14.468C11.2564 15.4855 13.4751 15.6837 15.9895 14.0999C15.971 14.1276 15.4737 14.8644 14.1658 15.242C14.4421 15.6197 14.8197 16.0526 14.8197 16.0526C15.6579 16.0526 16.4776 15.8131 17.1868 15.3526C17.7395 14.9841 18.0526 14.3486 17.9881 13.6855C17.8776 12.5526 17.6105 11.4473 17.196 10.3881C16.671 9.00653 15.4092 8.04863 13.9447 7.91046C13.8158 7.90124 13.7237 7.90124 13.6684 7.90124L13.5211 8.0486C15.2066 8.52755 16.0447 9.2736 16.0631 9.30124C13.475 7.99334 10.4171 7.97493 7.81046 9.24598C7.81046 9.24598 8.63942 8.42624 10.4723 7.99334L10.3618 7.88281C10.1684 7.88281 9.98413 7.90124 9.79072 7.92886C8.43677 8.15912 7.30389 9.08938 6.81572 10.3696C6.39203 11.4749 6.11573 12.6354 6.01442 13.8144C5.95915 14.4407 6.25389 15.0578 6.76968 15.417C7.45125 15.8683 8.26177 16.1078 9.08151 16.1078C9.08151 16.1078 9.41308 15.6749 9.74468 15.2881C8.50125 14.9196 7.99468 14.1828 7.98546 14.1552L8.21947 14.2747C8.35936 14.3461 8.50278 14.4109 8.64912 14.468ZM10.0947 13.667C9.49599 13.6486 9.02625 13.142 9.04468 12.5341C9.06311 11.9631 9.52363 11.5026 10.0947 11.4841C10.6934 11.5026 11.1631 12.0091 11.1447 12.617C11.1171 13.1881 10.6658 13.6486 10.0947 13.667ZM13.8526 13.667C13.2539 13.6486 12.7842 13.142 12.8026 12.5341C12.821 11.9631 13.2815 11.5026 13.8526 11.4841C14.4513 11.5026 14.921 12.0091 14.9026 12.617C14.8842 13.1881 14.4236 13.6486 13.8526 13.667Z" fill="var(--nextui-colors-secondary)" />
</svg>
