<svg width="1em" height="1em" viewBox="0 0 24 24" fill="none" xmlns="http://www.w3.org/2000/svg">
<path d="M9.43296 13.8521L4.49571 12.5652C2.61618 12.0753 2.46771 9.46394 4.2796 8.76416L18.9282 3.10671C20.1587 2.63147 21.369 3.84175 20.8937 5.07225L15.2363 19.7208C14.5365 21.5327 11.9251 21.3842 11.4353 19.5047L10.1484 14.5675C10.0571 14.2171 9.7834 13.9434 9.43296 13.8521Z" fill="var(--nextui-colors-secondary)" />
<path fill-rule="evenodd" clip-rule="evenodd" d="M9.88672 14.1125L20.5495 3.44971C20.9465 3.84669 21.1302 4.45687 20.8926 5.07211L15.2352 19.7207C14.5354 21.5326 11.924 21.3841 11.4341 19.5046L10.1473 14.5674C10.1016 14.3922 10.0104 14.2361 9.88672 14.1125Z" />
</svg>
