<svg xmlns="http://www.w3.org/2000/svg" width="169" height="40" fill="none" style="user-select: none; clip-path: inset(0.6px);"><path fill="#89B8FF" d="m7 20 9-14 9 14-9 14-9-14Z"></path><path fill="#2E5FDC" d="M16 34V20H9l7 14Z"></path><path fill="#1D2DC6" d="M16 34V20h7l-7 14Z"></path><path fill="#4576F3" d="M16 20V6L9 20h7Z"></path><path fill="#3346F6" d="M16 20V6l7 14h-7Z"></path><path fill="#4486EB" d="M16 34 4 20h6l6 14Z"></path><path fill="#89B8FF" d="M4 20 16 6l-6 14H4Z"></path><path fill="#0F1D9D" d="M28 20 16 34l6-14h6Z"></path><path fill="#213DD1" d="m16 6 12 14h-6L16 6Z"></path><path fill="#fff" d="M42.838 27.782V14.247H37.5V11.1h14.536v3.146h-5.338v13.535h-3.86Zm15.81.19c-1.366 0-2.581-.285-3.646-.857a6.677 6.677 0 0 1-2.502-2.336c-.603-1-.905-2.136-.905-3.407 0-1.287.302-2.423.905-3.408.62-1 1.454-1.78 2.502-2.335 1.065-.572 2.28-.858 3.646-.858 1.35 0 2.558.286 3.622.858 1.065.556 1.899 1.326 2.503 2.311.603.985.905 2.129.905 3.432 0 1.27-.302 2.407-.905 3.407-.604.985-1.438 1.764-2.502 2.336-1.065.572-2.272.858-3.623.858Zm0-3.05a3.26 3.26 0 0 0 1.668-.429 3.073 3.073 0 0 0 1.168-1.215c.286-.54.429-1.176.429-1.906 0-.747-.143-1.383-.429-1.907a3.072 3.072 0 0 0-1.168-1.215 3.26 3.26 0 0 0-1.668-.429 3.26 3.26 0 0 0-1.668.429c-.492.286-.89.691-1.191 1.215-.286.524-.43 1.16-.43 1.907 0 .73.144 1.366.43 1.906.302.524.699.93 1.191 1.215a3.261 3.261 0 0 0 1.668.43Zm17.307-10.151c1.017 0 1.923.206 2.717.62.81.396 1.446 1.016 1.906 1.858.461.826.691 1.89.691 3.193v7.34h-3.717v-6.768c0-1.032-.23-1.795-.691-2.287-.445-.493-1.08-.74-1.907-.74a3.34 3.34 0 0 0-1.596.382c-.46.238-.826.612-1.096 1.12-.254.508-.382 1.16-.382 1.954v6.339h-3.717v-12.82h3.55v3.55l-.667-1.072a4.749 4.749 0 0 1 1.978-1.978c.858-.46 1.835-.691 2.931-.691Zm11.93 13.01L82.5 14.962h3.837l4.48 11.034H88.91l4.647-11.034h3.574l-5.409 12.82h-3.837Zm10.763 0v-12.82h3.718v12.82h-3.718Zm1.859-14.607c-.683 0-1.24-.198-1.668-.595a1.932 1.932 0 0 1-.644-1.478c0-.588.215-1.08.644-1.477.429-.398.985-.596 1.668-.596.683 0 1.239.19 1.668.572.429.365.644.842.644 1.43 0 .62-.215 1.135-.644 1.549-.413.397-.969.595-1.668.595Zm11.672 14.799c-1.462 0-2.749-.286-3.861-.858-1.096-.572-1.946-1.35-2.55-2.336-.603-1-.905-2.136-.905-3.407 0-1.287.294-2.423.881-3.408a6.31 6.31 0 0 1 2.455-2.335c1.032-.572 2.2-.858 3.503-.858 1.255 0 2.383.27 3.384.81a5.86 5.86 0 0 1 2.407 2.288c.587.985.881 2.168.881 3.55 0 .143-.008.31-.024.5-.016.175-.031.342-.047.501h-10.414v-2.168h8.46l-1.43.643c0-.667-.135-1.247-.405-1.74a2.878 2.878 0 0 0-1.12-1.143c-.477-.286-1.033-.43-1.668-.43-.636 0-1.2.144-1.692.43-.477.27-.85.659-1.12 1.167-.27.493-.405 1.08-.405 1.764v.572c0 .699.151 1.318.452 1.858.318.525.755.93 1.311 1.216.572.27 1.239.405 2.002.405.683 0 1.279-.104 1.787-.31a4.35 4.35 0 0 0 1.43-.93l1.978 2.145c-.588.668-1.327 1.184-2.216 1.55-.89.349-1.915.523-3.074.523Zm11.368-.191-4.623-12.82h3.503l3.837 11.033h-1.669l4.004-11.034h3.145l3.885 11.034h-1.668l3.955-11.034h3.289l-4.647 12.82h-3.598l-3.408-9.46h1.096l-3.527 9.46h-3.574Zm25.4.19c-1.462 0-2.749-.285-3.86-.857-1.096-.572-1.946-1.35-2.55-2.336-.604-1-.906-2.136-.906-3.407 0-1.287.295-2.423.882-3.408a6.31 6.31 0 0 1 2.455-2.335c1.033-.572 2.2-.858 3.503-.858 1.254 0 2.383.27 3.383.81a5.848 5.848 0 0 1 2.407 2.288c.588.985.882 2.168.882 3.55 0 .143-.008.31-.024.5-.015.175-.032.342-.048.501h-10.413v-2.168h8.459l-1.429.643c0-.667-.135-1.247-.406-1.74a2.871 2.871 0 0 0-1.12-1.143c-.476-.286-1.033-.43-1.668-.43s-1.199.144-1.692.43c-.476.27-.849.659-1.12 1.167-.27.493-.405 1.08-.405 1.764v.572c0 .699.152 1.318.453 1.858.318.525.754.93 1.311 1.216.572.27 1.239.405 2.001.405.683 0 1.279-.104 1.788-.31a4.336 4.336 0 0 0 1.429-.93l1.978 2.145c-.587.668-1.326 1.184-2.216 1.55-.89.349-1.915.523-3.074.523Zm8.671-.19v-12.82h3.55v3.622l-.5-1.049c.381-.905.992-1.588 1.835-2.05.842-.476 1.867-.714 3.074-.714v3.431a4.383 4.383 0 0 0-.429-.024 3.275 3.275 0 0 0-.405-.023c-1.017 0-1.844.294-2.479.881-.619.572-.929 1.47-.929 2.693v6.053h-3.717Z"></path></svg>