<svg width="1em" height="1em" viewBox="0 0 24 24" fill="none" xmlns="http://www.w3.org/2000/svg">
<path d="M19.9999 8.00175V8L21.875 5.97672C22.1806 5.64695 21.9057 5.11563 21.46 5.17458L19.1108 5.48528C18.3775 4.57926 17.2563 4 15.9999 4C13.7908 4 11.9999 5.79086 11.9999 8C11.9999 8.52744 12.102 9.03104 12.2875 9.49212C12.8941 11 11.5565 13.5 8.99973 16C7.86444 17.11 4.94607 17.4114 2.55785 17.1927C2.09312 17.1502 1.80137 17.6796 2.16075 17.9773C4.16328 19.6361 6.94066 20 9.49981 20C15.9991 20 20.4989 14.501 19.9999 8.00175Z" />
<path d="M9.00078 15.9998C4.44985 14.6345 2.38424 9.54129 3.55797 5.62128C3.68574 5.19454 4.26118 5.21755 4.46158 5.61538C6.20952 9.08539 9.77021 9.49982 12.5015 9.49982C18.5015 9.49982 17.0015 18.4 9.00078 15.9998Z" fill="var(--nextui-colors-secondary)" />
</svg>
